G04 #@! TF.GenerationSoftware,KiCad,Pcbnew,(5.0.0-rc2-dev-640-gbf135b0)*
G04 #@! TF.CreationDate,2018-05-13T18:52:19-05:00*
G04 #@! TF.ProjectId,WiFi-Septic-Controller,576946692D5365707469632D436F6E74,rev?*
G04 #@! TF.SameCoordinates,Original*
G04 #@! TF.FileFunction,Soldermask,Top*
G04 #@! TF.FilePolarity,Negative*
%FSLAX46Y46*%
G04 Gerber Fmt 4.6, Leading zero omitted, Abs format (unit mm)*
G04 Created by KiCad (PCBNEW (5.0.0-rc2-dev-640-gbf135b0)) date Sunday, May 13, 2018 at 06:52:19 PM*
%MOMM*%
%LPD*%
G01*
G04 APERTURE LIST*
%ADD10R,1.000000X1.000000*%
%ADD11R,1.524000X1.524000*%
%ADD12C,5.000000*%
%ADD13C,1.524000*%
%ADD14R,1.300000X1.550000*%
%ADD15C,1.260000*%
%ADD16C,7.620000*%
%ADD17C,0.500000*%
%ADD18R,4.000000X2.500000*%
%ADD19R,1.500000X2.000000*%
%ADD20C,1.850000*%
%ADD21C,0.840000*%
%ADD22R,0.840000X0.840000*%
%ADD23R,0.740000X2.400000*%
%ADD24R,1.700000X0.900000*%
%ADD25C,2.540000*%
%ADD26R,1.780000X2.000000*%
%ADD27R,2.400000X2.400000*%
%ADD28C,2.400000*%
%ADD29C,1.778000*%
%ADD30R,1.778000X1.778000*%
%ADD31R,0.800000X0.800000*%
%ADD32R,0.900000X1.700000*%
%ADD33C,2.800000*%
G04 APERTURE END LIST*
D10*
X51500000Y-50292000D03*
X51500000Y-39000000D03*
D11*
X38000000Y-32500000D03*
D12*
X32500000Y-32500000D03*
X107500000Y-32500000D03*
X32500000Y-63500000D03*
X107500000Y-63500000D03*
D13*
X40540000Y-32500000D03*
X43080000Y-32500000D03*
X45620000Y-32500000D03*
X48160000Y-32500000D03*
X50700000Y-32500000D03*
X53240000Y-32500000D03*
X55780000Y-32500000D03*
X58320000Y-32500000D03*
X60860000Y-32500000D03*
X63400000Y-32500000D03*
X65940000Y-32500000D03*
X68480000Y-32500000D03*
X71020000Y-32500000D03*
X73560000Y-32500000D03*
X76100000Y-32500000D03*
X78640000Y-32500000D03*
X81180000Y-32500000D03*
D14*
X83475000Y-85895000D03*
X87975000Y-85895000D03*
X87975000Y-77935000D03*
X83475000Y-77935000D03*
D15*
X88225000Y-69580000D03*
X85685000Y-72120000D03*
X83145000Y-69580000D03*
D16*
X93000000Y-64000000D03*
X54000000Y-64000000D03*
X106000000Y-112000000D03*
X54000000Y-112000000D03*
D17*
X94350000Y-48735000D03*
X94350000Y-49935000D03*
X94350000Y-47535000D03*
X95550000Y-49935000D03*
X95550000Y-48735000D03*
X95550000Y-47535000D03*
X93150000Y-49935000D03*
X93150000Y-48735000D03*
X93150000Y-47535000D03*
D18*
X32620357Y-53899169D03*
X40620357Y-53899169D03*
X40620357Y-41399169D03*
X32620357Y-41399169D03*
D19*
X43550000Y-69870000D03*
X38450000Y-69870000D03*
X38450000Y-61130000D03*
X43550000Y-61130000D03*
D20*
X70375000Y-70280000D03*
X77525000Y-70280000D03*
D21*
X72650000Y-70500000D03*
X73300000Y-69500000D03*
X73950000Y-70500000D03*
X74600000Y-69500000D03*
D22*
X75250000Y-70500000D03*
D23*
X56460000Y-40950000D03*
X56460000Y-37050000D03*
X57730000Y-40950000D03*
X57730000Y-37050000D03*
X59000000Y-40950000D03*
X59000000Y-37050000D03*
X60270000Y-40950000D03*
X60270000Y-37050000D03*
X61540000Y-40950000D03*
X61540000Y-37050000D03*
D24*
X66000000Y-69700000D03*
X66000000Y-66300000D03*
D25*
X59700000Y-98160000D03*
X59700000Y-93080000D03*
X59700000Y-82920000D03*
X59700000Y-77840000D03*
X34300000Y-98160000D03*
X34300000Y-93080000D03*
X34300000Y-82920000D03*
X34300000Y-77840000D03*
D26*
X96940000Y-103515000D03*
X104560000Y-93985000D03*
X99480000Y-103515000D03*
X102020000Y-93985000D03*
X102020000Y-103515000D03*
X99480000Y-93985000D03*
X104560000Y-103515000D03*
X96940000Y-93985000D03*
X85190000Y-93985000D03*
X92810000Y-103515000D03*
X87730000Y-93985000D03*
X90270000Y-103515000D03*
X90270000Y-93985000D03*
X87730000Y-103515000D03*
X92810000Y-93985000D03*
X85190000Y-103515000D03*
D27*
X84482800Y-111500000D03*
D28*
X91482800Y-111500000D03*
X87982800Y-111500000D03*
X100000000Y-68500000D03*
X100000000Y-72000000D03*
X100000000Y-75500000D03*
X100000000Y-79000000D03*
D27*
X100000000Y-86000000D03*
D28*
X100000000Y-82500000D03*
D29*
X70000000Y-102890000D03*
X70000000Y-97810000D03*
X70000000Y-87650000D03*
D30*
X70000000Y-85110000D03*
X75500000Y-85110000D03*
D29*
X75500000Y-87650000D03*
X75500000Y-97810000D03*
X75500000Y-102890000D03*
D27*
X70000000Y-109500000D03*
D28*
X73500000Y-109500000D03*
D31*
X70904000Y-76454000D03*
X69304000Y-76454000D03*
X69304000Y-73914000D03*
X70904000Y-73914000D03*
X69304000Y-81534000D03*
X70904000Y-81534000D03*
D27*
X94500000Y-37750000D03*
D28*
X87500000Y-37750000D03*
X91000000Y-37750000D03*
D32*
X99050000Y-64750000D03*
X101950000Y-64750000D03*
X88080000Y-106470000D03*
X85180000Y-106470000D03*
X96930000Y-106470000D03*
X94030000Y-106470000D03*
X96000000Y-86000000D03*
X93100000Y-86000000D03*
X93100000Y-79000000D03*
X96000000Y-79000000D03*
X93100000Y-72000000D03*
X96000000Y-72000000D03*
D27*
X37000000Y-112000000D03*
D28*
X40500000Y-112000000D03*
D31*
X69304000Y-78994000D03*
X70904000Y-78994000D03*
D33*
X107315000Y-91440000D03*
M02*
