M48
;DRILL file {KiCad (5.0.0-rc2-dev-640-gbf135b0)} date Sunday, May 13, 2018 at 06:52:21 PM
;FORMAT={-:-/ absolute / inch / decimal}
FMAT,2
INCH,TZ
T1C0.0100
T2C0.0118
T3C0.0130
T4C0.0150
T5C0.0173
T6C0.0276
T7C0.0350
T8C0.0400
T9C0.0450
T10C0.0472
T11C0.0500
T12C0.0531
T13C0.0630
T14C0.1460
T15C0.0197
T16C0.1250
T17C0.1460
%
G90
G05
M72
T1
X1.8915Y-1.375
X2.0079Y-2.0866
X2.0079Y-2.1063
X2.0079Y-2.126
X2.0276Y-2.0866
X2.0276Y-2.1063
X2.0276Y-2.126
X2.0472Y-2.0866
X2.0472Y-2.1063
X2.0472Y-2.126
X2.0669Y-2.0866
X2.0669Y-2.1063
X2.0669Y-2.126
X2.0725Y-1.356
X2.2228Y-1.3976
X2.2228Y-1.76
X2.2228Y-1.995
X2.3228Y-1.3976
X2.3728Y-1.3976
X2.3728Y-1.7
X2.4228Y-1.7
X2.5Y-1.378
X2.5295Y-1.7972
X2.55Y-2.27
X2.56Y-1.94
X2.58Y-2.1
X2.58Y-2.14
X2.58Y-2.3
X2.5984Y-1.378
X2.5984Y-2.0705
X2.5984Y-2.6772
X2.7Y-2.91
X2.7Y-3.01
X2.7461Y-1.6339
X2.7461Y-2.4409
X2.7854Y-2.1654
X2.8Y-1.63
X2.815Y-1.655
X2.82Y-3.11
X2.82Y-3.21
X2.82Y-3.25
X2.8642Y-2.1654
X2.9169Y-1.6269
X2.93Y-1.885
X2.93Y-1.99
X2.945Y-1.635
X2.95Y-2.1
X2.965Y-1.9
X2.975Y-1.9276
X2.985Y-1.955
X2.9921Y-1.8307
X2.995Y-1.98
X3.0295Y-1.475
X3.03Y-1.555
X3.03Y-3.1631
X3.1017Y-3.1631
X3.124Y-2.65
X3.125Y-2.14
X3.1398Y-2.9626
X3.145Y-1.55
X3.15Y-1.675
X3.15Y-1.925
X3.15Y-2.025
X3.15Y-2.595
X3.15Y-2.65
X3.165Y-2.465
X3.17Y-1.47
X3.175Y-2.51
X3.176Y-2.65
X3.1828Y-2.5554
X3.1921Y-2.5312
X3.1988Y-2.4902
X3.2087Y-3.4508
X3.215Y-2.25
X3.2186Y-2.6082
X3.2382Y-3.3817
X3.241Y-2.25
X3.255Y-1.575
X3.2579Y-2.9626
X3.2864Y-3.1102
X3.3Y-1.575
X3.305Y-1.47
X3.375Y-3.2854
X3.425Y-2.895
X3.425Y-2.93
X3.435Y-3.248
X3.5039Y-3.0098
X3.5433Y-3.0413
X3.5591Y-2.9035
X3.58Y-1.915
X3.58Y-2.0274
X3.5925Y-3.0906
X3.6526Y-2.1
X3.665Y-1.675
X3.6926Y-2.1
X3.7326Y-2.1
X3.7726Y-2.1
X3.8526Y-2.1
X3.9326Y-2.1
X1.8406Y-2.1634
X1.8406Y-2.2067
X1.8406Y-1.7402
X1.8406Y-1.7835
T2
X3.6673Y-1.8715
X3.6673Y-1.9187
X3.6673Y-1.9659
X3.7146Y-1.8715
X3.7146Y-1.9187
X3.7146Y-1.9659
X3.7618Y-1.8715
X3.7618Y-1.9187
X3.7618Y-1.9659
T3
X1.7126Y-1.6732
X1.7126Y-2.0965
X1.7933Y-1.6732
X1.7933Y-2.0965
X1.8563Y-1.8406
X1.8563Y-2.2638
X1.9213Y-1.6969
X1.9213Y-2.1201
X2.3303Y-2.5197
X2.4035Y-2.5197
X2.4697Y-2.5197
X2.4697Y-2.628
X2.6083Y-2.5098
X3.3539Y-3.6319
X3.56Y-3.56
X3.6539Y-3.6319
X3.79Y-3.56
X3.8165Y-3.6319
X4.08Y-3.61
T4
X3.3563Y-1.9685
X3.4003Y-2.1148
X3.5531Y-2.7854
X3.5959Y-3.4754
X3.9469Y-1.2517
X3.9567Y-2.5492
X3.9726Y-2.2476
T5
X2.8602Y-2.7756
X2.8858Y-2.7362
X2.9114Y-2.7756
X2.937Y-2.7362
X2.9626Y-2.7756
T6
X3.2734Y-2.7394
X3.3734Y-2.8394
X3.4734Y-2.7394
T7
X1.2795Y-1.8406
X1.2795Y-1.8898
X1.2795Y-1.939
X1.3287Y-1.8406
X1.3287Y-1.8898
X1.3287Y-1.939
X1.4567Y-1.8406
X1.4567Y-1.8898
X1.4567Y-1.939
X1.5059Y-1.8406
X1.5059Y-1.8898
X1.5059Y-1.939
X1.5961Y-1.5354
X2.805Y-2.36
X3.115Y-2.36
X3.5827Y-4.1634
X3.9961Y-4.1634
T8
X1.4961Y-1.2795
X1.5961Y-1.2795
X1.6961Y-1.2795
X1.7961Y-1.2795
X1.8961Y-1.2795
X1.9961Y-1.2795
X2.0961Y-1.2795
X2.1961Y-1.2795
X2.2961Y-1.2795
X2.3961Y-1.2795
X2.4961Y-1.2795
X2.5961Y-1.2795
X2.6961Y-1.2795
X2.7961Y-1.2795
X2.8961Y-1.2795
X2.9961Y-1.2795
X3.0961Y-1.2795
X3.1961Y-1.2795
T9
X2.9724Y-3.3508
X2.9724Y-3.4508
X2.9724Y-3.8508
X2.9724Y-4.0508
X2.7559Y-3.3508
X2.7559Y-3.4508
X2.7559Y-3.8508
X2.7559Y-4.0508
T10
X3.3261Y-4.3898
X3.4639Y-4.3898
X3.6017Y-4.3898
X1.4567Y-4.4094
X1.5945Y-4.4094
X3.4449Y-1.4862
X3.5827Y-1.4862
X3.7205Y-1.4862
X2.7559Y-4.311
X2.8937Y-4.311
X3.937Y-2.6969
X3.937Y-2.8346
X3.937Y-2.9724
X3.937Y-3.1102
X3.937Y-3.248
X3.937Y-3.3858
T11
X1.3504Y-3.0646
X1.3504Y-3.2646
X1.3504Y-3.6646
X1.3504Y-3.8646
X2.3504Y-3.0646
X2.3504Y-3.2646
X2.3504Y-3.6646
X2.3504Y-3.8646
T12
X2.7707Y-2.7669
X3.0522Y-2.7669
T13
X4.225Y-3.6
T14
X3.6614Y-2.5197
T15
X2.0276Y-1.5354
X2.0276Y-1.98
T16
X1.2795Y-1.2795
X1.2795Y-2.5
X4.2323Y-1.2795
X4.2323Y-2.5
T17
X2.126Y-4.4094
X4.1732Y-4.4094
X2.126Y-2.5197
T0
M30
