G04 #@! TF.GenerationSoftware,KiCad,Pcbnew,(5.1.2-1)-1*
G04 #@! TF.CreationDate,2019-05-05T13:33:14-05:00*
G04 #@! TF.ProjectId,WiFi-Septic-Controller,57694669-2d53-4657-9074-69632d436f6e,rev?*
G04 #@! TF.SameCoordinates,Original*
G04 #@! TF.FileFunction,Profile,NP*
%FSLAX46Y46*%
G04 Gerber Fmt 4.6, Leading zero omitted, Abs format (unit mm)*
G04 Created by KiCad (PCBNEW (5.1.2-1)-1) date 2019-05-05 13:33:14*
%MOMM*%
%LPD*%
G04 APERTURE LIST*
%ADD10C,0.101600*%
%ADD11C,0.100000*%
G04 APERTURE END LIST*
D10*
X96774000Y-97409000D02*
X105410000Y-97409000D01*
X96774000Y-99949000D02*
X105410000Y-99949000D01*
X96774000Y-97409000D02*
G75*
G03X95504000Y-98679000I0J-1270000D01*
G01*
X95504000Y-98679000D02*
G75*
G03X96774000Y-99949000I1270000J0D01*
G01*
X92837000Y-99949000D02*
G75*
G03X94107000Y-98679000I0J1270000D01*
G01*
X94107000Y-98679000D02*
G75*
G03X92837000Y-97409000I-1270000J0D01*
G01*
X77470000Y-90805000D02*
X74930000Y-90805000D01*
X77470000Y-93345000D02*
X74930000Y-93345000D01*
X70485000Y-93345000D02*
G75*
G03X71755000Y-92075000I0J1270000D01*
G01*
X73660000Y-92075000D02*
G75*
G03X74930000Y-93345000I1270000J0D01*
G01*
X74930000Y-90805000D02*
G75*
G03X73660000Y-92075000I0J-1270000D01*
G01*
X71755000Y-92075000D02*
G75*
G03X70485000Y-90805000I-1270000J0D01*
G01*
X82550000Y-99949000D02*
X92837000Y-99949000D01*
X82550000Y-97409000D02*
X92837000Y-97409000D01*
X105410000Y-99949000D02*
G75*
G03X106680000Y-98679000I0J1270000D01*
G01*
X106680000Y-98679000D02*
G75*
G03X105410000Y-97409000I-1270000J0D01*
G01*
X78740000Y-96139000D02*
X78740000Y-94615000D01*
X81280000Y-94615000D02*
X81280000Y-96139000D01*
X78740000Y-96139000D02*
G75*
G03X82550000Y-99949000I3810000J0D01*
G01*
X81280000Y-94615000D02*
G75*
G03X77470000Y-90805000I-3810000J0D01*
G01*
X54610000Y-71755000D02*
X62230000Y-71755000D01*
X62230000Y-74295000D02*
X54610000Y-74295000D01*
X62230000Y-74295000D02*
G75*
G02X63500000Y-75565000I0J-1270000D01*
G01*
X54610000Y-74295000D02*
G75*
G02X53340000Y-73025000I0J1270000D01*
G01*
X66040000Y-75565000D02*
X66040000Y-89535000D01*
X63500000Y-89535000D02*
X63500000Y-75565000D01*
X70485000Y-93345000D02*
X67310000Y-93345000D01*
X67310000Y-90805000D02*
X70485000Y-90805000D01*
X66040000Y-89535000D02*
G75*
G03X67310000Y-90805000I1270000J0D01*
G01*
X78740000Y-94615000D02*
G75*
G03X77470000Y-93345000I-1270000J0D01*
G01*
X81280000Y-96139000D02*
G75*
G03X82550000Y-97409000I1270000J0D01*
G01*
X63500000Y-89535000D02*
G75*
G03X67310000Y-93345000I3810000J0D01*
G01*
X53340000Y-73025000D02*
G75*
G02X54610000Y-71755000I1270000J0D01*
G01*
X62230000Y-71755000D02*
G75*
G02X66040000Y-75565000I0J-3810000D01*
G01*
X110000000Y-117500000D02*
G75*
G02X107500000Y-120000000I-2500000J0D01*
G01*
X30000000Y-32500000D02*
G75*
G02X32500000Y-30000000I2500000J0D01*
G01*
X107500000Y-30000000D02*
G75*
G02X110000000Y-32500000I0J-2500000D01*
G01*
X32000000Y-120000000D02*
G75*
G02X30000000Y-118000000I0J2000000D01*
G01*
D11*
X32000000Y-120000000D02*
X107500000Y-120000000D01*
X32500000Y-30000000D02*
X107500000Y-30000000D01*
X30000000Y-32500000D02*
X30000000Y-118000000D01*
X110000000Y-32500000D02*
X110000000Y-117500000D01*
M02*
