G04 #@! TF.GenerationSoftware,KiCad,Pcbnew,(5.0.0-rc2-dev-640-gbf135b0)*
G04 #@! TF.CreationDate,2018-05-13T18:52:19-05:00*
G04 #@! TF.ProjectId,WiFi-Septic-Controller,576946692D5365707469632D436F6E74,rev?*
G04 #@! TF.SameCoordinates,Original*
G04 #@! TF.FileFunction,Copper,L1,Top,Signal*
G04 #@! TF.FilePolarity,Positive*
%FSLAX46Y46*%
G04 Gerber Fmt 4.6, Leading zero omitted, Abs format (unit mm)*
G04 Created by KiCad (PCBNEW (5.0.0-rc2-dev-640-gbf135b0)) date Sunday, May 13, 2018 at 06:52:19 PM*
%MOMM*%
%LPD*%
G01*
G04 APERTURE LIST*
%ADD10R,1.000000X1.000000*%
%ADD11R,1.524000X1.524000*%
%ADD12C,1.524000*%
%ADD13R,1.300000X1.550000*%
%ADD14C,1.260000*%
%ADD15C,6.350000*%
%ADD16R,1.900000X0.800000*%
%ADD17C,0.500000*%
%ADD18R,4.000000X2.500000*%
%ADD19R,1.500000X2.000000*%
%ADD20C,1.850000*%
%ADD21C,0.840000*%
%ADD22R,0.840000X0.840000*%
%ADD23R,0.740000X2.400000*%
%ADD24R,1.700000X0.900000*%
%ADD25C,2.540000*%
%ADD26R,1.780000X2.000000*%
%ADD27R,2.400000X2.400000*%
%ADD28C,2.400000*%
%ADD29C,1.778000*%
%ADD30R,1.778000X1.778000*%
%ADD31R,0.800000X0.800000*%
%ADD32R,0.900000X1.700000*%
%ADD33C,2.800000*%
%ADD34C,1.270000*%
%ADD35C,0.508000*%
%ADD36C,0.685800*%
%ADD37C,0.762000*%
%ADD38C,2.540000*%
%ADD39C,1.270000*%
%ADD40C,0.254000*%
%ADD41C,0.508000*%
%ADD42C,0.152400*%
%ADD43C,0.762000*%
%ADD44C,0.635000*%
%ADD45C,0.381000*%
G04 APERTURE END LIST*
D10*
X51500000Y-50292000D03*
X51500000Y-39000000D03*
D11*
X38000000Y-32500000D03*
D12*
X40540000Y-32500000D03*
X43080000Y-32500000D03*
X45620000Y-32500000D03*
X48160000Y-32500000D03*
X50700000Y-32500000D03*
X53240000Y-32500000D03*
X55780000Y-32500000D03*
X58320000Y-32500000D03*
X60860000Y-32500000D03*
X63400000Y-32500000D03*
X65940000Y-32500000D03*
X68480000Y-32500000D03*
X71020000Y-32500000D03*
X73560000Y-32500000D03*
X76100000Y-32500000D03*
X78640000Y-32500000D03*
X81180000Y-32500000D03*
D13*
X83475000Y-85895000D03*
X87975000Y-85895000D03*
X87975000Y-77935000D03*
X83475000Y-77935000D03*
D14*
X88225000Y-69580000D03*
X85685000Y-72120000D03*
X83145000Y-69580000D03*
D15*
X93000000Y-64000000D03*
D16*
X46750000Y-45300000D03*
X46750000Y-44200000D03*
D17*
X94350000Y-48735000D03*
X94350000Y-49935000D03*
X94350000Y-47535000D03*
X95550000Y-49935000D03*
X95550000Y-48735000D03*
X95550000Y-47535000D03*
X93150000Y-49935000D03*
X93150000Y-48735000D03*
X93150000Y-47535000D03*
D18*
X32620357Y-53899169D03*
X40620357Y-53899169D03*
X40620357Y-41399169D03*
X32620357Y-41399169D03*
D19*
X43550000Y-69870000D03*
X38450000Y-69870000D03*
X38450000Y-61130000D03*
X43550000Y-61130000D03*
D20*
X70375000Y-70280000D03*
X77525000Y-70280000D03*
D21*
X72650000Y-70500000D03*
X73300000Y-69500000D03*
X73950000Y-70500000D03*
X74600000Y-69500000D03*
D22*
X75250000Y-70500000D03*
D23*
X56460000Y-40950000D03*
X56460000Y-37050000D03*
X57730000Y-40950000D03*
X57730000Y-37050000D03*
X59000000Y-40950000D03*
X59000000Y-37050000D03*
X60270000Y-40950000D03*
X60270000Y-37050000D03*
X61540000Y-40950000D03*
X61540000Y-37050000D03*
D24*
X66000000Y-69700000D03*
X66000000Y-66300000D03*
D25*
X59700000Y-98160000D03*
X59700000Y-93080000D03*
X59700000Y-82920000D03*
X59700000Y-77840000D03*
X34300000Y-98160000D03*
X34300000Y-93080000D03*
X34300000Y-82920000D03*
X34300000Y-77840000D03*
D16*
X46750000Y-54950000D03*
X46750000Y-56050000D03*
D26*
X96940000Y-103515000D03*
X104560000Y-93985000D03*
X99480000Y-103515000D03*
X102020000Y-93985000D03*
X102020000Y-103515000D03*
X99480000Y-93985000D03*
X104560000Y-103515000D03*
X96940000Y-93985000D03*
X85190000Y-93985000D03*
X92810000Y-103515000D03*
X87730000Y-93985000D03*
X90270000Y-103515000D03*
X90270000Y-93985000D03*
X87730000Y-103515000D03*
X92810000Y-93985000D03*
X85190000Y-103515000D03*
D27*
X84482800Y-111500000D03*
D28*
X91482800Y-111500000D03*
X87982800Y-111500000D03*
X100000000Y-68500000D03*
X100000000Y-72000000D03*
X100000000Y-75500000D03*
X100000000Y-79000000D03*
D27*
X100000000Y-86000000D03*
D28*
X100000000Y-82500000D03*
D29*
X70000000Y-102890000D03*
X70000000Y-97810000D03*
X70000000Y-87650000D03*
D30*
X70000000Y-85110000D03*
X75500000Y-85110000D03*
D29*
X75500000Y-87650000D03*
X75500000Y-97810000D03*
X75500000Y-102890000D03*
D27*
X70000000Y-109500000D03*
D28*
X73500000Y-109500000D03*
D31*
X70904000Y-76454000D03*
X69304000Y-76454000D03*
X69304000Y-73914000D03*
X70904000Y-73914000D03*
X69304000Y-81534000D03*
X70904000Y-81534000D03*
D27*
X94500000Y-37750000D03*
D28*
X87500000Y-37750000D03*
X91000000Y-37750000D03*
D32*
X99050000Y-64750000D03*
X101950000Y-64750000D03*
X88080000Y-106470000D03*
X85180000Y-106470000D03*
X96930000Y-106470000D03*
X94030000Y-106470000D03*
X96000000Y-86000000D03*
X93100000Y-86000000D03*
X93100000Y-79000000D03*
X96000000Y-79000000D03*
X93100000Y-72000000D03*
X96000000Y-72000000D03*
D27*
X37000000Y-112000000D03*
D28*
X40500000Y-112000000D03*
D31*
X69304000Y-78994000D03*
X70904000Y-78994000D03*
D33*
X107315000Y-91440000D03*
D34*
X32500000Y-46750000D03*
X32500000Y-48000000D03*
X32500000Y-49250000D03*
X33750000Y-46750000D03*
X33750000Y-48000000D03*
X33750000Y-49250000D03*
D35*
X66000000Y-68000000D03*
X82250000Y-85895000D03*
D36*
X92810000Y-92250000D03*
D37*
X91336401Y-88276401D03*
D35*
X59000000Y-35500000D03*
X60270000Y-35500000D03*
X71628000Y-82550000D03*
X76962000Y-80344000D03*
X78782000Y-80344000D03*
X56460000Y-35500000D03*
D34*
X71247000Y-59944000D03*
X79121000Y-59944000D03*
D35*
X83475000Y-79000000D03*
D36*
X103632000Y-91694000D03*
D35*
X65532000Y-54356000D03*
X79375000Y-54356000D03*
X65532000Y-53340000D03*
X74930000Y-53340000D03*
X93091000Y-42545000D03*
X80010000Y-42545000D03*
X80010000Y-48895000D03*
X80010000Y-51435000D03*
X76073000Y-50292000D03*
X93792000Y-53340000D03*
X75819000Y-49657000D03*
X94808000Y-53340000D03*
X75565000Y-48961447D03*
X92776000Y-53340000D03*
X90932000Y-48641000D03*
X90932000Y-51496000D03*
X75311000Y-48260000D03*
X95824000Y-53340000D03*
X71501000Y-42037000D03*
X97856000Y-53340000D03*
X71120000Y-41402000D03*
X99888000Y-53340000D03*
X80842506Y-64907494D03*
X80670403Y-67310000D03*
X74089783Y-41323783D03*
X64770000Y-57658000D03*
X65024000Y-49276000D03*
X60270000Y-43180000D03*
X61540000Y-43180000D03*
D36*
X43500000Y-42500000D03*
X45550000Y-42500000D03*
X47150000Y-46750000D03*
X48800000Y-43100000D03*
X85190000Y-92250000D03*
X96940000Y-92250000D03*
D34*
X40540000Y-39000000D03*
D35*
X81500000Y-87650000D03*
D36*
X96266000Y-90424000D03*
X90424000Y-90424000D03*
D34*
X91000000Y-105750000D03*
X101500000Y-105750000D03*
D35*
X74803000Y-41529000D03*
X63500000Y-35000000D03*
X48045000Y-34925000D03*
X52642400Y-34442400D03*
X76950000Y-37465000D03*
X76962000Y-39497000D03*
X79883000Y-39370000D03*
X80518000Y-37338000D03*
X81751973Y-66248027D03*
X79750000Y-75250000D03*
X82750000Y-75250000D03*
D36*
X45550000Y-53250000D03*
X43500000Y-53250000D03*
X61050000Y-64000000D03*
X59190000Y-64000000D03*
X62730000Y-64000000D03*
X62730000Y-66750000D03*
D37*
X100500000Y-64750000D03*
D35*
X68580000Y-76454000D03*
X68580000Y-73914000D03*
X71628000Y-81534000D03*
D37*
X100250000Y-31793170D03*
D35*
X90400000Y-73750000D03*
X86995000Y-73533000D03*
X80391000Y-62611000D03*
X74422000Y-50546000D03*
X74422000Y-47879000D03*
X86995000Y-74422000D03*
X80010000Y-65913000D03*
X90000000Y-77250000D03*
X83820000Y-40005000D03*
X65532000Y-58420000D03*
X56460000Y-44704000D03*
X56460000Y-50673000D03*
X82677000Y-40005000D03*
X83947000Y-37338000D03*
X81080584Y-64291499D03*
X81250000Y-63250000D03*
X89000000Y-76450000D03*
X80010000Y-67310000D03*
X82321403Y-57150000D03*
X79349597Y-67310000D03*
X81661000Y-57150000D03*
D36*
X47150000Y-57500000D03*
X48800000Y-53850000D03*
D35*
X51000000Y-54000000D03*
X51000000Y-53500000D03*
X51000000Y-53000000D03*
X51500000Y-53000000D03*
X51500000Y-53500000D03*
X51500000Y-54000000D03*
X52000000Y-54000000D03*
X52000000Y-53500000D03*
X52000000Y-53000000D03*
X52500000Y-53000000D03*
X52500000Y-53500000D03*
X52500000Y-54000000D03*
D37*
X90250000Y-70750000D03*
D35*
X69750000Y-62000000D03*
X64250000Y-45650000D03*
D37*
X85250000Y-50000000D03*
D35*
X70750000Y-55000000D03*
X66000000Y-52590000D03*
X72750000Y-55000000D03*
X76000000Y-46500000D03*
X69750000Y-41500000D03*
D37*
X100904000Y-57089000D03*
X86368000Y-53715000D03*
D36*
X66250000Y-63750000D03*
D34*
X37000000Y-46750000D03*
X37000000Y-48000000D03*
X37000000Y-49250000D03*
X38250000Y-46750000D03*
X38250000Y-48000000D03*
X38250000Y-49250000D03*
D35*
X85725000Y-83450000D03*
X80645000Y-63754000D03*
X66000000Y-35000000D03*
X71628000Y-78994000D03*
X87250000Y-82500000D03*
X91250000Y-78500000D03*
D38*
X32620357Y-56620357D02*
X32620357Y-53899169D01*
X37130000Y-61130000D02*
X32620357Y-56620357D01*
X38450000Y-61130000D02*
X37130000Y-61130000D01*
D39*
X32620357Y-46629643D02*
X32500000Y-46750000D01*
X32620357Y-41399169D02*
X32620357Y-46629643D01*
X32500000Y-48000000D02*
X32500000Y-49250000D01*
X32500000Y-46750000D02*
X32500000Y-48000000D01*
X32500000Y-46750000D02*
X33750000Y-46750000D01*
X33750000Y-48000000D02*
X33750000Y-49250000D01*
X33750000Y-46750000D02*
X33750000Y-48000000D01*
D40*
X66000000Y-69700000D02*
X66000000Y-68000000D01*
X83500000Y-85870000D02*
X83475000Y-85895000D01*
X83500000Y-77960000D02*
X83475000Y-77935000D01*
D41*
X83330000Y-85750000D02*
X83475000Y-85895000D01*
X83475000Y-85895000D02*
X83475000Y-82000000D01*
X92810000Y-93985000D02*
X92810000Y-92250000D01*
D42*
X59000000Y-35500000D02*
X59000000Y-37050000D01*
X60270000Y-35500000D02*
X60270000Y-37050000D01*
D40*
X69666000Y-82550000D02*
X71628000Y-82550000D01*
X69304000Y-82188000D02*
X69666000Y-82550000D01*
X69304000Y-81534000D02*
X69304000Y-82188000D01*
D41*
X76962000Y-80344000D02*
X78782000Y-80344000D01*
X82250000Y-85895000D02*
X83475000Y-85895000D01*
D42*
X56460000Y-37050000D02*
X56460000Y-35500000D01*
D39*
X79121000Y-59944000D02*
X71247000Y-59944000D01*
D43*
X93150000Y-47535000D02*
X93150000Y-48735000D01*
X93150000Y-48735000D02*
X93150000Y-49935000D01*
X93150000Y-49935000D02*
X94350000Y-49935000D01*
X94350000Y-49935000D02*
X95550000Y-49935000D01*
X95550000Y-49935000D02*
X95550000Y-47535000D01*
X95550000Y-47535000D02*
X93150000Y-47535000D01*
X94350000Y-47535000D02*
X94350000Y-49935000D01*
X93150000Y-48735000D02*
X95550000Y-48735000D01*
D41*
X83475000Y-79000000D02*
X83475000Y-77935000D01*
X83475000Y-82000000D02*
X83475000Y-79000000D01*
D44*
X104560000Y-92622000D02*
X103632000Y-91694000D01*
X104560000Y-93985000D02*
X104560000Y-92622000D01*
D42*
X74422000Y-54356000D02*
X65532000Y-54356000D01*
X79375000Y-54356000D02*
X74422000Y-54356000D01*
X65532000Y-53340000D02*
X74930000Y-53340000D01*
X93091000Y-42545000D02*
X80010000Y-42545000D01*
X80010000Y-48895000D02*
X80010000Y-51435000D01*
X76073000Y-50292000D02*
X78054190Y-48310810D01*
X88762810Y-48310810D02*
X93792000Y-53340000D01*
X88519000Y-48310810D02*
X88762810Y-48310810D01*
X78054190Y-48310810D02*
X88519000Y-48310810D01*
X88519000Y-48310810D02*
X88696810Y-48310810D01*
X89474000Y-48006000D02*
X94808000Y-53340000D01*
X75819000Y-49657000D02*
X77470000Y-48006000D01*
X77470000Y-48006000D02*
X77597000Y-48006000D01*
X77597000Y-48006000D02*
X89474000Y-48006000D01*
X92776000Y-53340000D02*
X90932000Y-51496000D01*
X76850637Y-47675810D02*
X75565000Y-48961447D01*
X89966810Y-47675810D02*
X76850637Y-47675810D01*
X90932000Y-48641000D02*
X89966810Y-47675810D01*
X76645610Y-46925390D02*
X76581000Y-46990000D01*
X95802508Y-46925390D02*
X76645610Y-46925390D01*
X96159610Y-47282492D02*
X95802508Y-46925390D01*
X76581000Y-46990000D02*
X75311000Y-48260000D01*
X96159610Y-52645180D02*
X96159610Y-47282492D01*
X95824000Y-52980790D02*
X96159610Y-52645180D01*
X95824000Y-53340000D02*
X95824000Y-52980790D01*
X74041000Y-44577000D02*
X71501000Y-42037000D01*
X97856000Y-44577000D02*
X74041000Y-44577000D01*
X97856000Y-53340000D02*
X97856000Y-44577000D01*
X71120000Y-41402000D02*
X71755000Y-41402000D01*
X71755000Y-41402000D02*
X74041000Y-43688000D01*
X99888000Y-43688000D02*
X99568000Y-43688000D01*
X99568000Y-43688000D02*
X99822000Y-43688000D01*
X74041000Y-43688000D02*
X99568000Y-43688000D01*
X99888000Y-52980790D02*
X99888000Y-43688000D01*
X99888000Y-53340000D02*
X99888000Y-52980790D01*
X80670403Y-65079597D02*
X80842506Y-64907494D01*
X80670403Y-67310000D02*
X80670403Y-65079597D01*
X68500000Y-35734000D02*
X74089783Y-41323783D01*
X68480000Y-35714000D02*
X68500000Y-35734000D01*
X68480000Y-32500000D02*
X68480000Y-35714000D01*
X64770000Y-49530000D02*
X65024000Y-49276000D01*
X64770000Y-57658000D02*
X64262000Y-57150000D01*
X64262000Y-57150000D02*
X64262000Y-50038000D01*
X64262000Y-50038000D02*
X65024000Y-49276000D01*
X60270000Y-40950000D02*
X60270000Y-43180000D01*
X61540000Y-40950000D02*
X61540000Y-43180000D01*
D45*
X43500000Y-42500000D02*
X45550000Y-42500000D01*
X47150000Y-46750000D02*
X48150000Y-46750000D01*
X48800000Y-46100000D02*
X48800000Y-43100000D01*
X48150000Y-46750000D02*
X48800000Y-46100000D01*
D41*
X85190000Y-92250000D02*
X85190000Y-93985000D01*
X96940000Y-93985000D02*
X96940000Y-92250000D01*
D39*
X40540000Y-39000000D02*
X40540000Y-38000000D01*
X40540000Y-38000000D02*
X40540000Y-38960000D01*
D43*
X73560000Y-30640000D02*
X73600000Y-30600000D01*
X109300000Y-39549999D02*
X100350000Y-30600000D01*
X106088000Y-59000000D02*
X109300000Y-59000000D01*
X98250000Y-30600000D02*
X73600000Y-30600000D01*
X101950000Y-64750000D02*
X101950000Y-63138000D01*
X101950000Y-63138000D02*
X106088000Y-59000000D01*
X100350000Y-30600000D02*
X98250000Y-30600000D01*
X109300000Y-59000000D02*
X109300000Y-39549999D01*
D41*
X81500000Y-71225000D02*
X83145000Y-69580000D01*
X81500000Y-87650000D02*
X81500000Y-71225000D01*
D39*
X40540000Y-38000000D02*
X40540000Y-32500000D01*
D43*
X42440000Y-30600000D02*
X42500000Y-30600000D01*
X40540000Y-32500000D02*
X42440000Y-30600000D01*
X73600000Y-30600000D02*
X42500000Y-30600000D01*
X73560000Y-32500000D02*
X73560000Y-31400000D01*
X73560000Y-31400000D02*
X73560000Y-30640000D01*
X73560000Y-32000000D02*
X73560000Y-31400000D01*
X96266000Y-90424000D02*
X90424000Y-90424000D01*
X96750933Y-90424000D02*
X96266000Y-90424000D01*
X101950000Y-64750000D02*
X103612000Y-64750000D01*
X102616000Y-90424000D02*
X96750933Y-90424000D01*
X107950000Y-85090000D02*
X102616000Y-90424000D01*
X103612000Y-64750000D02*
X107950000Y-69088000D01*
X107950000Y-69088000D02*
X107950000Y-85090000D01*
D38*
X57903949Y-98160000D02*
X59700000Y-98160000D01*
X57903949Y-82920000D02*
X54610000Y-86213949D01*
X59700000Y-82920000D02*
X57903949Y-82920000D01*
X54610000Y-93345000D02*
X54610000Y-94866051D01*
X54610000Y-92837000D02*
X54610000Y-91948000D01*
X54610000Y-91948000D02*
X54610000Y-93345000D01*
X54610000Y-86213949D02*
X54610000Y-91948000D01*
X56134000Y-96393000D02*
X56134000Y-96390051D01*
X44323000Y-108204000D02*
X56134000Y-96393000D01*
X54610000Y-94866051D02*
X56134000Y-96390051D01*
X37000000Y-112000000D02*
X37000000Y-109939000D01*
X38735000Y-108204000D02*
X44323000Y-108204000D01*
X56134000Y-96390051D02*
X57903949Y-98160000D01*
X37000000Y-109939000D02*
X38735000Y-108204000D01*
X75500000Y-97810000D02*
X70000000Y-97810000D01*
X69650000Y-98160000D02*
X70000000Y-97810000D01*
X59700000Y-98160000D02*
X69650000Y-98160000D01*
X40500000Y-113697056D02*
X44802944Y-118000000D01*
X40500000Y-112000000D02*
X40500000Y-113697056D01*
X44802944Y-118000000D02*
X73500000Y-118000000D01*
X73500000Y-118000000D02*
X73500000Y-109500000D01*
D43*
X90270000Y-105020000D02*
X91000000Y-105750000D01*
X90270000Y-103515000D02*
X90270000Y-105020000D01*
X102020000Y-103515000D02*
X102020000Y-105230000D01*
X102020000Y-105230000D02*
X101500000Y-105750000D01*
D38*
X75872800Y-102890000D02*
X84482800Y-111500000D01*
X75500000Y-102890000D02*
X75872800Y-102890000D01*
D43*
X94030000Y-106470000D02*
X94030000Y-108952800D01*
X94030000Y-108952800D02*
X91482800Y-111500000D01*
X88080000Y-111402800D02*
X87982800Y-111500000D01*
X88080000Y-106470000D02*
X88080000Y-111402800D01*
D42*
X74146210Y-40513000D02*
X74803000Y-41169790D01*
X73787000Y-40513000D02*
X74146210Y-40513000D01*
X71020000Y-37746000D02*
X73787000Y-40513000D01*
X74803000Y-41169790D02*
X74803000Y-41529000D01*
X71020000Y-32500000D02*
X71020000Y-37746000D01*
X63400000Y-34900000D02*
X63500000Y-35000000D01*
X63400000Y-32500000D02*
X63400000Y-34900000D01*
X45620000Y-32500000D02*
X48045000Y-34925000D01*
X50700000Y-32500000D02*
X52642400Y-34442400D01*
X76950000Y-39485000D02*
X76962000Y-39497000D01*
X76950000Y-37465000D02*
X76950000Y-39485000D01*
D38*
X70000000Y-109500000D02*
X70000000Y-102890000D01*
D42*
X79883000Y-39370000D02*
X80391000Y-38862000D01*
X80518000Y-38735000D02*
X80391000Y-38862000D01*
X80518000Y-37338000D02*
X80518000Y-38735000D01*
X84353601Y-74500000D02*
X84353601Y-74467845D01*
X83302353Y-73163411D02*
X83302354Y-71042316D01*
X84353601Y-74214661D02*
X83302353Y-73163411D01*
X84353601Y-74500000D02*
X84353601Y-74214661D01*
X84003601Y-68499655D02*
X81751973Y-66248027D01*
X84003601Y-70341069D02*
X84003601Y-68499655D01*
X83302354Y-71042316D02*
X84003601Y-70341069D01*
X90270000Y-92250000D02*
X90270000Y-93985000D01*
X84353601Y-86333601D02*
X90270000Y-92250000D01*
X69692518Y-78994000D02*
X70936518Y-77750000D01*
X69304000Y-78994000D02*
X69692518Y-78994000D01*
X77250000Y-77750000D02*
X79750000Y-75250000D01*
X70936518Y-77750000D02*
X77250000Y-77750000D01*
X82750000Y-75250000D02*
X84353601Y-75250000D01*
X84353601Y-75250000D02*
X84353601Y-86333601D01*
X84353601Y-74500000D02*
X84353601Y-75250000D01*
D45*
X43500000Y-53250000D02*
X45550000Y-53250000D01*
X61050000Y-64000000D02*
X59190000Y-64000000D01*
X62730000Y-64000000D02*
X62730000Y-66750000D01*
D38*
X36096051Y-98160000D02*
X34300000Y-98160000D01*
X38735000Y-85558949D02*
X38735000Y-95521051D01*
X38735000Y-95521051D02*
X36096051Y-98160000D01*
X36096051Y-82920000D02*
X38735000Y-85558949D01*
X34300000Y-82920000D02*
X36096051Y-82920000D01*
X36096051Y-82920000D02*
X37095000Y-82920000D01*
X43550000Y-76465000D02*
X43550000Y-69870000D01*
X37095000Y-82920000D02*
X43550000Y-76465000D01*
X38450000Y-73690000D02*
X34300000Y-77840000D01*
X38450000Y-69870000D02*
X38450000Y-73690000D01*
D43*
X93100000Y-86000000D02*
X93100000Y-79000000D01*
X93100000Y-79000000D02*
X93100000Y-72000000D01*
X99050000Y-65150000D02*
X99050000Y-64750000D01*
X99050000Y-66362000D02*
X99050000Y-64750000D01*
X95024000Y-70388000D02*
X99050000Y-66362000D01*
X93100000Y-70388000D02*
X95024000Y-70388000D01*
X93100000Y-72000000D02*
X93100000Y-70388000D01*
X99050000Y-64750000D02*
X100500000Y-64750000D01*
D42*
X69304000Y-76454000D02*
X68580000Y-76454000D01*
X68580000Y-73914000D02*
X69304000Y-73914000D01*
D40*
X71628000Y-81534000D02*
X70904000Y-81534000D01*
D44*
X96000000Y-72000000D02*
X100000000Y-72000000D01*
X96000000Y-79000000D02*
X100000000Y-79000000D01*
X96000000Y-86000000D02*
X100000000Y-86000000D01*
D41*
X70375000Y-70280000D02*
X71695000Y-71600000D01*
X76205000Y-71600000D02*
X77525000Y-70280000D01*
X71695000Y-71600000D02*
X76205000Y-71600000D01*
D43*
X106456830Y-38000000D02*
X100250000Y-31793170D01*
X108385590Y-39928760D02*
X106456830Y-38000000D01*
X108164410Y-58085590D02*
X108385590Y-57864410D01*
X85685000Y-72120000D02*
X91380000Y-72120000D01*
X105709239Y-58085590D02*
X108164410Y-58085590D01*
X100428231Y-63366599D02*
X105709239Y-58085590D01*
X98066599Y-66052231D02*
X98066599Y-63473279D01*
X94645240Y-69473590D02*
X98066599Y-66052231D01*
X108385590Y-57864410D02*
X108385590Y-39928760D01*
X98066599Y-63473279D02*
X98173279Y-63366599D01*
X92116599Y-71383401D02*
X92116599Y-70078230D01*
X92116599Y-70078230D02*
X92721239Y-69473590D01*
X91380000Y-72120000D02*
X92116599Y-71383401D01*
X98173279Y-63366599D02*
X100428231Y-63366599D01*
X92721239Y-69473590D02*
X94645240Y-69473590D01*
D42*
X90400000Y-73750000D02*
X89750000Y-73100000D01*
X84826399Y-72532129D02*
X84826399Y-71673601D01*
X85394270Y-73100000D02*
X84826399Y-72532129D01*
X86995000Y-73100000D02*
X86995000Y-73533000D01*
X89750000Y-73100000D02*
X86995000Y-73100000D01*
X86995000Y-73100000D02*
X85394270Y-73100000D01*
X85527643Y-70972355D02*
X85527643Y-66350643D01*
X84826399Y-71673601D02*
X85527643Y-70972355D01*
X80539411Y-62462589D02*
X80391000Y-62611000D01*
X81639589Y-62462589D02*
X80539411Y-62462589D01*
X85527643Y-66350643D02*
X81639589Y-62462589D01*
X74422000Y-47879000D02*
X74422000Y-50546000D01*
X84521590Y-71547344D02*
X84521589Y-72658385D01*
X84521589Y-72658385D02*
X86680014Y-74816810D01*
X86995000Y-74816810D02*
X86995000Y-74422000D01*
X86680014Y-74816810D02*
X86995000Y-74816810D01*
X84963000Y-71105934D02*
X84521590Y-71547344D01*
X80010000Y-63674750D02*
X80010000Y-65913000D01*
X81481649Y-62767399D02*
X80917351Y-62767399D01*
X80917351Y-62767399D02*
X80010000Y-63674750D01*
X85222840Y-66508590D02*
X81481649Y-62767399D01*
X85222834Y-70846100D02*
X85222840Y-66508590D01*
X84963000Y-71105934D02*
X85222834Y-70846100D01*
X87681602Y-75818398D02*
X86680014Y-74816810D01*
X89082648Y-75818398D02*
X87681602Y-75818398D01*
X90000000Y-76735750D02*
X89082648Y-75818398D01*
X90000000Y-77250000D02*
X90000000Y-76735750D01*
X88745000Y-40005000D02*
X91000000Y-37750000D01*
X83820000Y-40005000D02*
X88745000Y-40005000D01*
D40*
X56460000Y-42404000D02*
X56460000Y-44704000D01*
X56460000Y-40950000D02*
X56460000Y-42404000D01*
X56515000Y-50673000D02*
X56515000Y-50673000D01*
X64262000Y-58420000D02*
X65532000Y-58420000D01*
X56515000Y-50673000D02*
X64262000Y-58420000D01*
X56460000Y-50673000D02*
X56515000Y-50673000D01*
D42*
X82677000Y-40005000D02*
X83947000Y-38735000D01*
X83947000Y-38735000D02*
X83947000Y-37338000D01*
X101270000Y-91500000D02*
X102020000Y-92250000D01*
X102020000Y-92250000D02*
X102020000Y-93985000D01*
X89951066Y-91500000D02*
X101270000Y-91500000D01*
X84658411Y-86207345D02*
X89951066Y-91500000D01*
X83607162Y-73037156D02*
X84658411Y-74088405D01*
X83607163Y-71168573D02*
X83607162Y-73037156D01*
X84308411Y-67519326D02*
X84308411Y-70467325D01*
X84658411Y-74088405D02*
X84658411Y-86207345D01*
X84308411Y-70467325D02*
X83607163Y-71168573D01*
X81080584Y-64291499D02*
X84308411Y-67519326D01*
X84216780Y-72784640D02*
X84216781Y-71421087D01*
X85141756Y-73709618D02*
X84216780Y-72784640D01*
X84216781Y-71421087D02*
X84918031Y-70719837D01*
X84918031Y-70719837D02*
X84918031Y-67750000D01*
X84918031Y-67750000D02*
X84918030Y-67236964D01*
X84918030Y-66983629D02*
X81250000Y-63315599D01*
X81250000Y-63315599D02*
X81250000Y-63250000D01*
X84918030Y-67236964D02*
X84918030Y-66983629D01*
X88673208Y-76123208D02*
X87555346Y-76123208D01*
X87555346Y-76123208D02*
X87500000Y-76067862D01*
X89000000Y-76450000D02*
X88673208Y-76123208D01*
X87500000Y-76067862D02*
X85141756Y-73709618D01*
D43*
X85190000Y-106460000D02*
X85180000Y-106470000D01*
X85190000Y-103515000D02*
X85190000Y-106460000D01*
X96940000Y-106460000D02*
X96930000Y-106470000D01*
X96940000Y-106740000D02*
X96950000Y-106750000D01*
X96940000Y-103515000D02*
X96940000Y-106460000D01*
D42*
X80010000Y-66627250D02*
X80010000Y-67310000D01*
X79527399Y-66144649D02*
X80010000Y-66627250D01*
X79527399Y-62760351D02*
X79527399Y-66144649D01*
X80159351Y-62128399D02*
X79527399Y-62760351D01*
X81534000Y-62128399D02*
X80159351Y-62128399D01*
X82321403Y-61340996D02*
X81534000Y-62128399D01*
X82321403Y-57150000D02*
X82321403Y-61340996D01*
X79349597Y-66397913D02*
X79349597Y-67310000D01*
X81407744Y-61823589D02*
X80033095Y-61823589D01*
X79222589Y-66270905D02*
X79349597Y-66397913D01*
X80033095Y-61823589D02*
X79222590Y-62634094D01*
X82016593Y-61214740D02*
X81407744Y-61823589D01*
X82016593Y-57864803D02*
X82016593Y-61214740D01*
X81661000Y-57509210D02*
X82016593Y-57864803D01*
X79222590Y-62634094D02*
X79222589Y-66270905D01*
X81661000Y-57150000D02*
X81661000Y-57509210D01*
D45*
X47150000Y-57500000D02*
X48150000Y-57500000D01*
X48800000Y-56850000D02*
X48800000Y-53850000D01*
X48150000Y-57500000D02*
X48800000Y-56850000D01*
D40*
X51000000Y-54000000D02*
X51000000Y-53500000D01*
X51000000Y-53000000D02*
X51500000Y-53000000D01*
X51500000Y-53500000D02*
X51500000Y-54000000D01*
X52000000Y-54000000D02*
X52000000Y-53500000D01*
X52000000Y-53000000D02*
X52500000Y-53000000D01*
X52500000Y-53500000D02*
X52500000Y-54000000D01*
X51000000Y-53500000D02*
X51000000Y-53000000D01*
X51500000Y-53500000D02*
X51500000Y-53000000D01*
X51500000Y-53000000D02*
X52000000Y-53000000D01*
X52500000Y-53000000D02*
X52500000Y-53500000D01*
X52500000Y-54000000D02*
X52000000Y-54000000D01*
X52000000Y-54000000D02*
X51500000Y-54000000D01*
X51500000Y-54000000D02*
X51000000Y-54000000D01*
X52000000Y-53000000D02*
X52000000Y-53500000D01*
X67129401Y-66973521D02*
X67129401Y-61829401D01*
D41*
X90250000Y-70750000D02*
X90250000Y-67500000D01*
X88935999Y-65950721D02*
X88935999Y-61564001D01*
X90250000Y-67264722D02*
X88935999Y-65950721D01*
X90250000Y-67500000D02*
X90250000Y-67264722D01*
D42*
X69750000Y-62000000D02*
X69750000Y-61500000D01*
D40*
X70904000Y-73914000D02*
X70904000Y-76454000D01*
X67129401Y-69485401D02*
X67129401Y-66973521D01*
X70904000Y-73260000D02*
X67129401Y-69485401D01*
X70904000Y-73914000D02*
X70904000Y-73260000D01*
X66250000Y-66050000D02*
X66000000Y-66300000D01*
X66250000Y-63750000D02*
X66250000Y-66050000D01*
D39*
X37000000Y-50278812D02*
X40620357Y-53899169D01*
X37000000Y-49250000D02*
X37000000Y-50278812D01*
X37000000Y-45019526D02*
X40620357Y-41399169D01*
X37000000Y-46750000D02*
X37000000Y-45019526D01*
D38*
X43550000Y-61130000D02*
X43550000Y-60800000D01*
X40620357Y-57870357D02*
X40620357Y-53899169D01*
X43550000Y-60800000D02*
X40620357Y-57870357D01*
D42*
X84963221Y-82688221D02*
X85725000Y-83450000D01*
X84613221Y-70593581D02*
X83911972Y-71294832D01*
X84963221Y-73962149D02*
X84963221Y-82688221D01*
X84613222Y-67393071D02*
X84613221Y-70593581D01*
X83911972Y-72910900D02*
X84963221Y-73962149D01*
X81661000Y-64440849D02*
X84613222Y-67393071D01*
X83911972Y-71294832D02*
X83911972Y-72910900D01*
X81661000Y-64157665D02*
X81661000Y-64440849D01*
X81257335Y-63754000D02*
X81661000Y-64157665D01*
X80645000Y-63754000D02*
X81257335Y-63754000D01*
X65940000Y-34940000D02*
X66000000Y-35000000D01*
X65940000Y-32500000D02*
X65940000Y-34940000D01*
D40*
X71628000Y-78994000D02*
X70904000Y-78994000D01*
X87975000Y-78437908D02*
X88226454Y-78186454D01*
X87975000Y-82500000D02*
X87250000Y-82500000D01*
X87975000Y-85895000D02*
X87975000Y-82500000D01*
X87975000Y-82500000D02*
X87975000Y-78437908D01*
X88540000Y-78500000D02*
X87975000Y-77935000D01*
X91250000Y-78500000D02*
X88540000Y-78500000D01*
G36*
X35623000Y-55373000D02*
X30405600Y-55373000D01*
X30405600Y-40127000D01*
X35623000Y-40127000D01*
X35623000Y-55373000D01*
X35623000Y-55373000D01*
G37*
X35623000Y-55373000D02*
X30405600Y-55373000D01*
X30405600Y-40127000D01*
X35623000Y-40127000D01*
X35623000Y-55373000D01*
G36*
X42623000Y-55373000D02*
X36377000Y-55373000D01*
X36377000Y-40127000D01*
X42623000Y-40127000D01*
X42623000Y-55373000D01*
X42623000Y-55373000D01*
G37*
X42623000Y-55373000D02*
X36377000Y-55373000D01*
X36377000Y-40127000D01*
X42623000Y-40127000D01*
X42623000Y-55373000D01*
G36*
X50373000Y-61873000D02*
X45008635Y-61873000D01*
X45081281Y-61764278D01*
X45175600Y-61290105D01*
X45175600Y-60960105D01*
X45207447Y-60800000D01*
X45081281Y-60165723D01*
X44812684Y-59763738D01*
X44812683Y-59763737D01*
X44721992Y-59628008D01*
X44586262Y-59537316D01*
X42410006Y-57361060D01*
X46451500Y-57361060D01*
X46451500Y-57638940D01*
X46557841Y-57895668D01*
X46754332Y-58092159D01*
X47011060Y-58198500D01*
X47288940Y-58198500D01*
X47545668Y-58092159D01*
X47591727Y-58046100D01*
X48096219Y-58046100D01*
X48150000Y-58056798D01*
X48203781Y-58046100D01*
X48203782Y-58046100D01*
X48363077Y-58014414D01*
X48543716Y-57893716D01*
X48574184Y-57848117D01*
X49148120Y-57274182D01*
X49193716Y-57243716D01*
X49314414Y-57063077D01*
X49346100Y-56903782D01*
X49346100Y-56903781D01*
X49356798Y-56850000D01*
X49346100Y-56796219D01*
X49346100Y-54291727D01*
X49392159Y-54245668D01*
X49498500Y-53988940D01*
X49498500Y-53711060D01*
X49392159Y-53454332D01*
X49195668Y-53257841D01*
X48938940Y-53151500D01*
X48661060Y-53151500D01*
X48404332Y-53257841D01*
X48207841Y-53454332D01*
X48101500Y-53711060D01*
X48101500Y-53988940D01*
X48207841Y-54245668D01*
X48253901Y-54291728D01*
X48253900Y-56623798D01*
X47923799Y-56953900D01*
X47591727Y-56953900D01*
X47545668Y-56907841D01*
X47288940Y-56801500D01*
X47011060Y-56801500D01*
X46754332Y-56907841D01*
X46557841Y-57104332D01*
X46451500Y-57361060D01*
X42410006Y-57361060D01*
X42245957Y-57197012D01*
X42245957Y-55855600D01*
X42750000Y-55855600D01*
X42886082Y-55828532D01*
X43001447Y-55751447D01*
X43078532Y-55636082D01*
X43105600Y-55500000D01*
X43105600Y-53842684D01*
X43361060Y-53948500D01*
X43638940Y-53948500D01*
X43895668Y-53842159D01*
X43941727Y-53796100D01*
X45108273Y-53796100D01*
X45154332Y-53842159D01*
X45411060Y-53948500D01*
X45688940Y-53948500D01*
X45945668Y-53842159D01*
X46142159Y-53645668D01*
X46248500Y-53388940D01*
X46248500Y-53111060D01*
X46142159Y-52854332D01*
X45945668Y-52657841D01*
X45688940Y-52551500D01*
X45411060Y-52551500D01*
X45154332Y-52657841D01*
X45108273Y-52703900D01*
X43941727Y-52703900D01*
X43895668Y-52657841D01*
X43638940Y-52551500D01*
X43361060Y-52551500D01*
X43105600Y-52657316D01*
X43105600Y-46611060D01*
X46451500Y-46611060D01*
X46451500Y-46888940D01*
X46557841Y-47145668D01*
X46754332Y-47342159D01*
X47011060Y-47448500D01*
X47288940Y-47448500D01*
X47545668Y-47342159D01*
X47591727Y-47296100D01*
X48096219Y-47296100D01*
X48150000Y-47306798D01*
X48203781Y-47296100D01*
X48203782Y-47296100D01*
X48363077Y-47264414D01*
X48543716Y-47143716D01*
X48574184Y-47098117D01*
X49148120Y-46524182D01*
X49193716Y-46493716D01*
X49314414Y-46313077D01*
X49346100Y-46153782D01*
X49346100Y-46153781D01*
X49356798Y-46100000D01*
X49346100Y-46046219D01*
X49346100Y-43541727D01*
X49392159Y-43495668D01*
X49498500Y-43238940D01*
X49498500Y-42961060D01*
X49392159Y-42704332D01*
X49195668Y-42507841D01*
X48938940Y-42401500D01*
X48661060Y-42401500D01*
X48404332Y-42507841D01*
X48207841Y-42704332D01*
X48101500Y-42961060D01*
X48101500Y-43238940D01*
X48207841Y-43495668D01*
X48253901Y-43541728D01*
X48253900Y-45873798D01*
X47923799Y-46203900D01*
X47591727Y-46203900D01*
X47545668Y-46157841D01*
X47288940Y-46051500D01*
X47011060Y-46051500D01*
X46754332Y-46157841D01*
X46557841Y-46354332D01*
X46451500Y-46611060D01*
X43105600Y-46611060D01*
X43105600Y-43092684D01*
X43361060Y-43198500D01*
X43638940Y-43198500D01*
X43895668Y-43092159D01*
X43941727Y-43046100D01*
X45108273Y-43046100D01*
X45154332Y-43092159D01*
X45411060Y-43198500D01*
X45688940Y-43198500D01*
X45945668Y-43092159D01*
X46142159Y-42895668D01*
X46248500Y-42638940D01*
X46248500Y-42361060D01*
X46142159Y-42104332D01*
X45945668Y-41907841D01*
X45688940Y-41801500D01*
X45411060Y-41801500D01*
X45154332Y-41907841D01*
X45108273Y-41953900D01*
X43941727Y-41953900D01*
X43895668Y-41907841D01*
X43638940Y-41801500D01*
X43361060Y-41801500D01*
X43105600Y-41907316D01*
X43105600Y-40127000D01*
X50373000Y-40127000D01*
X50373000Y-61873000D01*
X50373000Y-61873000D01*
G37*
X50373000Y-61873000D02*
X45008635Y-61873000D01*
X45081281Y-61764278D01*
X45175600Y-61290105D01*
X45175600Y-60960105D01*
X45207447Y-60800000D01*
X45081281Y-60165723D01*
X44812684Y-59763738D01*
X44812683Y-59763737D01*
X44721992Y-59628008D01*
X44586262Y-59537316D01*
X42410006Y-57361060D01*
X46451500Y-57361060D01*
X46451500Y-57638940D01*
X46557841Y-57895668D01*
X46754332Y-58092159D01*
X47011060Y-58198500D01*
X47288940Y-58198500D01*
X47545668Y-58092159D01*
X47591727Y-58046100D01*
X48096219Y-58046100D01*
X48150000Y-58056798D01*
X48203781Y-58046100D01*
X48203782Y-58046100D01*
X48363077Y-58014414D01*
X48543716Y-57893716D01*
X48574184Y-57848117D01*
X49148120Y-57274182D01*
X49193716Y-57243716D01*
X49314414Y-57063077D01*
X49346100Y-56903782D01*
X49346100Y-56903781D01*
X49356798Y-56850000D01*
X49346100Y-56796219D01*
X49346100Y-54291727D01*
X49392159Y-54245668D01*
X49498500Y-53988940D01*
X49498500Y-53711060D01*
X49392159Y-53454332D01*
X49195668Y-53257841D01*
X48938940Y-53151500D01*
X48661060Y-53151500D01*
X48404332Y-53257841D01*
X48207841Y-53454332D01*
X48101500Y-53711060D01*
X48101500Y-53988940D01*
X48207841Y-54245668D01*
X48253901Y-54291728D01*
X48253900Y-56623798D01*
X47923799Y-56953900D01*
X47591727Y-56953900D01*
X47545668Y-56907841D01*
X47288940Y-56801500D01*
X47011060Y-56801500D01*
X46754332Y-56907841D01*
X46557841Y-57104332D01*
X46451500Y-57361060D01*
X42410006Y-57361060D01*
X42245957Y-57197012D01*
X42245957Y-55855600D01*
X42750000Y-55855600D01*
X42886082Y-55828532D01*
X43001447Y-55751447D01*
X43078532Y-55636082D01*
X43105600Y-55500000D01*
X43105600Y-53842684D01*
X43361060Y-53948500D01*
X43638940Y-53948500D01*
X43895668Y-53842159D01*
X43941727Y-53796100D01*
X45108273Y-53796100D01*
X45154332Y-53842159D01*
X45411060Y-53948500D01*
X45688940Y-53948500D01*
X45945668Y-53842159D01*
X46142159Y-53645668D01*
X46248500Y-53388940D01*
X46248500Y-53111060D01*
X46142159Y-52854332D01*
X45945668Y-52657841D01*
X45688940Y-52551500D01*
X45411060Y-52551500D01*
X45154332Y-52657841D01*
X45108273Y-52703900D01*
X43941727Y-52703900D01*
X43895668Y-52657841D01*
X43638940Y-52551500D01*
X43361060Y-52551500D01*
X43105600Y-52657316D01*
X43105600Y-46611060D01*
X46451500Y-46611060D01*
X46451500Y-46888940D01*
X46557841Y-47145668D01*
X46754332Y-47342159D01*
X47011060Y-47448500D01*
X47288940Y-47448500D01*
X47545668Y-47342159D01*
X47591727Y-47296100D01*
X48096219Y-47296100D01*
X48150000Y-47306798D01*
X48203781Y-47296100D01*
X48203782Y-47296100D01*
X48363077Y-47264414D01*
X48543716Y-47143716D01*
X48574184Y-47098117D01*
X49148120Y-46524182D01*
X49193716Y-46493716D01*
X49314414Y-46313077D01*
X49346100Y-46153782D01*
X49346100Y-46153781D01*
X49356798Y-46100000D01*
X49346100Y-46046219D01*
X49346100Y-43541727D01*
X49392159Y-43495668D01*
X49498500Y-43238940D01*
X49498500Y-42961060D01*
X49392159Y-42704332D01*
X49195668Y-42507841D01*
X48938940Y-42401500D01*
X48661060Y-42401500D01*
X48404332Y-42507841D01*
X48207841Y-42704332D01*
X48101500Y-42961060D01*
X48101500Y-43238940D01*
X48207841Y-43495668D01*
X48253901Y-43541728D01*
X48253900Y-45873798D01*
X47923799Y-46203900D01*
X47591727Y-46203900D01*
X47545668Y-46157841D01*
X47288940Y-46051500D01*
X47011060Y-46051500D01*
X46754332Y-46157841D01*
X46557841Y-46354332D01*
X46451500Y-46611060D01*
X43105600Y-46611060D01*
X43105600Y-43092684D01*
X43361060Y-43198500D01*
X43638940Y-43198500D01*
X43895668Y-43092159D01*
X43941727Y-43046100D01*
X45108273Y-43046100D01*
X45154332Y-43092159D01*
X45411060Y-43198500D01*
X45688940Y-43198500D01*
X45945668Y-43092159D01*
X46142159Y-42895668D01*
X46248500Y-42638940D01*
X46248500Y-42361060D01*
X46142159Y-42104332D01*
X45945668Y-41907841D01*
X45688940Y-41801500D01*
X45411060Y-41801500D01*
X45154332Y-41907841D01*
X45108273Y-41953900D01*
X43941727Y-41953900D01*
X43895668Y-41907841D01*
X43638940Y-41801500D01*
X43361060Y-41801500D01*
X43105600Y-41907316D01*
X43105600Y-40127000D01*
X50373000Y-40127000D01*
X50373000Y-61873000D01*
G36*
X45286599Y-31400925D02*
X45078587Y-31487087D01*
X44891380Y-31612174D01*
X44732174Y-31771380D01*
X44607087Y-31958587D01*
X44520925Y-32166599D01*
X44477000Y-32387424D01*
X44477000Y-32612576D01*
X44520925Y-32833401D01*
X44607087Y-33041413D01*
X44732174Y-33228620D01*
X44891380Y-33387826D01*
X45078587Y-33512913D01*
X45286599Y-33599075D01*
X45507424Y-33643000D01*
X45732576Y-33643000D01*
X45953401Y-33599075D01*
X46037615Y-33564192D01*
X47410000Y-34936578D01*
X47410000Y-34987542D01*
X47434403Y-35110223D01*
X47482271Y-35225785D01*
X47551764Y-35329789D01*
X47640211Y-35418236D01*
X47744215Y-35487729D01*
X47859777Y-35535597D01*
X47982458Y-35560000D01*
X48107542Y-35560000D01*
X48230223Y-35535597D01*
X48345785Y-35487729D01*
X48449789Y-35418236D01*
X48538236Y-35329789D01*
X48607729Y-35225785D01*
X48655597Y-35110223D01*
X48680000Y-34987542D01*
X48680000Y-34862458D01*
X48655597Y-34739777D01*
X48607729Y-34624215D01*
X48538236Y-34520211D01*
X48449789Y-34431764D01*
X48345785Y-34362271D01*
X48230223Y-34314403D01*
X48107542Y-34290000D01*
X48056578Y-34290000D01*
X46684192Y-32917615D01*
X46719075Y-32833401D01*
X46763000Y-32612576D01*
X46763000Y-32387424D01*
X46719075Y-32166599D01*
X46632913Y-31958587D01*
X46507826Y-31771380D01*
X46348620Y-31612174D01*
X46161413Y-31487087D01*
X45953401Y-31400925D01*
X45757713Y-31362000D01*
X48022287Y-31362000D01*
X47826599Y-31400925D01*
X47618587Y-31487087D01*
X47431380Y-31612174D01*
X47272174Y-31771380D01*
X47147087Y-31958587D01*
X47060925Y-32166599D01*
X47017000Y-32387424D01*
X47017000Y-32612576D01*
X47060925Y-32833401D01*
X47147087Y-33041413D01*
X47272174Y-33228620D01*
X47431380Y-33387826D01*
X47618587Y-33512913D01*
X47826599Y-33599075D01*
X48047424Y-33643000D01*
X48272576Y-33643000D01*
X48493401Y-33599075D01*
X48701413Y-33512913D01*
X48888620Y-33387826D01*
X49047826Y-33228620D01*
X49172913Y-33041413D01*
X49259075Y-32833401D01*
X49303000Y-32612576D01*
X49303000Y-32387424D01*
X49259075Y-32166599D01*
X49172913Y-31958587D01*
X49047826Y-31771380D01*
X48888620Y-31612174D01*
X48701413Y-31487087D01*
X48493401Y-31400925D01*
X48297713Y-31362000D01*
X50562287Y-31362000D01*
X50366599Y-31400925D01*
X50158587Y-31487087D01*
X49971380Y-31612174D01*
X49812174Y-31771380D01*
X49687087Y-31958587D01*
X49600925Y-32166599D01*
X49557000Y-32387424D01*
X49557000Y-32612576D01*
X49600925Y-32833401D01*
X49687087Y-33041413D01*
X49812174Y-33228620D01*
X49971380Y-33387826D01*
X50158587Y-33512913D01*
X50366599Y-33599075D01*
X50587424Y-33643000D01*
X50812576Y-33643000D01*
X51033401Y-33599075D01*
X51117615Y-33564192D01*
X52007400Y-34453978D01*
X52007400Y-34504942D01*
X52031803Y-34627623D01*
X52079671Y-34743185D01*
X52149164Y-34847189D01*
X52237611Y-34935636D01*
X52341615Y-35005129D01*
X52457177Y-35052997D01*
X52579858Y-35077400D01*
X52704942Y-35077400D01*
X52827623Y-35052997D01*
X52943185Y-35005129D01*
X53047189Y-34935636D01*
X53135636Y-34847189D01*
X53205129Y-34743185D01*
X53252997Y-34627623D01*
X53277400Y-34504942D01*
X53277400Y-34379858D01*
X53252997Y-34257177D01*
X53205129Y-34141615D01*
X53135636Y-34037611D01*
X53047189Y-33949164D01*
X52943185Y-33879671D01*
X52827623Y-33831803D01*
X52704942Y-33807400D01*
X52653978Y-33807400D01*
X51764192Y-32917615D01*
X51799075Y-32833401D01*
X51843000Y-32612576D01*
X51843000Y-32387424D01*
X51799075Y-32166599D01*
X51712913Y-31958587D01*
X51587826Y-31771380D01*
X51428620Y-31612174D01*
X51241413Y-31487087D01*
X51033401Y-31400925D01*
X50837713Y-31362000D01*
X53102287Y-31362000D01*
X52906599Y-31400925D01*
X52698587Y-31487087D01*
X52511380Y-31612174D01*
X52352174Y-31771380D01*
X52227087Y-31958587D01*
X52140925Y-32166599D01*
X52097000Y-32387424D01*
X52097000Y-32612576D01*
X52140925Y-32833401D01*
X52227087Y-33041413D01*
X52352174Y-33228620D01*
X52511380Y-33387826D01*
X52698587Y-33512913D01*
X52906599Y-33599075D01*
X53127424Y-33643000D01*
X53352576Y-33643000D01*
X53573401Y-33599075D01*
X53781413Y-33512913D01*
X53968620Y-33387826D01*
X54127826Y-33228620D01*
X54252913Y-33041413D01*
X54339075Y-32833401D01*
X54383000Y-32612576D01*
X54383000Y-32387424D01*
X54339075Y-32166599D01*
X54252913Y-31958587D01*
X54127826Y-31771380D01*
X53968620Y-31612174D01*
X53781413Y-31487087D01*
X53573401Y-31400925D01*
X53377713Y-31362000D01*
X55642287Y-31362000D01*
X55446599Y-31400925D01*
X55238587Y-31487087D01*
X55051380Y-31612174D01*
X54892174Y-31771380D01*
X54767087Y-31958587D01*
X54680925Y-32166599D01*
X54637000Y-32387424D01*
X54637000Y-32612576D01*
X54680925Y-32833401D01*
X54767087Y-33041413D01*
X54892174Y-33228620D01*
X55051380Y-33387826D01*
X55238587Y-33512913D01*
X55446599Y-33599075D01*
X55667424Y-33643000D01*
X55892576Y-33643000D01*
X56113401Y-33599075D01*
X56321413Y-33512913D01*
X56508620Y-33387826D01*
X56667826Y-33228620D01*
X56792913Y-33041413D01*
X56879075Y-32833401D01*
X56923000Y-32612576D01*
X56923000Y-32387424D01*
X56879075Y-32166599D01*
X56792913Y-31958587D01*
X56667826Y-31771380D01*
X56508620Y-31612174D01*
X56321413Y-31487087D01*
X56113401Y-31400925D01*
X55917713Y-31362000D01*
X58182287Y-31362000D01*
X57986599Y-31400925D01*
X57778587Y-31487087D01*
X57591380Y-31612174D01*
X57432174Y-31771380D01*
X57307087Y-31958587D01*
X57220925Y-32166599D01*
X57177000Y-32387424D01*
X57177000Y-32612576D01*
X57220925Y-32833401D01*
X57307087Y-33041413D01*
X57432174Y-33228620D01*
X57591380Y-33387826D01*
X57778587Y-33512913D01*
X57986599Y-33599075D01*
X58207424Y-33643000D01*
X58432576Y-33643000D01*
X58653401Y-33599075D01*
X58861413Y-33512913D01*
X59048620Y-33387826D01*
X59207826Y-33228620D01*
X59332913Y-33041413D01*
X59419075Y-32833401D01*
X59463000Y-32612576D01*
X59463000Y-32387424D01*
X59419075Y-32166599D01*
X59332913Y-31958587D01*
X59207826Y-31771380D01*
X59048620Y-31612174D01*
X58861413Y-31487087D01*
X58653401Y-31400925D01*
X58457713Y-31362000D01*
X60722287Y-31362000D01*
X60526599Y-31400925D01*
X60318587Y-31487087D01*
X60131380Y-31612174D01*
X59972174Y-31771380D01*
X59847087Y-31958587D01*
X59760925Y-32166599D01*
X59717000Y-32387424D01*
X59717000Y-32612576D01*
X59760925Y-32833401D01*
X59847087Y-33041413D01*
X59972174Y-33228620D01*
X60131380Y-33387826D01*
X60318587Y-33512913D01*
X60526599Y-33599075D01*
X60747424Y-33643000D01*
X60972576Y-33643000D01*
X61193401Y-33599075D01*
X61401413Y-33512913D01*
X61588620Y-33387826D01*
X61747826Y-33228620D01*
X61872913Y-33041413D01*
X61959075Y-32833401D01*
X62003000Y-32612576D01*
X62003000Y-32387424D01*
X61959075Y-32166599D01*
X61872913Y-31958587D01*
X61747826Y-31771380D01*
X61588620Y-31612174D01*
X61401413Y-31487087D01*
X61193401Y-31400925D01*
X60997713Y-31362000D01*
X63262287Y-31362000D01*
X63066599Y-31400925D01*
X62858587Y-31487087D01*
X62671380Y-31612174D01*
X62512174Y-31771380D01*
X62387087Y-31958587D01*
X62300925Y-32166599D01*
X62257000Y-32387424D01*
X62257000Y-32612576D01*
X62300925Y-32833401D01*
X62387087Y-33041413D01*
X62512174Y-33228620D01*
X62671380Y-33387826D01*
X62858587Y-33512913D01*
X62942800Y-33547796D01*
X62942801Y-34690939D01*
X62937271Y-34699215D01*
X62889403Y-34814777D01*
X62865000Y-34937458D01*
X62865000Y-35062542D01*
X62889403Y-35185223D01*
X62937271Y-35300785D01*
X63006764Y-35404789D01*
X63095211Y-35493236D01*
X63199215Y-35562729D01*
X63314777Y-35610597D01*
X63437458Y-35635000D01*
X63562542Y-35635000D01*
X63685223Y-35610597D01*
X63800785Y-35562729D01*
X63904789Y-35493236D01*
X63993236Y-35404789D01*
X64062729Y-35300785D01*
X64110597Y-35185223D01*
X64135000Y-35062542D01*
X64135000Y-34937458D01*
X64110597Y-34814777D01*
X64062729Y-34699215D01*
X63993236Y-34595211D01*
X63904789Y-34506764D01*
X63857200Y-34474966D01*
X63857200Y-33547795D01*
X63941413Y-33512913D01*
X64128620Y-33387826D01*
X64287826Y-33228620D01*
X64412913Y-33041413D01*
X64499075Y-32833401D01*
X64543000Y-32612576D01*
X64543000Y-32387424D01*
X64499075Y-32166599D01*
X64412913Y-31958587D01*
X64287826Y-31771380D01*
X64128620Y-31612174D01*
X63941413Y-31487087D01*
X63733401Y-31400925D01*
X63537713Y-31362000D01*
X65802287Y-31362000D01*
X65606599Y-31400925D01*
X65398587Y-31487087D01*
X65211380Y-31612174D01*
X65052174Y-31771380D01*
X64927087Y-31958587D01*
X64840925Y-32166599D01*
X64797000Y-32387424D01*
X64797000Y-32612576D01*
X64840925Y-32833401D01*
X64927087Y-33041413D01*
X65052174Y-33228620D01*
X65211380Y-33387826D01*
X65398587Y-33512913D01*
X65482800Y-33547796D01*
X65482801Y-34631074D01*
X65437271Y-34699215D01*
X65389403Y-34814777D01*
X65365000Y-34937458D01*
X65365000Y-35062542D01*
X65389403Y-35185223D01*
X65437271Y-35300785D01*
X65506764Y-35404789D01*
X65595211Y-35493236D01*
X65699215Y-35562729D01*
X65814777Y-35610597D01*
X65937458Y-35635000D01*
X66062542Y-35635000D01*
X66185223Y-35610597D01*
X66300785Y-35562729D01*
X66404789Y-35493236D01*
X66493236Y-35404789D01*
X66562729Y-35300785D01*
X66610597Y-35185223D01*
X66635000Y-35062542D01*
X66635000Y-34937458D01*
X66610597Y-34814777D01*
X66562729Y-34699215D01*
X66493236Y-34595211D01*
X66404789Y-34506764D01*
X66397200Y-34501693D01*
X66397200Y-33547795D01*
X66481413Y-33512913D01*
X66668620Y-33387826D01*
X66827826Y-33228620D01*
X66952913Y-33041413D01*
X67039075Y-32833401D01*
X67083000Y-32612576D01*
X67083000Y-32387424D01*
X67039075Y-32166599D01*
X66952913Y-31958587D01*
X66827826Y-31771380D01*
X66668620Y-31612174D01*
X66481413Y-31487087D01*
X66273401Y-31400925D01*
X66077713Y-31362000D01*
X68342287Y-31362000D01*
X68146599Y-31400925D01*
X67938587Y-31487087D01*
X67751380Y-31612174D01*
X67592174Y-31771380D01*
X67467087Y-31958587D01*
X67380925Y-32166599D01*
X67337000Y-32387424D01*
X67337000Y-32612576D01*
X67380925Y-32833401D01*
X67467087Y-33041413D01*
X67592174Y-33228620D01*
X67751380Y-33387826D01*
X67938587Y-33512913D01*
X68022800Y-33547796D01*
X68022801Y-35691540D01*
X68020589Y-35714000D01*
X68029416Y-35803626D01*
X68055560Y-35889809D01*
X68098013Y-35969235D01*
X68117711Y-35993236D01*
X68155148Y-36038853D01*
X68172593Y-36053170D01*
X73454783Y-41335361D01*
X73454783Y-41386325D01*
X73479186Y-41509006D01*
X73527054Y-41624568D01*
X73596547Y-41728572D01*
X73684994Y-41817019D01*
X73788998Y-41886512D01*
X73904560Y-41934380D01*
X74027241Y-41958783D01*
X74152325Y-41958783D01*
X74275006Y-41934380D01*
X74302539Y-41922975D01*
X74309764Y-41933789D01*
X74398211Y-42022236D01*
X74502215Y-42091729D01*
X74617777Y-42139597D01*
X74740458Y-42164000D01*
X74865542Y-42164000D01*
X74988223Y-42139597D01*
X75103785Y-42091729D01*
X75207789Y-42022236D01*
X75296236Y-41933789D01*
X75365729Y-41829785D01*
X75413597Y-41714223D01*
X75438000Y-41591542D01*
X75438000Y-41466458D01*
X75413597Y-41343777D01*
X75365729Y-41228215D01*
X75296236Y-41124211D01*
X75253738Y-41081713D01*
X75253585Y-41080163D01*
X75227441Y-40993981D01*
X75191928Y-40927540D01*
X75184987Y-40914553D01*
X75142170Y-40862382D01*
X75127853Y-40844937D01*
X75110409Y-40830621D01*
X74485384Y-40205597D01*
X74471063Y-40188147D01*
X74401446Y-40131013D01*
X74322019Y-40088559D01*
X74235837Y-40062415D01*
X74168670Y-40055800D01*
X74168660Y-40055800D01*
X74146210Y-40053589D01*
X74123760Y-40055800D01*
X73976378Y-40055800D01*
X71477200Y-37556623D01*
X71477200Y-37402458D01*
X76315000Y-37402458D01*
X76315000Y-37527542D01*
X76339403Y-37650223D01*
X76387271Y-37765785D01*
X76456764Y-37869789D01*
X76492800Y-37905825D01*
X76492801Y-39068174D01*
X76468764Y-39092211D01*
X76399271Y-39196215D01*
X76351403Y-39311777D01*
X76327000Y-39434458D01*
X76327000Y-39559542D01*
X76351403Y-39682223D01*
X76399271Y-39797785D01*
X76468764Y-39901789D01*
X76557211Y-39990236D01*
X76661215Y-40059729D01*
X76776777Y-40107597D01*
X76899458Y-40132000D01*
X77024542Y-40132000D01*
X77147223Y-40107597D01*
X77262785Y-40059729D01*
X77366789Y-39990236D01*
X77455236Y-39901789D01*
X77524729Y-39797785D01*
X77572597Y-39682223D01*
X77597000Y-39559542D01*
X77597000Y-39434458D01*
X77572597Y-39311777D01*
X77570808Y-39307458D01*
X79248000Y-39307458D01*
X79248000Y-39432542D01*
X79272403Y-39555223D01*
X79320271Y-39670785D01*
X79389764Y-39774789D01*
X79478211Y-39863236D01*
X79582215Y-39932729D01*
X79697777Y-39980597D01*
X79820458Y-40005000D01*
X79945542Y-40005000D01*
X80068223Y-39980597D01*
X80160297Y-39942458D01*
X82042000Y-39942458D01*
X82042000Y-40067542D01*
X82066403Y-40190223D01*
X82114271Y-40305785D01*
X82183764Y-40409789D01*
X82272211Y-40498236D01*
X82376215Y-40567729D01*
X82491777Y-40615597D01*
X82614458Y-40640000D01*
X82739542Y-40640000D01*
X82862223Y-40615597D01*
X82977785Y-40567729D01*
X83081789Y-40498236D01*
X83170236Y-40409789D01*
X83239729Y-40305785D01*
X83248500Y-40284610D01*
X83257271Y-40305785D01*
X83326764Y-40409789D01*
X83415211Y-40498236D01*
X83519215Y-40567729D01*
X83634777Y-40615597D01*
X83757458Y-40640000D01*
X83882542Y-40640000D01*
X84005223Y-40615597D01*
X84120785Y-40567729D01*
X84224789Y-40498236D01*
X84260825Y-40462200D01*
X88722550Y-40462200D01*
X88745000Y-40464411D01*
X88767450Y-40462200D01*
X88767460Y-40462200D01*
X88834627Y-40455585D01*
X88920809Y-40429441D01*
X89000236Y-40386987D01*
X89069853Y-40329853D01*
X89084174Y-40312403D01*
X90247758Y-39148820D01*
X90251116Y-39151064D01*
X90538839Y-39270243D01*
X90844285Y-39331000D01*
X91155715Y-39331000D01*
X91461161Y-39270243D01*
X91748884Y-39151064D01*
X92007829Y-38978043D01*
X92228043Y-38757829D01*
X92401064Y-38498884D01*
X92520243Y-38211161D01*
X92581000Y-37905715D01*
X92581000Y-37864300D01*
X92893600Y-37864300D01*
X92893600Y-38990027D01*
X92909218Y-39068542D01*
X92939853Y-39142503D01*
X92984328Y-39209065D01*
X93040935Y-39265671D01*
X93107497Y-39310147D01*
X93181457Y-39340782D01*
X93259973Y-39356400D01*
X94385700Y-39356400D01*
X94487300Y-39254800D01*
X94487300Y-37762700D01*
X94512700Y-37762700D01*
X94512700Y-39254800D01*
X94614300Y-39356400D01*
X95740027Y-39356400D01*
X95818543Y-39340782D01*
X95892503Y-39310147D01*
X95959065Y-39265671D01*
X96015672Y-39209065D01*
X96060147Y-39142503D01*
X96090782Y-39068542D01*
X96106400Y-38990027D01*
X96106400Y-37864300D01*
X96004800Y-37762700D01*
X94512700Y-37762700D01*
X94487300Y-37762700D01*
X92995200Y-37762700D01*
X92893600Y-37864300D01*
X92581000Y-37864300D01*
X92581000Y-37594285D01*
X92520243Y-37288839D01*
X92401064Y-37001116D01*
X92228043Y-36742171D01*
X92007829Y-36521957D01*
X91989894Y-36509973D01*
X92893600Y-36509973D01*
X92893600Y-37635700D01*
X92995200Y-37737300D01*
X94487300Y-37737300D01*
X94487300Y-36245200D01*
X94512700Y-36245200D01*
X94512700Y-37737300D01*
X96004800Y-37737300D01*
X96106400Y-37635700D01*
X96106400Y-36509973D01*
X96090782Y-36431458D01*
X96060147Y-36357497D01*
X96015672Y-36290935D01*
X95959065Y-36234329D01*
X95892503Y-36189853D01*
X95818543Y-36159218D01*
X95740027Y-36143600D01*
X94614300Y-36143600D01*
X94512700Y-36245200D01*
X94487300Y-36245200D01*
X94385700Y-36143600D01*
X93259973Y-36143600D01*
X93181457Y-36159218D01*
X93107497Y-36189853D01*
X93040935Y-36234329D01*
X92984328Y-36290935D01*
X92939853Y-36357497D01*
X92909218Y-36431458D01*
X92893600Y-36509973D01*
X91989894Y-36509973D01*
X91748884Y-36348936D01*
X91461161Y-36229757D01*
X91155715Y-36169000D01*
X90844285Y-36169000D01*
X90538839Y-36229757D01*
X90251116Y-36348936D01*
X89992171Y-36521957D01*
X89771957Y-36742171D01*
X89598936Y-37001116D01*
X89479757Y-37288839D01*
X89419000Y-37594285D01*
X89419000Y-37905715D01*
X89479757Y-38211161D01*
X89598936Y-38498884D01*
X89601180Y-38502242D01*
X88555623Y-39547800D01*
X84260825Y-39547800D01*
X84224789Y-39511764D01*
X84120785Y-39442271D01*
X84005223Y-39394403D01*
X83945962Y-39382615D01*
X84254409Y-39074169D01*
X84271853Y-39059853D01*
X84286171Y-39042407D01*
X84328987Y-38990237D01*
X84358900Y-38934271D01*
X84371441Y-38910809D01*
X84397585Y-38824627D01*
X84404200Y-38757460D01*
X84404200Y-38757451D01*
X84406411Y-38735001D01*
X84404200Y-38712551D01*
X84404200Y-37778825D01*
X84440236Y-37742789D01*
X84509729Y-37638785D01*
X84528161Y-37594285D01*
X85919000Y-37594285D01*
X85919000Y-37905715D01*
X85979757Y-38211161D01*
X86098936Y-38498884D01*
X86271957Y-38757829D01*
X86492171Y-38978043D01*
X86751116Y-39151064D01*
X87038839Y-39270243D01*
X87344285Y-39331000D01*
X87655715Y-39331000D01*
X87961161Y-39270243D01*
X88248884Y-39151064D01*
X88507829Y-38978043D01*
X88728043Y-38757829D01*
X88901064Y-38498884D01*
X89020243Y-38211161D01*
X89081000Y-37905715D01*
X89081000Y-37594285D01*
X89020243Y-37288839D01*
X88901064Y-37001116D01*
X88728043Y-36742171D01*
X88507829Y-36521957D01*
X88248884Y-36348936D01*
X87961161Y-36229757D01*
X87655715Y-36169000D01*
X87344285Y-36169000D01*
X87038839Y-36229757D01*
X86751116Y-36348936D01*
X86492171Y-36521957D01*
X86271957Y-36742171D01*
X86098936Y-37001116D01*
X85979757Y-37288839D01*
X85919000Y-37594285D01*
X84528161Y-37594285D01*
X84557597Y-37523223D01*
X84582000Y-37400542D01*
X84582000Y-37275458D01*
X84557597Y-37152777D01*
X84509729Y-37037215D01*
X84440236Y-36933211D01*
X84351789Y-36844764D01*
X84247785Y-36775271D01*
X84132223Y-36727403D01*
X84009542Y-36703000D01*
X83884458Y-36703000D01*
X83761777Y-36727403D01*
X83646215Y-36775271D01*
X83542211Y-36844764D01*
X83453764Y-36933211D01*
X83384271Y-37037215D01*
X83336403Y-37152777D01*
X83312000Y-37275458D01*
X83312000Y-37400542D01*
X83336403Y-37523223D01*
X83384271Y-37638785D01*
X83453764Y-37742789D01*
X83489801Y-37778826D01*
X83489800Y-38545622D01*
X82665423Y-39370000D01*
X82614458Y-39370000D01*
X82491777Y-39394403D01*
X82376215Y-39442271D01*
X82272211Y-39511764D01*
X82183764Y-39600211D01*
X82114271Y-39704215D01*
X82066403Y-39819777D01*
X82042000Y-39942458D01*
X80160297Y-39942458D01*
X80183785Y-39932729D01*
X80287789Y-39863236D01*
X80376236Y-39774789D01*
X80445729Y-39670785D01*
X80493597Y-39555223D01*
X80518000Y-39432542D01*
X80518000Y-39381578D01*
X80730170Y-39169408D01*
X80730175Y-39169402D01*
X80825403Y-39074174D01*
X80842853Y-39059853D01*
X80899987Y-38990236D01*
X80942441Y-38910809D01*
X80968585Y-38824627D01*
X80975200Y-38757460D01*
X80975200Y-38757451D01*
X80977411Y-38735001D01*
X80975200Y-38712551D01*
X80975200Y-37778825D01*
X81011236Y-37742789D01*
X81080729Y-37638785D01*
X81128597Y-37523223D01*
X81153000Y-37400542D01*
X81153000Y-37275458D01*
X81128597Y-37152777D01*
X81080729Y-37037215D01*
X81011236Y-36933211D01*
X80922789Y-36844764D01*
X80818785Y-36775271D01*
X80703223Y-36727403D01*
X80580542Y-36703000D01*
X80455458Y-36703000D01*
X80332777Y-36727403D01*
X80217215Y-36775271D01*
X80113211Y-36844764D01*
X80024764Y-36933211D01*
X79955271Y-37037215D01*
X79907403Y-37152777D01*
X79883000Y-37275458D01*
X79883000Y-37400542D01*
X79907403Y-37523223D01*
X79955271Y-37638785D01*
X80024764Y-37742789D01*
X80060800Y-37778825D01*
X80060801Y-38545621D01*
X79871422Y-38735000D01*
X79820458Y-38735000D01*
X79697777Y-38759403D01*
X79582215Y-38807271D01*
X79478211Y-38876764D01*
X79389764Y-38965211D01*
X79320271Y-39069215D01*
X79272403Y-39184777D01*
X79248000Y-39307458D01*
X77570808Y-39307458D01*
X77524729Y-39196215D01*
X77455236Y-39092211D01*
X77407200Y-39044175D01*
X77407200Y-37905825D01*
X77443236Y-37869789D01*
X77512729Y-37765785D01*
X77560597Y-37650223D01*
X77585000Y-37527542D01*
X77585000Y-37402458D01*
X77560597Y-37279777D01*
X77512729Y-37164215D01*
X77443236Y-37060211D01*
X77354789Y-36971764D01*
X77250785Y-36902271D01*
X77135223Y-36854403D01*
X77012542Y-36830000D01*
X76887458Y-36830000D01*
X76764777Y-36854403D01*
X76649215Y-36902271D01*
X76545211Y-36971764D01*
X76456764Y-37060211D01*
X76387271Y-37164215D01*
X76339403Y-37279777D01*
X76315000Y-37402458D01*
X71477200Y-37402458D01*
X71477200Y-33547795D01*
X71561413Y-33512913D01*
X71748620Y-33387826D01*
X71907826Y-33228620D01*
X72032913Y-33041413D01*
X72119075Y-32833401D01*
X72163000Y-32612576D01*
X72163000Y-32387424D01*
X72119075Y-32166599D01*
X72032913Y-31958587D01*
X71907826Y-31771380D01*
X71748620Y-31612174D01*
X71561413Y-31487087D01*
X71353401Y-31400925D01*
X71157713Y-31362000D01*
X72798000Y-31362000D01*
X72798000Y-31645554D01*
X72672174Y-31771380D01*
X72547087Y-31958587D01*
X72460925Y-32166599D01*
X72417000Y-32387424D01*
X72417000Y-32612576D01*
X72460925Y-32833401D01*
X72547087Y-33041413D01*
X72672174Y-33228620D01*
X72831380Y-33387826D01*
X73018587Y-33512913D01*
X73226599Y-33599075D01*
X73447424Y-33643000D01*
X73672576Y-33643000D01*
X73893401Y-33599075D01*
X74101413Y-33512913D01*
X74288620Y-33387826D01*
X74447826Y-33228620D01*
X74572913Y-33041413D01*
X74659075Y-32833401D01*
X74703000Y-32612576D01*
X74703000Y-32387424D01*
X74659075Y-32166599D01*
X74572913Y-31958587D01*
X74447826Y-31771380D01*
X74322000Y-31645554D01*
X74322000Y-31362000D01*
X75962287Y-31362000D01*
X75766599Y-31400925D01*
X75558587Y-31487087D01*
X75371380Y-31612174D01*
X75212174Y-31771380D01*
X75087087Y-31958587D01*
X75000925Y-32166599D01*
X74957000Y-32387424D01*
X74957000Y-32612576D01*
X75000925Y-32833401D01*
X75087087Y-33041413D01*
X75212174Y-33228620D01*
X75371380Y-33387826D01*
X75558587Y-33512913D01*
X75766599Y-33599075D01*
X75987424Y-33643000D01*
X76212576Y-33643000D01*
X76433401Y-33599075D01*
X76641413Y-33512913D01*
X76828620Y-33387826D01*
X76987826Y-33228620D01*
X77112913Y-33041413D01*
X77199075Y-32833401D01*
X77243000Y-32612576D01*
X77243000Y-32387424D01*
X77199075Y-32166599D01*
X77112913Y-31958587D01*
X76987826Y-31771380D01*
X76828620Y-31612174D01*
X76641413Y-31487087D01*
X76433401Y-31400925D01*
X76237713Y-31362000D01*
X78502287Y-31362000D01*
X78306599Y-31400925D01*
X78098587Y-31487087D01*
X77911380Y-31612174D01*
X77752174Y-31771380D01*
X77627087Y-31958587D01*
X77540925Y-32166599D01*
X77497000Y-32387424D01*
X77497000Y-32612576D01*
X77540925Y-32833401D01*
X77627087Y-33041413D01*
X77752174Y-33228620D01*
X77911380Y-33387826D01*
X78098587Y-33512913D01*
X78306599Y-33599075D01*
X78527424Y-33643000D01*
X78752576Y-33643000D01*
X78973401Y-33599075D01*
X79181413Y-33512913D01*
X79368620Y-33387826D01*
X79527826Y-33228620D01*
X79652913Y-33041413D01*
X79739075Y-32833401D01*
X79783000Y-32612576D01*
X79783000Y-32387424D01*
X79739075Y-32166599D01*
X79652913Y-31958587D01*
X79527826Y-31771380D01*
X79368620Y-31612174D01*
X79181413Y-31487087D01*
X78973401Y-31400925D01*
X78777713Y-31362000D01*
X81042287Y-31362000D01*
X80846599Y-31400925D01*
X80638587Y-31487087D01*
X80451380Y-31612174D01*
X80292174Y-31771380D01*
X80167087Y-31958587D01*
X80080925Y-32166599D01*
X80037000Y-32387424D01*
X80037000Y-32612576D01*
X80080925Y-32833401D01*
X80167087Y-33041413D01*
X80292174Y-33228620D01*
X80451380Y-33387826D01*
X80638587Y-33512913D01*
X80846599Y-33599075D01*
X81067424Y-33643000D01*
X81292576Y-33643000D01*
X81513401Y-33599075D01*
X81721413Y-33512913D01*
X81908620Y-33387826D01*
X82067826Y-33228620D01*
X82192913Y-33041413D01*
X82279075Y-32833401D01*
X82323000Y-32612576D01*
X82323000Y-32387424D01*
X82279075Y-32166599D01*
X82192913Y-31958587D01*
X82067826Y-31771380D01*
X81908620Y-31612174D01*
X81721413Y-31487087D01*
X81513401Y-31400925D01*
X81317713Y-31362000D01*
X99618097Y-31362000D01*
X99613355Y-31367778D01*
X99595629Y-31400941D01*
X99574724Y-31432228D01*
X99560323Y-31466996D01*
X99542599Y-31500155D01*
X99531685Y-31536133D01*
X99517283Y-31570903D01*
X99509941Y-31607812D01*
X99499027Y-31643792D01*
X99495341Y-31681213D01*
X99488000Y-31718120D01*
X99488000Y-31755747D01*
X99484314Y-31793170D01*
X99488000Y-31830593D01*
X99488000Y-31868220D01*
X99495341Y-31905127D01*
X99499027Y-31942548D01*
X99509941Y-31978528D01*
X99517283Y-32015437D01*
X99531685Y-32050207D01*
X99542599Y-32086185D01*
X99560323Y-32119344D01*
X99574724Y-32154112D01*
X99595629Y-32185399D01*
X99613355Y-32218562D01*
X99637211Y-32247630D01*
X99658116Y-32278917D01*
X99764253Y-32385054D01*
X99764256Y-32385056D01*
X105944478Y-38565279D01*
X105944484Y-38565284D01*
X107623591Y-40244391D01*
X107623590Y-57323590D01*
X105746662Y-57323590D01*
X105709239Y-57319904D01*
X105671816Y-57323590D01*
X105671813Y-57323590D01*
X105559861Y-57334616D01*
X105416224Y-57378188D01*
X105365623Y-57405235D01*
X105283846Y-57448945D01*
X105201143Y-57516818D01*
X105167817Y-57544168D01*
X105143960Y-57573238D01*
X100844200Y-61873000D01*
X96313773Y-61873000D01*
X96058067Y-61490309D01*
X95509691Y-60941933D01*
X94864869Y-60511076D01*
X94148380Y-60214297D01*
X93387761Y-60063000D01*
X92612239Y-60063000D01*
X91851620Y-60214297D01*
X91135131Y-60511076D01*
X90490309Y-60941933D01*
X89941933Y-61490309D01*
X89686227Y-61873000D01*
X82435977Y-61873000D01*
X82628811Y-61680166D01*
X82646256Y-61665849D01*
X82703390Y-61596232D01*
X82745844Y-61516805D01*
X82771988Y-61430623D01*
X82778603Y-61363456D01*
X82778603Y-61363447D01*
X82780814Y-61340997D01*
X82778603Y-61318547D01*
X82778603Y-57590825D01*
X82814639Y-57554789D01*
X82884132Y-57450785D01*
X82932000Y-57335223D01*
X82956403Y-57212542D01*
X82956403Y-57087458D01*
X82932000Y-56964777D01*
X82884132Y-56849215D01*
X82814639Y-56745211D01*
X82726192Y-56656764D01*
X82622188Y-56587271D01*
X82506626Y-56539403D01*
X82383945Y-56515000D01*
X82258861Y-56515000D01*
X82136180Y-56539403D01*
X82020618Y-56587271D01*
X81991202Y-56606926D01*
X81961785Y-56587271D01*
X81846223Y-56539403D01*
X81723542Y-56515000D01*
X81598458Y-56515000D01*
X81475777Y-56539403D01*
X81360215Y-56587271D01*
X81256211Y-56656764D01*
X81167764Y-56745211D01*
X81098271Y-56849215D01*
X81050403Y-56964777D01*
X81026000Y-57087458D01*
X81026000Y-57212542D01*
X81050403Y-57335223D01*
X81098271Y-57450785D01*
X81167764Y-57554789D01*
X81210262Y-57597287D01*
X81210415Y-57598837D01*
X81228363Y-57657999D01*
X81236560Y-57685019D01*
X81276957Y-57760597D01*
X81279014Y-57764446D01*
X81336148Y-57834063D01*
X81353592Y-57848379D01*
X81559393Y-58054181D01*
X81559394Y-61025361D01*
X81218367Y-61366389D01*
X80055544Y-61366389D01*
X80033094Y-61364178D01*
X80010644Y-61366389D01*
X80010635Y-61366389D01*
X79943468Y-61373004D01*
X79857286Y-61399148D01*
X79777859Y-61441602D01*
X79708242Y-61498736D01*
X79693925Y-61516181D01*
X79337106Y-61873000D01*
X57313773Y-61873000D01*
X57058067Y-61490309D01*
X56509691Y-60941933D01*
X55864869Y-60511076D01*
X55148380Y-60214297D01*
X54387761Y-60063000D01*
X53612239Y-60063000D01*
X52851620Y-60214297D01*
X52135131Y-60511076D01*
X51490309Y-60941933D01*
X50941933Y-61490309D01*
X50881000Y-61581502D01*
X50881000Y-59944000D01*
X70226085Y-59944000D01*
X70231000Y-59993902D01*
X70231000Y-60044067D01*
X70240787Y-60093271D01*
X70245702Y-60143171D01*
X70260257Y-60191151D01*
X70270044Y-60240356D01*
X70289244Y-60286709D01*
X70303798Y-60334687D01*
X70327433Y-60378905D01*
X70346632Y-60425256D01*
X70374503Y-60466968D01*
X70398140Y-60511190D01*
X70429952Y-60549953D01*
X70457821Y-60591662D01*
X70493292Y-60627133D01*
X70525104Y-60665896D01*
X70563867Y-60697708D01*
X70599338Y-60733179D01*
X70641047Y-60761048D01*
X70679810Y-60792860D01*
X70724032Y-60816497D01*
X70765744Y-60844368D01*
X70812095Y-60863567D01*
X70856313Y-60887202D01*
X70904291Y-60901756D01*
X70950644Y-60920956D01*
X70999849Y-60930743D01*
X71047829Y-60945298D01*
X71097729Y-60950213D01*
X71146933Y-60960000D01*
X79221067Y-60960000D01*
X79270271Y-60950213D01*
X79320171Y-60945298D01*
X79368151Y-60930743D01*
X79417356Y-60920956D01*
X79463709Y-60901756D01*
X79511687Y-60887202D01*
X79555905Y-60863567D01*
X79602256Y-60844368D01*
X79643968Y-60816497D01*
X79688190Y-60792860D01*
X79726953Y-60761048D01*
X79768662Y-60733179D01*
X79804133Y-60697708D01*
X79842896Y-60665896D01*
X79874708Y-60627133D01*
X79910179Y-60591662D01*
X79938048Y-60549953D01*
X79969860Y-60511190D01*
X79993497Y-60466968D01*
X80021368Y-60425256D01*
X80040567Y-60378905D01*
X80064202Y-60334687D01*
X80078756Y-60286709D01*
X80097956Y-60240356D01*
X80107743Y-60191151D01*
X80122298Y-60143171D01*
X80127213Y-60093271D01*
X80137000Y-60044067D01*
X80137000Y-59993902D01*
X80141915Y-59944000D01*
X80137000Y-59894098D01*
X80137000Y-59843933D01*
X80127213Y-59794729D01*
X80122298Y-59744829D01*
X80107743Y-59696849D01*
X80097956Y-59647644D01*
X80078756Y-59601291D01*
X80064202Y-59553313D01*
X80040567Y-59509095D01*
X80021368Y-59462744D01*
X79993497Y-59421032D01*
X79969860Y-59376810D01*
X79938048Y-59338047D01*
X79910179Y-59296338D01*
X79874708Y-59260867D01*
X79842896Y-59222104D01*
X79804133Y-59190292D01*
X79768662Y-59154821D01*
X79726953Y-59126952D01*
X79688190Y-59095140D01*
X79643968Y-59071503D01*
X79602256Y-59043632D01*
X79555905Y-59024433D01*
X79511687Y-59000798D01*
X79463709Y-58986244D01*
X79417356Y-58967044D01*
X79368151Y-58957257D01*
X79320171Y-58942702D01*
X79270271Y-58937787D01*
X79221067Y-58928000D01*
X71146933Y-58928000D01*
X71097729Y-58937787D01*
X71047829Y-58942702D01*
X70999849Y-58957257D01*
X70950644Y-58967044D01*
X70904291Y-58986244D01*
X70856313Y-59000798D01*
X70812095Y-59024433D01*
X70765744Y-59043632D01*
X70724032Y-59071503D01*
X70679810Y-59095140D01*
X70641047Y-59126952D01*
X70599338Y-59154821D01*
X70563867Y-59190292D01*
X70525104Y-59222104D01*
X70493292Y-59260867D01*
X70457821Y-59296338D01*
X70429952Y-59338047D01*
X70398140Y-59376810D01*
X70374503Y-59421032D01*
X70346632Y-59462744D01*
X70327433Y-59509095D01*
X70303798Y-59553313D01*
X70289244Y-59601291D01*
X70270044Y-59647644D01*
X70260257Y-59696849D01*
X70245702Y-59744829D01*
X70240787Y-59794729D01*
X70231000Y-59843933D01*
X70231000Y-59894098D01*
X70226085Y-59944000D01*
X50881000Y-59944000D01*
X50881000Y-51182593D01*
X50881457Y-51182782D01*
X50959973Y-51198400D01*
X51385700Y-51198400D01*
X51487300Y-51096800D01*
X51487300Y-50304700D01*
X51512700Y-50304700D01*
X51512700Y-51096800D01*
X51614300Y-51198400D01*
X52040027Y-51198400D01*
X52118543Y-51182782D01*
X52192503Y-51152147D01*
X52259065Y-51107671D01*
X52315672Y-51051065D01*
X52360147Y-50984503D01*
X52390782Y-50910542D01*
X52406400Y-50832027D01*
X52406400Y-50610458D01*
X55825000Y-50610458D01*
X55825000Y-50735542D01*
X55849403Y-50858223D01*
X55897271Y-50973785D01*
X55966764Y-51077789D01*
X56055211Y-51166236D01*
X56159215Y-51235729D01*
X56274777Y-51283597D01*
X56397458Y-51308000D01*
X56431580Y-51308000D01*
X63885150Y-58761571D01*
X63901052Y-58780948D01*
X63920429Y-58796850D01*
X63978404Y-58844429D01*
X64066655Y-58891600D01*
X64066657Y-58891601D01*
X64162415Y-58920649D01*
X64237053Y-58928000D01*
X64237055Y-58928000D01*
X64261999Y-58930457D01*
X64286943Y-58928000D01*
X65149307Y-58928000D01*
X65231215Y-58982729D01*
X65346777Y-59030597D01*
X65469458Y-59055000D01*
X65594542Y-59055000D01*
X65717223Y-59030597D01*
X65832785Y-58982729D01*
X65936789Y-58913236D01*
X66025236Y-58824789D01*
X66094729Y-58720785D01*
X66142597Y-58605223D01*
X66167000Y-58482542D01*
X66167000Y-58357458D01*
X66142597Y-58234777D01*
X66094729Y-58119215D01*
X66025236Y-58015211D01*
X65936789Y-57926764D01*
X65832785Y-57857271D01*
X65717223Y-57809403D01*
X65594542Y-57785000D01*
X65469458Y-57785000D01*
X65388995Y-57801005D01*
X65405000Y-57720542D01*
X65405000Y-57595458D01*
X65380597Y-57472777D01*
X65332729Y-57357215D01*
X65263236Y-57253211D01*
X65174789Y-57164764D01*
X65070785Y-57095271D01*
X64955223Y-57047403D01*
X64832542Y-57023000D01*
X64781577Y-57023000D01*
X64719200Y-56960623D01*
X64719200Y-53277458D01*
X64897000Y-53277458D01*
X64897000Y-53402542D01*
X64921403Y-53525223D01*
X64969271Y-53640785D01*
X65038764Y-53744789D01*
X65127211Y-53833236D01*
X65149307Y-53848000D01*
X65127211Y-53862764D01*
X65038764Y-53951211D01*
X64969271Y-54055215D01*
X64921403Y-54170777D01*
X64897000Y-54293458D01*
X64897000Y-54418542D01*
X64921403Y-54541223D01*
X64969271Y-54656785D01*
X65038764Y-54760789D01*
X65127211Y-54849236D01*
X65231215Y-54918729D01*
X65346777Y-54966597D01*
X65469458Y-54991000D01*
X65594542Y-54991000D01*
X65717223Y-54966597D01*
X65832785Y-54918729D01*
X65936789Y-54849236D01*
X65972825Y-54813200D01*
X78934175Y-54813200D01*
X78970211Y-54849236D01*
X79074215Y-54918729D01*
X79189777Y-54966597D01*
X79312458Y-54991000D01*
X79437542Y-54991000D01*
X79560223Y-54966597D01*
X79675785Y-54918729D01*
X79779789Y-54849236D01*
X79868236Y-54760789D01*
X79937729Y-54656785D01*
X79985597Y-54541223D01*
X80010000Y-54418542D01*
X80010000Y-54293458D01*
X79985597Y-54170777D01*
X79937729Y-54055215D01*
X79868236Y-53951211D01*
X79779789Y-53862764D01*
X79675785Y-53793271D01*
X79560223Y-53745403D01*
X79437542Y-53721000D01*
X79312458Y-53721000D01*
X79189777Y-53745403D01*
X79074215Y-53793271D01*
X78970211Y-53862764D01*
X78934175Y-53898800D01*
X75236665Y-53898800D01*
X75334789Y-53833236D01*
X75423236Y-53744789D01*
X75492729Y-53640785D01*
X75540597Y-53525223D01*
X75565000Y-53402542D01*
X75565000Y-53277458D01*
X75540597Y-53154777D01*
X75492729Y-53039215D01*
X75423236Y-52935211D01*
X75334789Y-52846764D01*
X75230785Y-52777271D01*
X75115223Y-52729403D01*
X74992542Y-52705000D01*
X74867458Y-52705000D01*
X74744777Y-52729403D01*
X74629215Y-52777271D01*
X74525211Y-52846764D01*
X74489175Y-52882800D01*
X65972825Y-52882800D01*
X65936789Y-52846764D01*
X65832785Y-52777271D01*
X65717223Y-52729403D01*
X65594542Y-52705000D01*
X65469458Y-52705000D01*
X65346777Y-52729403D01*
X65231215Y-52777271D01*
X65127211Y-52846764D01*
X65038764Y-52935211D01*
X64969271Y-53039215D01*
X64921403Y-53154777D01*
X64897000Y-53277458D01*
X64719200Y-53277458D01*
X64719200Y-50227377D01*
X65035578Y-49911000D01*
X65086542Y-49911000D01*
X65209223Y-49886597D01*
X65324785Y-49838729D01*
X65428789Y-49769236D01*
X65517236Y-49680789D01*
X65586729Y-49576785D01*
X65634597Y-49461223D01*
X65659000Y-49338542D01*
X65659000Y-49213458D01*
X65634597Y-49090777D01*
X65586729Y-48975215D01*
X65517236Y-48871211D01*
X65428789Y-48782764D01*
X65324785Y-48713271D01*
X65209223Y-48665403D01*
X65086542Y-48641000D01*
X64961458Y-48641000D01*
X64838777Y-48665403D01*
X64723215Y-48713271D01*
X64619211Y-48782764D01*
X64530764Y-48871211D01*
X64461271Y-48975215D01*
X64413403Y-49090777D01*
X64389000Y-49213458D01*
X64389000Y-49264422D01*
X63954592Y-49698831D01*
X63937148Y-49713147D01*
X63922831Y-49730592D01*
X63922830Y-49730593D01*
X63880013Y-49782765D01*
X63848233Y-49842223D01*
X63837560Y-49862191D01*
X63811416Y-49948373D01*
X63810489Y-49957785D01*
X63802589Y-50038000D01*
X63804801Y-50060460D01*
X63804800Y-57127550D01*
X63802589Y-57150000D01*
X63804800Y-57172450D01*
X63804800Y-57172459D01*
X63811415Y-57239626D01*
X63816365Y-57255944D01*
X57076159Y-50515739D01*
X57070597Y-50487777D01*
X57022729Y-50372215D01*
X56953236Y-50268211D01*
X56864789Y-50179764D01*
X56760785Y-50110271D01*
X56645223Y-50062403D01*
X56522542Y-50038000D01*
X56397458Y-50038000D01*
X56274777Y-50062403D01*
X56159215Y-50110271D01*
X56055211Y-50179764D01*
X55966764Y-50268211D01*
X55897271Y-50372215D01*
X55849403Y-50487777D01*
X55825000Y-50610458D01*
X52406400Y-50610458D01*
X52406400Y-50406300D01*
X52304800Y-50304700D01*
X51512700Y-50304700D01*
X51487300Y-50304700D01*
X51467300Y-50304700D01*
X51467300Y-50279300D01*
X51487300Y-50279300D01*
X51487300Y-49487200D01*
X51512700Y-49487200D01*
X51512700Y-50279300D01*
X52304800Y-50279300D01*
X52406400Y-50177700D01*
X52406400Y-49751973D01*
X52390782Y-49673458D01*
X52360147Y-49599497D01*
X52315672Y-49532935D01*
X52259065Y-49476329D01*
X52192503Y-49431853D01*
X52118543Y-49401218D01*
X52040027Y-49385600D01*
X51614300Y-49385600D01*
X51512700Y-49487200D01*
X51487300Y-49487200D01*
X51385700Y-49385600D01*
X50959973Y-49385600D01*
X50881457Y-49401218D01*
X50881000Y-49401407D01*
X50881000Y-47816458D01*
X73787000Y-47816458D01*
X73787000Y-47941542D01*
X73811403Y-48064223D01*
X73859271Y-48179785D01*
X73928764Y-48283789D01*
X73964800Y-48319825D01*
X73964801Y-50105174D01*
X73928764Y-50141211D01*
X73859271Y-50245215D01*
X73811403Y-50360777D01*
X73787000Y-50483458D01*
X73787000Y-50608542D01*
X73811403Y-50731223D01*
X73859271Y-50846785D01*
X73928764Y-50950789D01*
X74017211Y-51039236D01*
X74121215Y-51108729D01*
X74236777Y-51156597D01*
X74359458Y-51181000D01*
X74484542Y-51181000D01*
X74607223Y-51156597D01*
X74722785Y-51108729D01*
X74826789Y-51039236D01*
X74915236Y-50950789D01*
X74984729Y-50846785D01*
X75032597Y-50731223D01*
X75057000Y-50608542D01*
X75057000Y-50483458D01*
X75032597Y-50360777D01*
X74984729Y-50245215D01*
X74915236Y-50141211D01*
X74879200Y-50105175D01*
X74879200Y-48726225D01*
X74906211Y-48753236D01*
X74952785Y-48784356D01*
X74930000Y-48898905D01*
X74930000Y-49023989D01*
X74954403Y-49146670D01*
X75002271Y-49262232D01*
X75071764Y-49366236D01*
X75160211Y-49454683D01*
X75205751Y-49485111D01*
X75184000Y-49594458D01*
X75184000Y-49719542D01*
X75208403Y-49842223D01*
X75256271Y-49957785D01*
X75325764Y-50061789D01*
X75414211Y-50150236D01*
X75449119Y-50173561D01*
X75438000Y-50229458D01*
X75438000Y-50354542D01*
X75462403Y-50477223D01*
X75510271Y-50592785D01*
X75579764Y-50696789D01*
X75668211Y-50785236D01*
X75772215Y-50854729D01*
X75887777Y-50902597D01*
X76010458Y-50927000D01*
X76135542Y-50927000D01*
X76258223Y-50902597D01*
X76373785Y-50854729D01*
X76477789Y-50785236D01*
X76566236Y-50696789D01*
X76635729Y-50592785D01*
X76683597Y-50477223D01*
X76708000Y-50354542D01*
X76708000Y-50303577D01*
X78243569Y-48768010D01*
X79387820Y-48768010D01*
X79375000Y-48832458D01*
X79375000Y-48957542D01*
X79399403Y-49080223D01*
X79447271Y-49195785D01*
X79516764Y-49299789D01*
X79552800Y-49335825D01*
X79552801Y-50994174D01*
X79516764Y-51030211D01*
X79447271Y-51134215D01*
X79399403Y-51249777D01*
X79375000Y-51372458D01*
X79375000Y-51497542D01*
X79399403Y-51620223D01*
X79447271Y-51735785D01*
X79516764Y-51839789D01*
X79605211Y-51928236D01*
X79709215Y-51997729D01*
X79824777Y-52045597D01*
X79947458Y-52070000D01*
X80072542Y-52070000D01*
X80195223Y-52045597D01*
X80310785Y-51997729D01*
X80414789Y-51928236D01*
X80503236Y-51839789D01*
X80572729Y-51735785D01*
X80620597Y-51620223D01*
X80645000Y-51497542D01*
X80645000Y-51372458D01*
X80620597Y-51249777D01*
X80572729Y-51134215D01*
X80503236Y-51030211D01*
X80467200Y-50994175D01*
X80467200Y-49335825D01*
X80503236Y-49299789D01*
X80572729Y-49195785D01*
X80620597Y-49080223D01*
X80645000Y-48957542D01*
X80645000Y-48832458D01*
X80632180Y-48768010D01*
X88573433Y-48768010D01*
X90707213Y-50901791D01*
X90631215Y-50933271D01*
X90527211Y-51002764D01*
X90438764Y-51091211D01*
X90369271Y-51195215D01*
X90321403Y-51310777D01*
X90297000Y-51433458D01*
X90297000Y-51558542D01*
X90321403Y-51681223D01*
X90369271Y-51796785D01*
X90438764Y-51900789D01*
X90527211Y-51989236D01*
X90631215Y-52058729D01*
X90746777Y-52106597D01*
X90869458Y-52131000D01*
X90920423Y-52131000D01*
X92141000Y-53351578D01*
X92141000Y-53402542D01*
X92165403Y-53525223D01*
X92213271Y-53640785D01*
X92282764Y-53744789D01*
X92371211Y-53833236D01*
X92475215Y-53902729D01*
X92590777Y-53950597D01*
X92713458Y-53975000D01*
X92838542Y-53975000D01*
X92961223Y-53950597D01*
X93076785Y-53902729D01*
X93180789Y-53833236D01*
X93269236Y-53744789D01*
X93284000Y-53722693D01*
X93298764Y-53744789D01*
X93387211Y-53833236D01*
X93491215Y-53902729D01*
X93606777Y-53950597D01*
X93729458Y-53975000D01*
X93854542Y-53975000D01*
X93977223Y-53950597D01*
X94092785Y-53902729D01*
X94196789Y-53833236D01*
X94285236Y-53744789D01*
X94300000Y-53722693D01*
X94314764Y-53744789D01*
X94403211Y-53833236D01*
X94507215Y-53902729D01*
X94622777Y-53950597D01*
X94745458Y-53975000D01*
X94870542Y-53975000D01*
X94993223Y-53950597D01*
X95108785Y-53902729D01*
X95212789Y-53833236D01*
X95301236Y-53744789D01*
X95316000Y-53722693D01*
X95330764Y-53744789D01*
X95419211Y-53833236D01*
X95523215Y-53902729D01*
X95638777Y-53950597D01*
X95761458Y-53975000D01*
X95886542Y-53975000D01*
X96009223Y-53950597D01*
X96124785Y-53902729D01*
X96228789Y-53833236D01*
X96317236Y-53744789D01*
X96386729Y-53640785D01*
X96434597Y-53525223D01*
X96459000Y-53402542D01*
X96459000Y-53277458D01*
X96434597Y-53154777D01*
X96394176Y-53057192D01*
X96467019Y-52984349D01*
X96484463Y-52970033D01*
X96516534Y-52930955D01*
X96541597Y-52900417D01*
X96584050Y-52820990D01*
X96584051Y-52820989D01*
X96610195Y-52734807D01*
X96616810Y-52667640D01*
X96616810Y-52667631D01*
X96619021Y-52645181D01*
X96616810Y-52622731D01*
X96616810Y-47304941D01*
X96619021Y-47282491D01*
X96616810Y-47260041D01*
X96616810Y-47260032D01*
X96610195Y-47192865D01*
X96584051Y-47106683D01*
X96551012Y-47044870D01*
X96541597Y-47027255D01*
X96498780Y-46975084D01*
X96484463Y-46957639D01*
X96467018Y-46943322D01*
X96141682Y-46617987D01*
X96127361Y-46600537D01*
X96057744Y-46543403D01*
X95978317Y-46500949D01*
X95892135Y-46474805D01*
X95824968Y-46468190D01*
X95824958Y-46468190D01*
X95802508Y-46465979D01*
X95780058Y-46468190D01*
X76668059Y-46468190D01*
X76645609Y-46465979D01*
X76623160Y-46468190D01*
X76623150Y-46468190D01*
X76555983Y-46474805D01*
X76469801Y-46500949D01*
X76390374Y-46543403D01*
X76320757Y-46600537D01*
X76306436Y-46617987D01*
X76273598Y-46650825D01*
X76273592Y-46650830D01*
X75299423Y-47625000D01*
X75248458Y-47625000D01*
X75125777Y-47649403D01*
X75030554Y-47688846D01*
X74984729Y-47578215D01*
X74915236Y-47474211D01*
X74826789Y-47385764D01*
X74722785Y-47316271D01*
X74607223Y-47268403D01*
X74484542Y-47244000D01*
X74359458Y-47244000D01*
X74236777Y-47268403D01*
X74121215Y-47316271D01*
X74017211Y-47385764D01*
X73928764Y-47474211D01*
X73859271Y-47578215D01*
X73811403Y-47693777D01*
X73787000Y-47816458D01*
X50881000Y-47816458D01*
X50881000Y-40000000D01*
X50851998Y-39854198D01*
X50850651Y-39852183D01*
X50853492Y-39853701D01*
X50925311Y-39875487D01*
X51000000Y-39882843D01*
X52000000Y-39882843D01*
X52074689Y-39875487D01*
X52146508Y-39853701D01*
X52212696Y-39818322D01*
X52270711Y-39770711D01*
X52287707Y-39750000D01*
X55707157Y-39750000D01*
X55707157Y-42150000D01*
X55714513Y-42224689D01*
X55736299Y-42296508D01*
X55771678Y-42362696D01*
X55819289Y-42420711D01*
X55877304Y-42468322D01*
X55943492Y-42503701D01*
X55952000Y-42506282D01*
X55952001Y-44321306D01*
X55897271Y-44403215D01*
X55849403Y-44518777D01*
X55825000Y-44641458D01*
X55825000Y-44766542D01*
X55849403Y-44889223D01*
X55897271Y-45004785D01*
X55966764Y-45108789D01*
X56055211Y-45197236D01*
X56159215Y-45266729D01*
X56274777Y-45314597D01*
X56397458Y-45339000D01*
X56522542Y-45339000D01*
X56645223Y-45314597D01*
X56760785Y-45266729D01*
X56864789Y-45197236D01*
X56953236Y-45108789D01*
X57022729Y-45004785D01*
X57070597Y-44889223D01*
X57095000Y-44766542D01*
X57095000Y-44641458D01*
X57070597Y-44518777D01*
X57022729Y-44403215D01*
X56968000Y-44321307D01*
X56968000Y-42506282D01*
X56976508Y-42503701D01*
X57042696Y-42468322D01*
X57095000Y-42425398D01*
X57147304Y-42468322D01*
X57213492Y-42503701D01*
X57285311Y-42525487D01*
X57360000Y-42532843D01*
X58100000Y-42532843D01*
X58174689Y-42525487D01*
X58246508Y-42503701D01*
X58312696Y-42468322D01*
X58365000Y-42425398D01*
X58417304Y-42468322D01*
X58483492Y-42503701D01*
X58555311Y-42525487D01*
X58630000Y-42532843D01*
X59370000Y-42532843D01*
X59444689Y-42525487D01*
X59516508Y-42503701D01*
X59582696Y-42468322D01*
X59635000Y-42425398D01*
X59687304Y-42468322D01*
X59753492Y-42503701D01*
X59812801Y-42521692D01*
X59812801Y-42739174D01*
X59776764Y-42775211D01*
X59707271Y-42879215D01*
X59659403Y-42994777D01*
X59635000Y-43117458D01*
X59635000Y-43242542D01*
X59659403Y-43365223D01*
X59707271Y-43480785D01*
X59776764Y-43584789D01*
X59865211Y-43673236D01*
X59969215Y-43742729D01*
X60084777Y-43790597D01*
X60207458Y-43815000D01*
X60332542Y-43815000D01*
X60455223Y-43790597D01*
X60570785Y-43742729D01*
X60674789Y-43673236D01*
X60763236Y-43584789D01*
X60832729Y-43480785D01*
X60880597Y-43365223D01*
X60905000Y-43242542D01*
X60929403Y-43365223D01*
X60977271Y-43480785D01*
X61046764Y-43584789D01*
X61135211Y-43673236D01*
X61239215Y-43742729D01*
X61354777Y-43790597D01*
X61477458Y-43815000D01*
X61602542Y-43815000D01*
X61725223Y-43790597D01*
X61840785Y-43742729D01*
X61944789Y-43673236D01*
X62033236Y-43584789D01*
X62102729Y-43480785D01*
X62150597Y-43365223D01*
X62175000Y-43242542D01*
X62175000Y-43117458D01*
X62150597Y-42994777D01*
X62102729Y-42879215D01*
X62033236Y-42775211D01*
X61997200Y-42739175D01*
X61997200Y-42521692D01*
X62056508Y-42503701D01*
X62122696Y-42468322D01*
X62180711Y-42420711D01*
X62228322Y-42362696D01*
X62263701Y-42296508D01*
X62285487Y-42224689D01*
X62292843Y-42150000D01*
X62292843Y-41339458D01*
X70485000Y-41339458D01*
X70485000Y-41464542D01*
X70509403Y-41587223D01*
X70557271Y-41702785D01*
X70626764Y-41806789D01*
X70715211Y-41895236D01*
X70819215Y-41964729D01*
X70866000Y-41984108D01*
X70866000Y-42099542D01*
X70890403Y-42222223D01*
X70938271Y-42337785D01*
X71007764Y-42441789D01*
X71096211Y-42530236D01*
X71200215Y-42599729D01*
X71315777Y-42647597D01*
X71438458Y-42672000D01*
X71489423Y-42672000D01*
X73701830Y-44884408D01*
X73716147Y-44901853D01*
X73733592Y-44916170D01*
X73785763Y-44958987D01*
X73816634Y-44975487D01*
X73865191Y-45001441D01*
X73951373Y-45027585D01*
X74018540Y-45034200D01*
X74018549Y-45034200D01*
X74040999Y-45036411D01*
X74063449Y-45034200D01*
X97398801Y-45034200D01*
X97398800Y-52899175D01*
X97362764Y-52935211D01*
X97293271Y-53039215D01*
X97245403Y-53154777D01*
X97221000Y-53277458D01*
X97221000Y-53402542D01*
X97245403Y-53525223D01*
X97293271Y-53640785D01*
X97362764Y-53744789D01*
X97451211Y-53833236D01*
X97555215Y-53902729D01*
X97670777Y-53950597D01*
X97793458Y-53975000D01*
X97918542Y-53975000D01*
X98041223Y-53950597D01*
X98156785Y-53902729D01*
X98260789Y-53833236D01*
X98349236Y-53744789D01*
X98418729Y-53640785D01*
X98466597Y-53525223D01*
X98491000Y-53402542D01*
X98491000Y-53277458D01*
X98466597Y-53154777D01*
X98418729Y-53039215D01*
X98349236Y-52935211D01*
X98313200Y-52899175D01*
X98313200Y-44599460D01*
X98315412Y-44577000D01*
X98306585Y-44487373D01*
X98280441Y-44401191D01*
X98237987Y-44321764D01*
X98180853Y-44252147D01*
X98111236Y-44195013D01*
X98031809Y-44152559D01*
X98007551Y-44145200D01*
X99430801Y-44145200D01*
X99430800Y-52899175D01*
X99394764Y-52935211D01*
X99325271Y-53039215D01*
X99277403Y-53154777D01*
X99253000Y-53277458D01*
X99253000Y-53402542D01*
X99277403Y-53525223D01*
X99325271Y-53640785D01*
X99394764Y-53744789D01*
X99483211Y-53833236D01*
X99587215Y-53902729D01*
X99702777Y-53950597D01*
X99825458Y-53975000D01*
X99950542Y-53975000D01*
X100073223Y-53950597D01*
X100188785Y-53902729D01*
X100292789Y-53833236D01*
X100381236Y-53744789D01*
X100450729Y-53640785D01*
X100498597Y-53525223D01*
X100523000Y-53402542D01*
X100523000Y-53277458D01*
X100498597Y-53154777D01*
X100450729Y-53039215D01*
X100381236Y-52935211D01*
X100345200Y-52899175D01*
X100345200Y-43710460D01*
X100347412Y-43688000D01*
X100338585Y-43598373D01*
X100312441Y-43512191D01*
X100269987Y-43432764D01*
X100212853Y-43363147D01*
X100143236Y-43306013D01*
X100063809Y-43263559D01*
X99977627Y-43237415D01*
X99910460Y-43230800D01*
X99888000Y-43228588D01*
X99865540Y-43230800D01*
X74230378Y-43230800D01*
X73482036Y-42482458D01*
X79375000Y-42482458D01*
X79375000Y-42607542D01*
X79399403Y-42730223D01*
X79447271Y-42845785D01*
X79516764Y-42949789D01*
X79605211Y-43038236D01*
X79709215Y-43107729D01*
X79824777Y-43155597D01*
X79947458Y-43180000D01*
X80072542Y-43180000D01*
X80195223Y-43155597D01*
X80310785Y-43107729D01*
X80414789Y-43038236D01*
X80450825Y-43002200D01*
X92650175Y-43002200D01*
X92686211Y-43038236D01*
X92790215Y-43107729D01*
X92905777Y-43155597D01*
X93028458Y-43180000D01*
X93153542Y-43180000D01*
X93276223Y-43155597D01*
X93391785Y-43107729D01*
X93495789Y-43038236D01*
X93584236Y-42949789D01*
X93653729Y-42845785D01*
X93701597Y-42730223D01*
X93726000Y-42607542D01*
X93726000Y-42482458D01*
X93701597Y-42359777D01*
X93653729Y-42244215D01*
X93584236Y-42140211D01*
X93495789Y-42051764D01*
X93391785Y-41982271D01*
X93276223Y-41934403D01*
X93153542Y-41910000D01*
X93028458Y-41910000D01*
X92905777Y-41934403D01*
X92790215Y-41982271D01*
X92686211Y-42051764D01*
X92650175Y-42087800D01*
X80450825Y-42087800D01*
X80414789Y-42051764D01*
X80310785Y-41982271D01*
X80195223Y-41934403D01*
X80072542Y-41910000D01*
X79947458Y-41910000D01*
X79824777Y-41934403D01*
X79709215Y-41982271D01*
X79605211Y-42051764D01*
X79516764Y-42140211D01*
X79447271Y-42244215D01*
X79399403Y-42359777D01*
X79375000Y-42482458D01*
X73482036Y-42482458D01*
X72094174Y-41094597D01*
X72079853Y-41077147D01*
X72010236Y-41020013D01*
X71930809Y-40977559D01*
X71844627Y-40951415D01*
X71777460Y-40944800D01*
X71777450Y-40944800D01*
X71755000Y-40942589D01*
X71732550Y-40944800D01*
X71560825Y-40944800D01*
X71524789Y-40908764D01*
X71420785Y-40839271D01*
X71305223Y-40791403D01*
X71182542Y-40767000D01*
X71057458Y-40767000D01*
X70934777Y-40791403D01*
X70819215Y-40839271D01*
X70715211Y-40908764D01*
X70626764Y-40997211D01*
X70557271Y-41101215D01*
X70509403Y-41216777D01*
X70485000Y-41339458D01*
X62292843Y-41339458D01*
X62292843Y-39750000D01*
X62285487Y-39675311D01*
X62263701Y-39603492D01*
X62228322Y-39537304D01*
X62180711Y-39479289D01*
X62122696Y-39431678D01*
X62056508Y-39396299D01*
X61984689Y-39374513D01*
X61910000Y-39367157D01*
X61170000Y-39367157D01*
X61095311Y-39374513D01*
X61023492Y-39396299D01*
X60957304Y-39431678D01*
X60905000Y-39474602D01*
X60852696Y-39431678D01*
X60786508Y-39396299D01*
X60714689Y-39374513D01*
X60640000Y-39367157D01*
X59900000Y-39367157D01*
X59825311Y-39374513D01*
X59753492Y-39396299D01*
X59687304Y-39431678D01*
X59635000Y-39474602D01*
X59582696Y-39431678D01*
X59516508Y-39396299D01*
X59444689Y-39374513D01*
X59370000Y-39367157D01*
X58630000Y-39367157D01*
X58555311Y-39374513D01*
X58483492Y-39396299D01*
X58417304Y-39431678D01*
X58365000Y-39474602D01*
X58312696Y-39431678D01*
X58246508Y-39396299D01*
X58174689Y-39374513D01*
X58100000Y-39367157D01*
X57360000Y-39367157D01*
X57285311Y-39374513D01*
X57213492Y-39396299D01*
X57147304Y-39431678D01*
X57095000Y-39474602D01*
X57042696Y-39431678D01*
X56976508Y-39396299D01*
X56904689Y-39374513D01*
X56830000Y-39367157D01*
X56090000Y-39367157D01*
X56015311Y-39374513D01*
X55943492Y-39396299D01*
X55877304Y-39431678D01*
X55819289Y-39479289D01*
X55771678Y-39537304D01*
X55736299Y-39603492D01*
X55714513Y-39675311D01*
X55707157Y-39750000D01*
X52287707Y-39750000D01*
X52318322Y-39712696D01*
X52353701Y-39646508D01*
X52375487Y-39574689D01*
X52382843Y-39500000D01*
X52382843Y-38500000D01*
X52375487Y-38425311D01*
X52353701Y-38353492D01*
X52318322Y-38287304D01*
X52270711Y-38229289D01*
X52212696Y-38181678D01*
X52146508Y-38146299D01*
X52074689Y-38124513D01*
X52000000Y-38117157D01*
X51000000Y-38117157D01*
X50925311Y-38124513D01*
X50853492Y-38146299D01*
X50787304Y-38181678D01*
X50729289Y-38229289D01*
X50681678Y-38287304D01*
X50646299Y-38353492D01*
X50624513Y-38425311D01*
X50617157Y-38500000D01*
X50617157Y-39500000D01*
X50624513Y-39574689D01*
X50646299Y-39646508D01*
X50647817Y-39649349D01*
X50645802Y-39648002D01*
X50500000Y-39619000D01*
X41348330Y-39619000D01*
X41357048Y-39605953D01*
X41388860Y-39567190D01*
X41412497Y-39522968D01*
X41440368Y-39481256D01*
X41459567Y-39434905D01*
X41483202Y-39390687D01*
X41497756Y-39342709D01*
X41516956Y-39296356D01*
X41526743Y-39247151D01*
X41541298Y-39199171D01*
X41546213Y-39149271D01*
X41556000Y-39100067D01*
X41556000Y-35850000D01*
X55707157Y-35850000D01*
X55707157Y-38250000D01*
X55714513Y-38324689D01*
X55736299Y-38396508D01*
X55771678Y-38462696D01*
X55819289Y-38520711D01*
X55877304Y-38568322D01*
X55943492Y-38603701D01*
X56015311Y-38625487D01*
X56090000Y-38632843D01*
X56830000Y-38632843D01*
X56904689Y-38625487D01*
X56976508Y-38603701D01*
X57042696Y-38568322D01*
X57095000Y-38525398D01*
X57147304Y-38568322D01*
X57213492Y-38603701D01*
X57285311Y-38625487D01*
X57360000Y-38632843D01*
X58100000Y-38632843D01*
X58174689Y-38625487D01*
X58246508Y-38603701D01*
X58312696Y-38568322D01*
X58365000Y-38525398D01*
X58417304Y-38568322D01*
X58483492Y-38603701D01*
X58555311Y-38625487D01*
X58630000Y-38632843D01*
X59370000Y-38632843D01*
X59444689Y-38625487D01*
X59516508Y-38603701D01*
X59582696Y-38568322D01*
X59635000Y-38525398D01*
X59687304Y-38568322D01*
X59753492Y-38603701D01*
X59825311Y-38625487D01*
X59900000Y-38632843D01*
X60640000Y-38632843D01*
X60714689Y-38625487D01*
X60786508Y-38603701D01*
X60852696Y-38568322D01*
X60886139Y-38540876D01*
X60910935Y-38565672D01*
X60977497Y-38610147D01*
X61051458Y-38640782D01*
X61129973Y-38656400D01*
X61425700Y-38656400D01*
X61527300Y-38554800D01*
X61527300Y-37062700D01*
X61552700Y-37062700D01*
X61552700Y-38554800D01*
X61654300Y-38656400D01*
X61950027Y-38656400D01*
X62028542Y-38640782D01*
X62102503Y-38610147D01*
X62169065Y-38565672D01*
X62225671Y-38509065D01*
X62270147Y-38442503D01*
X62300782Y-38368543D01*
X62316400Y-38290027D01*
X62316400Y-37164300D01*
X62214800Y-37062700D01*
X61552700Y-37062700D01*
X61527300Y-37062700D01*
X61507300Y-37062700D01*
X61507300Y-37037300D01*
X61527300Y-37037300D01*
X61527300Y-35545200D01*
X61552700Y-35545200D01*
X61552700Y-37037300D01*
X62214800Y-37037300D01*
X62316400Y-36935700D01*
X62316400Y-35809973D01*
X62300782Y-35731457D01*
X62270147Y-35657497D01*
X62225671Y-35590935D01*
X62169065Y-35534328D01*
X62102503Y-35489853D01*
X62028542Y-35459218D01*
X61950027Y-35443600D01*
X61654300Y-35443600D01*
X61552700Y-35545200D01*
X61527300Y-35545200D01*
X61425700Y-35443600D01*
X61129973Y-35443600D01*
X61051458Y-35459218D01*
X60977497Y-35489853D01*
X60910935Y-35534328D01*
X60905000Y-35540263D01*
X60905000Y-35437458D01*
X60880597Y-35314777D01*
X60832729Y-35199215D01*
X60763236Y-35095211D01*
X60674789Y-35006764D01*
X60570785Y-34937271D01*
X60455223Y-34889403D01*
X60332542Y-34865000D01*
X60207458Y-34865000D01*
X60084777Y-34889403D01*
X59969215Y-34937271D01*
X59865211Y-35006764D01*
X59776764Y-35095211D01*
X59707271Y-35199215D01*
X59659403Y-35314777D01*
X59635000Y-35437458D01*
X59610597Y-35314777D01*
X59562729Y-35199215D01*
X59493236Y-35095211D01*
X59404789Y-35006764D01*
X59300785Y-34937271D01*
X59185223Y-34889403D01*
X59062542Y-34865000D01*
X58937458Y-34865000D01*
X58814777Y-34889403D01*
X58699215Y-34937271D01*
X58595211Y-35006764D01*
X58506764Y-35095211D01*
X58437271Y-35199215D01*
X58389403Y-35314777D01*
X58365000Y-35437458D01*
X58365000Y-35562542D01*
X58367062Y-35572910D01*
X58365000Y-35574602D01*
X58312696Y-35531678D01*
X58246508Y-35496299D01*
X58174689Y-35474513D01*
X58100000Y-35467157D01*
X57360000Y-35467157D01*
X57285311Y-35474513D01*
X57213492Y-35496299D01*
X57147304Y-35531678D01*
X57095000Y-35574602D01*
X57092938Y-35572910D01*
X57095000Y-35562542D01*
X57095000Y-35437458D01*
X57070597Y-35314777D01*
X57022729Y-35199215D01*
X56953236Y-35095211D01*
X56864789Y-35006764D01*
X56760785Y-34937271D01*
X56645223Y-34889403D01*
X56522542Y-34865000D01*
X56397458Y-34865000D01*
X56274777Y-34889403D01*
X56159215Y-34937271D01*
X56055211Y-35006764D01*
X55966764Y-35095211D01*
X55897271Y-35199215D01*
X55849403Y-35314777D01*
X55825000Y-35437458D01*
X55825000Y-35562542D01*
X55827062Y-35572910D01*
X55819289Y-35579289D01*
X55771678Y-35637304D01*
X55736299Y-35703492D01*
X55714513Y-35775311D01*
X55707157Y-35850000D01*
X41556000Y-35850000D01*
X41556000Y-33033960D01*
X41639075Y-32833401D01*
X41683000Y-32612576D01*
X41683000Y-32434630D01*
X42002063Y-32115567D01*
X41980925Y-32166599D01*
X41937000Y-32387424D01*
X41937000Y-32612576D01*
X41980925Y-32833401D01*
X42067087Y-33041413D01*
X42192174Y-33228620D01*
X42351380Y-33387826D01*
X42538587Y-33512913D01*
X42746599Y-33599075D01*
X42967424Y-33643000D01*
X43192576Y-33643000D01*
X43413401Y-33599075D01*
X43621413Y-33512913D01*
X43808620Y-33387826D01*
X43967826Y-33228620D01*
X44092913Y-33041413D01*
X44179075Y-32833401D01*
X44223000Y-32612576D01*
X44223000Y-32387424D01*
X44179075Y-32166599D01*
X44092913Y-31958587D01*
X43967826Y-31771380D01*
X43808620Y-31612174D01*
X43621413Y-31487087D01*
X43413401Y-31400925D01*
X43217713Y-31362000D01*
X45482287Y-31362000D01*
X45286599Y-31400925D01*
X45286599Y-31400925D01*
G37*
X45286599Y-31400925D02*
X45078587Y-31487087D01*
X44891380Y-31612174D01*
X44732174Y-31771380D01*
X44607087Y-31958587D01*
X44520925Y-32166599D01*
X44477000Y-32387424D01*
X44477000Y-32612576D01*
X44520925Y-32833401D01*
X44607087Y-33041413D01*
X44732174Y-33228620D01*
X44891380Y-33387826D01*
X45078587Y-33512913D01*
X45286599Y-33599075D01*
X45507424Y-33643000D01*
X45732576Y-33643000D01*
X45953401Y-33599075D01*
X46037615Y-33564192D01*
X47410000Y-34936578D01*
X47410000Y-34987542D01*
X47434403Y-35110223D01*
X47482271Y-35225785D01*
X47551764Y-35329789D01*
X47640211Y-35418236D01*
X47744215Y-35487729D01*
X47859777Y-35535597D01*
X47982458Y-35560000D01*
X48107542Y-35560000D01*
X48230223Y-35535597D01*
X48345785Y-35487729D01*
X48449789Y-35418236D01*
X48538236Y-35329789D01*
X48607729Y-35225785D01*
X48655597Y-35110223D01*
X48680000Y-34987542D01*
X48680000Y-34862458D01*
X48655597Y-34739777D01*
X48607729Y-34624215D01*
X48538236Y-34520211D01*
X48449789Y-34431764D01*
X48345785Y-34362271D01*
X48230223Y-34314403D01*
X48107542Y-34290000D01*
X48056578Y-34290000D01*
X46684192Y-32917615D01*
X46719075Y-32833401D01*
X46763000Y-32612576D01*
X46763000Y-32387424D01*
X46719075Y-32166599D01*
X46632913Y-31958587D01*
X46507826Y-31771380D01*
X46348620Y-31612174D01*
X46161413Y-31487087D01*
X45953401Y-31400925D01*
X45757713Y-31362000D01*
X48022287Y-31362000D01*
X47826599Y-31400925D01*
X47618587Y-31487087D01*
X47431380Y-31612174D01*
X47272174Y-31771380D01*
X47147087Y-31958587D01*
X47060925Y-32166599D01*
X47017000Y-32387424D01*
X47017000Y-32612576D01*
X47060925Y-32833401D01*
X47147087Y-33041413D01*
X47272174Y-33228620D01*
X47431380Y-33387826D01*
X47618587Y-33512913D01*
X47826599Y-33599075D01*
X48047424Y-33643000D01*
X48272576Y-33643000D01*
X48493401Y-33599075D01*
X48701413Y-33512913D01*
X48888620Y-33387826D01*
X49047826Y-33228620D01*
X49172913Y-33041413D01*
X49259075Y-32833401D01*
X49303000Y-32612576D01*
X49303000Y-32387424D01*
X49259075Y-32166599D01*
X49172913Y-31958587D01*
X49047826Y-31771380D01*
X48888620Y-31612174D01*
X48701413Y-31487087D01*
X48493401Y-31400925D01*
X48297713Y-31362000D01*
X50562287Y-31362000D01*
X50366599Y-31400925D01*
X50158587Y-31487087D01*
X49971380Y-31612174D01*
X49812174Y-31771380D01*
X49687087Y-31958587D01*
X49600925Y-32166599D01*
X49557000Y-32387424D01*
X49557000Y-32612576D01*
X49600925Y-32833401D01*
X49687087Y-33041413D01*
X49812174Y-33228620D01*
X49971380Y-33387826D01*
X50158587Y-33512913D01*
X50366599Y-33599075D01*
X50587424Y-33643000D01*
X50812576Y-33643000D01*
X51033401Y-33599075D01*
X51117615Y-33564192D01*
X52007400Y-34453978D01*
X52007400Y-34504942D01*
X52031803Y-34627623D01*
X52079671Y-34743185D01*
X52149164Y-34847189D01*
X52237611Y-34935636D01*
X52341615Y-35005129D01*
X52457177Y-35052997D01*
X52579858Y-35077400D01*
X52704942Y-35077400D01*
X52827623Y-35052997D01*
X52943185Y-35005129D01*
X53047189Y-34935636D01*
X53135636Y-34847189D01*
X53205129Y-34743185D01*
X53252997Y-34627623D01*
X53277400Y-34504942D01*
X53277400Y-34379858D01*
X53252997Y-34257177D01*
X53205129Y-34141615D01*
X53135636Y-34037611D01*
X53047189Y-33949164D01*
X52943185Y-33879671D01*
X52827623Y-33831803D01*
X52704942Y-33807400D01*
X52653978Y-33807400D01*
X51764192Y-32917615D01*
X51799075Y-32833401D01*
X51843000Y-32612576D01*
X51843000Y-32387424D01*
X51799075Y-32166599D01*
X51712913Y-31958587D01*
X51587826Y-31771380D01*
X51428620Y-31612174D01*
X51241413Y-31487087D01*
X51033401Y-31400925D01*
X50837713Y-31362000D01*
X53102287Y-31362000D01*
X52906599Y-31400925D01*
X52698587Y-31487087D01*
X52511380Y-31612174D01*
X52352174Y-31771380D01*
X52227087Y-31958587D01*
X52140925Y-32166599D01*
X52097000Y-32387424D01*
X52097000Y-32612576D01*
X52140925Y-32833401D01*
X52227087Y-33041413D01*
X52352174Y-33228620D01*
X52511380Y-33387826D01*
X52698587Y-33512913D01*
X52906599Y-33599075D01*
X53127424Y-33643000D01*
X53352576Y-33643000D01*
X53573401Y-33599075D01*
X53781413Y-33512913D01*
X53968620Y-33387826D01*
X54127826Y-33228620D01*
X54252913Y-33041413D01*
X54339075Y-32833401D01*
X54383000Y-32612576D01*
X54383000Y-32387424D01*
X54339075Y-32166599D01*
X54252913Y-31958587D01*
X54127826Y-31771380D01*
X53968620Y-31612174D01*
X53781413Y-31487087D01*
X53573401Y-31400925D01*
X53377713Y-31362000D01*
X55642287Y-31362000D01*
X55446599Y-31400925D01*
X55238587Y-31487087D01*
X55051380Y-31612174D01*
X54892174Y-31771380D01*
X54767087Y-31958587D01*
X54680925Y-32166599D01*
X54637000Y-32387424D01*
X54637000Y-32612576D01*
X54680925Y-32833401D01*
X54767087Y-33041413D01*
X54892174Y-33228620D01*
X55051380Y-33387826D01*
X55238587Y-33512913D01*
X55446599Y-33599075D01*
X55667424Y-33643000D01*
X55892576Y-33643000D01*
X56113401Y-33599075D01*
X56321413Y-33512913D01*
X56508620Y-33387826D01*
X56667826Y-33228620D01*
X56792913Y-33041413D01*
X56879075Y-32833401D01*
X56923000Y-32612576D01*
X56923000Y-32387424D01*
X56879075Y-32166599D01*
X56792913Y-31958587D01*
X56667826Y-31771380D01*
X56508620Y-31612174D01*
X56321413Y-31487087D01*
X56113401Y-31400925D01*
X55917713Y-31362000D01*
X58182287Y-31362000D01*
X57986599Y-31400925D01*
X57778587Y-31487087D01*
X57591380Y-31612174D01*
X57432174Y-31771380D01*
X57307087Y-31958587D01*
X57220925Y-32166599D01*
X57177000Y-32387424D01*
X57177000Y-32612576D01*
X57220925Y-32833401D01*
X57307087Y-33041413D01*
X57432174Y-33228620D01*
X57591380Y-33387826D01*
X57778587Y-33512913D01*
X57986599Y-33599075D01*
X58207424Y-33643000D01*
X58432576Y-33643000D01*
X58653401Y-33599075D01*
X58861413Y-33512913D01*
X59048620Y-33387826D01*
X59207826Y-33228620D01*
X59332913Y-33041413D01*
X59419075Y-32833401D01*
X59463000Y-32612576D01*
X59463000Y-32387424D01*
X59419075Y-32166599D01*
X59332913Y-31958587D01*
X59207826Y-31771380D01*
X59048620Y-31612174D01*
X58861413Y-31487087D01*
X58653401Y-31400925D01*
X58457713Y-31362000D01*
X60722287Y-31362000D01*
X60526599Y-31400925D01*
X60318587Y-31487087D01*
X60131380Y-31612174D01*
X59972174Y-31771380D01*
X59847087Y-31958587D01*
X59760925Y-32166599D01*
X59717000Y-32387424D01*
X59717000Y-32612576D01*
X59760925Y-32833401D01*
X59847087Y-33041413D01*
X59972174Y-33228620D01*
X60131380Y-33387826D01*
X60318587Y-33512913D01*
X60526599Y-33599075D01*
X60747424Y-33643000D01*
X60972576Y-33643000D01*
X61193401Y-33599075D01*
X61401413Y-33512913D01*
X61588620Y-33387826D01*
X61747826Y-33228620D01*
X61872913Y-33041413D01*
X61959075Y-32833401D01*
X62003000Y-32612576D01*
X62003000Y-32387424D01*
X61959075Y-32166599D01*
X61872913Y-31958587D01*
X61747826Y-31771380D01*
X61588620Y-31612174D01*
X61401413Y-31487087D01*
X61193401Y-31400925D01*
X60997713Y-31362000D01*
X63262287Y-31362000D01*
X63066599Y-31400925D01*
X62858587Y-31487087D01*
X62671380Y-31612174D01*
X62512174Y-31771380D01*
X62387087Y-31958587D01*
X62300925Y-32166599D01*
X62257000Y-32387424D01*
X62257000Y-32612576D01*
X62300925Y-32833401D01*
X62387087Y-33041413D01*
X62512174Y-33228620D01*
X62671380Y-33387826D01*
X62858587Y-33512913D01*
X62942800Y-33547796D01*
X62942801Y-34690939D01*
X62937271Y-34699215D01*
X62889403Y-34814777D01*
X62865000Y-34937458D01*
X62865000Y-35062542D01*
X62889403Y-35185223D01*
X62937271Y-35300785D01*
X63006764Y-35404789D01*
X63095211Y-35493236D01*
X63199215Y-35562729D01*
X63314777Y-35610597D01*
X63437458Y-35635000D01*
X63562542Y-35635000D01*
X63685223Y-35610597D01*
X63800785Y-35562729D01*
X63904789Y-35493236D01*
X63993236Y-35404789D01*
X64062729Y-35300785D01*
X64110597Y-35185223D01*
X64135000Y-35062542D01*
X64135000Y-34937458D01*
X64110597Y-34814777D01*
X64062729Y-34699215D01*
X63993236Y-34595211D01*
X63904789Y-34506764D01*
X63857200Y-34474966D01*
X63857200Y-33547795D01*
X63941413Y-33512913D01*
X64128620Y-33387826D01*
X64287826Y-33228620D01*
X64412913Y-33041413D01*
X64499075Y-32833401D01*
X64543000Y-32612576D01*
X64543000Y-32387424D01*
X64499075Y-32166599D01*
X64412913Y-31958587D01*
X64287826Y-31771380D01*
X64128620Y-31612174D01*
X63941413Y-31487087D01*
X63733401Y-31400925D01*
X63537713Y-31362000D01*
X65802287Y-31362000D01*
X65606599Y-31400925D01*
X65398587Y-31487087D01*
X65211380Y-31612174D01*
X65052174Y-31771380D01*
X64927087Y-31958587D01*
X64840925Y-32166599D01*
X64797000Y-32387424D01*
X64797000Y-32612576D01*
X64840925Y-32833401D01*
X64927087Y-33041413D01*
X65052174Y-33228620D01*
X65211380Y-33387826D01*
X65398587Y-33512913D01*
X65482800Y-33547796D01*
X65482801Y-34631074D01*
X65437271Y-34699215D01*
X65389403Y-34814777D01*
X65365000Y-34937458D01*
X65365000Y-35062542D01*
X65389403Y-35185223D01*
X65437271Y-35300785D01*
X65506764Y-35404789D01*
X65595211Y-35493236D01*
X65699215Y-35562729D01*
X65814777Y-35610597D01*
X65937458Y-35635000D01*
X66062542Y-35635000D01*
X66185223Y-35610597D01*
X66300785Y-35562729D01*
X66404789Y-35493236D01*
X66493236Y-35404789D01*
X66562729Y-35300785D01*
X66610597Y-35185223D01*
X66635000Y-35062542D01*
X66635000Y-34937458D01*
X66610597Y-34814777D01*
X66562729Y-34699215D01*
X66493236Y-34595211D01*
X66404789Y-34506764D01*
X66397200Y-34501693D01*
X66397200Y-33547795D01*
X66481413Y-33512913D01*
X66668620Y-33387826D01*
X66827826Y-33228620D01*
X66952913Y-33041413D01*
X67039075Y-32833401D01*
X67083000Y-32612576D01*
X67083000Y-32387424D01*
X67039075Y-32166599D01*
X66952913Y-31958587D01*
X66827826Y-31771380D01*
X66668620Y-31612174D01*
X66481413Y-31487087D01*
X66273401Y-31400925D01*
X66077713Y-31362000D01*
X68342287Y-31362000D01*
X68146599Y-31400925D01*
X67938587Y-31487087D01*
X67751380Y-31612174D01*
X67592174Y-31771380D01*
X67467087Y-31958587D01*
X67380925Y-32166599D01*
X67337000Y-32387424D01*
X67337000Y-32612576D01*
X67380925Y-32833401D01*
X67467087Y-33041413D01*
X67592174Y-33228620D01*
X67751380Y-33387826D01*
X67938587Y-33512913D01*
X68022800Y-33547796D01*
X68022801Y-35691540D01*
X68020589Y-35714000D01*
X68029416Y-35803626D01*
X68055560Y-35889809D01*
X68098013Y-35969235D01*
X68117711Y-35993236D01*
X68155148Y-36038853D01*
X68172593Y-36053170D01*
X73454783Y-41335361D01*
X73454783Y-41386325D01*
X73479186Y-41509006D01*
X73527054Y-41624568D01*
X73596547Y-41728572D01*
X73684994Y-41817019D01*
X73788998Y-41886512D01*
X73904560Y-41934380D01*
X74027241Y-41958783D01*
X74152325Y-41958783D01*
X74275006Y-41934380D01*
X74302539Y-41922975D01*
X74309764Y-41933789D01*
X74398211Y-42022236D01*
X74502215Y-42091729D01*
X74617777Y-42139597D01*
X74740458Y-42164000D01*
X74865542Y-42164000D01*
X74988223Y-42139597D01*
X75103785Y-42091729D01*
X75207789Y-42022236D01*
X75296236Y-41933789D01*
X75365729Y-41829785D01*
X75413597Y-41714223D01*
X75438000Y-41591542D01*
X75438000Y-41466458D01*
X75413597Y-41343777D01*
X75365729Y-41228215D01*
X75296236Y-41124211D01*
X75253738Y-41081713D01*
X75253585Y-41080163D01*
X75227441Y-40993981D01*
X75191928Y-40927540D01*
X75184987Y-40914553D01*
X75142170Y-40862382D01*
X75127853Y-40844937D01*
X75110409Y-40830621D01*
X74485384Y-40205597D01*
X74471063Y-40188147D01*
X74401446Y-40131013D01*
X74322019Y-40088559D01*
X74235837Y-40062415D01*
X74168670Y-40055800D01*
X74168660Y-40055800D01*
X74146210Y-40053589D01*
X74123760Y-40055800D01*
X73976378Y-40055800D01*
X71477200Y-37556623D01*
X71477200Y-37402458D01*
X76315000Y-37402458D01*
X76315000Y-37527542D01*
X76339403Y-37650223D01*
X76387271Y-37765785D01*
X76456764Y-37869789D01*
X76492800Y-37905825D01*
X76492801Y-39068174D01*
X76468764Y-39092211D01*
X76399271Y-39196215D01*
X76351403Y-39311777D01*
X76327000Y-39434458D01*
X76327000Y-39559542D01*
X76351403Y-39682223D01*
X76399271Y-39797785D01*
X76468764Y-39901789D01*
X76557211Y-39990236D01*
X76661215Y-40059729D01*
X76776777Y-40107597D01*
X76899458Y-40132000D01*
X77024542Y-40132000D01*
X77147223Y-40107597D01*
X77262785Y-40059729D01*
X77366789Y-39990236D01*
X77455236Y-39901789D01*
X77524729Y-39797785D01*
X77572597Y-39682223D01*
X77597000Y-39559542D01*
X77597000Y-39434458D01*
X77572597Y-39311777D01*
X77570808Y-39307458D01*
X79248000Y-39307458D01*
X79248000Y-39432542D01*
X79272403Y-39555223D01*
X79320271Y-39670785D01*
X79389764Y-39774789D01*
X79478211Y-39863236D01*
X79582215Y-39932729D01*
X79697777Y-39980597D01*
X79820458Y-40005000D01*
X79945542Y-40005000D01*
X80068223Y-39980597D01*
X80160297Y-39942458D01*
X82042000Y-39942458D01*
X82042000Y-40067542D01*
X82066403Y-40190223D01*
X82114271Y-40305785D01*
X82183764Y-40409789D01*
X82272211Y-40498236D01*
X82376215Y-40567729D01*
X82491777Y-40615597D01*
X82614458Y-40640000D01*
X82739542Y-40640000D01*
X82862223Y-40615597D01*
X82977785Y-40567729D01*
X83081789Y-40498236D01*
X83170236Y-40409789D01*
X83239729Y-40305785D01*
X83248500Y-40284610D01*
X83257271Y-40305785D01*
X83326764Y-40409789D01*
X83415211Y-40498236D01*
X83519215Y-40567729D01*
X83634777Y-40615597D01*
X83757458Y-40640000D01*
X83882542Y-40640000D01*
X84005223Y-40615597D01*
X84120785Y-40567729D01*
X84224789Y-40498236D01*
X84260825Y-40462200D01*
X88722550Y-40462200D01*
X88745000Y-40464411D01*
X88767450Y-40462200D01*
X88767460Y-40462200D01*
X88834627Y-40455585D01*
X88920809Y-40429441D01*
X89000236Y-40386987D01*
X89069853Y-40329853D01*
X89084174Y-40312403D01*
X90247758Y-39148820D01*
X90251116Y-39151064D01*
X90538839Y-39270243D01*
X90844285Y-39331000D01*
X91155715Y-39331000D01*
X91461161Y-39270243D01*
X91748884Y-39151064D01*
X92007829Y-38978043D01*
X92228043Y-38757829D01*
X92401064Y-38498884D01*
X92520243Y-38211161D01*
X92581000Y-37905715D01*
X92581000Y-37864300D01*
X92893600Y-37864300D01*
X92893600Y-38990027D01*
X92909218Y-39068542D01*
X92939853Y-39142503D01*
X92984328Y-39209065D01*
X93040935Y-39265671D01*
X93107497Y-39310147D01*
X93181457Y-39340782D01*
X93259973Y-39356400D01*
X94385700Y-39356400D01*
X94487300Y-39254800D01*
X94487300Y-37762700D01*
X94512700Y-37762700D01*
X94512700Y-39254800D01*
X94614300Y-39356400D01*
X95740027Y-39356400D01*
X95818543Y-39340782D01*
X95892503Y-39310147D01*
X95959065Y-39265671D01*
X96015672Y-39209065D01*
X96060147Y-39142503D01*
X96090782Y-39068542D01*
X96106400Y-38990027D01*
X96106400Y-37864300D01*
X96004800Y-37762700D01*
X94512700Y-37762700D01*
X94487300Y-37762700D01*
X92995200Y-37762700D01*
X92893600Y-37864300D01*
X92581000Y-37864300D01*
X92581000Y-37594285D01*
X92520243Y-37288839D01*
X92401064Y-37001116D01*
X92228043Y-36742171D01*
X92007829Y-36521957D01*
X91989894Y-36509973D01*
X92893600Y-36509973D01*
X92893600Y-37635700D01*
X92995200Y-37737300D01*
X94487300Y-37737300D01*
X94487300Y-36245200D01*
X94512700Y-36245200D01*
X94512700Y-37737300D01*
X96004800Y-37737300D01*
X96106400Y-37635700D01*
X96106400Y-36509973D01*
X96090782Y-36431458D01*
X96060147Y-36357497D01*
X96015672Y-36290935D01*
X95959065Y-36234329D01*
X95892503Y-36189853D01*
X95818543Y-36159218D01*
X95740027Y-36143600D01*
X94614300Y-36143600D01*
X94512700Y-36245200D01*
X94487300Y-36245200D01*
X94385700Y-36143600D01*
X93259973Y-36143600D01*
X93181457Y-36159218D01*
X93107497Y-36189853D01*
X93040935Y-36234329D01*
X92984328Y-36290935D01*
X92939853Y-36357497D01*
X92909218Y-36431458D01*
X92893600Y-36509973D01*
X91989894Y-36509973D01*
X91748884Y-36348936D01*
X91461161Y-36229757D01*
X91155715Y-36169000D01*
X90844285Y-36169000D01*
X90538839Y-36229757D01*
X90251116Y-36348936D01*
X89992171Y-36521957D01*
X89771957Y-36742171D01*
X89598936Y-37001116D01*
X89479757Y-37288839D01*
X89419000Y-37594285D01*
X89419000Y-37905715D01*
X89479757Y-38211161D01*
X89598936Y-38498884D01*
X89601180Y-38502242D01*
X88555623Y-39547800D01*
X84260825Y-39547800D01*
X84224789Y-39511764D01*
X84120785Y-39442271D01*
X84005223Y-39394403D01*
X83945962Y-39382615D01*
X84254409Y-39074169D01*
X84271853Y-39059853D01*
X84286171Y-39042407D01*
X84328987Y-38990237D01*
X84358900Y-38934271D01*
X84371441Y-38910809D01*
X84397585Y-38824627D01*
X84404200Y-38757460D01*
X84404200Y-38757451D01*
X84406411Y-38735001D01*
X84404200Y-38712551D01*
X84404200Y-37778825D01*
X84440236Y-37742789D01*
X84509729Y-37638785D01*
X84528161Y-37594285D01*
X85919000Y-37594285D01*
X85919000Y-37905715D01*
X85979757Y-38211161D01*
X86098936Y-38498884D01*
X86271957Y-38757829D01*
X86492171Y-38978043D01*
X86751116Y-39151064D01*
X87038839Y-39270243D01*
X87344285Y-39331000D01*
X87655715Y-39331000D01*
X87961161Y-39270243D01*
X88248884Y-39151064D01*
X88507829Y-38978043D01*
X88728043Y-38757829D01*
X88901064Y-38498884D01*
X89020243Y-38211161D01*
X89081000Y-37905715D01*
X89081000Y-37594285D01*
X89020243Y-37288839D01*
X88901064Y-37001116D01*
X88728043Y-36742171D01*
X88507829Y-36521957D01*
X88248884Y-36348936D01*
X87961161Y-36229757D01*
X87655715Y-36169000D01*
X87344285Y-36169000D01*
X87038839Y-36229757D01*
X86751116Y-36348936D01*
X86492171Y-36521957D01*
X86271957Y-36742171D01*
X86098936Y-37001116D01*
X85979757Y-37288839D01*
X85919000Y-37594285D01*
X84528161Y-37594285D01*
X84557597Y-37523223D01*
X84582000Y-37400542D01*
X84582000Y-37275458D01*
X84557597Y-37152777D01*
X84509729Y-37037215D01*
X84440236Y-36933211D01*
X84351789Y-36844764D01*
X84247785Y-36775271D01*
X84132223Y-36727403D01*
X84009542Y-36703000D01*
X83884458Y-36703000D01*
X83761777Y-36727403D01*
X83646215Y-36775271D01*
X83542211Y-36844764D01*
X83453764Y-36933211D01*
X83384271Y-37037215D01*
X83336403Y-37152777D01*
X83312000Y-37275458D01*
X83312000Y-37400542D01*
X83336403Y-37523223D01*
X83384271Y-37638785D01*
X83453764Y-37742789D01*
X83489801Y-37778826D01*
X83489800Y-38545622D01*
X82665423Y-39370000D01*
X82614458Y-39370000D01*
X82491777Y-39394403D01*
X82376215Y-39442271D01*
X82272211Y-39511764D01*
X82183764Y-39600211D01*
X82114271Y-39704215D01*
X82066403Y-39819777D01*
X82042000Y-39942458D01*
X80160297Y-39942458D01*
X80183785Y-39932729D01*
X80287789Y-39863236D01*
X80376236Y-39774789D01*
X80445729Y-39670785D01*
X80493597Y-39555223D01*
X80518000Y-39432542D01*
X80518000Y-39381578D01*
X80730170Y-39169408D01*
X80730175Y-39169402D01*
X80825403Y-39074174D01*
X80842853Y-39059853D01*
X80899987Y-38990236D01*
X80942441Y-38910809D01*
X80968585Y-38824627D01*
X80975200Y-38757460D01*
X80975200Y-38757451D01*
X80977411Y-38735001D01*
X80975200Y-38712551D01*
X80975200Y-37778825D01*
X81011236Y-37742789D01*
X81080729Y-37638785D01*
X81128597Y-37523223D01*
X81153000Y-37400542D01*
X81153000Y-37275458D01*
X81128597Y-37152777D01*
X81080729Y-37037215D01*
X81011236Y-36933211D01*
X80922789Y-36844764D01*
X80818785Y-36775271D01*
X80703223Y-36727403D01*
X80580542Y-36703000D01*
X80455458Y-36703000D01*
X80332777Y-36727403D01*
X80217215Y-36775271D01*
X80113211Y-36844764D01*
X80024764Y-36933211D01*
X79955271Y-37037215D01*
X79907403Y-37152777D01*
X79883000Y-37275458D01*
X79883000Y-37400542D01*
X79907403Y-37523223D01*
X79955271Y-37638785D01*
X80024764Y-37742789D01*
X80060800Y-37778825D01*
X80060801Y-38545621D01*
X79871422Y-38735000D01*
X79820458Y-38735000D01*
X79697777Y-38759403D01*
X79582215Y-38807271D01*
X79478211Y-38876764D01*
X79389764Y-38965211D01*
X79320271Y-39069215D01*
X79272403Y-39184777D01*
X79248000Y-39307458D01*
X77570808Y-39307458D01*
X77524729Y-39196215D01*
X77455236Y-39092211D01*
X77407200Y-39044175D01*
X77407200Y-37905825D01*
X77443236Y-37869789D01*
X77512729Y-37765785D01*
X77560597Y-37650223D01*
X77585000Y-37527542D01*
X77585000Y-37402458D01*
X77560597Y-37279777D01*
X77512729Y-37164215D01*
X77443236Y-37060211D01*
X77354789Y-36971764D01*
X77250785Y-36902271D01*
X77135223Y-36854403D01*
X77012542Y-36830000D01*
X76887458Y-36830000D01*
X76764777Y-36854403D01*
X76649215Y-36902271D01*
X76545211Y-36971764D01*
X76456764Y-37060211D01*
X76387271Y-37164215D01*
X76339403Y-37279777D01*
X76315000Y-37402458D01*
X71477200Y-37402458D01*
X71477200Y-33547795D01*
X71561413Y-33512913D01*
X71748620Y-33387826D01*
X71907826Y-33228620D01*
X72032913Y-33041413D01*
X72119075Y-32833401D01*
X72163000Y-32612576D01*
X72163000Y-32387424D01*
X72119075Y-32166599D01*
X72032913Y-31958587D01*
X71907826Y-31771380D01*
X71748620Y-31612174D01*
X71561413Y-31487087D01*
X71353401Y-31400925D01*
X71157713Y-31362000D01*
X72798000Y-31362000D01*
X72798000Y-31645554D01*
X72672174Y-31771380D01*
X72547087Y-31958587D01*
X72460925Y-32166599D01*
X72417000Y-32387424D01*
X72417000Y-32612576D01*
X72460925Y-32833401D01*
X72547087Y-33041413D01*
X72672174Y-33228620D01*
X72831380Y-33387826D01*
X73018587Y-33512913D01*
X73226599Y-33599075D01*
X73447424Y-33643000D01*
X73672576Y-33643000D01*
X73893401Y-33599075D01*
X74101413Y-33512913D01*
X74288620Y-33387826D01*
X74447826Y-33228620D01*
X74572913Y-33041413D01*
X74659075Y-32833401D01*
X74703000Y-32612576D01*
X74703000Y-32387424D01*
X74659075Y-32166599D01*
X74572913Y-31958587D01*
X74447826Y-31771380D01*
X74322000Y-31645554D01*
X74322000Y-31362000D01*
X75962287Y-31362000D01*
X75766599Y-31400925D01*
X75558587Y-31487087D01*
X75371380Y-31612174D01*
X75212174Y-31771380D01*
X75087087Y-31958587D01*
X75000925Y-32166599D01*
X74957000Y-32387424D01*
X74957000Y-32612576D01*
X75000925Y-32833401D01*
X75087087Y-33041413D01*
X75212174Y-33228620D01*
X75371380Y-33387826D01*
X75558587Y-33512913D01*
X75766599Y-33599075D01*
X75987424Y-33643000D01*
X76212576Y-33643000D01*
X76433401Y-33599075D01*
X76641413Y-33512913D01*
X76828620Y-33387826D01*
X76987826Y-33228620D01*
X77112913Y-33041413D01*
X77199075Y-32833401D01*
X77243000Y-32612576D01*
X77243000Y-32387424D01*
X77199075Y-32166599D01*
X77112913Y-31958587D01*
X76987826Y-31771380D01*
X76828620Y-31612174D01*
X76641413Y-31487087D01*
X76433401Y-31400925D01*
X76237713Y-31362000D01*
X78502287Y-31362000D01*
X78306599Y-31400925D01*
X78098587Y-31487087D01*
X77911380Y-31612174D01*
X77752174Y-31771380D01*
X77627087Y-31958587D01*
X77540925Y-32166599D01*
X77497000Y-32387424D01*
X77497000Y-32612576D01*
X77540925Y-32833401D01*
X77627087Y-33041413D01*
X77752174Y-33228620D01*
X77911380Y-33387826D01*
X78098587Y-33512913D01*
X78306599Y-33599075D01*
X78527424Y-33643000D01*
X78752576Y-33643000D01*
X78973401Y-33599075D01*
X79181413Y-33512913D01*
X79368620Y-33387826D01*
X79527826Y-33228620D01*
X79652913Y-33041413D01*
X79739075Y-32833401D01*
X79783000Y-32612576D01*
X79783000Y-32387424D01*
X79739075Y-32166599D01*
X79652913Y-31958587D01*
X79527826Y-31771380D01*
X79368620Y-31612174D01*
X79181413Y-31487087D01*
X78973401Y-31400925D01*
X78777713Y-31362000D01*
X81042287Y-31362000D01*
X80846599Y-31400925D01*
X80638587Y-31487087D01*
X80451380Y-31612174D01*
X80292174Y-31771380D01*
X80167087Y-31958587D01*
X80080925Y-32166599D01*
X80037000Y-32387424D01*
X80037000Y-32612576D01*
X80080925Y-32833401D01*
X80167087Y-33041413D01*
X80292174Y-33228620D01*
X80451380Y-33387826D01*
X80638587Y-33512913D01*
X80846599Y-33599075D01*
X81067424Y-33643000D01*
X81292576Y-33643000D01*
X81513401Y-33599075D01*
X81721413Y-33512913D01*
X81908620Y-33387826D01*
X82067826Y-33228620D01*
X82192913Y-33041413D01*
X82279075Y-32833401D01*
X82323000Y-32612576D01*
X82323000Y-32387424D01*
X82279075Y-32166599D01*
X82192913Y-31958587D01*
X82067826Y-31771380D01*
X81908620Y-31612174D01*
X81721413Y-31487087D01*
X81513401Y-31400925D01*
X81317713Y-31362000D01*
X99618097Y-31362000D01*
X99613355Y-31367778D01*
X99595629Y-31400941D01*
X99574724Y-31432228D01*
X99560323Y-31466996D01*
X99542599Y-31500155D01*
X99531685Y-31536133D01*
X99517283Y-31570903D01*
X99509941Y-31607812D01*
X99499027Y-31643792D01*
X99495341Y-31681213D01*
X99488000Y-31718120D01*
X99488000Y-31755747D01*
X99484314Y-31793170D01*
X99488000Y-31830593D01*
X99488000Y-31868220D01*
X99495341Y-31905127D01*
X99499027Y-31942548D01*
X99509941Y-31978528D01*
X99517283Y-32015437D01*
X99531685Y-32050207D01*
X99542599Y-32086185D01*
X99560323Y-32119344D01*
X99574724Y-32154112D01*
X99595629Y-32185399D01*
X99613355Y-32218562D01*
X99637211Y-32247630D01*
X99658116Y-32278917D01*
X99764253Y-32385054D01*
X99764256Y-32385056D01*
X105944478Y-38565279D01*
X105944484Y-38565284D01*
X107623591Y-40244391D01*
X107623590Y-57323590D01*
X105746662Y-57323590D01*
X105709239Y-57319904D01*
X105671816Y-57323590D01*
X105671813Y-57323590D01*
X105559861Y-57334616D01*
X105416224Y-57378188D01*
X105365623Y-57405235D01*
X105283846Y-57448945D01*
X105201143Y-57516818D01*
X105167817Y-57544168D01*
X105143960Y-57573238D01*
X100844200Y-61873000D01*
X96313773Y-61873000D01*
X96058067Y-61490309D01*
X95509691Y-60941933D01*
X94864869Y-60511076D01*
X94148380Y-60214297D01*
X93387761Y-60063000D01*
X92612239Y-60063000D01*
X91851620Y-60214297D01*
X91135131Y-60511076D01*
X90490309Y-60941933D01*
X89941933Y-61490309D01*
X89686227Y-61873000D01*
X82435977Y-61873000D01*
X82628811Y-61680166D01*
X82646256Y-61665849D01*
X82703390Y-61596232D01*
X82745844Y-61516805D01*
X82771988Y-61430623D01*
X82778603Y-61363456D01*
X82778603Y-61363447D01*
X82780814Y-61340997D01*
X82778603Y-61318547D01*
X82778603Y-57590825D01*
X82814639Y-57554789D01*
X82884132Y-57450785D01*
X82932000Y-57335223D01*
X82956403Y-57212542D01*
X82956403Y-57087458D01*
X82932000Y-56964777D01*
X82884132Y-56849215D01*
X82814639Y-56745211D01*
X82726192Y-56656764D01*
X82622188Y-56587271D01*
X82506626Y-56539403D01*
X82383945Y-56515000D01*
X82258861Y-56515000D01*
X82136180Y-56539403D01*
X82020618Y-56587271D01*
X81991202Y-56606926D01*
X81961785Y-56587271D01*
X81846223Y-56539403D01*
X81723542Y-56515000D01*
X81598458Y-56515000D01*
X81475777Y-56539403D01*
X81360215Y-56587271D01*
X81256211Y-56656764D01*
X81167764Y-56745211D01*
X81098271Y-56849215D01*
X81050403Y-56964777D01*
X81026000Y-57087458D01*
X81026000Y-57212542D01*
X81050403Y-57335223D01*
X81098271Y-57450785D01*
X81167764Y-57554789D01*
X81210262Y-57597287D01*
X81210415Y-57598837D01*
X81228363Y-57657999D01*
X81236560Y-57685019D01*
X81276957Y-57760597D01*
X81279014Y-57764446D01*
X81336148Y-57834063D01*
X81353592Y-57848379D01*
X81559393Y-58054181D01*
X81559394Y-61025361D01*
X81218367Y-61366389D01*
X80055544Y-61366389D01*
X80033094Y-61364178D01*
X80010644Y-61366389D01*
X80010635Y-61366389D01*
X79943468Y-61373004D01*
X79857286Y-61399148D01*
X79777859Y-61441602D01*
X79708242Y-61498736D01*
X79693925Y-61516181D01*
X79337106Y-61873000D01*
X57313773Y-61873000D01*
X57058067Y-61490309D01*
X56509691Y-60941933D01*
X55864869Y-60511076D01*
X55148380Y-60214297D01*
X54387761Y-60063000D01*
X53612239Y-60063000D01*
X52851620Y-60214297D01*
X52135131Y-60511076D01*
X51490309Y-60941933D01*
X50941933Y-61490309D01*
X50881000Y-61581502D01*
X50881000Y-59944000D01*
X70226085Y-59944000D01*
X70231000Y-59993902D01*
X70231000Y-60044067D01*
X70240787Y-60093271D01*
X70245702Y-60143171D01*
X70260257Y-60191151D01*
X70270044Y-60240356D01*
X70289244Y-60286709D01*
X70303798Y-60334687D01*
X70327433Y-60378905D01*
X70346632Y-60425256D01*
X70374503Y-60466968D01*
X70398140Y-60511190D01*
X70429952Y-60549953D01*
X70457821Y-60591662D01*
X70493292Y-60627133D01*
X70525104Y-60665896D01*
X70563867Y-60697708D01*
X70599338Y-60733179D01*
X70641047Y-60761048D01*
X70679810Y-60792860D01*
X70724032Y-60816497D01*
X70765744Y-60844368D01*
X70812095Y-60863567D01*
X70856313Y-60887202D01*
X70904291Y-60901756D01*
X70950644Y-60920956D01*
X70999849Y-60930743D01*
X71047829Y-60945298D01*
X71097729Y-60950213D01*
X71146933Y-60960000D01*
X79221067Y-60960000D01*
X79270271Y-60950213D01*
X79320171Y-60945298D01*
X79368151Y-60930743D01*
X79417356Y-60920956D01*
X79463709Y-60901756D01*
X79511687Y-60887202D01*
X79555905Y-60863567D01*
X79602256Y-60844368D01*
X79643968Y-60816497D01*
X79688190Y-60792860D01*
X79726953Y-60761048D01*
X79768662Y-60733179D01*
X79804133Y-60697708D01*
X79842896Y-60665896D01*
X79874708Y-60627133D01*
X79910179Y-60591662D01*
X79938048Y-60549953D01*
X79969860Y-60511190D01*
X79993497Y-60466968D01*
X80021368Y-60425256D01*
X80040567Y-60378905D01*
X80064202Y-60334687D01*
X80078756Y-60286709D01*
X80097956Y-60240356D01*
X80107743Y-60191151D01*
X80122298Y-60143171D01*
X80127213Y-60093271D01*
X80137000Y-60044067D01*
X80137000Y-59993902D01*
X80141915Y-59944000D01*
X80137000Y-59894098D01*
X80137000Y-59843933D01*
X80127213Y-59794729D01*
X80122298Y-59744829D01*
X80107743Y-59696849D01*
X80097956Y-59647644D01*
X80078756Y-59601291D01*
X80064202Y-59553313D01*
X80040567Y-59509095D01*
X80021368Y-59462744D01*
X79993497Y-59421032D01*
X79969860Y-59376810D01*
X79938048Y-59338047D01*
X79910179Y-59296338D01*
X79874708Y-59260867D01*
X79842896Y-59222104D01*
X79804133Y-59190292D01*
X79768662Y-59154821D01*
X79726953Y-59126952D01*
X79688190Y-59095140D01*
X79643968Y-59071503D01*
X79602256Y-59043632D01*
X79555905Y-59024433D01*
X79511687Y-59000798D01*
X79463709Y-58986244D01*
X79417356Y-58967044D01*
X79368151Y-58957257D01*
X79320171Y-58942702D01*
X79270271Y-58937787D01*
X79221067Y-58928000D01*
X71146933Y-58928000D01*
X71097729Y-58937787D01*
X71047829Y-58942702D01*
X70999849Y-58957257D01*
X70950644Y-58967044D01*
X70904291Y-58986244D01*
X70856313Y-59000798D01*
X70812095Y-59024433D01*
X70765744Y-59043632D01*
X70724032Y-59071503D01*
X70679810Y-59095140D01*
X70641047Y-59126952D01*
X70599338Y-59154821D01*
X70563867Y-59190292D01*
X70525104Y-59222104D01*
X70493292Y-59260867D01*
X70457821Y-59296338D01*
X70429952Y-59338047D01*
X70398140Y-59376810D01*
X70374503Y-59421032D01*
X70346632Y-59462744D01*
X70327433Y-59509095D01*
X70303798Y-59553313D01*
X70289244Y-59601291D01*
X70270044Y-59647644D01*
X70260257Y-59696849D01*
X70245702Y-59744829D01*
X70240787Y-59794729D01*
X70231000Y-59843933D01*
X70231000Y-59894098D01*
X70226085Y-59944000D01*
X50881000Y-59944000D01*
X50881000Y-51182593D01*
X50881457Y-51182782D01*
X50959973Y-51198400D01*
X51385700Y-51198400D01*
X51487300Y-51096800D01*
X51487300Y-50304700D01*
X51512700Y-50304700D01*
X51512700Y-51096800D01*
X51614300Y-51198400D01*
X52040027Y-51198400D01*
X52118543Y-51182782D01*
X52192503Y-51152147D01*
X52259065Y-51107671D01*
X52315672Y-51051065D01*
X52360147Y-50984503D01*
X52390782Y-50910542D01*
X52406400Y-50832027D01*
X52406400Y-50610458D01*
X55825000Y-50610458D01*
X55825000Y-50735542D01*
X55849403Y-50858223D01*
X55897271Y-50973785D01*
X55966764Y-51077789D01*
X56055211Y-51166236D01*
X56159215Y-51235729D01*
X56274777Y-51283597D01*
X56397458Y-51308000D01*
X56431580Y-51308000D01*
X63885150Y-58761571D01*
X63901052Y-58780948D01*
X63920429Y-58796850D01*
X63978404Y-58844429D01*
X64066655Y-58891600D01*
X64066657Y-58891601D01*
X64162415Y-58920649D01*
X64237053Y-58928000D01*
X64237055Y-58928000D01*
X64261999Y-58930457D01*
X64286943Y-58928000D01*
X65149307Y-58928000D01*
X65231215Y-58982729D01*
X65346777Y-59030597D01*
X65469458Y-59055000D01*
X65594542Y-59055000D01*
X65717223Y-59030597D01*
X65832785Y-58982729D01*
X65936789Y-58913236D01*
X66025236Y-58824789D01*
X66094729Y-58720785D01*
X66142597Y-58605223D01*
X66167000Y-58482542D01*
X66167000Y-58357458D01*
X66142597Y-58234777D01*
X66094729Y-58119215D01*
X66025236Y-58015211D01*
X65936789Y-57926764D01*
X65832785Y-57857271D01*
X65717223Y-57809403D01*
X65594542Y-57785000D01*
X65469458Y-57785000D01*
X65388995Y-57801005D01*
X65405000Y-57720542D01*
X65405000Y-57595458D01*
X65380597Y-57472777D01*
X65332729Y-57357215D01*
X65263236Y-57253211D01*
X65174789Y-57164764D01*
X65070785Y-57095271D01*
X64955223Y-57047403D01*
X64832542Y-57023000D01*
X64781577Y-57023000D01*
X64719200Y-56960623D01*
X64719200Y-53277458D01*
X64897000Y-53277458D01*
X64897000Y-53402542D01*
X64921403Y-53525223D01*
X64969271Y-53640785D01*
X65038764Y-53744789D01*
X65127211Y-53833236D01*
X65149307Y-53848000D01*
X65127211Y-53862764D01*
X65038764Y-53951211D01*
X64969271Y-54055215D01*
X64921403Y-54170777D01*
X64897000Y-54293458D01*
X64897000Y-54418542D01*
X64921403Y-54541223D01*
X64969271Y-54656785D01*
X65038764Y-54760789D01*
X65127211Y-54849236D01*
X65231215Y-54918729D01*
X65346777Y-54966597D01*
X65469458Y-54991000D01*
X65594542Y-54991000D01*
X65717223Y-54966597D01*
X65832785Y-54918729D01*
X65936789Y-54849236D01*
X65972825Y-54813200D01*
X78934175Y-54813200D01*
X78970211Y-54849236D01*
X79074215Y-54918729D01*
X79189777Y-54966597D01*
X79312458Y-54991000D01*
X79437542Y-54991000D01*
X79560223Y-54966597D01*
X79675785Y-54918729D01*
X79779789Y-54849236D01*
X79868236Y-54760789D01*
X79937729Y-54656785D01*
X79985597Y-54541223D01*
X80010000Y-54418542D01*
X80010000Y-54293458D01*
X79985597Y-54170777D01*
X79937729Y-54055215D01*
X79868236Y-53951211D01*
X79779789Y-53862764D01*
X79675785Y-53793271D01*
X79560223Y-53745403D01*
X79437542Y-53721000D01*
X79312458Y-53721000D01*
X79189777Y-53745403D01*
X79074215Y-53793271D01*
X78970211Y-53862764D01*
X78934175Y-53898800D01*
X75236665Y-53898800D01*
X75334789Y-53833236D01*
X75423236Y-53744789D01*
X75492729Y-53640785D01*
X75540597Y-53525223D01*
X75565000Y-53402542D01*
X75565000Y-53277458D01*
X75540597Y-53154777D01*
X75492729Y-53039215D01*
X75423236Y-52935211D01*
X75334789Y-52846764D01*
X75230785Y-52777271D01*
X75115223Y-52729403D01*
X74992542Y-52705000D01*
X74867458Y-52705000D01*
X74744777Y-52729403D01*
X74629215Y-52777271D01*
X74525211Y-52846764D01*
X74489175Y-52882800D01*
X65972825Y-52882800D01*
X65936789Y-52846764D01*
X65832785Y-52777271D01*
X65717223Y-52729403D01*
X65594542Y-52705000D01*
X65469458Y-52705000D01*
X65346777Y-52729403D01*
X65231215Y-52777271D01*
X65127211Y-52846764D01*
X65038764Y-52935211D01*
X64969271Y-53039215D01*
X64921403Y-53154777D01*
X64897000Y-53277458D01*
X64719200Y-53277458D01*
X64719200Y-50227377D01*
X65035578Y-49911000D01*
X65086542Y-49911000D01*
X65209223Y-49886597D01*
X65324785Y-49838729D01*
X65428789Y-49769236D01*
X65517236Y-49680789D01*
X65586729Y-49576785D01*
X65634597Y-49461223D01*
X65659000Y-49338542D01*
X65659000Y-49213458D01*
X65634597Y-49090777D01*
X65586729Y-48975215D01*
X65517236Y-48871211D01*
X65428789Y-48782764D01*
X65324785Y-48713271D01*
X65209223Y-48665403D01*
X65086542Y-48641000D01*
X64961458Y-48641000D01*
X64838777Y-48665403D01*
X64723215Y-48713271D01*
X64619211Y-48782764D01*
X64530764Y-48871211D01*
X64461271Y-48975215D01*
X64413403Y-49090777D01*
X64389000Y-49213458D01*
X64389000Y-49264422D01*
X63954592Y-49698831D01*
X63937148Y-49713147D01*
X63922831Y-49730592D01*
X63922830Y-49730593D01*
X63880013Y-49782765D01*
X63848233Y-49842223D01*
X63837560Y-49862191D01*
X63811416Y-49948373D01*
X63810489Y-49957785D01*
X63802589Y-50038000D01*
X63804801Y-50060460D01*
X63804800Y-57127550D01*
X63802589Y-57150000D01*
X63804800Y-57172450D01*
X63804800Y-57172459D01*
X63811415Y-57239626D01*
X63816365Y-57255944D01*
X57076159Y-50515739D01*
X57070597Y-50487777D01*
X57022729Y-50372215D01*
X56953236Y-50268211D01*
X56864789Y-50179764D01*
X56760785Y-50110271D01*
X56645223Y-50062403D01*
X56522542Y-50038000D01*
X56397458Y-50038000D01*
X56274777Y-50062403D01*
X56159215Y-50110271D01*
X56055211Y-50179764D01*
X55966764Y-50268211D01*
X55897271Y-50372215D01*
X55849403Y-50487777D01*
X55825000Y-50610458D01*
X52406400Y-50610458D01*
X52406400Y-50406300D01*
X52304800Y-50304700D01*
X51512700Y-50304700D01*
X51487300Y-50304700D01*
X51467300Y-50304700D01*
X51467300Y-50279300D01*
X51487300Y-50279300D01*
X51487300Y-49487200D01*
X51512700Y-49487200D01*
X51512700Y-50279300D01*
X52304800Y-50279300D01*
X52406400Y-50177700D01*
X52406400Y-49751973D01*
X52390782Y-49673458D01*
X52360147Y-49599497D01*
X52315672Y-49532935D01*
X52259065Y-49476329D01*
X52192503Y-49431853D01*
X52118543Y-49401218D01*
X52040027Y-49385600D01*
X51614300Y-49385600D01*
X51512700Y-49487200D01*
X51487300Y-49487200D01*
X51385700Y-49385600D01*
X50959973Y-49385600D01*
X50881457Y-49401218D01*
X50881000Y-49401407D01*
X50881000Y-47816458D01*
X73787000Y-47816458D01*
X73787000Y-47941542D01*
X73811403Y-48064223D01*
X73859271Y-48179785D01*
X73928764Y-48283789D01*
X73964800Y-48319825D01*
X73964801Y-50105174D01*
X73928764Y-50141211D01*
X73859271Y-50245215D01*
X73811403Y-50360777D01*
X73787000Y-50483458D01*
X73787000Y-50608542D01*
X73811403Y-50731223D01*
X73859271Y-50846785D01*
X73928764Y-50950789D01*
X74017211Y-51039236D01*
X74121215Y-51108729D01*
X74236777Y-51156597D01*
X74359458Y-51181000D01*
X74484542Y-51181000D01*
X74607223Y-51156597D01*
X74722785Y-51108729D01*
X74826789Y-51039236D01*
X74915236Y-50950789D01*
X74984729Y-50846785D01*
X75032597Y-50731223D01*
X75057000Y-50608542D01*
X75057000Y-50483458D01*
X75032597Y-50360777D01*
X74984729Y-50245215D01*
X74915236Y-50141211D01*
X74879200Y-50105175D01*
X74879200Y-48726225D01*
X74906211Y-48753236D01*
X74952785Y-48784356D01*
X74930000Y-48898905D01*
X74930000Y-49023989D01*
X74954403Y-49146670D01*
X75002271Y-49262232D01*
X75071764Y-49366236D01*
X75160211Y-49454683D01*
X75205751Y-49485111D01*
X75184000Y-49594458D01*
X75184000Y-49719542D01*
X75208403Y-49842223D01*
X75256271Y-49957785D01*
X75325764Y-50061789D01*
X75414211Y-50150236D01*
X75449119Y-50173561D01*
X75438000Y-50229458D01*
X75438000Y-50354542D01*
X75462403Y-50477223D01*
X75510271Y-50592785D01*
X75579764Y-50696789D01*
X75668211Y-50785236D01*
X75772215Y-50854729D01*
X75887777Y-50902597D01*
X76010458Y-50927000D01*
X76135542Y-50927000D01*
X76258223Y-50902597D01*
X76373785Y-50854729D01*
X76477789Y-50785236D01*
X76566236Y-50696789D01*
X76635729Y-50592785D01*
X76683597Y-50477223D01*
X76708000Y-50354542D01*
X76708000Y-50303577D01*
X78243569Y-48768010D01*
X79387820Y-48768010D01*
X79375000Y-48832458D01*
X79375000Y-48957542D01*
X79399403Y-49080223D01*
X79447271Y-49195785D01*
X79516764Y-49299789D01*
X79552800Y-49335825D01*
X79552801Y-50994174D01*
X79516764Y-51030211D01*
X79447271Y-51134215D01*
X79399403Y-51249777D01*
X79375000Y-51372458D01*
X79375000Y-51497542D01*
X79399403Y-51620223D01*
X79447271Y-51735785D01*
X79516764Y-51839789D01*
X79605211Y-51928236D01*
X79709215Y-51997729D01*
X79824777Y-52045597D01*
X79947458Y-52070000D01*
X80072542Y-52070000D01*
X80195223Y-52045597D01*
X80310785Y-51997729D01*
X80414789Y-51928236D01*
X80503236Y-51839789D01*
X80572729Y-51735785D01*
X80620597Y-51620223D01*
X80645000Y-51497542D01*
X80645000Y-51372458D01*
X80620597Y-51249777D01*
X80572729Y-51134215D01*
X80503236Y-51030211D01*
X80467200Y-50994175D01*
X80467200Y-49335825D01*
X80503236Y-49299789D01*
X80572729Y-49195785D01*
X80620597Y-49080223D01*
X80645000Y-48957542D01*
X80645000Y-48832458D01*
X80632180Y-48768010D01*
X88573433Y-48768010D01*
X90707213Y-50901791D01*
X90631215Y-50933271D01*
X90527211Y-51002764D01*
X90438764Y-51091211D01*
X90369271Y-51195215D01*
X90321403Y-51310777D01*
X90297000Y-51433458D01*
X90297000Y-51558542D01*
X90321403Y-51681223D01*
X90369271Y-51796785D01*
X90438764Y-51900789D01*
X90527211Y-51989236D01*
X90631215Y-52058729D01*
X90746777Y-52106597D01*
X90869458Y-52131000D01*
X90920423Y-52131000D01*
X92141000Y-53351578D01*
X92141000Y-53402542D01*
X92165403Y-53525223D01*
X92213271Y-53640785D01*
X92282764Y-53744789D01*
X92371211Y-53833236D01*
X92475215Y-53902729D01*
X92590777Y-53950597D01*
X92713458Y-53975000D01*
X92838542Y-53975000D01*
X92961223Y-53950597D01*
X93076785Y-53902729D01*
X93180789Y-53833236D01*
X93269236Y-53744789D01*
X93284000Y-53722693D01*
X93298764Y-53744789D01*
X93387211Y-53833236D01*
X93491215Y-53902729D01*
X93606777Y-53950597D01*
X93729458Y-53975000D01*
X93854542Y-53975000D01*
X93977223Y-53950597D01*
X94092785Y-53902729D01*
X94196789Y-53833236D01*
X94285236Y-53744789D01*
X94300000Y-53722693D01*
X94314764Y-53744789D01*
X94403211Y-53833236D01*
X94507215Y-53902729D01*
X94622777Y-53950597D01*
X94745458Y-53975000D01*
X94870542Y-53975000D01*
X94993223Y-53950597D01*
X95108785Y-53902729D01*
X95212789Y-53833236D01*
X95301236Y-53744789D01*
X95316000Y-53722693D01*
X95330764Y-53744789D01*
X95419211Y-53833236D01*
X95523215Y-53902729D01*
X95638777Y-53950597D01*
X95761458Y-53975000D01*
X95886542Y-53975000D01*
X96009223Y-53950597D01*
X96124785Y-53902729D01*
X96228789Y-53833236D01*
X96317236Y-53744789D01*
X96386729Y-53640785D01*
X96434597Y-53525223D01*
X96459000Y-53402542D01*
X96459000Y-53277458D01*
X96434597Y-53154777D01*
X96394176Y-53057192D01*
X96467019Y-52984349D01*
X96484463Y-52970033D01*
X96516534Y-52930955D01*
X96541597Y-52900417D01*
X96584050Y-52820990D01*
X96584051Y-52820989D01*
X96610195Y-52734807D01*
X96616810Y-52667640D01*
X96616810Y-52667631D01*
X96619021Y-52645181D01*
X96616810Y-52622731D01*
X96616810Y-47304941D01*
X96619021Y-47282491D01*
X96616810Y-47260041D01*
X96616810Y-47260032D01*
X96610195Y-47192865D01*
X96584051Y-47106683D01*
X96551012Y-47044870D01*
X96541597Y-47027255D01*
X96498780Y-46975084D01*
X96484463Y-46957639D01*
X96467018Y-46943322D01*
X96141682Y-46617987D01*
X96127361Y-46600537D01*
X96057744Y-46543403D01*
X95978317Y-46500949D01*
X95892135Y-46474805D01*
X95824968Y-46468190D01*
X95824958Y-46468190D01*
X95802508Y-46465979D01*
X95780058Y-46468190D01*
X76668059Y-46468190D01*
X76645609Y-46465979D01*
X76623160Y-46468190D01*
X76623150Y-46468190D01*
X76555983Y-46474805D01*
X76469801Y-46500949D01*
X76390374Y-46543403D01*
X76320757Y-46600537D01*
X76306436Y-46617987D01*
X76273598Y-46650825D01*
X76273592Y-46650830D01*
X75299423Y-47625000D01*
X75248458Y-47625000D01*
X75125777Y-47649403D01*
X75030554Y-47688846D01*
X74984729Y-47578215D01*
X74915236Y-47474211D01*
X74826789Y-47385764D01*
X74722785Y-47316271D01*
X74607223Y-47268403D01*
X74484542Y-47244000D01*
X74359458Y-47244000D01*
X74236777Y-47268403D01*
X74121215Y-47316271D01*
X74017211Y-47385764D01*
X73928764Y-47474211D01*
X73859271Y-47578215D01*
X73811403Y-47693777D01*
X73787000Y-47816458D01*
X50881000Y-47816458D01*
X50881000Y-40000000D01*
X50851998Y-39854198D01*
X50850651Y-39852183D01*
X50853492Y-39853701D01*
X50925311Y-39875487D01*
X51000000Y-39882843D01*
X52000000Y-39882843D01*
X52074689Y-39875487D01*
X52146508Y-39853701D01*
X52212696Y-39818322D01*
X52270711Y-39770711D01*
X52287707Y-39750000D01*
X55707157Y-39750000D01*
X55707157Y-42150000D01*
X55714513Y-42224689D01*
X55736299Y-42296508D01*
X55771678Y-42362696D01*
X55819289Y-42420711D01*
X55877304Y-42468322D01*
X55943492Y-42503701D01*
X55952000Y-42506282D01*
X55952001Y-44321306D01*
X55897271Y-44403215D01*
X55849403Y-44518777D01*
X55825000Y-44641458D01*
X55825000Y-44766542D01*
X55849403Y-44889223D01*
X55897271Y-45004785D01*
X55966764Y-45108789D01*
X56055211Y-45197236D01*
X56159215Y-45266729D01*
X56274777Y-45314597D01*
X56397458Y-45339000D01*
X56522542Y-45339000D01*
X56645223Y-45314597D01*
X56760785Y-45266729D01*
X56864789Y-45197236D01*
X56953236Y-45108789D01*
X57022729Y-45004785D01*
X57070597Y-44889223D01*
X57095000Y-44766542D01*
X57095000Y-44641458D01*
X57070597Y-44518777D01*
X57022729Y-44403215D01*
X56968000Y-44321307D01*
X56968000Y-42506282D01*
X56976508Y-42503701D01*
X57042696Y-42468322D01*
X57095000Y-42425398D01*
X57147304Y-42468322D01*
X57213492Y-42503701D01*
X57285311Y-42525487D01*
X57360000Y-42532843D01*
X58100000Y-42532843D01*
X58174689Y-42525487D01*
X58246508Y-42503701D01*
X58312696Y-42468322D01*
X58365000Y-42425398D01*
X58417304Y-42468322D01*
X58483492Y-42503701D01*
X58555311Y-42525487D01*
X58630000Y-42532843D01*
X59370000Y-42532843D01*
X59444689Y-42525487D01*
X59516508Y-42503701D01*
X59582696Y-42468322D01*
X59635000Y-42425398D01*
X59687304Y-42468322D01*
X59753492Y-42503701D01*
X59812801Y-42521692D01*
X59812801Y-42739174D01*
X59776764Y-42775211D01*
X59707271Y-42879215D01*
X59659403Y-42994777D01*
X59635000Y-43117458D01*
X59635000Y-43242542D01*
X59659403Y-43365223D01*
X59707271Y-43480785D01*
X59776764Y-43584789D01*
X59865211Y-43673236D01*
X59969215Y-43742729D01*
X60084777Y-43790597D01*
X60207458Y-43815000D01*
X60332542Y-43815000D01*
X60455223Y-43790597D01*
X60570785Y-43742729D01*
X60674789Y-43673236D01*
X60763236Y-43584789D01*
X60832729Y-43480785D01*
X60880597Y-43365223D01*
X60905000Y-43242542D01*
X60929403Y-43365223D01*
X60977271Y-43480785D01*
X61046764Y-43584789D01*
X61135211Y-43673236D01*
X61239215Y-43742729D01*
X61354777Y-43790597D01*
X61477458Y-43815000D01*
X61602542Y-43815000D01*
X61725223Y-43790597D01*
X61840785Y-43742729D01*
X61944789Y-43673236D01*
X62033236Y-43584789D01*
X62102729Y-43480785D01*
X62150597Y-43365223D01*
X62175000Y-43242542D01*
X62175000Y-43117458D01*
X62150597Y-42994777D01*
X62102729Y-42879215D01*
X62033236Y-42775211D01*
X61997200Y-42739175D01*
X61997200Y-42521692D01*
X62056508Y-42503701D01*
X62122696Y-42468322D01*
X62180711Y-42420711D01*
X62228322Y-42362696D01*
X62263701Y-42296508D01*
X62285487Y-42224689D01*
X62292843Y-42150000D01*
X62292843Y-41339458D01*
X70485000Y-41339458D01*
X70485000Y-41464542D01*
X70509403Y-41587223D01*
X70557271Y-41702785D01*
X70626764Y-41806789D01*
X70715211Y-41895236D01*
X70819215Y-41964729D01*
X70866000Y-41984108D01*
X70866000Y-42099542D01*
X70890403Y-42222223D01*
X70938271Y-42337785D01*
X71007764Y-42441789D01*
X71096211Y-42530236D01*
X71200215Y-42599729D01*
X71315777Y-42647597D01*
X71438458Y-42672000D01*
X71489423Y-42672000D01*
X73701830Y-44884408D01*
X73716147Y-44901853D01*
X73733592Y-44916170D01*
X73785763Y-44958987D01*
X73816634Y-44975487D01*
X73865191Y-45001441D01*
X73951373Y-45027585D01*
X74018540Y-45034200D01*
X74018549Y-45034200D01*
X74040999Y-45036411D01*
X74063449Y-45034200D01*
X97398801Y-45034200D01*
X97398800Y-52899175D01*
X97362764Y-52935211D01*
X97293271Y-53039215D01*
X97245403Y-53154777D01*
X97221000Y-53277458D01*
X97221000Y-53402542D01*
X97245403Y-53525223D01*
X97293271Y-53640785D01*
X97362764Y-53744789D01*
X97451211Y-53833236D01*
X97555215Y-53902729D01*
X97670777Y-53950597D01*
X97793458Y-53975000D01*
X97918542Y-53975000D01*
X98041223Y-53950597D01*
X98156785Y-53902729D01*
X98260789Y-53833236D01*
X98349236Y-53744789D01*
X98418729Y-53640785D01*
X98466597Y-53525223D01*
X98491000Y-53402542D01*
X98491000Y-53277458D01*
X98466597Y-53154777D01*
X98418729Y-53039215D01*
X98349236Y-52935211D01*
X98313200Y-52899175D01*
X98313200Y-44599460D01*
X98315412Y-44577000D01*
X98306585Y-44487373D01*
X98280441Y-44401191D01*
X98237987Y-44321764D01*
X98180853Y-44252147D01*
X98111236Y-44195013D01*
X98031809Y-44152559D01*
X98007551Y-44145200D01*
X99430801Y-44145200D01*
X99430800Y-52899175D01*
X99394764Y-52935211D01*
X99325271Y-53039215D01*
X99277403Y-53154777D01*
X99253000Y-53277458D01*
X99253000Y-53402542D01*
X99277403Y-53525223D01*
X99325271Y-53640785D01*
X99394764Y-53744789D01*
X99483211Y-53833236D01*
X99587215Y-53902729D01*
X99702777Y-53950597D01*
X99825458Y-53975000D01*
X99950542Y-53975000D01*
X100073223Y-53950597D01*
X100188785Y-53902729D01*
X100292789Y-53833236D01*
X100381236Y-53744789D01*
X100450729Y-53640785D01*
X100498597Y-53525223D01*
X100523000Y-53402542D01*
X100523000Y-53277458D01*
X100498597Y-53154777D01*
X100450729Y-53039215D01*
X100381236Y-52935211D01*
X100345200Y-52899175D01*
X100345200Y-43710460D01*
X100347412Y-43688000D01*
X100338585Y-43598373D01*
X100312441Y-43512191D01*
X100269987Y-43432764D01*
X100212853Y-43363147D01*
X100143236Y-43306013D01*
X100063809Y-43263559D01*
X99977627Y-43237415D01*
X99910460Y-43230800D01*
X99888000Y-43228588D01*
X99865540Y-43230800D01*
X74230378Y-43230800D01*
X73482036Y-42482458D01*
X79375000Y-42482458D01*
X79375000Y-42607542D01*
X79399403Y-42730223D01*
X79447271Y-42845785D01*
X79516764Y-42949789D01*
X79605211Y-43038236D01*
X79709215Y-43107729D01*
X79824777Y-43155597D01*
X79947458Y-43180000D01*
X80072542Y-43180000D01*
X80195223Y-43155597D01*
X80310785Y-43107729D01*
X80414789Y-43038236D01*
X80450825Y-43002200D01*
X92650175Y-43002200D01*
X92686211Y-43038236D01*
X92790215Y-43107729D01*
X92905777Y-43155597D01*
X93028458Y-43180000D01*
X93153542Y-43180000D01*
X93276223Y-43155597D01*
X93391785Y-43107729D01*
X93495789Y-43038236D01*
X93584236Y-42949789D01*
X93653729Y-42845785D01*
X93701597Y-42730223D01*
X93726000Y-42607542D01*
X93726000Y-42482458D01*
X93701597Y-42359777D01*
X93653729Y-42244215D01*
X93584236Y-42140211D01*
X93495789Y-42051764D01*
X93391785Y-41982271D01*
X93276223Y-41934403D01*
X93153542Y-41910000D01*
X93028458Y-41910000D01*
X92905777Y-41934403D01*
X92790215Y-41982271D01*
X92686211Y-42051764D01*
X92650175Y-42087800D01*
X80450825Y-42087800D01*
X80414789Y-42051764D01*
X80310785Y-41982271D01*
X80195223Y-41934403D01*
X80072542Y-41910000D01*
X79947458Y-41910000D01*
X79824777Y-41934403D01*
X79709215Y-41982271D01*
X79605211Y-42051764D01*
X79516764Y-42140211D01*
X79447271Y-42244215D01*
X79399403Y-42359777D01*
X79375000Y-42482458D01*
X73482036Y-42482458D01*
X72094174Y-41094597D01*
X72079853Y-41077147D01*
X72010236Y-41020013D01*
X71930809Y-40977559D01*
X71844627Y-40951415D01*
X71777460Y-40944800D01*
X71777450Y-40944800D01*
X71755000Y-40942589D01*
X71732550Y-40944800D01*
X71560825Y-40944800D01*
X71524789Y-40908764D01*
X71420785Y-40839271D01*
X71305223Y-40791403D01*
X71182542Y-40767000D01*
X71057458Y-40767000D01*
X70934777Y-40791403D01*
X70819215Y-40839271D01*
X70715211Y-40908764D01*
X70626764Y-40997211D01*
X70557271Y-41101215D01*
X70509403Y-41216777D01*
X70485000Y-41339458D01*
X62292843Y-41339458D01*
X62292843Y-39750000D01*
X62285487Y-39675311D01*
X62263701Y-39603492D01*
X62228322Y-39537304D01*
X62180711Y-39479289D01*
X62122696Y-39431678D01*
X62056508Y-39396299D01*
X61984689Y-39374513D01*
X61910000Y-39367157D01*
X61170000Y-39367157D01*
X61095311Y-39374513D01*
X61023492Y-39396299D01*
X60957304Y-39431678D01*
X60905000Y-39474602D01*
X60852696Y-39431678D01*
X60786508Y-39396299D01*
X60714689Y-39374513D01*
X60640000Y-39367157D01*
X59900000Y-39367157D01*
X59825311Y-39374513D01*
X59753492Y-39396299D01*
X59687304Y-39431678D01*
X59635000Y-39474602D01*
X59582696Y-39431678D01*
X59516508Y-39396299D01*
X59444689Y-39374513D01*
X59370000Y-39367157D01*
X58630000Y-39367157D01*
X58555311Y-39374513D01*
X58483492Y-39396299D01*
X58417304Y-39431678D01*
X58365000Y-39474602D01*
X58312696Y-39431678D01*
X58246508Y-39396299D01*
X58174689Y-39374513D01*
X58100000Y-39367157D01*
X57360000Y-39367157D01*
X57285311Y-39374513D01*
X57213492Y-39396299D01*
X57147304Y-39431678D01*
X57095000Y-39474602D01*
X57042696Y-39431678D01*
X56976508Y-39396299D01*
X56904689Y-39374513D01*
X56830000Y-39367157D01*
X56090000Y-39367157D01*
X56015311Y-39374513D01*
X55943492Y-39396299D01*
X55877304Y-39431678D01*
X55819289Y-39479289D01*
X55771678Y-39537304D01*
X55736299Y-39603492D01*
X55714513Y-39675311D01*
X55707157Y-39750000D01*
X52287707Y-39750000D01*
X52318322Y-39712696D01*
X52353701Y-39646508D01*
X52375487Y-39574689D01*
X52382843Y-39500000D01*
X52382843Y-38500000D01*
X52375487Y-38425311D01*
X52353701Y-38353492D01*
X52318322Y-38287304D01*
X52270711Y-38229289D01*
X52212696Y-38181678D01*
X52146508Y-38146299D01*
X52074689Y-38124513D01*
X52000000Y-38117157D01*
X51000000Y-38117157D01*
X50925311Y-38124513D01*
X50853492Y-38146299D01*
X50787304Y-38181678D01*
X50729289Y-38229289D01*
X50681678Y-38287304D01*
X50646299Y-38353492D01*
X50624513Y-38425311D01*
X50617157Y-38500000D01*
X50617157Y-39500000D01*
X50624513Y-39574689D01*
X50646299Y-39646508D01*
X50647817Y-39649349D01*
X50645802Y-39648002D01*
X50500000Y-39619000D01*
X41348330Y-39619000D01*
X41357048Y-39605953D01*
X41388860Y-39567190D01*
X41412497Y-39522968D01*
X41440368Y-39481256D01*
X41459567Y-39434905D01*
X41483202Y-39390687D01*
X41497756Y-39342709D01*
X41516956Y-39296356D01*
X41526743Y-39247151D01*
X41541298Y-39199171D01*
X41546213Y-39149271D01*
X41556000Y-39100067D01*
X41556000Y-35850000D01*
X55707157Y-35850000D01*
X55707157Y-38250000D01*
X55714513Y-38324689D01*
X55736299Y-38396508D01*
X55771678Y-38462696D01*
X55819289Y-38520711D01*
X55877304Y-38568322D01*
X55943492Y-38603701D01*
X56015311Y-38625487D01*
X56090000Y-38632843D01*
X56830000Y-38632843D01*
X56904689Y-38625487D01*
X56976508Y-38603701D01*
X57042696Y-38568322D01*
X57095000Y-38525398D01*
X57147304Y-38568322D01*
X57213492Y-38603701D01*
X57285311Y-38625487D01*
X57360000Y-38632843D01*
X58100000Y-38632843D01*
X58174689Y-38625487D01*
X58246508Y-38603701D01*
X58312696Y-38568322D01*
X58365000Y-38525398D01*
X58417304Y-38568322D01*
X58483492Y-38603701D01*
X58555311Y-38625487D01*
X58630000Y-38632843D01*
X59370000Y-38632843D01*
X59444689Y-38625487D01*
X59516508Y-38603701D01*
X59582696Y-38568322D01*
X59635000Y-38525398D01*
X59687304Y-38568322D01*
X59753492Y-38603701D01*
X59825311Y-38625487D01*
X59900000Y-38632843D01*
X60640000Y-38632843D01*
X60714689Y-38625487D01*
X60786508Y-38603701D01*
X60852696Y-38568322D01*
X60886139Y-38540876D01*
X60910935Y-38565672D01*
X60977497Y-38610147D01*
X61051458Y-38640782D01*
X61129973Y-38656400D01*
X61425700Y-38656400D01*
X61527300Y-38554800D01*
X61527300Y-37062700D01*
X61552700Y-37062700D01*
X61552700Y-38554800D01*
X61654300Y-38656400D01*
X61950027Y-38656400D01*
X62028542Y-38640782D01*
X62102503Y-38610147D01*
X62169065Y-38565672D01*
X62225671Y-38509065D01*
X62270147Y-38442503D01*
X62300782Y-38368543D01*
X62316400Y-38290027D01*
X62316400Y-37164300D01*
X62214800Y-37062700D01*
X61552700Y-37062700D01*
X61527300Y-37062700D01*
X61507300Y-37062700D01*
X61507300Y-37037300D01*
X61527300Y-37037300D01*
X61527300Y-35545200D01*
X61552700Y-35545200D01*
X61552700Y-37037300D01*
X62214800Y-37037300D01*
X62316400Y-36935700D01*
X62316400Y-35809973D01*
X62300782Y-35731457D01*
X62270147Y-35657497D01*
X62225671Y-35590935D01*
X62169065Y-35534328D01*
X62102503Y-35489853D01*
X62028542Y-35459218D01*
X61950027Y-35443600D01*
X61654300Y-35443600D01*
X61552700Y-35545200D01*
X61527300Y-35545200D01*
X61425700Y-35443600D01*
X61129973Y-35443600D01*
X61051458Y-35459218D01*
X60977497Y-35489853D01*
X60910935Y-35534328D01*
X60905000Y-35540263D01*
X60905000Y-35437458D01*
X60880597Y-35314777D01*
X60832729Y-35199215D01*
X60763236Y-35095211D01*
X60674789Y-35006764D01*
X60570785Y-34937271D01*
X60455223Y-34889403D01*
X60332542Y-34865000D01*
X60207458Y-34865000D01*
X60084777Y-34889403D01*
X59969215Y-34937271D01*
X59865211Y-35006764D01*
X59776764Y-35095211D01*
X59707271Y-35199215D01*
X59659403Y-35314777D01*
X59635000Y-35437458D01*
X59610597Y-35314777D01*
X59562729Y-35199215D01*
X59493236Y-35095211D01*
X59404789Y-35006764D01*
X59300785Y-34937271D01*
X59185223Y-34889403D01*
X59062542Y-34865000D01*
X58937458Y-34865000D01*
X58814777Y-34889403D01*
X58699215Y-34937271D01*
X58595211Y-35006764D01*
X58506764Y-35095211D01*
X58437271Y-35199215D01*
X58389403Y-35314777D01*
X58365000Y-35437458D01*
X58365000Y-35562542D01*
X58367062Y-35572910D01*
X58365000Y-35574602D01*
X58312696Y-35531678D01*
X58246508Y-35496299D01*
X58174689Y-35474513D01*
X58100000Y-35467157D01*
X57360000Y-35467157D01*
X57285311Y-35474513D01*
X57213492Y-35496299D01*
X57147304Y-35531678D01*
X57095000Y-35574602D01*
X57092938Y-35572910D01*
X57095000Y-35562542D01*
X57095000Y-35437458D01*
X57070597Y-35314777D01*
X57022729Y-35199215D01*
X56953236Y-35095211D01*
X56864789Y-35006764D01*
X56760785Y-34937271D01*
X56645223Y-34889403D01*
X56522542Y-34865000D01*
X56397458Y-34865000D01*
X56274777Y-34889403D01*
X56159215Y-34937271D01*
X56055211Y-35006764D01*
X55966764Y-35095211D01*
X55897271Y-35199215D01*
X55849403Y-35314777D01*
X55825000Y-35437458D01*
X55825000Y-35562542D01*
X55827062Y-35572910D01*
X55819289Y-35579289D01*
X55771678Y-35637304D01*
X55736299Y-35703492D01*
X55714513Y-35775311D01*
X55707157Y-35850000D01*
X41556000Y-35850000D01*
X41556000Y-33033960D01*
X41639075Y-32833401D01*
X41683000Y-32612576D01*
X41683000Y-32434630D01*
X42002063Y-32115567D01*
X41980925Y-32166599D01*
X41937000Y-32387424D01*
X41937000Y-32612576D01*
X41980925Y-32833401D01*
X42067087Y-33041413D01*
X42192174Y-33228620D01*
X42351380Y-33387826D01*
X42538587Y-33512913D01*
X42746599Y-33599075D01*
X42967424Y-33643000D01*
X43192576Y-33643000D01*
X43413401Y-33599075D01*
X43621413Y-33512913D01*
X43808620Y-33387826D01*
X43967826Y-33228620D01*
X44092913Y-33041413D01*
X44179075Y-32833401D01*
X44223000Y-32612576D01*
X44223000Y-32387424D01*
X44179075Y-32166599D01*
X44092913Y-31958587D01*
X43967826Y-31771380D01*
X43808620Y-31612174D01*
X43621413Y-31487087D01*
X43413401Y-31400925D01*
X43217713Y-31362000D01*
X45482287Y-31362000D01*
X45286599Y-31400925D01*
M02*
