G04 #@! TF.GenerationSoftware,KiCad,Pcbnew,(5.0.0-rc2-dev-640-gbf135b0)*
G04 #@! TF.CreationDate,2018-05-13T18:52:19-05:00*
G04 #@! TF.ProjectId,WiFi-Septic-Controller,576946692D5365707469632D436F6E74,rev?*
G04 #@! TF.SameCoordinates,Original*
G04 #@! TF.FileFunction,Legend,Bot*
G04 #@! TF.FilePolarity,Positive*
%FSLAX46Y46*%
G04 Gerber Fmt 4.6, Leading zero omitted, Abs format (unit mm)*
G04 Created by KiCad (PCBNEW (5.0.0-rc2-dev-640-gbf135b0)) date Sunday, May 13, 2018 at 06:52:19 PM*
%MOMM*%
%LPD*%
G01*
G04 APERTURE LIST*
%ADD10C,0.304800*%
%ADD11C,0.120000*%
%ADD12C,0.400000*%
%ADD13C,0.152400*%
%ADD14C,0.127000*%
%ADD15C,0.203200*%
%ADD16C,0.010000*%
%ADD17C,0.150000*%
G04 APERTURE END LIST*
D10*
X63315022Y-104641428D02*
X63315022Y-103117428D01*
X63315022Y-103698000D02*
X63169880Y-103625428D01*
X62879594Y-103625428D01*
X62734451Y-103698000D01*
X62661880Y-103770571D01*
X62589308Y-103915714D01*
X62589308Y-104351142D01*
X62661880Y-104496285D01*
X62734451Y-104568857D01*
X62879594Y-104641428D01*
X63169880Y-104641428D01*
X63315022Y-104568857D01*
X62081308Y-103625428D02*
X61718451Y-104641428D01*
X61355594Y-103625428D02*
X61718451Y-104641428D01*
X61863594Y-105004285D01*
X61936165Y-105076857D01*
X62081308Y-105149428D01*
X59613880Y-104641428D02*
X59613880Y-103117428D01*
X59105880Y-104206000D01*
X58597880Y-103117428D01*
X58597880Y-104641428D01*
X57872165Y-104641428D02*
X57872165Y-103625428D01*
X57872165Y-103117428D02*
X57944737Y-103190000D01*
X57872165Y-103262571D01*
X57799594Y-103190000D01*
X57872165Y-103117428D01*
X57872165Y-103262571D01*
X57146451Y-104641428D02*
X57146451Y-103117428D01*
X57001308Y-104060857D02*
X56565880Y-104641428D01*
X56565880Y-103625428D02*
X57146451Y-104206000D01*
X55332165Y-104568857D02*
X55477308Y-104641428D01*
X55767594Y-104641428D01*
X55912737Y-104568857D01*
X55985308Y-104423714D01*
X55985308Y-103843142D01*
X55912737Y-103698000D01*
X55767594Y-103625428D01*
X55477308Y-103625428D01*
X55332165Y-103698000D01*
X55259594Y-103843142D01*
X55259594Y-103988285D01*
X55985308Y-104133428D01*
X52719594Y-104641428D02*
X53445308Y-104641428D01*
X53445308Y-103117428D01*
X51558451Y-104641428D02*
X51558451Y-103843142D01*
X51631022Y-103698000D01*
X51776165Y-103625428D01*
X52066451Y-103625428D01*
X52211594Y-103698000D01*
X51558451Y-104568857D02*
X51703594Y-104641428D01*
X52066451Y-104641428D01*
X52211594Y-104568857D01*
X52284165Y-104423714D01*
X52284165Y-104278571D01*
X52211594Y-104133428D01*
X52066451Y-104060857D01*
X51703594Y-104060857D01*
X51558451Y-103988285D01*
X50977880Y-103625428D02*
X50687594Y-104641428D01*
X50397308Y-103915714D01*
X50107022Y-104641428D01*
X49816737Y-103625428D01*
X49236165Y-104641428D02*
X49236165Y-103625428D01*
X49236165Y-103915714D02*
X49163594Y-103770571D01*
X49091022Y-103698000D01*
X48945880Y-103625428D01*
X48800737Y-103625428D01*
X47712165Y-104568857D02*
X47857308Y-104641428D01*
X48147594Y-104641428D01*
X48292737Y-104568857D01*
X48365308Y-104423714D01*
X48365308Y-103843142D01*
X48292737Y-103698000D01*
X48147594Y-103625428D01*
X47857308Y-103625428D01*
X47712165Y-103698000D01*
X47639594Y-103843142D01*
X47639594Y-103988285D01*
X48365308Y-104133428D01*
X46986451Y-103625428D02*
X46986451Y-104641428D01*
X46986451Y-103770571D02*
X46913880Y-103698000D01*
X46768737Y-103625428D01*
X46551022Y-103625428D01*
X46405880Y-103698000D01*
X46333308Y-103843142D01*
X46333308Y-104641428D01*
X44954451Y-104568857D02*
X45099594Y-104641428D01*
X45389880Y-104641428D01*
X45535022Y-104568857D01*
X45607594Y-104496285D01*
X45680165Y-104351142D01*
X45680165Y-103915714D01*
X45607594Y-103770571D01*
X45535022Y-103698000D01*
X45389880Y-103625428D01*
X45099594Y-103625428D01*
X44954451Y-103698000D01*
X43720737Y-104568857D02*
X43865880Y-104641428D01*
X44156165Y-104641428D01*
X44301308Y-104568857D01*
X44373880Y-104423714D01*
X44373880Y-103843142D01*
X44301308Y-103698000D01*
X44156165Y-103625428D01*
X43865880Y-103625428D01*
X43720737Y-103698000D01*
X43648165Y-103843142D01*
X43648165Y-103988285D01*
X44373880Y-104133428D01*
X62444165Y-107181428D02*
X62952165Y-106455714D01*
X63315022Y-107181428D02*
X63315022Y-105657428D01*
X62734451Y-105657428D01*
X62589308Y-105730000D01*
X62516737Y-105802571D01*
X62444165Y-105947714D01*
X62444165Y-106165428D01*
X62516737Y-106310571D01*
X62589308Y-106383142D01*
X62734451Y-106455714D01*
X63315022Y-106455714D01*
X61210451Y-107108857D02*
X61355594Y-107181428D01*
X61645880Y-107181428D01*
X61791022Y-107108857D01*
X61863594Y-106963714D01*
X61863594Y-106383142D01*
X61791022Y-106238000D01*
X61645880Y-106165428D01*
X61355594Y-106165428D01*
X61210451Y-106238000D01*
X61137880Y-106383142D01*
X61137880Y-106528285D01*
X61863594Y-106673428D01*
X60629880Y-106165428D02*
X60267022Y-107181428D01*
X59904165Y-106165428D01*
X57364165Y-107181428D02*
X58235022Y-107181428D01*
X57799594Y-107181428D02*
X57799594Y-105657428D01*
X57944737Y-105875142D01*
X58089880Y-106020285D01*
X58235022Y-106092857D01*
X56711022Y-107036285D02*
X56638451Y-107108857D01*
X56711022Y-107181428D01*
X56783594Y-107108857D01*
X56711022Y-107036285D01*
X56711022Y-107181428D01*
X55695022Y-105657428D02*
X55549880Y-105657428D01*
X55404737Y-105730000D01*
X55332165Y-105802571D01*
X55259594Y-105947714D01*
X55187022Y-106238000D01*
X55187022Y-106600857D01*
X55259594Y-106891142D01*
X55332165Y-107036285D01*
X55404737Y-107108857D01*
X55549880Y-107181428D01*
X55695022Y-107181428D01*
X55840165Y-107108857D01*
X55912737Y-107036285D01*
X55985308Y-106891142D01*
X56057880Y-106600857D01*
X56057880Y-106238000D01*
X55985308Y-105947714D01*
X55912737Y-105802571D01*
X55840165Y-105730000D01*
X55695022Y-105657428D01*
X53372737Y-107181428D02*
X53372737Y-105657428D01*
X52864737Y-106746000D01*
X52356737Y-105657428D01*
X52356737Y-107181428D01*
X50977880Y-107181428D02*
X50977880Y-106383142D01*
X51050451Y-106238000D01*
X51195594Y-106165428D01*
X51485880Y-106165428D01*
X51631022Y-106238000D01*
X50977880Y-107108857D02*
X51123022Y-107181428D01*
X51485880Y-107181428D01*
X51631022Y-107108857D01*
X51703594Y-106963714D01*
X51703594Y-106818571D01*
X51631022Y-106673428D01*
X51485880Y-106600857D01*
X51123022Y-106600857D01*
X50977880Y-106528285D01*
X50397308Y-106165428D02*
X50034451Y-107181428D01*
X49671594Y-106165428D02*
X50034451Y-107181428D01*
X50179594Y-107544285D01*
X50252165Y-107616857D01*
X50397308Y-107689428D01*
X48002451Y-105802571D02*
X47929880Y-105730000D01*
X47784737Y-105657428D01*
X47421880Y-105657428D01*
X47276737Y-105730000D01*
X47204165Y-105802571D01*
X47131594Y-105947714D01*
X47131594Y-106092857D01*
X47204165Y-106310571D01*
X48075022Y-107181428D01*
X47131594Y-107181428D01*
X46188165Y-105657428D02*
X46043022Y-105657428D01*
X45897880Y-105730000D01*
X45825308Y-105802571D01*
X45752737Y-105947714D01*
X45680165Y-106238000D01*
X45680165Y-106600857D01*
X45752737Y-106891142D01*
X45825308Y-107036285D01*
X45897880Y-107108857D01*
X46043022Y-107181428D01*
X46188165Y-107181428D01*
X46333308Y-107108857D01*
X46405880Y-107036285D01*
X46478451Y-106891142D01*
X46551022Y-106600857D01*
X46551022Y-106238000D01*
X46478451Y-105947714D01*
X46405880Y-105802571D01*
X46333308Y-105730000D01*
X46188165Y-105657428D01*
X44228737Y-107181428D02*
X45099594Y-107181428D01*
X44664165Y-107181428D02*
X44664165Y-105657428D01*
X44809308Y-105875142D01*
X44954451Y-106020285D01*
X45099594Y-106092857D01*
X43357880Y-106310571D02*
X43503022Y-106238000D01*
X43575594Y-106165428D01*
X43648165Y-106020285D01*
X43648165Y-105947714D01*
X43575594Y-105802571D01*
X43503022Y-105730000D01*
X43357880Y-105657428D01*
X43067594Y-105657428D01*
X42922451Y-105730000D01*
X42849880Y-105802571D01*
X42777308Y-105947714D01*
X42777308Y-106020285D01*
X42849880Y-106165428D01*
X42922451Y-106238000D01*
X43067594Y-106310571D01*
X43357880Y-106310571D01*
X43503022Y-106383142D01*
X43575594Y-106455714D01*
X43648165Y-106600857D01*
X43648165Y-106891142D01*
X43575594Y-107036285D01*
X43503022Y-107108857D01*
X43357880Y-107181428D01*
X43067594Y-107181428D01*
X42922451Y-107108857D01*
X42849880Y-107036285D01*
X42777308Y-106891142D01*
X42777308Y-106600857D01*
X42849880Y-106455714D01*
X42922451Y-106383142D01*
X43067594Y-106310571D01*
X63405737Y-100368785D02*
X62952165Y-102273785D01*
X62589308Y-100913071D01*
X62226451Y-102273785D01*
X61772880Y-100368785D01*
X61047165Y-102273785D02*
X61047165Y-101003785D01*
X61047165Y-100368785D02*
X61137880Y-100459500D01*
X61047165Y-100550214D01*
X60956451Y-100459500D01*
X61047165Y-100368785D01*
X61047165Y-100550214D01*
X59505022Y-101275928D02*
X60140022Y-101275928D01*
X60140022Y-102273785D02*
X60140022Y-100368785D01*
X59232880Y-100368785D01*
X58507165Y-102273785D02*
X58507165Y-101003785D01*
X58507165Y-100368785D02*
X58597880Y-100459500D01*
X58507165Y-100550214D01*
X58416451Y-100459500D01*
X58507165Y-100368785D01*
X58507165Y-100550214D01*
X56239308Y-102183071D02*
X55967165Y-102273785D01*
X55513594Y-102273785D01*
X55332165Y-102183071D01*
X55241451Y-102092357D01*
X55150737Y-101910928D01*
X55150737Y-101729500D01*
X55241451Y-101548071D01*
X55332165Y-101457357D01*
X55513594Y-101366642D01*
X55876451Y-101275928D01*
X56057880Y-101185214D01*
X56148594Y-101094500D01*
X56239308Y-100913071D01*
X56239308Y-100731642D01*
X56148594Y-100550214D01*
X56057880Y-100459500D01*
X55876451Y-100368785D01*
X55422880Y-100368785D01*
X55150737Y-100459500D01*
X53608594Y-102183071D02*
X53790022Y-102273785D01*
X54152880Y-102273785D01*
X54334308Y-102183071D01*
X54425022Y-102001642D01*
X54425022Y-101275928D01*
X54334308Y-101094500D01*
X54152880Y-101003785D01*
X53790022Y-101003785D01*
X53608594Y-101094500D01*
X53517880Y-101275928D01*
X53517880Y-101457357D01*
X54425022Y-101638785D01*
X52701451Y-101003785D02*
X52701451Y-102908785D01*
X52701451Y-101094500D02*
X52520022Y-101003785D01*
X52157165Y-101003785D01*
X51975737Y-101094500D01*
X51885022Y-101185214D01*
X51794308Y-101366642D01*
X51794308Y-101910928D01*
X51885022Y-102092357D01*
X51975737Y-102183071D01*
X52157165Y-102273785D01*
X52520022Y-102273785D01*
X52701451Y-102183071D01*
X51250022Y-101003785D02*
X50524308Y-101003785D01*
X50977880Y-100368785D02*
X50977880Y-102001642D01*
X50887165Y-102183071D01*
X50705737Y-102273785D01*
X50524308Y-102273785D01*
X49889308Y-102273785D02*
X49889308Y-101003785D01*
X49889308Y-100368785D02*
X49980022Y-100459500D01*
X49889308Y-100550214D01*
X49798594Y-100459500D01*
X49889308Y-100368785D01*
X49889308Y-100550214D01*
X48165737Y-102183071D02*
X48347165Y-102273785D01*
X48710022Y-102273785D01*
X48891451Y-102183071D01*
X48982165Y-102092357D01*
X49072880Y-101910928D01*
X49072880Y-101366642D01*
X48982165Y-101185214D01*
X48891451Y-101094500D01*
X48710022Y-101003785D01*
X48347165Y-101003785D01*
X48165737Y-101094500D01*
X44809308Y-102092357D02*
X44900022Y-102183071D01*
X45172165Y-102273785D01*
X45353594Y-102273785D01*
X45625737Y-102183071D01*
X45807165Y-102001642D01*
X45897880Y-101820214D01*
X45988594Y-101457357D01*
X45988594Y-101185214D01*
X45897880Y-100822357D01*
X45807165Y-100640928D01*
X45625737Y-100459500D01*
X45353594Y-100368785D01*
X45172165Y-100368785D01*
X44900022Y-100459500D01*
X44809308Y-100550214D01*
X43720737Y-102273785D02*
X43902165Y-102183071D01*
X43992880Y-102092357D01*
X44083594Y-101910928D01*
X44083594Y-101366642D01*
X43992880Y-101185214D01*
X43902165Y-101094500D01*
X43720737Y-101003785D01*
X43448594Y-101003785D01*
X43267165Y-101094500D01*
X43176451Y-101185214D01*
X43085737Y-101366642D01*
X43085737Y-101910928D01*
X43176451Y-102092357D01*
X43267165Y-102183071D01*
X43448594Y-102273785D01*
X43720737Y-102273785D01*
X42269308Y-101003785D02*
X42269308Y-102273785D01*
X42269308Y-101185214D02*
X42178594Y-101094500D01*
X41997165Y-101003785D01*
X41725022Y-101003785D01*
X41543594Y-101094500D01*
X41452880Y-101275928D01*
X41452880Y-102273785D01*
X40817880Y-101003785D02*
X40092165Y-101003785D01*
X40545737Y-100368785D02*
X40545737Y-102001642D01*
X40455022Y-102183071D01*
X40273594Y-102273785D01*
X40092165Y-102273785D01*
X39457165Y-102273785D02*
X39457165Y-101003785D01*
X39457165Y-101366642D02*
X39366451Y-101185214D01*
X39275737Y-101094500D01*
X39094308Y-101003785D01*
X38912880Y-101003785D01*
X38005737Y-102273785D02*
X38187165Y-102183071D01*
X38277880Y-102092357D01*
X38368594Y-101910928D01*
X38368594Y-101366642D01*
X38277880Y-101185214D01*
X38187165Y-101094500D01*
X38005737Y-101003785D01*
X37733594Y-101003785D01*
X37552165Y-101094500D01*
X37461451Y-101185214D01*
X37370737Y-101366642D01*
X37370737Y-101910928D01*
X37461451Y-102092357D01*
X37552165Y-102183071D01*
X37733594Y-102273785D01*
X38005737Y-102273785D01*
X36282165Y-102273785D02*
X36463594Y-102183071D01*
X36554308Y-102001642D01*
X36554308Y-100368785D01*
X35284308Y-102273785D02*
X35465737Y-102183071D01*
X35556451Y-102001642D01*
X35556451Y-100368785D01*
X33832880Y-102183071D02*
X34014308Y-102273785D01*
X34377165Y-102273785D01*
X34558594Y-102183071D01*
X34649308Y-102001642D01*
X34649308Y-101275928D01*
X34558594Y-101094500D01*
X34377165Y-101003785D01*
X34014308Y-101003785D01*
X33832880Y-101094500D01*
X33742165Y-101275928D01*
X33742165Y-101457357D01*
X34649308Y-101638785D01*
X32925737Y-102273785D02*
X32925737Y-101003785D01*
X32925737Y-101366642D02*
X32835022Y-101185214D01*
X32744308Y-101094500D01*
X32562880Y-101003785D01*
X32381451Y-101003785D01*
D11*
X47500000Y-41930000D02*
X48500000Y-41930000D01*
X48500000Y-40570000D02*
X47500000Y-40570000D01*
X45000000Y-41930000D02*
X46000000Y-41930000D01*
X46000000Y-40570000D02*
X45000000Y-40570000D01*
D12*
X44550000Y-42450000D02*
G75*
G03X44550000Y-42450000I-100000J0D01*
G01*
D13*
X48750000Y-42750000D02*
X44750000Y-42750000D01*
X48750000Y-46750000D02*
X48750000Y-42750000D01*
X44750000Y-46750000D02*
X48750000Y-46750000D01*
X44750000Y-42750000D02*
X44750000Y-46750000D01*
D11*
X48900000Y-44500000D02*
X48900000Y-43500000D01*
X50600000Y-43500000D02*
X50600000Y-44500000D01*
X42900000Y-43500000D02*
X42900000Y-44200000D01*
X44100000Y-44200000D02*
X44100000Y-43500000D01*
X46500000Y-47400000D02*
X47500000Y-47400000D01*
X47500000Y-49100000D02*
X46500000Y-49100000D01*
D14*
X109800000Y-55615000D02*
X109800000Y-40885000D01*
D15*
X90900000Y-39135000D02*
G75*
G03X90900000Y-39135000I-150000J0D01*
G01*
D14*
X90100000Y-40885000D02*
X88080000Y-40885000D01*
X88080000Y-40885000D02*
X88080000Y-42900000D01*
X88080000Y-54350000D02*
X88080000Y-55615000D01*
X88080000Y-55615000D02*
X91100000Y-55615000D01*
D16*
G36*
X53320808Y-89865166D02*
X53233015Y-89908540D01*
X53124751Y-89984122D01*
X53045845Y-90066542D01*
X52991805Y-90170037D01*
X52958141Y-90308843D01*
X52940363Y-90497194D01*
X52933980Y-90749328D01*
X52933607Y-90857724D01*
X52934696Y-91095287D01*
X52939222Y-91265068D01*
X52949068Y-91382550D01*
X52966118Y-91463215D01*
X52992259Y-91522545D01*
X53019458Y-91563020D01*
X53193080Y-91735225D01*
X53397538Y-91838806D01*
X53618104Y-91869960D01*
X53840046Y-91824885D01*
X53910360Y-91793009D01*
X54078689Y-91705271D01*
X54078689Y-93080172D01*
X53955838Y-93016643D01*
X53793967Y-92967491D01*
X53595005Y-92954900D01*
X53396328Y-92978147D01*
X53246290Y-93030370D01*
X53121841Y-93129826D01*
X53015508Y-93272143D01*
X53007513Y-93286755D01*
X52973793Y-93355582D01*
X52949166Y-93424956D01*
X52932214Y-93508996D01*
X52921519Y-93621816D01*
X52915662Y-93777533D01*
X52913227Y-93990265D01*
X52912787Y-94229664D01*
X52912787Y-94993443D01*
X53370820Y-94993443D01*
X53370820Y-93585108D01*
X53498933Y-93477308D01*
X53632018Y-93391079D01*
X53758048Y-93375401D01*
X53884778Y-93415747D01*
X53952317Y-93455254D01*
X54002586Y-93511527D01*
X54038338Y-93596572D01*
X54062328Y-93722394D01*
X54077311Y-93900998D01*
X54086040Y-94144391D01*
X54089114Y-94306394D01*
X54099508Y-94972623D01*
X54318115Y-94985209D01*
X54536721Y-94997795D01*
X54536721Y-90863464D01*
X54078689Y-90863464D01*
X54067011Y-91093953D01*
X54027662Y-91253950D01*
X53954166Y-91353497D01*
X53840049Y-91402639D01*
X53724754Y-91412459D01*
X53594238Y-91401175D01*
X53507617Y-91356764D01*
X53453451Y-91298081D01*
X53410810Y-91234962D01*
X53385426Y-91164645D01*
X53374131Y-91066123D01*
X53373760Y-90918387D01*
X53377560Y-90794683D01*
X53386288Y-90608328D01*
X53399280Y-90485982D01*
X53421159Y-90408377D01*
X53456546Y-90356245D01*
X53489941Y-90326111D01*
X53629475Y-90260399D01*
X53794619Y-90249787D01*
X53889446Y-90272423D01*
X53983334Y-90352881D01*
X54045526Y-90509392D01*
X54075669Y-90740852D01*
X54078689Y-90863464D01*
X54536721Y-90863464D01*
X54536721Y-89830164D01*
X54307705Y-89830164D01*
X54170206Y-89835602D01*
X54099267Y-89854909D01*
X54078697Y-89892576D01*
X54078689Y-89893692D01*
X54069145Y-89930581D01*
X54027051Y-89926393D01*
X53943361Y-89885859D01*
X53748354Y-89823850D01*
X53528954Y-89817332D01*
X53320808Y-89865166D01*
X53320808Y-89865166D01*
G37*
X53320808Y-89865166D02*
X53233015Y-89908540D01*
X53124751Y-89984122D01*
X53045845Y-90066542D01*
X52991805Y-90170037D01*
X52958141Y-90308843D01*
X52940363Y-90497194D01*
X52933980Y-90749328D01*
X52933607Y-90857724D01*
X52934696Y-91095287D01*
X52939222Y-91265068D01*
X52949068Y-91382550D01*
X52966118Y-91463215D01*
X52992259Y-91522545D01*
X53019458Y-91563020D01*
X53193080Y-91735225D01*
X53397538Y-91838806D01*
X53618104Y-91869960D01*
X53840046Y-91824885D01*
X53910360Y-91793009D01*
X54078689Y-91705271D01*
X54078689Y-93080172D01*
X53955838Y-93016643D01*
X53793967Y-92967491D01*
X53595005Y-92954900D01*
X53396328Y-92978147D01*
X53246290Y-93030370D01*
X53121841Y-93129826D01*
X53015508Y-93272143D01*
X53007513Y-93286755D01*
X52973793Y-93355582D01*
X52949166Y-93424956D01*
X52932214Y-93508996D01*
X52921519Y-93621816D01*
X52915662Y-93777533D01*
X52913227Y-93990265D01*
X52912787Y-94229664D01*
X52912787Y-94993443D01*
X53370820Y-94993443D01*
X53370820Y-93585108D01*
X53498933Y-93477308D01*
X53632018Y-93391079D01*
X53758048Y-93375401D01*
X53884778Y-93415747D01*
X53952317Y-93455254D01*
X54002586Y-93511527D01*
X54038338Y-93596572D01*
X54062328Y-93722394D01*
X54077311Y-93900998D01*
X54086040Y-94144391D01*
X54089114Y-94306394D01*
X54099508Y-94972623D01*
X54318115Y-94985209D01*
X54536721Y-94997795D01*
X54536721Y-90863464D01*
X54078689Y-90863464D01*
X54067011Y-91093953D01*
X54027662Y-91253950D01*
X53954166Y-91353497D01*
X53840049Y-91402639D01*
X53724754Y-91412459D01*
X53594238Y-91401175D01*
X53507617Y-91356764D01*
X53453451Y-91298081D01*
X53410810Y-91234962D01*
X53385426Y-91164645D01*
X53374131Y-91066123D01*
X53373760Y-90918387D01*
X53377560Y-90794683D01*
X53386288Y-90608328D01*
X53399280Y-90485982D01*
X53421159Y-90408377D01*
X53456546Y-90356245D01*
X53489941Y-90326111D01*
X53629475Y-90260399D01*
X53794619Y-90249787D01*
X53889446Y-90272423D01*
X53983334Y-90352881D01*
X54045526Y-90509392D01*
X54075669Y-90740852D01*
X54078689Y-90863464D01*
X54536721Y-90863464D01*
X54536721Y-89830164D01*
X54307705Y-89830164D01*
X54170206Y-89835602D01*
X54099267Y-89854909D01*
X54078697Y-89892576D01*
X54078689Y-89893692D01*
X54069145Y-89930581D01*
X54027051Y-89926393D01*
X53943361Y-89885859D01*
X53748354Y-89823850D01*
X53528954Y-89817332D01*
X53320808Y-89865166D01*
G36*
X51583779Y-92969247D02*
X51387889Y-93021514D01*
X51238767Y-93116253D01*
X51133535Y-93240338D01*
X51100821Y-93293296D01*
X51076669Y-93348768D01*
X51059784Y-93419730D01*
X51048873Y-93519154D01*
X51042640Y-93660016D01*
X51039791Y-93855289D01*
X51039032Y-94117948D01*
X51039016Y-94187633D01*
X51039016Y-94993443D01*
X51238885Y-94993443D01*
X51366370Y-94984515D01*
X51460634Y-94961896D01*
X51484251Y-94947946D01*
X51548815Y-94923870D01*
X51614759Y-94947946D01*
X51723332Y-94978003D01*
X51881042Y-94990100D01*
X52055844Y-94984851D01*
X52215693Y-94962869D01*
X52309016Y-94934663D01*
X52489609Y-94818731D01*
X52602470Y-94657847D01*
X52653209Y-94443936D01*
X52653680Y-94438443D01*
X52649227Y-94343547D01*
X52246557Y-94343547D01*
X52211354Y-94451484D01*
X52154014Y-94512229D01*
X52038913Y-94558172D01*
X51886986Y-94576512D01*
X51732061Y-94567485D01*
X51607964Y-94531332D01*
X51573197Y-94508137D01*
X51512444Y-94400960D01*
X51497049Y-94279120D01*
X51497049Y-94119017D01*
X51727403Y-94119017D01*
X51946241Y-94135863D01*
X52112137Y-94183593D01*
X52215338Y-94257986D01*
X52246557Y-94343547D01*
X52649227Y-94343547D01*
X52642713Y-94204731D01*
X52565631Y-94019946D01*
X52420714Y-93880206D01*
X52400683Y-93867495D01*
X52314610Y-93826105D01*
X52208073Y-93801041D01*
X52059141Y-93788858D01*
X51882213Y-93786057D01*
X51497049Y-93785902D01*
X51497049Y-93624443D01*
X51513387Y-93499168D01*
X51555078Y-93415241D01*
X51559959Y-93410773D01*
X51652736Y-93374059D01*
X51792784Y-93359828D01*
X51947555Y-93366821D01*
X52084499Y-93393780D01*
X52165759Y-93434212D01*
X52209790Y-93466601D01*
X52256285Y-93472784D01*
X52320451Y-93446248D01*
X52417495Y-93380479D01*
X52562626Y-93268963D01*
X52575947Y-93258516D01*
X52569121Y-93219862D01*
X52512178Y-93155572D01*
X52425630Y-93084131D01*
X52329992Y-93024021D01*
X52299944Y-93009827D01*
X52190341Y-92981503D01*
X52029735Y-92961300D01*
X51850302Y-92953196D01*
X51841911Y-92953180D01*
X51583779Y-92969247D01*
X51583779Y-92969247D01*
G37*
X51583779Y-92969247D02*
X51387889Y-93021514D01*
X51238767Y-93116253D01*
X51133535Y-93240338D01*
X51100821Y-93293296D01*
X51076669Y-93348768D01*
X51059784Y-93419730D01*
X51048873Y-93519154D01*
X51042640Y-93660016D01*
X51039791Y-93855289D01*
X51039032Y-94117948D01*
X51039016Y-94187633D01*
X51039016Y-94993443D01*
X51238885Y-94993443D01*
X51366370Y-94984515D01*
X51460634Y-94961896D01*
X51484251Y-94947946D01*
X51548815Y-94923870D01*
X51614759Y-94947946D01*
X51723332Y-94978003D01*
X51881042Y-94990100D01*
X52055844Y-94984851D01*
X52215693Y-94962869D01*
X52309016Y-94934663D01*
X52489609Y-94818731D01*
X52602470Y-94657847D01*
X52653209Y-94443936D01*
X52653680Y-94438443D01*
X52649227Y-94343547D01*
X52246557Y-94343547D01*
X52211354Y-94451484D01*
X52154014Y-94512229D01*
X52038913Y-94558172D01*
X51886986Y-94576512D01*
X51732061Y-94567485D01*
X51607964Y-94531332D01*
X51573197Y-94508137D01*
X51512444Y-94400960D01*
X51497049Y-94279120D01*
X51497049Y-94119017D01*
X51727403Y-94119017D01*
X51946241Y-94135863D01*
X52112137Y-94183593D01*
X52215338Y-94257986D01*
X52246557Y-94343547D01*
X52649227Y-94343547D01*
X52642713Y-94204731D01*
X52565631Y-94019946D01*
X52420714Y-93880206D01*
X52400683Y-93867495D01*
X52314610Y-93826105D01*
X52208073Y-93801041D01*
X52059141Y-93788858D01*
X51882213Y-93786057D01*
X51497049Y-93785902D01*
X51497049Y-93624443D01*
X51513387Y-93499168D01*
X51555078Y-93415241D01*
X51559959Y-93410773D01*
X51652736Y-93374059D01*
X51792784Y-93359828D01*
X51947555Y-93366821D01*
X52084499Y-93393780D01*
X52165759Y-93434212D01*
X52209790Y-93466601D01*
X52256285Y-93472784D01*
X52320451Y-93446248D01*
X52417495Y-93380479D01*
X52562626Y-93268963D01*
X52575947Y-93258516D01*
X52569121Y-93219862D01*
X52512178Y-93155572D01*
X52425630Y-93084131D01*
X52329992Y-93024021D01*
X52299944Y-93009827D01*
X52190341Y-92981503D01*
X52029735Y-92961300D01*
X51850302Y-92953196D01*
X51841911Y-92953180D01*
X51583779Y-92969247D01*
G36*
X50289475Y-92957540D02*
X50227163Y-92976218D01*
X50207075Y-93017255D01*
X50206230Y-93035782D01*
X50202625Y-93087383D01*
X50177800Y-93095484D01*
X50110737Y-93060108D01*
X50070902Y-93035937D01*
X49945227Y-92984175D01*
X49795123Y-92958581D01*
X49637737Y-92956613D01*
X49490214Y-92975729D01*
X49369700Y-93013387D01*
X49293340Y-93067044D01*
X49278281Y-93134158D01*
X49285881Y-93152333D01*
X49341282Y-93227777D01*
X49427190Y-93320568D01*
X49442728Y-93335568D01*
X49524612Y-93404540D01*
X49595263Y-93426825D01*
X49694068Y-93411272D01*
X49733652Y-93400938D01*
X49856828Y-93376116D01*
X49943436Y-93387278D01*
X50016576Y-93426646D01*
X50083574Y-93479479D01*
X50132918Y-93545924D01*
X50167209Y-93638652D01*
X50189048Y-93770334D01*
X50201034Y-93953641D01*
X50205769Y-94201246D01*
X50206230Y-94350744D01*
X50206230Y-94993443D01*
X50622623Y-94993443D01*
X50622623Y-92953115D01*
X50414426Y-92953115D01*
X50289475Y-92957540D01*
X50289475Y-92957540D01*
G37*
X50289475Y-92957540D02*
X50227163Y-92976218D01*
X50207075Y-93017255D01*
X50206230Y-93035782D01*
X50202625Y-93087383D01*
X50177800Y-93095484D01*
X50110737Y-93060108D01*
X50070902Y-93035937D01*
X49945227Y-92984175D01*
X49795123Y-92958581D01*
X49637737Y-92956613D01*
X49490214Y-92975729D01*
X49369700Y-93013387D01*
X49293340Y-93067044D01*
X49278281Y-93134158D01*
X49285881Y-93152333D01*
X49341282Y-93227777D01*
X49427190Y-93320568D01*
X49442728Y-93335568D01*
X49524612Y-93404540D01*
X49595263Y-93426825D01*
X49694068Y-93411272D01*
X49733652Y-93400938D01*
X49856828Y-93376116D01*
X49943436Y-93387278D01*
X50016576Y-93426646D01*
X50083574Y-93479479D01*
X50132918Y-93545924D01*
X50167209Y-93638652D01*
X50189048Y-93770334D01*
X50201034Y-93953641D01*
X50205769Y-94201246D01*
X50206230Y-94350744D01*
X50206230Y-94993443D01*
X50622623Y-94993443D01*
X50622623Y-92953115D01*
X50414426Y-92953115D01*
X50289475Y-92957540D01*
G36*
X47666230Y-94993443D02*
X47895246Y-94993443D01*
X48028175Y-94989546D01*
X48097405Y-94973407D01*
X48122332Y-94938354D01*
X48124262Y-94914653D01*
X48128466Y-94867123D01*
X48154974Y-94858008D01*
X48224633Y-94887308D01*
X48278804Y-94914653D01*
X48486777Y-94979451D01*
X48712853Y-94983201D01*
X48896655Y-94934873D01*
X49067813Y-94818118D01*
X49198284Y-94645781D01*
X49269727Y-94442506D01*
X49271546Y-94431141D01*
X49282161Y-94307136D01*
X49287440Y-94129117D01*
X49287016Y-93994480D01*
X48832172Y-93994480D01*
X48821635Y-94173428D01*
X48797666Y-94320924D01*
X48765217Y-94404217D01*
X48642456Y-94518041D01*
X48496701Y-94558845D01*
X48346393Y-94525848D01*
X48217951Y-94427422D01*
X48169308Y-94361224D01*
X48140866Y-94282231D01*
X48127544Y-94166926D01*
X48124262Y-93993736D01*
X48130135Y-93822229D01*
X48145647Y-93671540D01*
X48167638Y-93570698D01*
X48171303Y-93561659D01*
X48259988Y-93454195D01*
X48389428Y-93395195D01*
X48534257Y-93385669D01*
X48669109Y-93426626D01*
X48768617Y-93519076D01*
X48778940Y-93537473D01*
X48811250Y-93649646D01*
X48828852Y-93810934D01*
X48832172Y-93994480D01*
X49287016Y-93994480D01*
X49286800Y-93926212D01*
X49283806Y-93817010D01*
X49263442Y-93546856D01*
X49221117Y-93344024D01*
X49150706Y-93194077D01*
X49046088Y-93082579D01*
X48944521Y-93017127D01*
X48802616Y-92971117D01*
X48626121Y-92955336D01*
X48445393Y-92968190D01*
X48290787Y-93008081D01*
X48209101Y-93055801D01*
X48124262Y-93132579D01*
X48124262Y-92161967D01*
X47666230Y-92161967D01*
X47666230Y-94993443D01*
X47666230Y-94993443D01*
G37*
X47666230Y-94993443D02*
X47895246Y-94993443D01*
X48028175Y-94989546D01*
X48097405Y-94973407D01*
X48122332Y-94938354D01*
X48124262Y-94914653D01*
X48128466Y-94867123D01*
X48154974Y-94858008D01*
X48224633Y-94887308D01*
X48278804Y-94914653D01*
X48486777Y-94979451D01*
X48712853Y-94983201D01*
X48896655Y-94934873D01*
X49067813Y-94818118D01*
X49198284Y-94645781D01*
X49269727Y-94442506D01*
X49271546Y-94431141D01*
X49282161Y-94307136D01*
X49287440Y-94129117D01*
X49287016Y-93994480D01*
X48832172Y-93994480D01*
X48821635Y-94173428D01*
X48797666Y-94320924D01*
X48765217Y-94404217D01*
X48642456Y-94518041D01*
X48496701Y-94558845D01*
X48346393Y-94525848D01*
X48217951Y-94427422D01*
X48169308Y-94361224D01*
X48140866Y-94282231D01*
X48127544Y-94166926D01*
X48124262Y-93993736D01*
X48130135Y-93822229D01*
X48145647Y-93671540D01*
X48167638Y-93570698D01*
X48171303Y-93561659D01*
X48259988Y-93454195D01*
X48389428Y-93395195D01*
X48534257Y-93385669D01*
X48669109Y-93426626D01*
X48768617Y-93519076D01*
X48778940Y-93537473D01*
X48811250Y-93649646D01*
X48828852Y-93810934D01*
X48832172Y-93994480D01*
X49287016Y-93994480D01*
X49286800Y-93926212D01*
X49283806Y-93817010D01*
X49263442Y-93546856D01*
X49221117Y-93344024D01*
X49150706Y-93194077D01*
X49046088Y-93082579D01*
X48944521Y-93017127D01*
X48802616Y-92971117D01*
X48626121Y-92955336D01*
X48445393Y-92968190D01*
X48290787Y-93008081D01*
X48209101Y-93055801D01*
X48124262Y-93132579D01*
X48124262Y-92161967D01*
X47666230Y-92161967D01*
X47666230Y-94993443D01*
G36*
X45903058Y-92973935D02*
X45687752Y-93619344D01*
X45472445Y-94264754D01*
X45404936Y-94035738D01*
X45364309Y-93894204D01*
X45310867Y-93702936D01*
X45253158Y-93492693D01*
X45222645Y-93379918D01*
X45107864Y-92953115D01*
X44634313Y-92953115D01*
X44775861Y-93400738D01*
X44845567Y-93620903D01*
X44929777Y-93886471D01*
X45017719Y-94163492D01*
X45096228Y-94410492D01*
X45275048Y-94972623D01*
X45468118Y-94985185D01*
X45661189Y-94997746D01*
X45765882Y-94652070D01*
X45830447Y-94437335D01*
X45900908Y-94200604D01*
X45962489Y-93991526D01*
X45964919Y-93983205D01*
X46010915Y-93841537D01*
X46051497Y-93744874D01*
X46079920Y-93708321D01*
X46085761Y-93712549D01*
X46106262Y-93769217D01*
X46145215Y-93890605D01*
X46197878Y-94061448D01*
X46259509Y-94266482D01*
X46292857Y-94379262D01*
X46473454Y-94993443D01*
X46856733Y-94993443D01*
X47163133Y-94025328D01*
X47249209Y-93753759D01*
X47327620Y-93507138D01*
X47394661Y-93297048D01*
X47446631Y-93135076D01*
X47479826Y-93032808D01*
X47489916Y-93002928D01*
X47481928Y-92972334D01*
X47419208Y-92958935D01*
X47288685Y-92960275D01*
X47268253Y-92961288D01*
X47026208Y-92973935D01*
X46867683Y-93556885D01*
X46809415Y-93769486D01*
X46757345Y-93956377D01*
X46716056Y-94101331D01*
X46690134Y-94188120D01*
X46685344Y-94202269D01*
X46665496Y-94185998D01*
X46625470Y-94101697D01*
X46569862Y-93960842D01*
X46503269Y-93774911D01*
X46446976Y-93606956D01*
X46232422Y-92949209D01*
X45903058Y-92973935D01*
X45903058Y-92973935D01*
G37*
X45903058Y-92973935D02*
X45687752Y-93619344D01*
X45472445Y-94264754D01*
X45404936Y-94035738D01*
X45364309Y-93894204D01*
X45310867Y-93702936D01*
X45253158Y-93492693D01*
X45222645Y-93379918D01*
X45107864Y-92953115D01*
X44634313Y-92953115D01*
X44775861Y-93400738D01*
X44845567Y-93620903D01*
X44929777Y-93886471D01*
X45017719Y-94163492D01*
X45096228Y-94410492D01*
X45275048Y-94972623D01*
X45468118Y-94985185D01*
X45661189Y-94997746D01*
X45765882Y-94652070D01*
X45830447Y-94437335D01*
X45900908Y-94200604D01*
X45962489Y-93991526D01*
X45964919Y-93983205D01*
X46010915Y-93841537D01*
X46051497Y-93744874D01*
X46079920Y-93708321D01*
X46085761Y-93712549D01*
X46106262Y-93769217D01*
X46145215Y-93890605D01*
X46197878Y-94061448D01*
X46259509Y-94266482D01*
X46292857Y-94379262D01*
X46473454Y-94993443D01*
X46856733Y-94993443D01*
X47163133Y-94025328D01*
X47249209Y-93753759D01*
X47327620Y-93507138D01*
X47394661Y-93297048D01*
X47446631Y-93135076D01*
X47479826Y-93032808D01*
X47489916Y-93002928D01*
X47481928Y-92972334D01*
X47419208Y-92958935D01*
X47288685Y-92960275D01*
X47268253Y-92961288D01*
X47026208Y-92973935D01*
X46867683Y-93556885D01*
X46809415Y-93769486D01*
X46757345Y-93956377D01*
X46716056Y-94101331D01*
X46690134Y-94188120D01*
X46685344Y-94202269D01*
X46665496Y-94185998D01*
X46625470Y-94101697D01*
X46569862Y-93960842D01*
X46503269Y-93774911D01*
X46446976Y-93606956D01*
X46232422Y-92949209D01*
X45903058Y-92973935D01*
G36*
X43561330Y-92965480D02*
X43385821Y-93008109D01*
X43335088Y-93030693D01*
X43236746Y-93089847D01*
X43161273Y-93156472D01*
X43105429Y-93242135D01*
X43065974Y-93358405D01*
X43039668Y-93516848D01*
X43023271Y-93729034D01*
X43013543Y-94006529D01*
X43009849Y-94191885D01*
X42996255Y-94993443D01*
X43228456Y-94993443D01*
X43369323Y-94987536D01*
X43441898Y-94967350D01*
X43460656Y-94933453D01*
X43470559Y-94896799D01*
X43514834Y-94903807D01*
X43575164Y-94933197D01*
X43726197Y-94978246D01*
X43920307Y-94990385D01*
X44124469Y-94970529D01*
X44305660Y-94919592D01*
X44321911Y-94912522D01*
X44487509Y-94796188D01*
X44596676Y-94634467D01*
X44646909Y-94445430D01*
X44643072Y-94377515D01*
X44233237Y-94377515D01*
X44197125Y-94468914D01*
X44090058Y-94534411D01*
X43917316Y-94569563D01*
X43825000Y-94574231D01*
X43671150Y-94562282D01*
X43568885Y-94515844D01*
X43543934Y-94493771D01*
X43476339Y-94373681D01*
X43460656Y-94264754D01*
X43460656Y-94119017D01*
X43663648Y-94119017D01*
X43899613Y-94131043D01*
X44065119Y-94168871D01*
X44169695Y-94235121D01*
X44193109Y-94264656D01*
X44233237Y-94377515D01*
X44643072Y-94377515D01*
X44635705Y-94247148D01*
X44560560Y-94057692D01*
X44458032Y-93929656D01*
X44395935Y-93874302D01*
X44335145Y-93837924D01*
X44256048Y-93815744D01*
X44139029Y-93802982D01*
X43964473Y-93794857D01*
X43895237Y-93792521D01*
X43460656Y-93778321D01*
X43461293Y-93646784D01*
X43478124Y-93508519D01*
X43538974Y-93424917D01*
X43661905Y-93371507D01*
X43665203Y-93370555D01*
X43839496Y-93349555D01*
X44010048Y-93376985D01*
X44136800Y-93443689D01*
X44187658Y-93476625D01*
X44242435Y-93472068D01*
X44326728Y-93424349D01*
X44376227Y-93390671D01*
X44473045Y-93318716D01*
X44533018Y-93264779D01*
X44542641Y-93249337D01*
X44503015Y-93169424D01*
X44385936Y-93073989D01*
X44335082Y-93041789D01*
X44188887Y-92986332D01*
X43991863Y-92954913D01*
X43773011Y-92947855D01*
X43561330Y-92965480D01*
X43561330Y-92965480D01*
G37*
X43561330Y-92965480D02*
X43385821Y-93008109D01*
X43335088Y-93030693D01*
X43236746Y-93089847D01*
X43161273Y-93156472D01*
X43105429Y-93242135D01*
X43065974Y-93358405D01*
X43039668Y-93516848D01*
X43023271Y-93729034D01*
X43013543Y-94006529D01*
X43009849Y-94191885D01*
X42996255Y-94993443D01*
X43228456Y-94993443D01*
X43369323Y-94987536D01*
X43441898Y-94967350D01*
X43460656Y-94933453D01*
X43470559Y-94896799D01*
X43514834Y-94903807D01*
X43575164Y-94933197D01*
X43726197Y-94978246D01*
X43920307Y-94990385D01*
X44124469Y-94970529D01*
X44305660Y-94919592D01*
X44321911Y-94912522D01*
X44487509Y-94796188D01*
X44596676Y-94634467D01*
X44646909Y-94445430D01*
X44643072Y-94377515D01*
X44233237Y-94377515D01*
X44197125Y-94468914D01*
X44090058Y-94534411D01*
X43917316Y-94569563D01*
X43825000Y-94574231D01*
X43671150Y-94562282D01*
X43568885Y-94515844D01*
X43543934Y-94493771D01*
X43476339Y-94373681D01*
X43460656Y-94264754D01*
X43460656Y-94119017D01*
X43663648Y-94119017D01*
X43899613Y-94131043D01*
X44065119Y-94168871D01*
X44169695Y-94235121D01*
X44193109Y-94264656D01*
X44233237Y-94377515D01*
X44643072Y-94377515D01*
X44635705Y-94247148D01*
X44560560Y-94057692D01*
X44458032Y-93929656D01*
X44395935Y-93874302D01*
X44335145Y-93837924D01*
X44256048Y-93815744D01*
X44139029Y-93802982D01*
X43964473Y-93794857D01*
X43895237Y-93792521D01*
X43460656Y-93778321D01*
X43461293Y-93646784D01*
X43478124Y-93508519D01*
X43538974Y-93424917D01*
X43661905Y-93371507D01*
X43665203Y-93370555D01*
X43839496Y-93349555D01*
X44010048Y-93376985D01*
X44136800Y-93443689D01*
X44187658Y-93476625D01*
X44242435Y-93472068D01*
X44326728Y-93424349D01*
X44376227Y-93390671D01*
X44473045Y-93318716D01*
X44533018Y-93264779D01*
X44542641Y-93249337D01*
X44503015Y-93169424D01*
X44385936Y-93073989D01*
X44335082Y-93041789D01*
X44188887Y-92986332D01*
X43991863Y-92954913D01*
X43773011Y-92947855D01*
X43561330Y-92965480D01*
G36*
X41584893Y-92952460D02*
X41424818Y-92984017D01*
X41333688Y-93030743D01*
X41237821Y-93108370D01*
X41374213Y-93280579D01*
X41458306Y-93384867D01*
X41515408Y-93435746D01*
X41572156Y-93443519D01*
X41655189Y-93418488D01*
X41694167Y-93404327D01*
X41853074Y-93383433D01*
X41998601Y-93428220D01*
X42105440Y-93529399D01*
X42122795Y-93561659D01*
X42141697Y-93647115D01*
X42156284Y-93804606D01*
X42165874Y-94022969D01*
X42169781Y-94291038D01*
X42169836Y-94329172D01*
X42169836Y-94993443D01*
X42627869Y-94993443D01*
X42627869Y-92953115D01*
X42398852Y-92953115D01*
X42266801Y-92956563D01*
X42198008Y-92971907D01*
X42172570Y-93006648D01*
X42169836Y-93039416D01*
X42169836Y-93125717D01*
X42060122Y-93039416D01*
X41934320Y-92980538D01*
X41765319Y-92951426D01*
X41584893Y-92952460D01*
X41584893Y-92952460D01*
G37*
X41584893Y-92952460D02*
X41424818Y-92984017D01*
X41333688Y-93030743D01*
X41237821Y-93108370D01*
X41374213Y-93280579D01*
X41458306Y-93384867D01*
X41515408Y-93435746D01*
X41572156Y-93443519D01*
X41655189Y-93418488D01*
X41694167Y-93404327D01*
X41853074Y-93383433D01*
X41998601Y-93428220D01*
X42105440Y-93529399D01*
X42122795Y-93561659D01*
X42141697Y-93647115D01*
X42156284Y-93804606D01*
X42165874Y-94022969D01*
X42169781Y-94291038D01*
X42169836Y-94329172D01*
X42169836Y-94993443D01*
X42627869Y-94993443D01*
X42627869Y-92953115D01*
X42398852Y-92953115D01*
X42266801Y-92956563D01*
X42198008Y-92971907D01*
X42172570Y-93006648D01*
X42169836Y-93039416D01*
X42169836Y-93125717D01*
X42060122Y-93039416D01*
X41934320Y-92980538D01*
X41765319Y-92951426D01*
X41584893Y-92952460D01*
G36*
X40269158Y-92963999D02*
X40070124Y-93015746D01*
X39903439Y-93122544D01*
X39822731Y-93202326D01*
X39690432Y-93390931D01*
X39614610Y-93609720D01*
X39588562Y-93878668D01*
X39588429Y-93900410D01*
X39588197Y-94119017D01*
X40846405Y-94119017D01*
X40819585Y-94233525D01*
X40771159Y-94337232D01*
X40686404Y-94445290D01*
X40668677Y-94462541D01*
X40516320Y-94555904D01*
X40342576Y-94571738D01*
X40142589Y-94510313D01*
X40108689Y-94493771D01*
X40004712Y-94443484D01*
X39935069Y-94414834D01*
X39922917Y-94412184D01*
X39880499Y-94437913D01*
X39799601Y-94500861D01*
X39758535Y-94535259D01*
X39673440Y-94614276D01*
X39645497Y-94666451D01*
X39664890Y-94714446D01*
X39675257Y-94727570D01*
X39745469Y-94785008D01*
X39861326Y-94854813D01*
X39942131Y-94895564D01*
X40171499Y-94967362D01*
X40425436Y-94990625D01*
X40665926Y-94963059D01*
X40733279Y-94943321D01*
X40941738Y-94831612D01*
X41096254Y-94659721D01*
X41197722Y-94425979D01*
X41247035Y-94128716D01*
X41252449Y-93973279D01*
X41236641Y-93746973D01*
X40837377Y-93746973D01*
X40798760Y-93763702D01*
X40694958Y-93776829D01*
X40544044Y-93784575D01*
X40441803Y-93785902D01*
X40257899Y-93784623D01*
X40141826Y-93778638D01*
X40078148Y-93764724D01*
X40051433Y-93739655D01*
X40046230Y-93703280D01*
X40081927Y-93591229D01*
X40171804Y-93480488D01*
X40290034Y-93395489D01*
X40408310Y-93360718D01*
X40568956Y-93391563D01*
X40708022Y-93480732D01*
X40804443Y-93609263D01*
X40837377Y-93746973D01*
X41236641Y-93746973D01*
X41229428Y-93643733D01*
X41158376Y-93381175D01*
X41037790Y-93183525D01*
X40866166Y-93048702D01*
X40642002Y-92974626D01*
X40520562Y-92960360D01*
X40269158Y-92963999D01*
X40269158Y-92963999D01*
G37*
X40269158Y-92963999D02*
X40070124Y-93015746D01*
X39903439Y-93122544D01*
X39822731Y-93202326D01*
X39690432Y-93390931D01*
X39614610Y-93609720D01*
X39588562Y-93878668D01*
X39588429Y-93900410D01*
X39588197Y-94119017D01*
X40846405Y-94119017D01*
X40819585Y-94233525D01*
X40771159Y-94337232D01*
X40686404Y-94445290D01*
X40668677Y-94462541D01*
X40516320Y-94555904D01*
X40342576Y-94571738D01*
X40142589Y-94510313D01*
X40108689Y-94493771D01*
X40004712Y-94443484D01*
X39935069Y-94414834D01*
X39922917Y-94412184D01*
X39880499Y-94437913D01*
X39799601Y-94500861D01*
X39758535Y-94535259D01*
X39673440Y-94614276D01*
X39645497Y-94666451D01*
X39664890Y-94714446D01*
X39675257Y-94727570D01*
X39745469Y-94785008D01*
X39861326Y-94854813D01*
X39942131Y-94895564D01*
X40171499Y-94967362D01*
X40425436Y-94990625D01*
X40665926Y-94963059D01*
X40733279Y-94943321D01*
X40941738Y-94831612D01*
X41096254Y-94659721D01*
X41197722Y-94425979D01*
X41247035Y-94128716D01*
X41252449Y-93973279D01*
X41236641Y-93746973D01*
X40837377Y-93746973D01*
X40798760Y-93763702D01*
X40694958Y-93776829D01*
X40544044Y-93784575D01*
X40441803Y-93785902D01*
X40257899Y-93784623D01*
X40141826Y-93778638D01*
X40078148Y-93764724D01*
X40051433Y-93739655D01*
X40046230Y-93703280D01*
X40081927Y-93591229D01*
X40171804Y-93480488D01*
X40290034Y-93395489D01*
X40408310Y-93360718D01*
X40568956Y-93391563D01*
X40708022Y-93480732D01*
X40804443Y-93609263D01*
X40837377Y-93746973D01*
X41236641Y-93746973D01*
X41229428Y-93643733D01*
X41158376Y-93381175D01*
X41037790Y-93183525D01*
X40866166Y-93048702D01*
X40642002Y-92974626D01*
X40520562Y-92960360D01*
X40269158Y-92963999D01*
G36*
X55405390Y-89851802D02*
X55187553Y-89948108D01*
X55022184Y-90108919D01*
X54909043Y-90334482D01*
X54847888Y-90625042D01*
X54843505Y-90670408D01*
X54840070Y-90990256D01*
X54884602Y-91270614D01*
X54974391Y-91497847D01*
X55022471Y-91570941D01*
X55189945Y-91725643D01*
X55403232Y-91825838D01*
X55641846Y-91867418D01*
X55885303Y-91846272D01*
X56070370Y-91781145D01*
X56229521Y-91671393D01*
X56359596Y-91527496D01*
X56361846Y-91524130D01*
X56414670Y-91435314D01*
X56448999Y-91346005D01*
X56469788Y-91233294D01*
X56481991Y-91074273D01*
X56487367Y-90943868D01*
X56489605Y-90825611D01*
X56073294Y-90825611D01*
X56069225Y-90943335D01*
X56054455Y-91100049D01*
X56028398Y-91200621D01*
X55981407Y-91272173D01*
X55937397Y-91313971D01*
X55781377Y-91401484D01*
X55618131Y-91413179D01*
X55466096Y-91350212D01*
X55390080Y-91279653D01*
X55335303Y-91208550D01*
X55303263Y-91140512D01*
X55289200Y-91051967D01*
X55288358Y-90919339D01*
X55292691Y-90797195D01*
X55302011Y-90622710D01*
X55316788Y-90509538D01*
X55343420Y-90435721D01*
X55388309Y-90379298D01*
X55423880Y-90347050D01*
X55572671Y-90262340D01*
X55733187Y-90258117D01*
X55867780Y-90308292D01*
X55982600Y-90413075D01*
X56051004Y-90585198D01*
X56073294Y-90825611D01*
X56489605Y-90825611D01*
X56492276Y-90684548D01*
X56483893Y-90490610D01*
X56458772Y-90344745D01*
X56413468Y-90229641D01*
X56344536Y-90127986D01*
X56318978Y-90097802D01*
X56159175Y-89947412D01*
X55987769Y-89859566D01*
X55778151Y-89822762D01*
X55675936Y-89819754D01*
X55405390Y-89851802D01*
X55405390Y-89851802D01*
G37*
X55405390Y-89851802D02*
X55187553Y-89948108D01*
X55022184Y-90108919D01*
X54909043Y-90334482D01*
X54847888Y-90625042D01*
X54843505Y-90670408D01*
X54840070Y-90990256D01*
X54884602Y-91270614D01*
X54974391Y-91497847D01*
X55022471Y-91570941D01*
X55189945Y-91725643D01*
X55403232Y-91825838D01*
X55641846Y-91867418D01*
X55885303Y-91846272D01*
X56070370Y-91781145D01*
X56229521Y-91671393D01*
X56359596Y-91527496D01*
X56361846Y-91524130D01*
X56414670Y-91435314D01*
X56448999Y-91346005D01*
X56469788Y-91233294D01*
X56481991Y-91074273D01*
X56487367Y-90943868D01*
X56489605Y-90825611D01*
X56073294Y-90825611D01*
X56069225Y-90943335D01*
X56054455Y-91100049D01*
X56028398Y-91200621D01*
X55981407Y-91272173D01*
X55937397Y-91313971D01*
X55781377Y-91401484D01*
X55618131Y-91413179D01*
X55466096Y-91350212D01*
X55390080Y-91279653D01*
X55335303Y-91208550D01*
X55303263Y-91140512D01*
X55289200Y-91051967D01*
X55288358Y-90919339D01*
X55292691Y-90797195D01*
X55302011Y-90622710D01*
X55316788Y-90509538D01*
X55343420Y-90435721D01*
X55388309Y-90379298D01*
X55423880Y-90347050D01*
X55572671Y-90262340D01*
X55733187Y-90258117D01*
X55867780Y-90308292D01*
X55982600Y-90413075D01*
X56051004Y-90585198D01*
X56073294Y-90825611D01*
X56489605Y-90825611D01*
X56492276Y-90684548D01*
X56483893Y-90490610D01*
X56458772Y-90344745D01*
X56413468Y-90229641D01*
X56344536Y-90127986D01*
X56318978Y-90097802D01*
X56159175Y-89947412D01*
X55987769Y-89859566D01*
X55778151Y-89822762D01*
X55675936Y-89819754D01*
X55405390Y-89851802D01*
G36*
X51492675Y-89876526D02*
X51451181Y-89896061D01*
X51307566Y-90001263D01*
X51171764Y-90154793D01*
X51070362Y-90323845D01*
X51041520Y-90401567D01*
X51015206Y-90540398D01*
X50999515Y-90708177D01*
X50997609Y-90777459D01*
X50997377Y-90996066D01*
X52255585Y-90996066D01*
X52228766Y-91110574D01*
X52162934Y-91246004D01*
X52047839Y-91363046D01*
X51910913Y-91438442D01*
X51823658Y-91454098D01*
X51705328Y-91435099D01*
X51564149Y-91387446D01*
X51516189Y-91365521D01*
X51338829Y-91276944D01*
X51187470Y-91392391D01*
X51100131Y-91470474D01*
X51053658Y-91534922D01*
X51051305Y-91553837D01*
X51092822Y-91599681D01*
X51183810Y-91669349D01*
X51266395Y-91723700D01*
X51489249Y-91821405D01*
X51739087Y-91865628D01*
X51986710Y-91854130D01*
X52184098Y-91794029D01*
X52387576Y-91665284D01*
X52532179Y-91495774D01*
X52622639Y-91276462D01*
X52663689Y-90998309D01*
X52667329Y-90871034D01*
X52652761Y-90579375D01*
X52650972Y-90570891D01*
X52234059Y-90570891D01*
X52222577Y-90598242D01*
X52175384Y-90613324D01*
X52078049Y-90619788D01*
X51916136Y-90621285D01*
X51853790Y-90621312D01*
X51664103Y-90619052D01*
X51543811Y-90610844D01*
X51479116Y-90594550D01*
X51456220Y-90568027D01*
X51455410Y-90559510D01*
X51481540Y-90491825D01*
X51546937Y-90397005D01*
X51575052Y-90363805D01*
X51679426Y-90269906D01*
X51788225Y-90232988D01*
X51846843Y-90229902D01*
X52005426Y-90268493D01*
X52138413Y-90372155D01*
X52222772Y-90522717D01*
X52224267Y-90527623D01*
X52234059Y-90570891D01*
X52650972Y-90570891D01*
X52604316Y-90349722D01*
X52517045Y-90165983D01*
X52410311Y-90035557D01*
X52212980Y-89894131D01*
X51981015Y-89818556D01*
X51734288Y-89811724D01*
X51492675Y-89876526D01*
X51492675Y-89876526D01*
G37*
X51492675Y-89876526D02*
X51451181Y-89896061D01*
X51307566Y-90001263D01*
X51171764Y-90154793D01*
X51070362Y-90323845D01*
X51041520Y-90401567D01*
X51015206Y-90540398D01*
X50999515Y-90708177D01*
X50997609Y-90777459D01*
X50997377Y-90996066D01*
X52255585Y-90996066D01*
X52228766Y-91110574D01*
X52162934Y-91246004D01*
X52047839Y-91363046D01*
X51910913Y-91438442D01*
X51823658Y-91454098D01*
X51705328Y-91435099D01*
X51564149Y-91387446D01*
X51516189Y-91365521D01*
X51338829Y-91276944D01*
X51187470Y-91392391D01*
X51100131Y-91470474D01*
X51053658Y-91534922D01*
X51051305Y-91553837D01*
X51092822Y-91599681D01*
X51183810Y-91669349D01*
X51266395Y-91723700D01*
X51489249Y-91821405D01*
X51739087Y-91865628D01*
X51986710Y-91854130D01*
X52184098Y-91794029D01*
X52387576Y-91665284D01*
X52532179Y-91495774D01*
X52622639Y-91276462D01*
X52663689Y-90998309D01*
X52667329Y-90871034D01*
X52652761Y-90579375D01*
X52650972Y-90570891D01*
X52234059Y-90570891D01*
X52222577Y-90598242D01*
X52175384Y-90613324D01*
X52078049Y-90619788D01*
X51916136Y-90621285D01*
X51853790Y-90621312D01*
X51664103Y-90619052D01*
X51543811Y-90610844D01*
X51479116Y-90594550D01*
X51456220Y-90568027D01*
X51455410Y-90559510D01*
X51481540Y-90491825D01*
X51546937Y-90397005D01*
X51575052Y-90363805D01*
X51679426Y-90269906D01*
X51788225Y-90232988D01*
X51846843Y-90229902D01*
X52005426Y-90268493D01*
X52138413Y-90372155D01*
X52222772Y-90522717D01*
X52224267Y-90527623D01*
X52234059Y-90570891D01*
X52650972Y-90570891D01*
X52604316Y-90349722D01*
X52517045Y-90165983D01*
X52410311Y-90035557D01*
X52212980Y-89894131D01*
X51981015Y-89818556D01*
X51734288Y-89811724D01*
X51492675Y-89876526D01*
G36*
X46953582Y-89823003D02*
X46795900Y-89852907D01*
X46632315Y-89915452D01*
X46614836Y-89923426D01*
X46490783Y-89988656D01*
X46404871Y-90049274D01*
X46377102Y-90088106D01*
X46403547Y-90151437D01*
X46467780Y-90244881D01*
X46496292Y-90279762D01*
X46613789Y-90417066D01*
X46765268Y-90327691D01*
X46909430Y-90268152D01*
X47076000Y-90236326D01*
X47235738Y-90234316D01*
X47359406Y-90264221D01*
X47389084Y-90282886D01*
X47445602Y-90368466D01*
X47452471Y-90467049D01*
X47410180Y-90544062D01*
X47385164Y-90558998D01*
X47310204Y-90577547D01*
X47178439Y-90599348D01*
X47016009Y-90620180D01*
X46986044Y-90623447D01*
X46725160Y-90668575D01*
X46535945Y-90745230D01*
X46410457Y-90860491D01*
X46340757Y-91021435D01*
X46319044Y-91218015D01*
X46349039Y-91441473D01*
X46446441Y-91616949D01*
X46611639Y-91744758D01*
X46845023Y-91825218D01*
X47104098Y-91856962D01*
X47315367Y-91856580D01*
X47486735Y-91827749D01*
X47603770Y-91787944D01*
X47751650Y-91718587D01*
X47888313Y-91638097D01*
X47936885Y-91602670D01*
X48061803Y-91500705D01*
X47760491Y-91195813D01*
X47589204Y-91309165D01*
X47417406Y-91394300D01*
X47233952Y-91438830D01*
X47057603Y-91443528D01*
X46907119Y-91409170D01*
X46801260Y-91336529D01*
X46767079Y-91275238D01*
X46772206Y-91176941D01*
X46857143Y-91101773D01*
X47021657Y-91049866D01*
X47201899Y-91025875D01*
X47479291Y-90980104D01*
X47685365Y-90893748D01*
X47822878Y-90764280D01*
X47894587Y-90589172D01*
X47904521Y-90381565D01*
X47855452Y-90164714D01*
X47743580Y-90000805D01*
X47567903Y-89889088D01*
X47327419Y-89828814D01*
X47149257Y-89816999D01*
X46953582Y-89823003D01*
X46953582Y-89823003D01*
G37*
X46953582Y-89823003D02*
X46795900Y-89852907D01*
X46632315Y-89915452D01*
X46614836Y-89923426D01*
X46490783Y-89988656D01*
X46404871Y-90049274D01*
X46377102Y-90088106D01*
X46403547Y-90151437D01*
X46467780Y-90244881D01*
X46496292Y-90279762D01*
X46613789Y-90417066D01*
X46765268Y-90327691D01*
X46909430Y-90268152D01*
X47076000Y-90236326D01*
X47235738Y-90234316D01*
X47359406Y-90264221D01*
X47389084Y-90282886D01*
X47445602Y-90368466D01*
X47452471Y-90467049D01*
X47410180Y-90544062D01*
X47385164Y-90558998D01*
X47310204Y-90577547D01*
X47178439Y-90599348D01*
X47016009Y-90620180D01*
X46986044Y-90623447D01*
X46725160Y-90668575D01*
X46535945Y-90745230D01*
X46410457Y-90860491D01*
X46340757Y-91021435D01*
X46319044Y-91218015D01*
X46349039Y-91441473D01*
X46446441Y-91616949D01*
X46611639Y-91744758D01*
X46845023Y-91825218D01*
X47104098Y-91856962D01*
X47315367Y-91856580D01*
X47486735Y-91827749D01*
X47603770Y-91787944D01*
X47751650Y-91718587D01*
X47888313Y-91638097D01*
X47936885Y-91602670D01*
X48061803Y-91500705D01*
X47760491Y-91195813D01*
X47589204Y-91309165D01*
X47417406Y-91394300D01*
X47233952Y-91438830D01*
X47057603Y-91443528D01*
X46907119Y-91409170D01*
X46801260Y-91336529D01*
X46767079Y-91275238D01*
X46772206Y-91176941D01*
X46857143Y-91101773D01*
X47021657Y-91049866D01*
X47201899Y-91025875D01*
X47479291Y-90980104D01*
X47685365Y-90893748D01*
X47822878Y-90764280D01*
X47894587Y-90589172D01*
X47904521Y-90381565D01*
X47855452Y-90164714D01*
X47743580Y-90000805D01*
X47567903Y-89889088D01*
X47327419Y-89828814D01*
X47149257Y-89816999D01*
X46953582Y-89823003D01*
G36*
X44977479Y-89854805D02*
X44766864Y-89969505D01*
X44602085Y-90150574D01*
X44524446Y-90297838D01*
X44491114Y-90427907D01*
X44469517Y-90613333D01*
X44460261Y-90826939D01*
X44463955Y-91041550D01*
X44481206Y-91229991D01*
X44501357Y-91330637D01*
X44569333Y-91468323D01*
X44687058Y-91614566D01*
X44828935Y-91742452D01*
X44969368Y-91825063D01*
X44972793Y-91826373D01*
X45147055Y-91862472D01*
X45353573Y-91863365D01*
X45549826Y-91830501D01*
X45625604Y-91804161D01*
X45820779Y-91693484D01*
X45960562Y-91548478D01*
X46052401Y-91356503D01*
X46103746Y-91104920D01*
X46115363Y-90973142D01*
X46113881Y-90807553D01*
X45667541Y-90807553D01*
X45652506Y-91049177D01*
X45609228Y-91233303D01*
X45540449Y-91350949D01*
X45491450Y-91384590D01*
X45365907Y-91408050D01*
X45216682Y-91401104D01*
X45087667Y-91367345D01*
X45053834Y-91348772D01*
X44964572Y-91240599D01*
X44905655Y-91075051D01*
X44880576Y-90873581D01*
X44892826Y-90657646D01*
X44920204Y-90527690D01*
X44998809Y-90377191D01*
X45122896Y-90283114D01*
X45272339Y-90250587D01*
X45427013Y-90284738D01*
X45545826Y-90368273D01*
X45608265Y-90437193D01*
X45644707Y-90505126D01*
X45662077Y-90597064D01*
X45667301Y-90737999D01*
X45667541Y-90807553D01*
X46113881Y-90807553D01*
X46112215Y-90621495D01*
X46054944Y-90333134D01*
X45943543Y-90108049D01*
X45778007Y-89946230D01*
X45558330Y-89847666D01*
X45511158Y-89836236D01*
X45227664Y-89809406D01*
X44977479Y-89854805D01*
X44977479Y-89854805D01*
G37*
X44977479Y-89854805D02*
X44766864Y-89969505D01*
X44602085Y-90150574D01*
X44524446Y-90297838D01*
X44491114Y-90427907D01*
X44469517Y-90613333D01*
X44460261Y-90826939D01*
X44463955Y-91041550D01*
X44481206Y-91229991D01*
X44501357Y-91330637D01*
X44569333Y-91468323D01*
X44687058Y-91614566D01*
X44828935Y-91742452D01*
X44969368Y-91825063D01*
X44972793Y-91826373D01*
X45147055Y-91862472D01*
X45353573Y-91863365D01*
X45549826Y-91830501D01*
X45625604Y-91804161D01*
X45820779Y-91693484D01*
X45960562Y-91548478D01*
X46052401Y-91356503D01*
X46103746Y-91104920D01*
X46115363Y-90973142D01*
X46113881Y-90807553D01*
X45667541Y-90807553D01*
X45652506Y-91049177D01*
X45609228Y-91233303D01*
X45540449Y-91350949D01*
X45491450Y-91384590D01*
X45365907Y-91408050D01*
X45216682Y-91401104D01*
X45087667Y-91367345D01*
X45053834Y-91348772D01*
X44964572Y-91240599D01*
X44905655Y-91075051D01*
X44880576Y-90873581D01*
X44892826Y-90657646D01*
X44920204Y-90527690D01*
X44998809Y-90377191D01*
X45122896Y-90283114D01*
X45272339Y-90250587D01*
X45427013Y-90284738D01*
X45545826Y-90368273D01*
X45608265Y-90437193D01*
X45644707Y-90505126D01*
X45662077Y-90597064D01*
X45667301Y-90737999D01*
X45667541Y-90807553D01*
X46113881Y-90807553D01*
X46112215Y-90621495D01*
X46054944Y-90333134D01*
X45943543Y-90108049D01*
X45778007Y-89946230D01*
X45558330Y-89847666D01*
X45511158Y-89836236D01*
X45227664Y-89809406D01*
X44977479Y-89854805D01*
G36*
X43710492Y-90478311D02*
X43706556Y-90783698D01*
X43692177Y-91015660D01*
X43663496Y-91183786D01*
X43616652Y-91297671D01*
X43547789Y-91366905D01*
X43453046Y-91401080D01*
X43335738Y-91409811D01*
X43212877Y-91400028D01*
X43119556Y-91364287D01*
X43051916Y-91292995D01*
X43006099Y-91176561D01*
X42978245Y-91005391D01*
X42964496Y-90769896D01*
X42960984Y-90478311D01*
X42960984Y-89830164D01*
X42502951Y-89830164D01*
X42502951Y-91828853D01*
X42731967Y-91828853D01*
X42870029Y-91823258D01*
X42941122Y-91803611D01*
X42960984Y-91766313D01*
X42972946Y-91733094D01*
X43020553Y-91740121D01*
X43116515Y-91787132D01*
X43336452Y-91859654D01*
X43569726Y-91854516D01*
X43793245Y-91775766D01*
X43899687Y-91713558D01*
X43980878Y-91646204D01*
X44040192Y-91561928D01*
X44081004Y-91448957D01*
X44106688Y-91295515D01*
X44120619Y-91089827D01*
X44126171Y-90820118D01*
X44126885Y-90611551D01*
X44126885Y-89830164D01*
X43710492Y-89830164D01*
X43710492Y-90478311D01*
X43710492Y-90478311D01*
G37*
X43710492Y-90478311D02*
X43706556Y-90783698D01*
X43692177Y-91015660D01*
X43663496Y-91183786D01*
X43616652Y-91297671D01*
X43547789Y-91366905D01*
X43453046Y-91401080D01*
X43335738Y-91409811D01*
X43212877Y-91400028D01*
X43119556Y-91364287D01*
X43051916Y-91292995D01*
X43006099Y-91176561D01*
X42978245Y-91005391D01*
X42964496Y-90769896D01*
X42960984Y-90478311D01*
X42960984Y-89830164D01*
X42502951Y-89830164D01*
X42502951Y-91828853D01*
X42731967Y-91828853D01*
X42870029Y-91823258D01*
X42941122Y-91803611D01*
X42960984Y-91766313D01*
X42972946Y-91733094D01*
X43020553Y-91740121D01*
X43116515Y-91787132D01*
X43336452Y-91859654D01*
X43569726Y-91854516D01*
X43793245Y-91775766D01*
X43899687Y-91713558D01*
X43980878Y-91646204D01*
X44040192Y-91561928D01*
X44081004Y-91448957D01*
X44106688Y-91295515D01*
X44120619Y-91089827D01*
X44126171Y-90820118D01*
X44126885Y-90611551D01*
X44126885Y-89830164D01*
X43710492Y-89830164D01*
X43710492Y-90478311D01*
G36*
X39657712Y-89847602D02*
X39416457Y-89950090D01*
X39340469Y-89999981D01*
X39243352Y-90076651D01*
X39182388Y-90136936D01*
X39171803Y-90156571D01*
X39201692Y-90200142D01*
X39278181Y-90274077D01*
X39339418Y-90325679D01*
X39507033Y-90460378D01*
X39639386Y-90349010D01*
X39741664Y-90277113D01*
X39841390Y-90252296D01*
X39955525Y-90258357D01*
X40136766Y-90303418D01*
X40261525Y-90396949D01*
X40337342Y-90548154D01*
X40371760Y-90766236D01*
X40371769Y-90766373D01*
X40368792Y-91010124D01*
X40322533Y-91188966D01*
X40230258Y-91310730D01*
X40167350Y-91351964D01*
X40000283Y-91403311D01*
X39821838Y-91403342D01*
X39666585Y-91353522D01*
X39629836Y-91329180D01*
X39537670Y-91267004D01*
X39465613Y-91256813D01*
X39387898Y-91303092D01*
X39301982Y-91386212D01*
X39165989Y-91526521D01*
X39316977Y-91650978D01*
X39550260Y-91791443D01*
X39813327Y-91860666D01*
X40088240Y-91855653D01*
X40268784Y-91809755D01*
X40479806Y-91696249D01*
X40648574Y-91517685D01*
X40725247Y-91391639D01*
X40787346Y-91210791D01*
X40818419Y-90981745D01*
X40818658Y-90733510D01*
X40788257Y-90495093D01*
X40727408Y-90295503D01*
X40717824Y-90275039D01*
X40575898Y-90074341D01*
X40383741Y-89928217D01*
X40156536Y-89839698D01*
X39909465Y-89811815D01*
X39657712Y-89847602D01*
X39657712Y-89847602D01*
G37*
X39657712Y-89847602D02*
X39416457Y-89950090D01*
X39340469Y-89999981D01*
X39243352Y-90076651D01*
X39182388Y-90136936D01*
X39171803Y-90156571D01*
X39201692Y-90200142D01*
X39278181Y-90274077D01*
X39339418Y-90325679D01*
X39507033Y-90460378D01*
X39639386Y-90349010D01*
X39741664Y-90277113D01*
X39841390Y-90252296D01*
X39955525Y-90258357D01*
X40136766Y-90303418D01*
X40261525Y-90396949D01*
X40337342Y-90548154D01*
X40371760Y-90766236D01*
X40371769Y-90766373D01*
X40368792Y-91010124D01*
X40322533Y-91188966D01*
X40230258Y-91310730D01*
X40167350Y-91351964D01*
X40000283Y-91403311D01*
X39821838Y-91403342D01*
X39666585Y-91353522D01*
X39629836Y-91329180D01*
X39537670Y-91267004D01*
X39465613Y-91256813D01*
X39387898Y-91303092D01*
X39301982Y-91386212D01*
X39165989Y-91526521D01*
X39316977Y-91650978D01*
X39550260Y-91791443D01*
X39813327Y-91860666D01*
X40088240Y-91855653D01*
X40268784Y-91809755D01*
X40479806Y-91696249D01*
X40648574Y-91517685D01*
X40725247Y-91391639D01*
X40787346Y-91210791D01*
X40818419Y-90981745D01*
X40818658Y-90733510D01*
X40788257Y-90495093D01*
X40727408Y-90295503D01*
X40717824Y-90275039D01*
X40575898Y-90074341D01*
X40383741Y-89928217D01*
X40156536Y-89839698D01*
X39909465Y-89811815D01*
X39657712Y-89847602D01*
G36*
X38132208Y-89823019D02*
X38025586Y-89848922D01*
X37821170Y-89943772D01*
X37646375Y-90088633D01*
X37525403Y-90262320D01*
X37508783Y-90301317D01*
X37485984Y-90403465D01*
X37470025Y-90554573D01*
X37464590Y-90707301D01*
X37464590Y-90996066D01*
X38068361Y-90996066D01*
X38317381Y-90997007D01*
X38492811Y-91002723D01*
X38604335Y-91017550D01*
X38661640Y-91045827D01*
X38674412Y-91091890D01*
X38652338Y-91160077D01*
X38612795Y-91239863D01*
X38502491Y-91373017D01*
X38349208Y-91439355D01*
X38161859Y-91437194D01*
X37949637Y-91364991D01*
X37766227Y-91275883D01*
X37614038Y-91396220D01*
X37461849Y-91516558D01*
X37605026Y-91648843D01*
X37796172Y-91773832D01*
X38031247Y-91849189D01*
X38284102Y-91870278D01*
X38528587Y-91832460D01*
X38568033Y-91819628D01*
X38782910Y-91707414D01*
X38942750Y-91540118D01*
X39050920Y-91312748D01*
X39110790Y-91020308D01*
X39111487Y-91014040D01*
X39116848Y-90695332D01*
X39095177Y-90581632D01*
X38672131Y-90581632D01*
X38633278Y-90599116D01*
X38527795Y-90612508D01*
X38372293Y-90620155D01*
X38273751Y-90621312D01*
X38089987Y-90620588D01*
X37975086Y-90615983D01*
X37914634Y-90603848D01*
X37894217Y-90580530D01*
X37899419Y-90542382D01*
X37903783Y-90527623D01*
X37978276Y-90388944D01*
X38095434Y-90277179D01*
X38198827Y-90228066D01*
X38336184Y-90231032D01*
X38475371Y-90292278D01*
X38592126Y-90393683D01*
X38662190Y-90517122D01*
X38672131Y-90581632D01*
X39095177Y-90581632D01*
X39063421Y-90415020D01*
X38957428Y-90179780D01*
X38805089Y-89996284D01*
X38612626Y-89871209D01*
X38386258Y-89811229D01*
X38132208Y-89823019D01*
X38132208Y-89823019D01*
G37*
X38132208Y-89823019D02*
X38025586Y-89848922D01*
X37821170Y-89943772D01*
X37646375Y-90088633D01*
X37525403Y-90262320D01*
X37508783Y-90301317D01*
X37485984Y-90403465D01*
X37470025Y-90554573D01*
X37464590Y-90707301D01*
X37464590Y-90996066D01*
X38068361Y-90996066D01*
X38317381Y-90997007D01*
X38492811Y-91002723D01*
X38604335Y-91017550D01*
X38661640Y-91045827D01*
X38674412Y-91091890D01*
X38652338Y-91160077D01*
X38612795Y-91239863D01*
X38502491Y-91373017D01*
X38349208Y-91439355D01*
X38161859Y-91437194D01*
X37949637Y-91364991D01*
X37766227Y-91275883D01*
X37614038Y-91396220D01*
X37461849Y-91516558D01*
X37605026Y-91648843D01*
X37796172Y-91773832D01*
X38031247Y-91849189D01*
X38284102Y-91870278D01*
X38528587Y-91832460D01*
X38568033Y-91819628D01*
X38782910Y-91707414D01*
X38942750Y-91540118D01*
X39050920Y-91312748D01*
X39110790Y-91020308D01*
X39111487Y-91014040D01*
X39116848Y-90695332D01*
X39095177Y-90581632D01*
X38672131Y-90581632D01*
X38633278Y-90599116D01*
X38527795Y-90612508D01*
X38372293Y-90620155D01*
X38273751Y-90621312D01*
X38089987Y-90620588D01*
X37975086Y-90615983D01*
X37914634Y-90603848D01*
X37894217Y-90580530D01*
X37899419Y-90542382D01*
X37903783Y-90527623D01*
X37978276Y-90388944D01*
X38095434Y-90277179D01*
X38198827Y-90228066D01*
X38336184Y-90231032D01*
X38475371Y-90292278D01*
X38592126Y-90393683D01*
X38662190Y-90517122D01*
X38672131Y-90581632D01*
X39095177Y-90581632D01*
X39063421Y-90415020D01*
X38957428Y-90179780D01*
X38805089Y-89996284D01*
X38612626Y-89871209D01*
X38386258Y-89811229D01*
X38132208Y-89823019D01*
G36*
X49496892Y-89864563D02*
X49393260Y-89914062D01*
X49292894Y-89985561D01*
X49216432Y-90067853D01*
X49160738Y-90172811D01*
X49122677Y-90312313D01*
X49099115Y-90498233D01*
X49086915Y-90742448D01*
X49082944Y-91056833D01*
X49082882Y-91089754D01*
X49081967Y-91828853D01*
X49540000Y-91828853D01*
X49540000Y-91147481D01*
X49540326Y-90895050D01*
X49542581Y-90712093D01*
X49548681Y-90584807D01*
X49560541Y-90499386D01*
X49580076Y-90442026D01*
X49609203Y-90398924D01*
X49649776Y-90356334D01*
X49791731Y-90264824D01*
X49946694Y-90247843D01*
X50094323Y-90305701D01*
X50145663Y-90348763D01*
X50183353Y-90389249D01*
X50210413Y-90432607D01*
X50228603Y-90492463D01*
X50239684Y-90582441D01*
X50245414Y-90716168D01*
X50247556Y-90907270D01*
X50247869Y-91139911D01*
X50247869Y-91828853D01*
X50705902Y-91828853D01*
X50705902Y-89830164D01*
X50476885Y-89830164D01*
X50339386Y-89835602D01*
X50268447Y-89854909D01*
X50247878Y-89892576D01*
X50247869Y-89893692D01*
X50238325Y-89930581D01*
X50196233Y-89926395D01*
X50112541Y-89885861D01*
X49922727Y-89826224D01*
X49705599Y-89819591D01*
X49496892Y-89864563D01*
X49496892Y-89864563D01*
G37*
X49496892Y-89864563D02*
X49393260Y-89914062D01*
X49292894Y-89985561D01*
X49216432Y-90067853D01*
X49160738Y-90172811D01*
X49122677Y-90312313D01*
X49099115Y-90498233D01*
X49086915Y-90742448D01*
X49082944Y-91056833D01*
X49082882Y-91089754D01*
X49081967Y-91828853D01*
X49540000Y-91828853D01*
X49540000Y-91147481D01*
X49540326Y-90895050D01*
X49542581Y-90712093D01*
X49548681Y-90584807D01*
X49560541Y-90499386D01*
X49580076Y-90442026D01*
X49609203Y-90398924D01*
X49649776Y-90356334D01*
X49791731Y-90264824D01*
X49946694Y-90247843D01*
X50094323Y-90305701D01*
X50145663Y-90348763D01*
X50183353Y-90389249D01*
X50210413Y-90432607D01*
X50228603Y-90492463D01*
X50239684Y-90582441D01*
X50245414Y-90716168D01*
X50247556Y-90907270D01*
X50247869Y-91139911D01*
X50247869Y-91828853D01*
X50705902Y-91828853D01*
X50705902Y-89830164D01*
X50476885Y-89830164D01*
X50339386Y-89835602D01*
X50268447Y-89854909D01*
X50247878Y-89892576D01*
X50247869Y-89893692D01*
X50238325Y-89930581D01*
X50196233Y-89926395D01*
X50112541Y-89885861D01*
X49922727Y-89826224D01*
X49705599Y-89819591D01*
X49496892Y-89864563D01*
G36*
X41041131Y-89828231D02*
X40897908Y-89871989D01*
X40805694Y-89927280D01*
X40775656Y-89971004D01*
X40783924Y-90022834D01*
X40837573Y-90104259D01*
X40882937Y-90161927D01*
X40976454Y-90266182D01*
X41046713Y-90310045D01*
X41106607Y-90307182D01*
X41284280Y-90261967D01*
X41414766Y-90264020D01*
X41520727Y-90315261D01*
X41556300Y-90345252D01*
X41670164Y-90450778D01*
X41670164Y-91828853D01*
X42128197Y-91828853D01*
X42128197Y-89830164D01*
X41899180Y-89830164D01*
X41761682Y-89835602D01*
X41690742Y-89854909D01*
X41670173Y-89892576D01*
X41670164Y-89893692D01*
X41660450Y-89933146D01*
X41616522Y-89928000D01*
X41555656Y-89899536D01*
X41429946Y-89846569D01*
X41327866Y-89814703D01*
X41196520Y-89806533D01*
X41041131Y-89828231D01*
X41041131Y-89828231D01*
G37*
X41041131Y-89828231D02*
X40897908Y-89871989D01*
X40805694Y-89927280D01*
X40775656Y-89971004D01*
X40783924Y-90022834D01*
X40837573Y-90104259D01*
X40882937Y-90161927D01*
X40976454Y-90266182D01*
X41046713Y-90310045D01*
X41106607Y-90307182D01*
X41284280Y-90261967D01*
X41414766Y-90264020D01*
X41520727Y-90315261D01*
X41556300Y-90345252D01*
X41670164Y-90450778D01*
X41670164Y-91828853D01*
X42128197Y-91828853D01*
X42128197Y-89830164D01*
X41899180Y-89830164D01*
X41761682Y-89835602D01*
X41690742Y-89854909D01*
X41670173Y-89892576D01*
X41670164Y-89893692D01*
X41660450Y-89933146D01*
X41616522Y-89928000D01*
X41555656Y-89899536D01*
X41429946Y-89846569D01*
X41327866Y-89814703D01*
X41196520Y-89806533D01*
X41041131Y-89828231D01*
G36*
X45751695Y-76025960D02*
X45563443Y-77024542D01*
X44868817Y-77310889D01*
X44174192Y-77597237D01*
X43340872Y-77030586D01*
X43107499Y-76872811D01*
X42896543Y-76731939D01*
X42717847Y-76614401D01*
X42581256Y-76526629D01*
X42496614Y-76475055D01*
X42473563Y-76463935D01*
X42432037Y-76492535D01*
X42343302Y-76571604D01*
X42217303Y-76691041D01*
X42063986Y-76840744D01*
X41893298Y-77010615D01*
X41715186Y-77190551D01*
X41539594Y-77370454D01*
X41376470Y-77540222D01*
X41235759Y-77689754D01*
X41127408Y-77808952D01*
X41061363Y-77887713D01*
X41045574Y-77914072D01*
X41068297Y-77962666D01*
X41132001Y-78069126D01*
X41229987Y-78223039D01*
X41355559Y-78413991D01*
X41502018Y-78631569D01*
X41586885Y-78755671D01*
X41741574Y-78982279D01*
X41879030Y-79186770D01*
X41992586Y-79358965D01*
X42075572Y-79488685D01*
X42121322Y-79565751D01*
X42128197Y-79581947D01*
X42112612Y-79627975D01*
X42070132Y-79735250D01*
X42007165Y-79888687D01*
X41930121Y-80073206D01*
X41845410Y-80273721D01*
X41759442Y-80475152D01*
X41678627Y-80662415D01*
X41609373Y-80820428D01*
X41558092Y-80934107D01*
X41531191Y-80988370D01*
X41529604Y-80990506D01*
X41487365Y-81000867D01*
X41374874Y-81023982D01*
X41203791Y-81057579D01*
X40985777Y-81099385D01*
X40732491Y-81147127D01*
X40584712Y-81174659D01*
X40314062Y-81226190D01*
X40069603Y-81275225D01*
X39863700Y-81319081D01*
X39708723Y-81355074D01*
X39617038Y-81380521D01*
X39598607Y-81388595D01*
X39580555Y-81443242D01*
X39565990Y-81566662D01*
X39554902Y-81744423D01*
X39547281Y-81962091D01*
X39543116Y-82205235D01*
X39542398Y-82459423D01*
X39545118Y-82710220D01*
X39551265Y-82943196D01*
X39560829Y-83143918D01*
X39573801Y-83297954D01*
X39590171Y-83390870D01*
X39599989Y-83410213D01*
X39658677Y-83433398D01*
X39783034Y-83466544D01*
X39956610Y-83505758D01*
X40162958Y-83547145D01*
X40234989Y-83560534D01*
X40582281Y-83624147D01*
X40856617Y-83675378D01*
X41067061Y-83716261D01*
X41222678Y-83748834D01*
X41332533Y-83775132D01*
X41405689Y-83797192D01*
X41451213Y-83817049D01*
X41478167Y-83836741D01*
X41481939Y-83840632D01*
X41519585Y-83903324D01*
X41577014Y-84025331D01*
X41648492Y-84191712D01*
X41728285Y-84387529D01*
X41810657Y-84597840D01*
X41889875Y-84807708D01*
X41960204Y-85002191D01*
X42015911Y-85166350D01*
X42051259Y-85285245D01*
X42060516Y-85343936D01*
X42059744Y-85345992D01*
X42028380Y-85393964D01*
X41957226Y-85499516D01*
X41853760Y-85651660D01*
X41725460Y-85839410D01*
X41579801Y-86051780D01*
X41538320Y-86112130D01*
X41390413Y-86330929D01*
X41260261Y-86530562D01*
X41154955Y-86699565D01*
X41081584Y-86826475D01*
X41047237Y-86899829D01*
X41045574Y-86908841D01*
X41074431Y-86956207D01*
X41154169Y-87050042D01*
X41274538Y-87180261D01*
X41425287Y-87336779D01*
X41596164Y-87509510D01*
X41776921Y-87688371D01*
X41957306Y-87863276D01*
X42127068Y-88024140D01*
X42275958Y-88160878D01*
X42393724Y-88263407D01*
X42470117Y-88321640D01*
X42491250Y-88331148D01*
X42540440Y-88308754D01*
X42641153Y-88248356D01*
X42776983Y-88160129D01*
X42881490Y-88089115D01*
X43070851Y-87958811D01*
X43295101Y-87805384D01*
X43520036Y-87652201D01*
X43640968Y-87570218D01*
X44050296Y-87293353D01*
X44393898Y-87479136D01*
X44550435Y-87560523D01*
X44683546Y-87623784D01*
X44773611Y-87659865D01*
X44796537Y-87664885D01*
X44824105Y-87627817D01*
X44878492Y-87523069D01*
X44955637Y-87360303D01*
X45051482Y-87149181D01*
X45161966Y-86899365D01*
X45283029Y-86620517D01*
X45410611Y-86322299D01*
X45540653Y-86014374D01*
X45669094Y-85706404D01*
X45791874Y-85408050D01*
X45904933Y-85128975D01*
X46004212Y-84878841D01*
X46085651Y-84667310D01*
X46145189Y-84504043D01*
X46178766Y-84398705D01*
X46184166Y-84362527D01*
X46141366Y-84316381D01*
X46047656Y-84241472D01*
X45922627Y-84153364D01*
X45912133Y-84146394D01*
X45588980Y-83887721D01*
X45328413Y-83585938D01*
X45132690Y-83250695D01*
X45004068Y-82891642D01*
X44944805Y-82518426D01*
X44957161Y-82140700D01*
X45043393Y-81768111D01*
X45205759Y-81410310D01*
X45253528Y-81332027D01*
X45501991Y-81015919D01*
X45795519Y-80762079D01*
X46123953Y-80571827D01*
X46477135Y-80446485D01*
X46844905Y-80387372D01*
X47217103Y-80395807D01*
X47583571Y-80473112D01*
X47934149Y-80620606D01*
X48258677Y-80839610D01*
X48359064Y-80928498D01*
X48614551Y-81206744D01*
X48800722Y-81499656D01*
X48928430Y-81827986D01*
X48999556Y-82153133D01*
X49017114Y-82518702D01*
X48958566Y-82886086D01*
X48829858Y-83242866D01*
X48636938Y-83576626D01*
X48385752Y-83874947D01*
X48082248Y-84125411D01*
X48042360Y-84151813D01*
X47915991Y-84238272D01*
X47819927Y-84313184D01*
X47774000Y-84361015D01*
X47773332Y-84362527D01*
X47783192Y-84414267D01*
X47822278Y-84531696D01*
X47886528Y-84705154D01*
X47971880Y-84924979D01*
X48074273Y-85181513D01*
X48189646Y-85465096D01*
X48313937Y-85766067D01*
X48443084Y-86074767D01*
X48573026Y-86381536D01*
X48699702Y-86676714D01*
X48819049Y-86950640D01*
X48927006Y-87193656D01*
X49019512Y-87396101D01*
X49092504Y-87548315D01*
X49141923Y-87640638D01*
X49161823Y-87664885D01*
X49222634Y-87646004D01*
X49336418Y-87595364D01*
X49483555Y-87522017D01*
X49564462Y-87479136D01*
X49908065Y-87293353D01*
X50317393Y-87570218D01*
X50526346Y-87712054D01*
X50755113Y-87868141D01*
X50969491Y-88015109D01*
X51076871Y-88089115D01*
X51227898Y-88190531D01*
X51355782Y-88270898D01*
X51443842Y-88320041D01*
X51472445Y-88330429D01*
X51514076Y-88302405D01*
X51606211Y-88224172D01*
X51739918Y-88103852D01*
X51906265Y-87949568D01*
X52096320Y-87769443D01*
X52216521Y-87653790D01*
X52426815Y-87447167D01*
X52608556Y-87262358D01*
X52754397Y-87107270D01*
X52856991Y-86989807D01*
X52908991Y-86917875D01*
X52913980Y-86903278D01*
X52890829Y-86847753D01*
X52826854Y-86735484D01*
X52729153Y-86577837D01*
X52604820Y-86386179D01*
X52460954Y-86171876D01*
X52420041Y-86112130D01*
X52270967Y-85894982D01*
X52137225Y-85699475D01*
X52026291Y-85536599D01*
X51945644Y-85417337D01*
X51902759Y-85352678D01*
X51898617Y-85345992D01*
X51904812Y-85294462D01*
X51937700Y-85181166D01*
X51991545Y-85021042D01*
X52060613Y-84829032D01*
X52139169Y-84620074D01*
X52221480Y-84409109D01*
X52301811Y-84211076D01*
X52374428Y-84040916D01*
X52433595Y-83913567D01*
X52473580Y-83843971D01*
X52476422Y-83840632D01*
X52500873Y-83820742D01*
X52542169Y-83801073D01*
X52609377Y-83779589D01*
X52711559Y-83754253D01*
X52857781Y-83723029D01*
X53057107Y-83683882D01*
X53318603Y-83634775D01*
X53651331Y-83573672D01*
X53723372Y-83560534D01*
X53936885Y-83519282D01*
X54123022Y-83478926D01*
X54265334Y-83443361D01*
X54347371Y-83416480D01*
X54358372Y-83410213D01*
X54376498Y-83354654D01*
X54391233Y-83230495D01*
X54402564Y-83052169D01*
X54410484Y-82834109D01*
X54414981Y-82590746D01*
X54416046Y-82336514D01*
X54413670Y-82085845D01*
X54407841Y-81853171D01*
X54398551Y-81652924D01*
X54385789Y-81499538D01*
X54369546Y-81407444D01*
X54359754Y-81388595D01*
X54305239Y-81369582D01*
X54181104Y-81338650D01*
X53999715Y-81298482D01*
X53773440Y-81251762D01*
X53514647Y-81201173D01*
X53373649Y-81174659D01*
X53106127Y-81124650D01*
X52867562Y-81079346D01*
X52669614Y-81041021D01*
X52523943Y-81011947D01*
X52442209Y-80994397D01*
X52428757Y-80990506D01*
X52406021Y-80946638D01*
X52357960Y-80840976D01*
X52290981Y-80688613D01*
X52211490Y-80504646D01*
X52125892Y-80304170D01*
X52040595Y-80102281D01*
X51962005Y-79914073D01*
X51896527Y-79754642D01*
X51850569Y-79639084D01*
X51830537Y-79582494D01*
X51830164Y-79580021D01*
X51852874Y-79535379D01*
X51916541Y-79432647D01*
X52014475Y-79282037D01*
X52139983Y-79093757D01*
X52286374Y-78878018D01*
X52371475Y-78754098D01*
X52526545Y-78526883D01*
X52664275Y-78320595D01*
X52777947Y-78145671D01*
X52860839Y-78012545D01*
X52906231Y-77931653D01*
X52912787Y-77913520D01*
X52884605Y-77871312D01*
X52806696Y-77781191D01*
X52689010Y-77653254D01*
X52541500Y-77497596D01*
X52374119Y-77324315D01*
X52196819Y-77143507D01*
X52019552Y-76965267D01*
X51852270Y-76799693D01*
X51704925Y-76656880D01*
X51587470Y-76546925D01*
X51509857Y-76479924D01*
X51483892Y-76463935D01*
X51441616Y-76486419D01*
X51340499Y-76549585D01*
X51190373Y-76647003D01*
X51001070Y-76772243D01*
X50782421Y-76918875D01*
X50617489Y-77030586D01*
X49784169Y-77597237D01*
X49089544Y-77310889D01*
X48394918Y-77024542D01*
X48206666Y-76025960D01*
X48018413Y-75027377D01*
X45939948Y-75027377D01*
X45751695Y-76025960D01*
X45751695Y-76025960D01*
G37*
X45751695Y-76025960D02*
X45563443Y-77024542D01*
X44868817Y-77310889D01*
X44174192Y-77597237D01*
X43340872Y-77030586D01*
X43107499Y-76872811D01*
X42896543Y-76731939D01*
X42717847Y-76614401D01*
X42581256Y-76526629D01*
X42496614Y-76475055D01*
X42473563Y-76463935D01*
X42432037Y-76492535D01*
X42343302Y-76571604D01*
X42217303Y-76691041D01*
X42063986Y-76840744D01*
X41893298Y-77010615D01*
X41715186Y-77190551D01*
X41539594Y-77370454D01*
X41376470Y-77540222D01*
X41235759Y-77689754D01*
X41127408Y-77808952D01*
X41061363Y-77887713D01*
X41045574Y-77914072D01*
X41068297Y-77962666D01*
X41132001Y-78069126D01*
X41229987Y-78223039D01*
X41355559Y-78413991D01*
X41502018Y-78631569D01*
X41586885Y-78755671D01*
X41741574Y-78982279D01*
X41879030Y-79186770D01*
X41992586Y-79358965D01*
X42075572Y-79488685D01*
X42121322Y-79565751D01*
X42128197Y-79581947D01*
X42112612Y-79627975D01*
X42070132Y-79735250D01*
X42007165Y-79888687D01*
X41930121Y-80073206D01*
X41845410Y-80273721D01*
X41759442Y-80475152D01*
X41678627Y-80662415D01*
X41609373Y-80820428D01*
X41558092Y-80934107D01*
X41531191Y-80988370D01*
X41529604Y-80990506D01*
X41487365Y-81000867D01*
X41374874Y-81023982D01*
X41203791Y-81057579D01*
X40985777Y-81099385D01*
X40732491Y-81147127D01*
X40584712Y-81174659D01*
X40314062Y-81226190D01*
X40069603Y-81275225D01*
X39863700Y-81319081D01*
X39708723Y-81355074D01*
X39617038Y-81380521D01*
X39598607Y-81388595D01*
X39580555Y-81443242D01*
X39565990Y-81566662D01*
X39554902Y-81744423D01*
X39547281Y-81962091D01*
X39543116Y-82205235D01*
X39542398Y-82459423D01*
X39545118Y-82710220D01*
X39551265Y-82943196D01*
X39560829Y-83143918D01*
X39573801Y-83297954D01*
X39590171Y-83390870D01*
X39599989Y-83410213D01*
X39658677Y-83433398D01*
X39783034Y-83466544D01*
X39956610Y-83505758D01*
X40162958Y-83547145D01*
X40234989Y-83560534D01*
X40582281Y-83624147D01*
X40856617Y-83675378D01*
X41067061Y-83716261D01*
X41222678Y-83748834D01*
X41332533Y-83775132D01*
X41405689Y-83797192D01*
X41451213Y-83817049D01*
X41478167Y-83836741D01*
X41481939Y-83840632D01*
X41519585Y-83903324D01*
X41577014Y-84025331D01*
X41648492Y-84191712D01*
X41728285Y-84387529D01*
X41810657Y-84597840D01*
X41889875Y-84807708D01*
X41960204Y-85002191D01*
X42015911Y-85166350D01*
X42051259Y-85285245D01*
X42060516Y-85343936D01*
X42059744Y-85345992D01*
X42028380Y-85393964D01*
X41957226Y-85499516D01*
X41853760Y-85651660D01*
X41725460Y-85839410D01*
X41579801Y-86051780D01*
X41538320Y-86112130D01*
X41390413Y-86330929D01*
X41260261Y-86530562D01*
X41154955Y-86699565D01*
X41081584Y-86826475D01*
X41047237Y-86899829D01*
X41045574Y-86908841D01*
X41074431Y-86956207D01*
X41154169Y-87050042D01*
X41274538Y-87180261D01*
X41425287Y-87336779D01*
X41596164Y-87509510D01*
X41776921Y-87688371D01*
X41957306Y-87863276D01*
X42127068Y-88024140D01*
X42275958Y-88160878D01*
X42393724Y-88263407D01*
X42470117Y-88321640D01*
X42491250Y-88331148D01*
X42540440Y-88308754D01*
X42641153Y-88248356D01*
X42776983Y-88160129D01*
X42881490Y-88089115D01*
X43070851Y-87958811D01*
X43295101Y-87805384D01*
X43520036Y-87652201D01*
X43640968Y-87570218D01*
X44050296Y-87293353D01*
X44393898Y-87479136D01*
X44550435Y-87560523D01*
X44683546Y-87623784D01*
X44773611Y-87659865D01*
X44796537Y-87664885D01*
X44824105Y-87627817D01*
X44878492Y-87523069D01*
X44955637Y-87360303D01*
X45051482Y-87149181D01*
X45161966Y-86899365D01*
X45283029Y-86620517D01*
X45410611Y-86322299D01*
X45540653Y-86014374D01*
X45669094Y-85706404D01*
X45791874Y-85408050D01*
X45904933Y-85128975D01*
X46004212Y-84878841D01*
X46085651Y-84667310D01*
X46145189Y-84504043D01*
X46178766Y-84398705D01*
X46184166Y-84362527D01*
X46141366Y-84316381D01*
X46047656Y-84241472D01*
X45922627Y-84153364D01*
X45912133Y-84146394D01*
X45588980Y-83887721D01*
X45328413Y-83585938D01*
X45132690Y-83250695D01*
X45004068Y-82891642D01*
X44944805Y-82518426D01*
X44957161Y-82140700D01*
X45043393Y-81768111D01*
X45205759Y-81410310D01*
X45253528Y-81332027D01*
X45501991Y-81015919D01*
X45795519Y-80762079D01*
X46123953Y-80571827D01*
X46477135Y-80446485D01*
X46844905Y-80387372D01*
X47217103Y-80395807D01*
X47583571Y-80473112D01*
X47934149Y-80620606D01*
X48258677Y-80839610D01*
X48359064Y-80928498D01*
X48614551Y-81206744D01*
X48800722Y-81499656D01*
X48928430Y-81827986D01*
X48999556Y-82153133D01*
X49017114Y-82518702D01*
X48958566Y-82886086D01*
X48829858Y-83242866D01*
X48636938Y-83576626D01*
X48385752Y-83874947D01*
X48082248Y-84125411D01*
X48042360Y-84151813D01*
X47915991Y-84238272D01*
X47819927Y-84313184D01*
X47774000Y-84361015D01*
X47773332Y-84362527D01*
X47783192Y-84414267D01*
X47822278Y-84531696D01*
X47886528Y-84705154D01*
X47971880Y-84924979D01*
X48074273Y-85181513D01*
X48189646Y-85465096D01*
X48313937Y-85766067D01*
X48443084Y-86074767D01*
X48573026Y-86381536D01*
X48699702Y-86676714D01*
X48819049Y-86950640D01*
X48927006Y-87193656D01*
X49019512Y-87396101D01*
X49092504Y-87548315D01*
X49141923Y-87640638D01*
X49161823Y-87664885D01*
X49222634Y-87646004D01*
X49336418Y-87595364D01*
X49483555Y-87522017D01*
X49564462Y-87479136D01*
X49908065Y-87293353D01*
X50317393Y-87570218D01*
X50526346Y-87712054D01*
X50755113Y-87868141D01*
X50969491Y-88015109D01*
X51076871Y-88089115D01*
X51227898Y-88190531D01*
X51355782Y-88270898D01*
X51443842Y-88320041D01*
X51472445Y-88330429D01*
X51514076Y-88302405D01*
X51606211Y-88224172D01*
X51739918Y-88103852D01*
X51906265Y-87949568D01*
X52096320Y-87769443D01*
X52216521Y-87653790D01*
X52426815Y-87447167D01*
X52608556Y-87262358D01*
X52754397Y-87107270D01*
X52856991Y-86989807D01*
X52908991Y-86917875D01*
X52913980Y-86903278D01*
X52890829Y-86847753D01*
X52826854Y-86735484D01*
X52729153Y-86577837D01*
X52604820Y-86386179D01*
X52460954Y-86171876D01*
X52420041Y-86112130D01*
X52270967Y-85894982D01*
X52137225Y-85699475D01*
X52026291Y-85536599D01*
X51945644Y-85417337D01*
X51902759Y-85352678D01*
X51898617Y-85345992D01*
X51904812Y-85294462D01*
X51937700Y-85181166D01*
X51991545Y-85021042D01*
X52060613Y-84829032D01*
X52139169Y-84620074D01*
X52221480Y-84409109D01*
X52301811Y-84211076D01*
X52374428Y-84040916D01*
X52433595Y-83913567D01*
X52473580Y-83843971D01*
X52476422Y-83840632D01*
X52500873Y-83820742D01*
X52542169Y-83801073D01*
X52609377Y-83779589D01*
X52711559Y-83754253D01*
X52857781Y-83723029D01*
X53057107Y-83683882D01*
X53318603Y-83634775D01*
X53651331Y-83573672D01*
X53723372Y-83560534D01*
X53936885Y-83519282D01*
X54123022Y-83478926D01*
X54265334Y-83443361D01*
X54347371Y-83416480D01*
X54358372Y-83410213D01*
X54376498Y-83354654D01*
X54391233Y-83230495D01*
X54402564Y-83052169D01*
X54410484Y-82834109D01*
X54414981Y-82590746D01*
X54416046Y-82336514D01*
X54413670Y-82085845D01*
X54407841Y-81853171D01*
X54398551Y-81652924D01*
X54385789Y-81499538D01*
X54369546Y-81407444D01*
X54359754Y-81388595D01*
X54305239Y-81369582D01*
X54181104Y-81338650D01*
X53999715Y-81298482D01*
X53773440Y-81251762D01*
X53514647Y-81201173D01*
X53373649Y-81174659D01*
X53106127Y-81124650D01*
X52867562Y-81079346D01*
X52669614Y-81041021D01*
X52523943Y-81011947D01*
X52442209Y-80994397D01*
X52428757Y-80990506D01*
X52406021Y-80946638D01*
X52357960Y-80840976D01*
X52290981Y-80688613D01*
X52211490Y-80504646D01*
X52125892Y-80304170D01*
X52040595Y-80102281D01*
X51962005Y-79914073D01*
X51896527Y-79754642D01*
X51850569Y-79639084D01*
X51830537Y-79582494D01*
X51830164Y-79580021D01*
X51852874Y-79535379D01*
X51916541Y-79432647D01*
X52014475Y-79282037D01*
X52139983Y-79093757D01*
X52286374Y-78878018D01*
X52371475Y-78754098D01*
X52526545Y-78526883D01*
X52664275Y-78320595D01*
X52777947Y-78145671D01*
X52860839Y-78012545D01*
X52906231Y-77931653D01*
X52912787Y-77913520D01*
X52884605Y-77871312D01*
X52806696Y-77781191D01*
X52689010Y-77653254D01*
X52541500Y-77497596D01*
X52374119Y-77324315D01*
X52196819Y-77143507D01*
X52019552Y-76965267D01*
X51852270Y-76799693D01*
X51704925Y-76656880D01*
X51587470Y-76546925D01*
X51509857Y-76479924D01*
X51483892Y-76463935D01*
X51441616Y-76486419D01*
X51340499Y-76549585D01*
X51190373Y-76647003D01*
X51001070Y-76772243D01*
X50782421Y-76918875D01*
X50617489Y-77030586D01*
X49784169Y-77597237D01*
X49089544Y-77310889D01*
X48394918Y-77024542D01*
X48206666Y-76025960D01*
X48018413Y-75027377D01*
X45939948Y-75027377D01*
X45751695Y-76025960D01*
D13*
X44750000Y-53500000D02*
X44750000Y-57500000D01*
X44750000Y-57500000D02*
X48750000Y-57500000D01*
X48750000Y-57500000D02*
X48750000Y-53500000D01*
X48750000Y-53500000D02*
X44750000Y-53500000D01*
D12*
X44550000Y-53200000D02*
G75*
G03X44550000Y-53200000I-100000J0D01*
G01*
D17*
X66375000Y-50875000D02*
X66375000Y-50350000D01*
X73625000Y-50875000D02*
X73625000Y-50350000D01*
X73625000Y-43625000D02*
X73625000Y-44150000D01*
X66375000Y-43625000D02*
X66375000Y-44150000D01*
X73625000Y-50875000D02*
X73100000Y-50875000D01*
X73625000Y-43625000D02*
X73100000Y-43625000D01*
X66375000Y-50875000D02*
X66900000Y-50875000D01*
D11*
X47500000Y-59850000D02*
X46500000Y-59850000D01*
X46500000Y-58150000D02*
X47500000Y-58150000D01*
X44100000Y-54950000D02*
X44100000Y-54250000D01*
X42900000Y-54250000D02*
X42900000Y-54950000D01*
X50600000Y-54250000D02*
X50600000Y-55250000D01*
X48900000Y-55250000D02*
X48900000Y-54250000D01*
X68550000Y-66350000D02*
X68550000Y-65650000D01*
X67350000Y-65650000D02*
X67350000Y-66350000D01*
X64450000Y-65650000D02*
X64450000Y-66350000D01*
X65650000Y-66350000D02*
X65650000Y-65650000D01*
X70350000Y-41625000D02*
X70350000Y-40925000D01*
X69150000Y-40925000D02*
X69150000Y-41625000D01*
X63150000Y-46800000D02*
X63850000Y-46800000D01*
X63850000Y-45600000D02*
X63150000Y-45600000D01*
X66150000Y-52990000D02*
X66150000Y-53690000D01*
X67350000Y-53690000D02*
X67350000Y-52990000D01*
X76550000Y-45900000D02*
X75850000Y-45900000D01*
X75850000Y-47100000D02*
X76550000Y-47100000D01*
X84150000Y-46600000D02*
X84850000Y-46600000D01*
X84850000Y-45400000D02*
X84150000Y-45400000D01*
X63150000Y-47900000D02*
X63850000Y-47900000D01*
X63850000Y-46700000D02*
X63150000Y-46700000D01*
X85000000Y-48469000D02*
X84000000Y-48469000D01*
X84000000Y-46769000D02*
X85000000Y-46769000D01*
X84150000Y-49850000D02*
X84850000Y-49850000D01*
X84850000Y-48650000D02*
X84150000Y-48650000D01*
X63891847Y-38400000D02*
X63891847Y-39100000D01*
X65091847Y-39100000D02*
X65091847Y-38400000D01*
X66291847Y-38400000D02*
X66291847Y-39100000D01*
X67491847Y-39100000D02*
X67491847Y-38400000D01*
X95100000Y-34350000D02*
X95100000Y-33650000D01*
X93900000Y-33650000D02*
X93900000Y-34350000D01*
X71850000Y-62350000D02*
X71850000Y-61650000D01*
X70650000Y-61650000D02*
X70650000Y-62350000D01*
X40700000Y-46000000D02*
X40700000Y-44000000D01*
X40700000Y-46000000D02*
X37500000Y-46000000D01*
X37500000Y-44000000D02*
X40700000Y-44000000D01*
X96260000Y-80920000D02*
X96260000Y-81850000D01*
X96260000Y-84080000D02*
X96260000Y-83150000D01*
X96260000Y-84080000D02*
X94100000Y-84080000D01*
X96260000Y-80920000D02*
X94800000Y-80920000D01*
X96260000Y-73920000D02*
X94800000Y-73920000D01*
X96260000Y-77080000D02*
X94100000Y-77080000D01*
X96260000Y-77080000D02*
X96260000Y-76150000D01*
X96260000Y-73920000D02*
X96260000Y-74850000D01*
X102260000Y-63170000D02*
X102260000Y-64100000D01*
X102260000Y-66330000D02*
X102260000Y-65400000D01*
X102260000Y-66330000D02*
X100100000Y-66330000D01*
X102260000Y-63170000D02*
X100800000Y-63170000D01*
X75450000Y-68300000D02*
X72500000Y-68300000D01*
X73050000Y-65200000D02*
X75450000Y-65200000D01*
X67500000Y-67430000D02*
X65500000Y-67430000D01*
X65500000Y-69570000D02*
X67500000Y-69570000D01*
X69695000Y-66750000D02*
X69695000Y-67750000D01*
X71055000Y-67750000D02*
X71055000Y-66750000D01*
X72900000Y-80574000D02*
X74360000Y-80574000D01*
X72900000Y-77414000D02*
X75060000Y-77414000D01*
X72900000Y-77414000D02*
X72900000Y-78344000D01*
X72900000Y-80574000D02*
X72900000Y-79644000D01*
X77980000Y-87178000D02*
X77980000Y-86248000D01*
X77980000Y-84018000D02*
X77980000Y-84948000D01*
X77980000Y-84018000D02*
X80140000Y-84018000D01*
X77980000Y-87178000D02*
X79440000Y-87178000D01*
X62121000Y-65580000D02*
X63581000Y-65580000D01*
X62121000Y-62420000D02*
X64281000Y-62420000D01*
X62121000Y-62420000D02*
X62121000Y-63350000D01*
X62121000Y-65580000D02*
X62121000Y-64650000D01*
X61231000Y-63300000D02*
X61231000Y-64700000D01*
X58911000Y-64700000D02*
X58911000Y-62800000D01*
X74420000Y-34740000D02*
X74420000Y-36200000D01*
X77580000Y-34740000D02*
X77580000Y-36900000D01*
X77580000Y-34740000D02*
X76650000Y-34740000D01*
X74420000Y-34740000D02*
X75350000Y-34740000D01*
X77920000Y-34740000D02*
X78850000Y-34740000D01*
X81080000Y-34740000D02*
X80150000Y-34740000D01*
X81080000Y-34740000D02*
X81080000Y-36900000D01*
X77920000Y-34740000D02*
X77920000Y-36200000D01*
X81420000Y-34740000D02*
X81420000Y-36200000D01*
X84580000Y-34740000D02*
X84580000Y-36900000D01*
X84580000Y-34740000D02*
X83650000Y-34740000D01*
X81420000Y-34740000D02*
X82350000Y-34740000D01*
X48500000Y-51320000D02*
X47500000Y-51320000D01*
X47500000Y-52680000D02*
X48500000Y-52680000D01*
X46000000Y-51320000D02*
X45000000Y-51320000D01*
X45000000Y-52680000D02*
X46000000Y-52680000D01*
X76880000Y-79494000D02*
X76880000Y-78494000D01*
X75520000Y-78494000D02*
X75520000Y-79494000D01*
X71430000Y-54000000D02*
X71430000Y-53000000D01*
X70070000Y-53000000D02*
X70070000Y-54000000D01*
X59391000Y-60500000D02*
X59391000Y-61500000D01*
X60751000Y-61500000D02*
X60751000Y-60500000D01*
X62656000Y-61500000D02*
X62656000Y-60500000D01*
X61296000Y-60500000D02*
X61296000Y-61500000D01*
X72070000Y-53000000D02*
X72070000Y-54000000D01*
X73430000Y-54000000D02*
X73430000Y-53000000D01*
X97000000Y-84930000D02*
X95000000Y-84930000D01*
X95000000Y-87070000D02*
X97000000Y-87070000D01*
X95000000Y-80070000D02*
X97000000Y-80070000D01*
X97000000Y-77930000D02*
X95000000Y-77930000D01*
X97000000Y-70930000D02*
X95000000Y-70930000D01*
X95000000Y-73070000D02*
X97000000Y-73070000D01*
X70604000Y-75774000D02*
X69604000Y-75774000D01*
X69604000Y-77134000D02*
X70604000Y-77134000D01*
X69604000Y-74594000D02*
X70604000Y-74594000D01*
X70604000Y-73234000D02*
X69604000Y-73234000D01*
X69604000Y-82214000D02*
X70604000Y-82214000D01*
X70604000Y-80854000D02*
X69604000Y-80854000D01*
X91680000Y-34445000D02*
X91680000Y-33445000D01*
X90320000Y-33445000D02*
X90320000Y-34445000D01*
X67320000Y-61500000D02*
X67320000Y-62500000D01*
X68680000Y-62500000D02*
X68680000Y-61500000D01*
X69070000Y-61500000D02*
X69070000Y-62500000D01*
X70430000Y-62500000D02*
X70430000Y-61500000D01*
X65570000Y-61500000D02*
X65570000Y-62500000D01*
X66930000Y-62500000D02*
X66930000Y-61500000D01*
X92400000Y-84110000D02*
X90600000Y-84110000D01*
X90600000Y-80890000D02*
X93050000Y-80890000D01*
X90600000Y-73890000D02*
X93050000Y-73890000D01*
X92400000Y-77110000D02*
X90600000Y-77110000D01*
D13*
X64191847Y-42600000D02*
X67191847Y-42600000D01*
X64191847Y-40400000D02*
X67191847Y-40400000D01*
D11*
X88000000Y-81820000D02*
X87000000Y-81820000D01*
X87000000Y-83180000D02*
X88000000Y-83180000D01*
X70604000Y-78314000D02*
X69604000Y-78314000D01*
X69604000Y-79674000D02*
X70604000Y-79674000D01*
X67990000Y-84955000D02*
X67990000Y-83955000D01*
X66630000Y-83955000D02*
X66630000Y-84955000D01*
X72599000Y-83955000D02*
X72599000Y-84955000D01*
X73959000Y-84955000D02*
X73959000Y-83955000D01*
X77980000Y-80066000D02*
X79440000Y-80066000D01*
X77980000Y-76906000D02*
X80140000Y-76906000D01*
X77980000Y-76906000D02*
X77980000Y-77836000D01*
X77980000Y-80066000D02*
X77980000Y-79136000D01*
X77980000Y-83622000D02*
X77980000Y-82692000D01*
X77980000Y-80462000D02*
X77980000Y-81392000D01*
X77980000Y-80462000D02*
X80140000Y-80462000D01*
X77980000Y-83622000D02*
X79440000Y-83622000D01*
D17*
X48166666Y-40252380D02*
X48500000Y-39776190D01*
X48738095Y-40252380D02*
X48738095Y-39252380D01*
X48357142Y-39252380D01*
X48261904Y-39300000D01*
X48214285Y-39347619D01*
X48166666Y-39442857D01*
X48166666Y-39585714D01*
X48214285Y-39680952D01*
X48261904Y-39728571D01*
X48357142Y-39776190D01*
X48738095Y-39776190D01*
X47833333Y-39252380D02*
X47166666Y-39252380D01*
X47595238Y-40252380D01*
X45666666Y-40252380D02*
X46000000Y-39776190D01*
X46238095Y-40252380D02*
X46238095Y-39252380D01*
X45857142Y-39252380D01*
X45761904Y-39300000D01*
X45714285Y-39347619D01*
X45666666Y-39442857D01*
X45666666Y-39585714D01*
X45714285Y-39680952D01*
X45761904Y-39728571D01*
X45857142Y-39776190D01*
X46238095Y-39776190D01*
X45095238Y-39680952D02*
X45190476Y-39633333D01*
X45238095Y-39585714D01*
X45285714Y-39490476D01*
X45285714Y-39442857D01*
X45238095Y-39347619D01*
X45190476Y-39300000D01*
X45095238Y-39252380D01*
X44904761Y-39252380D01*
X44809523Y-39300000D01*
X44761904Y-39347619D01*
X44714285Y-39442857D01*
X44714285Y-39490476D01*
X44761904Y-39585714D01*
X44809523Y-39633333D01*
X44904761Y-39680952D01*
X45095238Y-39680952D01*
X45190476Y-39728571D01*
X45238095Y-39776190D01*
X45285714Y-39871428D01*
X45285714Y-40061904D01*
X45238095Y-40157142D01*
X45190476Y-40204761D01*
X45095238Y-40252380D01*
X44904761Y-40252380D01*
X44809523Y-40204761D01*
X44761904Y-40157142D01*
X44714285Y-40061904D01*
X44714285Y-39871428D01*
X44761904Y-39776190D01*
X44809523Y-39728571D01*
X44904761Y-39680952D01*
D13*
X44274095Y-45693619D02*
X44274095Y-46516095D01*
X44225714Y-46612857D01*
X44177333Y-46661238D01*
X44080571Y-46709619D01*
X43887047Y-46709619D01*
X43790285Y-46661238D01*
X43741904Y-46612857D01*
X43693523Y-46516095D01*
X43693523Y-45693619D01*
X43258095Y-45790380D02*
X43209714Y-45742000D01*
X43112952Y-45693619D01*
X42871047Y-45693619D01*
X42774285Y-45742000D01*
X42725904Y-45790380D01*
X42677523Y-45887142D01*
X42677523Y-45983904D01*
X42725904Y-46129047D01*
X43306476Y-46709619D01*
X42677523Y-46709619D01*
D17*
X51188857Y-46839142D02*
X51236476Y-46886761D01*
X51379333Y-46934380D01*
X51474571Y-46934380D01*
X51617428Y-46886761D01*
X51712666Y-46791523D01*
X51760285Y-46696285D01*
X51807904Y-46505809D01*
X51807904Y-46362952D01*
X51760285Y-46172476D01*
X51712666Y-46077238D01*
X51617428Y-45982000D01*
X51474571Y-45934380D01*
X51379333Y-45934380D01*
X51236476Y-45982000D01*
X51188857Y-46029619D01*
X50236476Y-46934380D02*
X50807904Y-46934380D01*
X50522190Y-46934380D02*
X50522190Y-45934380D01*
X50617428Y-46077238D01*
X50712666Y-46172476D01*
X50807904Y-46220095D01*
X49617428Y-45934380D02*
X49522190Y-45934380D01*
X49426952Y-45982000D01*
X49379333Y-46029619D01*
X49331714Y-46124857D01*
X49284095Y-46315333D01*
X49284095Y-46553428D01*
X49331714Y-46743904D01*
X49379333Y-46839142D01*
X49426952Y-46886761D01*
X49522190Y-46934380D01*
X49617428Y-46934380D01*
X49712666Y-46886761D01*
X49760285Y-46839142D01*
X49807904Y-46743904D01*
X49855523Y-46553428D01*
X49855523Y-46315333D01*
X49807904Y-46124857D01*
X49760285Y-46029619D01*
X49712666Y-45982000D01*
X49617428Y-45934380D01*
X43166666Y-41857142D02*
X43214285Y-41904761D01*
X43357142Y-41952380D01*
X43452380Y-41952380D01*
X43595238Y-41904761D01*
X43690476Y-41809523D01*
X43738095Y-41714285D01*
X43785714Y-41523809D01*
X43785714Y-41380952D01*
X43738095Y-41190476D01*
X43690476Y-41095238D01*
X43595238Y-41000000D01*
X43452380Y-40952380D01*
X43357142Y-40952380D01*
X43214285Y-41000000D01*
X43166666Y-41047619D01*
X42690476Y-41952380D02*
X42500000Y-41952380D01*
X42404761Y-41904761D01*
X42357142Y-41857142D01*
X42261904Y-41714285D01*
X42214285Y-41523809D01*
X42214285Y-41142857D01*
X42261904Y-41047619D01*
X42309523Y-41000000D01*
X42404761Y-40952380D01*
X42595238Y-40952380D01*
X42690476Y-41000000D01*
X42738095Y-41047619D01*
X42785714Y-41142857D01*
X42785714Y-41380952D01*
X42738095Y-41476190D01*
X42690476Y-41523809D01*
X42595238Y-41571428D01*
X42404761Y-41571428D01*
X42309523Y-41523809D01*
X42261904Y-41476190D01*
X42214285Y-41380952D01*
X44489666Y-48607142D02*
X44537285Y-48654761D01*
X44680142Y-48702380D01*
X44775380Y-48702380D01*
X44918238Y-48654761D01*
X45013476Y-48559523D01*
X45061095Y-48464285D01*
X45108714Y-48273809D01*
X45108714Y-48130952D01*
X45061095Y-47940476D01*
X45013476Y-47845238D01*
X44918238Y-47750000D01*
X44775380Y-47702380D01*
X44680142Y-47702380D01*
X44537285Y-47750000D01*
X44489666Y-47797619D01*
X43918238Y-48130952D02*
X44013476Y-48083333D01*
X44061095Y-48035714D01*
X44108714Y-47940476D01*
X44108714Y-47892857D01*
X44061095Y-47797619D01*
X44013476Y-47750000D01*
X43918238Y-47702380D01*
X43727761Y-47702380D01*
X43632523Y-47750000D01*
X43584904Y-47797619D01*
X43537285Y-47892857D01*
X43537285Y-47940476D01*
X43584904Y-48035714D01*
X43632523Y-48083333D01*
X43727761Y-48130952D01*
X43918238Y-48130952D01*
X44013476Y-48178571D01*
X44061095Y-48226190D01*
X44108714Y-48321428D01*
X44108714Y-48511904D01*
X44061095Y-48607142D01*
X44013476Y-48654761D01*
X43918238Y-48702380D01*
X43727761Y-48702380D01*
X43632523Y-48654761D01*
X43584904Y-48607142D01*
X43537285Y-48511904D01*
X43537285Y-48321428D01*
X43584904Y-48226190D01*
X43632523Y-48178571D01*
X43727761Y-48130952D01*
D13*
X89674095Y-39543619D02*
X89674095Y-40366095D01*
X89625714Y-40462857D01*
X89577333Y-40511238D01*
X89480571Y-40559619D01*
X89287047Y-40559619D01*
X89190285Y-40511238D01*
X89141904Y-40462857D01*
X89093523Y-40366095D01*
X89093523Y-39543619D01*
X88174285Y-39543619D02*
X88367809Y-39543619D01*
X88464571Y-39592000D01*
X88512952Y-39640380D01*
X88609714Y-39785523D01*
X88658095Y-39979047D01*
X88658095Y-40366095D01*
X88609714Y-40462857D01*
X88561333Y-40511238D01*
X88464571Y-40559619D01*
X88271047Y-40559619D01*
X88174285Y-40511238D01*
X88125904Y-40462857D01*
X88077523Y-40366095D01*
X88077523Y-40124190D01*
X88125904Y-40027428D01*
X88174285Y-39979047D01*
X88271047Y-39930666D01*
X88464571Y-39930666D01*
X88561333Y-39979047D01*
X88609714Y-40027428D01*
X88658095Y-40124190D01*
X44274095Y-56443619D02*
X44274095Y-57266095D01*
X44225714Y-57362857D01*
X44177333Y-57411238D01*
X44080571Y-57459619D01*
X43887047Y-57459619D01*
X43790285Y-57411238D01*
X43741904Y-57362857D01*
X43693523Y-57266095D01*
X43693523Y-56443619D01*
X42677523Y-57459619D02*
X43258095Y-57459619D01*
X42967809Y-57459619D02*
X42967809Y-56443619D01*
X43064571Y-56588761D01*
X43161333Y-56685523D01*
X43258095Y-56733904D01*
X75274095Y-42443619D02*
X75274095Y-43266095D01*
X75225714Y-43362857D01*
X75177333Y-43411238D01*
X75080571Y-43459619D01*
X74887047Y-43459619D01*
X74790285Y-43411238D01*
X74741904Y-43362857D01*
X74693523Y-43266095D01*
X74693523Y-42443619D01*
X74064571Y-42879047D02*
X74161333Y-42830666D01*
X74209714Y-42782285D01*
X74258095Y-42685523D01*
X74258095Y-42637142D01*
X74209714Y-42540380D01*
X74161333Y-42492000D01*
X74064571Y-42443619D01*
X73871047Y-42443619D01*
X73774285Y-42492000D01*
X73725904Y-42540380D01*
X73677523Y-42637142D01*
X73677523Y-42685523D01*
X73725904Y-42782285D01*
X73774285Y-42830666D01*
X73871047Y-42879047D01*
X74064571Y-42879047D01*
X74161333Y-42927428D01*
X74209714Y-42975809D01*
X74258095Y-43072571D01*
X74258095Y-43266095D01*
X74209714Y-43362857D01*
X74161333Y-43411238D01*
X74064571Y-43459619D01*
X73871047Y-43459619D01*
X73774285Y-43411238D01*
X73725904Y-43362857D01*
X73677523Y-43266095D01*
X73677523Y-43072571D01*
X73725904Y-42975809D01*
X73774285Y-42927428D01*
X73871047Y-42879047D01*
D17*
X44666666Y-59357142D02*
X44714285Y-59404761D01*
X44857142Y-59452380D01*
X44952380Y-59452380D01*
X45095238Y-59404761D01*
X45190476Y-59309523D01*
X45238095Y-59214285D01*
X45285714Y-59023809D01*
X45285714Y-58880952D01*
X45238095Y-58690476D01*
X45190476Y-58595238D01*
X45095238Y-58500000D01*
X44952380Y-58452380D01*
X44857142Y-58452380D01*
X44714285Y-58500000D01*
X44666666Y-58547619D01*
X44333333Y-58452380D02*
X43714285Y-58452380D01*
X44047619Y-58833333D01*
X43904761Y-58833333D01*
X43809523Y-58880952D01*
X43761904Y-58928571D01*
X43714285Y-59023809D01*
X43714285Y-59261904D01*
X43761904Y-59357142D01*
X43809523Y-59404761D01*
X43904761Y-59452380D01*
X44190476Y-59452380D01*
X44285714Y-59404761D01*
X44333333Y-59357142D01*
X43166666Y-52607142D02*
X43214285Y-52654761D01*
X43357142Y-52702380D01*
X43452380Y-52702380D01*
X43595238Y-52654761D01*
X43690476Y-52559523D01*
X43738095Y-52464285D01*
X43785714Y-52273809D01*
X43785714Y-52130952D01*
X43738095Y-51940476D01*
X43690476Y-51845238D01*
X43595238Y-51750000D01*
X43452380Y-51702380D01*
X43357142Y-51702380D01*
X43214285Y-51750000D01*
X43166666Y-51797619D01*
X42309523Y-52035714D02*
X42309523Y-52702380D01*
X42547619Y-51654761D02*
X42785714Y-52369047D01*
X42166666Y-52369047D01*
X50666666Y-57607142D02*
X50714285Y-57654761D01*
X50857142Y-57702380D01*
X50952380Y-57702380D01*
X51095238Y-57654761D01*
X51190476Y-57559523D01*
X51238095Y-57464285D01*
X51285714Y-57273809D01*
X51285714Y-57130952D01*
X51238095Y-56940476D01*
X51190476Y-56845238D01*
X51095238Y-56750000D01*
X50952380Y-56702380D01*
X50857142Y-56702380D01*
X50714285Y-56750000D01*
X50666666Y-56797619D01*
X49761904Y-56702380D02*
X50238095Y-56702380D01*
X50285714Y-57178571D01*
X50238095Y-57130952D01*
X50142857Y-57083333D01*
X49904761Y-57083333D01*
X49809523Y-57130952D01*
X49761904Y-57178571D01*
X49714285Y-57273809D01*
X49714285Y-57511904D01*
X49761904Y-57607142D01*
X49809523Y-57654761D01*
X49904761Y-57702380D01*
X50142857Y-57702380D01*
X50238095Y-57654761D01*
X50285714Y-57607142D01*
X68166666Y-64357142D02*
X68214285Y-64404761D01*
X68357142Y-64452380D01*
X68452380Y-64452380D01*
X68595238Y-64404761D01*
X68690476Y-64309523D01*
X68738095Y-64214285D01*
X68785714Y-64023809D01*
X68785714Y-63880952D01*
X68738095Y-63690476D01*
X68690476Y-63595238D01*
X68595238Y-63500000D01*
X68452380Y-63452380D01*
X68357142Y-63452380D01*
X68214285Y-63500000D01*
X68166666Y-63547619D01*
X67309523Y-63452380D02*
X67500000Y-63452380D01*
X67595238Y-63500000D01*
X67642857Y-63547619D01*
X67738095Y-63690476D01*
X67785714Y-63880952D01*
X67785714Y-64261904D01*
X67738095Y-64357142D01*
X67690476Y-64404761D01*
X67595238Y-64452380D01*
X67404761Y-64452380D01*
X67309523Y-64404761D01*
X67261904Y-64357142D01*
X67214285Y-64261904D01*
X67214285Y-64023809D01*
X67261904Y-63928571D01*
X67309523Y-63880952D01*
X67404761Y-63833333D01*
X67595238Y-63833333D01*
X67690476Y-63880952D01*
X67738095Y-63928571D01*
X67785714Y-64023809D01*
X65698666Y-64365142D02*
X65746285Y-64412761D01*
X65889142Y-64460380D01*
X65984380Y-64460380D01*
X66127238Y-64412761D01*
X66222476Y-64317523D01*
X66270095Y-64222285D01*
X66317714Y-64031809D01*
X66317714Y-63888952D01*
X66270095Y-63698476D01*
X66222476Y-63603238D01*
X66127238Y-63508000D01*
X65984380Y-63460380D01*
X65889142Y-63460380D01*
X65746285Y-63508000D01*
X65698666Y-63555619D01*
X65365333Y-63460380D02*
X64698666Y-63460380D01*
X65127238Y-64460380D01*
X70365857Y-39600142D02*
X70413476Y-39647761D01*
X70556333Y-39695380D01*
X70651571Y-39695380D01*
X70794428Y-39647761D01*
X70889666Y-39552523D01*
X70937285Y-39457285D01*
X70984904Y-39266809D01*
X70984904Y-39123952D01*
X70937285Y-38933476D01*
X70889666Y-38838238D01*
X70794428Y-38743000D01*
X70651571Y-38695380D01*
X70556333Y-38695380D01*
X70413476Y-38743000D01*
X70365857Y-38790619D01*
X69413476Y-39695380D02*
X69984904Y-39695380D01*
X69699190Y-39695380D02*
X69699190Y-38695380D01*
X69794428Y-38838238D01*
X69889666Y-38933476D01*
X69984904Y-38981095D01*
X68461095Y-39695380D02*
X69032523Y-39695380D01*
X68746809Y-39695380D02*
X68746809Y-38695380D01*
X68842047Y-38838238D01*
X68937285Y-38933476D01*
X69032523Y-38981095D01*
X64142857Y-45287142D02*
X64190476Y-45334761D01*
X64333333Y-45382380D01*
X64428571Y-45382380D01*
X64571428Y-45334761D01*
X64666666Y-45239523D01*
X64714285Y-45144285D01*
X64761904Y-44953809D01*
X64761904Y-44810952D01*
X64714285Y-44620476D01*
X64666666Y-44525238D01*
X64571428Y-44430000D01*
X64428571Y-44382380D01*
X64333333Y-44382380D01*
X64190476Y-44430000D01*
X64142857Y-44477619D01*
X63190476Y-45382380D02*
X63761904Y-45382380D01*
X63476190Y-45382380D02*
X63476190Y-44382380D01*
X63571428Y-44525238D01*
X63666666Y-44620476D01*
X63761904Y-44668095D01*
X62809523Y-44477619D02*
X62761904Y-44430000D01*
X62666666Y-44382380D01*
X62428571Y-44382380D01*
X62333333Y-44430000D01*
X62285714Y-44477619D01*
X62238095Y-44572857D01*
X62238095Y-44668095D01*
X62285714Y-44810952D01*
X62857142Y-45382380D01*
X62238095Y-45382380D01*
X67444857Y-55856142D02*
X67492476Y-55903761D01*
X67635333Y-55951380D01*
X67730571Y-55951380D01*
X67873428Y-55903761D01*
X67968666Y-55808523D01*
X68016285Y-55713285D01*
X68063904Y-55522809D01*
X68063904Y-55379952D01*
X68016285Y-55189476D01*
X67968666Y-55094238D01*
X67873428Y-54999000D01*
X67730571Y-54951380D01*
X67635333Y-54951380D01*
X67492476Y-54999000D01*
X67444857Y-55046619D01*
X66492476Y-55951380D02*
X67063904Y-55951380D01*
X66778190Y-55951380D02*
X66778190Y-54951380D01*
X66873428Y-55094238D01*
X66968666Y-55189476D01*
X67063904Y-55237095D01*
X66159142Y-54951380D02*
X65540095Y-54951380D01*
X65873428Y-55332333D01*
X65730571Y-55332333D01*
X65635333Y-55379952D01*
X65587714Y-55427571D01*
X65540095Y-55522809D01*
X65540095Y-55760904D01*
X65587714Y-55856142D01*
X65635333Y-55903761D01*
X65730571Y-55951380D01*
X66016285Y-55951380D01*
X66111523Y-55903761D01*
X66159142Y-55856142D01*
X76842857Y-45357142D02*
X76890476Y-45404761D01*
X77033333Y-45452380D01*
X77128571Y-45452380D01*
X77271428Y-45404761D01*
X77366666Y-45309523D01*
X77414285Y-45214285D01*
X77461904Y-45023809D01*
X77461904Y-44880952D01*
X77414285Y-44690476D01*
X77366666Y-44595238D01*
X77271428Y-44500000D01*
X77128571Y-44452380D01*
X77033333Y-44452380D01*
X76890476Y-44500000D01*
X76842857Y-44547619D01*
X75890476Y-45452380D02*
X76461904Y-45452380D01*
X76176190Y-45452380D02*
X76176190Y-44452380D01*
X76271428Y-44595238D01*
X76366666Y-44690476D01*
X76461904Y-44738095D01*
X75033333Y-44785714D02*
X75033333Y-45452380D01*
X75271428Y-44404761D02*
X75509523Y-45119047D01*
X74890476Y-45119047D01*
X82142857Y-46357142D02*
X82190476Y-46404761D01*
X82333333Y-46452380D01*
X82428571Y-46452380D01*
X82571428Y-46404761D01*
X82666666Y-46309523D01*
X82714285Y-46214285D01*
X82761904Y-46023809D01*
X82761904Y-45880952D01*
X82714285Y-45690476D01*
X82666666Y-45595238D01*
X82571428Y-45500000D01*
X82428571Y-45452380D01*
X82333333Y-45452380D01*
X82190476Y-45500000D01*
X82142857Y-45547619D01*
X81190476Y-46452380D02*
X81761904Y-46452380D01*
X81476190Y-46452380D02*
X81476190Y-45452380D01*
X81571428Y-45595238D01*
X81666666Y-45690476D01*
X81761904Y-45738095D01*
X80285714Y-45452380D02*
X80761904Y-45452380D01*
X80809523Y-45928571D01*
X80761904Y-45880952D01*
X80666666Y-45833333D01*
X80428571Y-45833333D01*
X80333333Y-45880952D01*
X80285714Y-45928571D01*
X80238095Y-46023809D01*
X80238095Y-46261904D01*
X80285714Y-46357142D01*
X80333333Y-46404761D01*
X80428571Y-46452380D01*
X80666666Y-46452380D01*
X80761904Y-46404761D01*
X80809523Y-46357142D01*
X64142857Y-49157142D02*
X64190476Y-49204761D01*
X64333333Y-49252380D01*
X64428571Y-49252380D01*
X64571428Y-49204761D01*
X64666666Y-49109523D01*
X64714285Y-49014285D01*
X64761904Y-48823809D01*
X64761904Y-48680952D01*
X64714285Y-48490476D01*
X64666666Y-48395238D01*
X64571428Y-48300000D01*
X64428571Y-48252380D01*
X64333333Y-48252380D01*
X64190476Y-48300000D01*
X64142857Y-48347619D01*
X63190476Y-49252380D02*
X63761904Y-49252380D01*
X63476190Y-49252380D02*
X63476190Y-48252380D01*
X63571428Y-48395238D01*
X63666666Y-48490476D01*
X63761904Y-48538095D01*
X62333333Y-48252380D02*
X62523809Y-48252380D01*
X62619047Y-48300000D01*
X62666666Y-48347619D01*
X62761904Y-48490476D01*
X62809523Y-48680952D01*
X62809523Y-49061904D01*
X62761904Y-49157142D01*
X62714285Y-49204761D01*
X62619047Y-49252380D01*
X62428571Y-49252380D01*
X62333333Y-49204761D01*
X62285714Y-49157142D01*
X62238095Y-49061904D01*
X62238095Y-48823809D01*
X62285714Y-48728571D01*
X62333333Y-48680952D01*
X62428571Y-48633333D01*
X62619047Y-48633333D01*
X62714285Y-48680952D01*
X62761904Y-48728571D01*
X62809523Y-48823809D01*
X82142857Y-47976142D02*
X82190476Y-48023761D01*
X82333333Y-48071380D01*
X82428571Y-48071380D01*
X82571428Y-48023761D01*
X82666666Y-47928523D01*
X82714285Y-47833285D01*
X82761904Y-47642809D01*
X82761904Y-47499952D01*
X82714285Y-47309476D01*
X82666666Y-47214238D01*
X82571428Y-47119000D01*
X82428571Y-47071380D01*
X82333333Y-47071380D01*
X82190476Y-47119000D01*
X82142857Y-47166619D01*
X81190476Y-48071380D02*
X81761904Y-48071380D01*
X81476190Y-48071380D02*
X81476190Y-47071380D01*
X81571428Y-47214238D01*
X81666666Y-47309476D01*
X81761904Y-47357095D01*
X80857142Y-47071380D02*
X80190476Y-47071380D01*
X80619047Y-48071380D01*
X82142857Y-49607142D02*
X82190476Y-49654761D01*
X82333333Y-49702380D01*
X82428571Y-49702380D01*
X82571428Y-49654761D01*
X82666666Y-49559523D01*
X82714285Y-49464285D01*
X82761904Y-49273809D01*
X82761904Y-49130952D01*
X82714285Y-48940476D01*
X82666666Y-48845238D01*
X82571428Y-48750000D01*
X82428571Y-48702380D01*
X82333333Y-48702380D01*
X82190476Y-48750000D01*
X82142857Y-48797619D01*
X81190476Y-49702380D02*
X81761904Y-49702380D01*
X81476190Y-49702380D02*
X81476190Y-48702380D01*
X81571428Y-48845238D01*
X81666666Y-48940476D01*
X81761904Y-48988095D01*
X80619047Y-49130952D02*
X80714285Y-49083333D01*
X80761904Y-49035714D01*
X80809523Y-48940476D01*
X80809523Y-48892857D01*
X80761904Y-48797619D01*
X80714285Y-48750000D01*
X80619047Y-48702380D01*
X80428571Y-48702380D01*
X80333333Y-48750000D01*
X80285714Y-48797619D01*
X80238095Y-48892857D01*
X80238095Y-48940476D01*
X80285714Y-49035714D01*
X80333333Y-49083333D01*
X80428571Y-49130952D01*
X80619047Y-49130952D01*
X80714285Y-49178571D01*
X80761904Y-49226190D01*
X80809523Y-49321428D01*
X80809523Y-49511904D01*
X80761904Y-49607142D01*
X80714285Y-49654761D01*
X80619047Y-49702380D01*
X80428571Y-49702380D01*
X80333333Y-49654761D01*
X80285714Y-49607142D01*
X80238095Y-49511904D01*
X80238095Y-49321428D01*
X80285714Y-49226190D01*
X80333333Y-49178571D01*
X80428571Y-49130952D01*
X64777857Y-37187142D02*
X64825476Y-37234761D01*
X64968333Y-37282380D01*
X65063571Y-37282380D01*
X65206428Y-37234761D01*
X65301666Y-37139523D01*
X65349285Y-37044285D01*
X65396904Y-36853809D01*
X65396904Y-36710952D01*
X65349285Y-36520476D01*
X65301666Y-36425238D01*
X65206428Y-36330000D01*
X65063571Y-36282380D01*
X64968333Y-36282380D01*
X64825476Y-36330000D01*
X64777857Y-36377619D01*
X63825476Y-37282380D02*
X64396904Y-37282380D01*
X64111190Y-37282380D02*
X64111190Y-36282380D01*
X64206428Y-36425238D01*
X64301666Y-36520476D01*
X64396904Y-36568095D01*
X63349285Y-37282380D02*
X63158809Y-37282380D01*
X63063571Y-37234761D01*
X63015952Y-37187142D01*
X62920714Y-37044285D01*
X62873095Y-36853809D01*
X62873095Y-36472857D01*
X62920714Y-36377619D01*
X62968333Y-36330000D01*
X63063571Y-36282380D01*
X63254047Y-36282380D01*
X63349285Y-36330000D01*
X63396904Y-36377619D01*
X63444523Y-36472857D01*
X63444523Y-36710952D01*
X63396904Y-36806190D01*
X63349285Y-36853809D01*
X63254047Y-36901428D01*
X63063571Y-36901428D01*
X62968333Y-36853809D01*
X62920714Y-36806190D01*
X62873095Y-36710952D01*
X67698857Y-37187142D02*
X67746476Y-37234761D01*
X67889333Y-37282380D01*
X67984571Y-37282380D01*
X68127428Y-37234761D01*
X68222666Y-37139523D01*
X68270285Y-37044285D01*
X68317904Y-36853809D01*
X68317904Y-36710952D01*
X68270285Y-36520476D01*
X68222666Y-36425238D01*
X68127428Y-36330000D01*
X67984571Y-36282380D01*
X67889333Y-36282380D01*
X67746476Y-36330000D01*
X67698857Y-36377619D01*
X67317904Y-36377619D02*
X67270285Y-36330000D01*
X67175047Y-36282380D01*
X66936952Y-36282380D01*
X66841714Y-36330000D01*
X66794095Y-36377619D01*
X66746476Y-36472857D01*
X66746476Y-36568095D01*
X66794095Y-36710952D01*
X67365523Y-37282380D01*
X66746476Y-37282380D01*
X66127428Y-36282380D02*
X66032190Y-36282380D01*
X65936952Y-36330000D01*
X65889333Y-36377619D01*
X65841714Y-36472857D01*
X65794095Y-36663333D01*
X65794095Y-36901428D01*
X65841714Y-37091904D01*
X65889333Y-37187142D01*
X65936952Y-37234761D01*
X66032190Y-37282380D01*
X66127428Y-37282380D01*
X66222666Y-37234761D01*
X66270285Y-37187142D01*
X66317904Y-37091904D01*
X66365523Y-36901428D01*
X66365523Y-36663333D01*
X66317904Y-36472857D01*
X66270285Y-36377619D01*
X66222666Y-36330000D01*
X66127428Y-36282380D01*
X95142857Y-32357142D02*
X95190476Y-32404761D01*
X95333333Y-32452380D01*
X95428571Y-32452380D01*
X95571428Y-32404761D01*
X95666666Y-32309523D01*
X95714285Y-32214285D01*
X95761904Y-32023809D01*
X95761904Y-31880952D01*
X95714285Y-31690476D01*
X95666666Y-31595238D01*
X95571428Y-31500000D01*
X95428571Y-31452380D01*
X95333333Y-31452380D01*
X95190476Y-31500000D01*
X95142857Y-31547619D01*
X94761904Y-31547619D02*
X94714285Y-31500000D01*
X94619047Y-31452380D01*
X94380952Y-31452380D01*
X94285714Y-31500000D01*
X94238095Y-31547619D01*
X94190476Y-31642857D01*
X94190476Y-31738095D01*
X94238095Y-31880952D01*
X94809523Y-32452380D01*
X94190476Y-32452380D01*
X93238095Y-32452380D02*
X93809523Y-32452380D01*
X93523809Y-32452380D02*
X93523809Y-31452380D01*
X93619047Y-31595238D01*
X93714285Y-31690476D01*
X93809523Y-31738095D01*
X71607142Y-58607142D02*
X71654761Y-58559523D01*
X71702380Y-58416666D01*
X71702380Y-58321428D01*
X71654761Y-58178571D01*
X71559523Y-58083333D01*
X71464285Y-58035714D01*
X71273809Y-57988095D01*
X71130952Y-57988095D01*
X70940476Y-58035714D01*
X70845238Y-58083333D01*
X70750000Y-58178571D01*
X70702380Y-58321428D01*
X70702380Y-58416666D01*
X70750000Y-58559523D01*
X70797619Y-58607142D01*
X70797619Y-58988095D02*
X70750000Y-59035714D01*
X70702380Y-59130952D01*
X70702380Y-59369047D01*
X70750000Y-59464285D01*
X70797619Y-59511904D01*
X70892857Y-59559523D01*
X70988095Y-59559523D01*
X71130952Y-59511904D01*
X71702380Y-58940476D01*
X71702380Y-59559523D01*
X70797619Y-59940476D02*
X70750000Y-59988095D01*
X70702380Y-60083333D01*
X70702380Y-60321428D01*
X70750000Y-60416666D01*
X70797619Y-60464285D01*
X70892857Y-60511904D01*
X70988095Y-60511904D01*
X71130952Y-60464285D01*
X71702380Y-59892857D01*
X71702380Y-60511904D01*
X39238095Y-43452380D02*
X39238095Y-42452380D01*
X39000000Y-42452380D01*
X38857142Y-42500000D01*
X38761904Y-42595238D01*
X38714285Y-42690476D01*
X38666666Y-42880952D01*
X38666666Y-43023809D01*
X38714285Y-43214285D01*
X38761904Y-43309523D01*
X38857142Y-43404761D01*
X39000000Y-43452380D01*
X39238095Y-43452380D01*
X37714285Y-43452380D02*
X38285714Y-43452380D01*
X38000000Y-43452380D02*
X38000000Y-42452380D01*
X38095238Y-42595238D01*
X38190476Y-42690476D01*
X38285714Y-42738095D01*
X98238095Y-81452380D02*
X98238095Y-80452380D01*
X98000000Y-80452380D01*
X97857142Y-80500000D01*
X97761904Y-80595238D01*
X97714285Y-80690476D01*
X97666666Y-80880952D01*
X97666666Y-81023809D01*
X97714285Y-81214285D01*
X97761904Y-81309523D01*
X97857142Y-81404761D01*
X98000000Y-81452380D01*
X98238095Y-81452380D01*
X97333333Y-80452380D02*
X96714285Y-80452380D01*
X97047619Y-80833333D01*
X96904761Y-80833333D01*
X96809523Y-80880952D01*
X96761904Y-80928571D01*
X96714285Y-81023809D01*
X96714285Y-81261904D01*
X96761904Y-81357142D01*
X96809523Y-81404761D01*
X96904761Y-81452380D01*
X97190476Y-81452380D01*
X97285714Y-81404761D01*
X97333333Y-81357142D01*
X98238095Y-74452380D02*
X98238095Y-73452380D01*
X98000000Y-73452380D01*
X97857142Y-73500000D01*
X97761904Y-73595238D01*
X97714285Y-73690476D01*
X97666666Y-73880952D01*
X97666666Y-74023809D01*
X97714285Y-74214285D01*
X97761904Y-74309523D01*
X97857142Y-74404761D01*
X98000000Y-74452380D01*
X98238095Y-74452380D01*
X96809523Y-73785714D02*
X96809523Y-74452380D01*
X97047619Y-73404761D02*
X97285714Y-74119047D01*
X96666666Y-74119047D01*
X102238095Y-62702380D02*
X102238095Y-61702380D01*
X102000000Y-61702380D01*
X101857142Y-61750000D01*
X101761904Y-61845238D01*
X101714285Y-61940476D01*
X101666666Y-62130952D01*
X101666666Y-62273809D01*
X101714285Y-62464285D01*
X101761904Y-62559523D01*
X101857142Y-62654761D01*
X102000000Y-62702380D01*
X102238095Y-62702380D01*
X100761904Y-61702380D02*
X101238095Y-61702380D01*
X101285714Y-62178571D01*
X101238095Y-62130952D01*
X101142857Y-62083333D01*
X100904761Y-62083333D01*
X100809523Y-62130952D01*
X100761904Y-62178571D01*
X100714285Y-62273809D01*
X100714285Y-62511904D01*
X100761904Y-62607142D01*
X100809523Y-62654761D01*
X100904761Y-62702380D01*
X101142857Y-62702380D01*
X101238095Y-62654761D01*
X101285714Y-62607142D01*
X74988095Y-64952380D02*
X74988095Y-63952380D01*
X74750000Y-63952380D01*
X74607142Y-64000000D01*
X74511904Y-64095238D01*
X74464285Y-64190476D01*
X74416666Y-64380952D01*
X74416666Y-64523809D01*
X74464285Y-64714285D01*
X74511904Y-64809523D01*
X74607142Y-64904761D01*
X74750000Y-64952380D01*
X74988095Y-64952380D01*
X73559523Y-63952380D02*
X73750000Y-63952380D01*
X73845238Y-64000000D01*
X73892857Y-64047619D01*
X73988095Y-64190476D01*
X74035714Y-64380952D01*
X74035714Y-64761904D01*
X73988095Y-64857142D01*
X73940476Y-64904761D01*
X73845238Y-64952380D01*
X73654761Y-64952380D01*
X73559523Y-64904761D01*
X73511904Y-64857142D01*
X73464285Y-64761904D01*
X73464285Y-64523809D01*
X73511904Y-64428571D01*
X73559523Y-64380952D01*
X73654761Y-64333333D01*
X73845238Y-64333333D01*
X73940476Y-64380952D01*
X73988095Y-64428571D01*
X74035714Y-64523809D01*
X66916666Y-70952380D02*
X67392857Y-70952380D01*
X67392857Y-69952380D01*
X66059523Y-70952380D02*
X66630952Y-70952380D01*
X66345238Y-70952380D02*
X66345238Y-69952380D01*
X66440476Y-70095238D01*
X66535714Y-70190476D01*
X66630952Y-70238095D01*
X70541666Y-65952380D02*
X71017857Y-65952380D01*
X71017857Y-64952380D01*
X70303571Y-64952380D02*
X69684523Y-64952380D01*
X70017857Y-65333333D01*
X69875000Y-65333333D01*
X69779761Y-65380952D01*
X69732142Y-65428571D01*
X69684523Y-65523809D01*
X69684523Y-65761904D01*
X69732142Y-65857142D01*
X69779761Y-65904761D01*
X69875000Y-65952380D01*
X70160714Y-65952380D01*
X70255952Y-65904761D01*
X70303571Y-65857142D01*
X73755238Y-77041619D02*
X73850476Y-76994000D01*
X73945714Y-76898761D01*
X74088571Y-76755904D01*
X74183809Y-76708285D01*
X74279047Y-76708285D01*
X74231428Y-76946380D02*
X74326666Y-76898761D01*
X74421904Y-76803523D01*
X74469523Y-76613047D01*
X74469523Y-76279714D01*
X74421904Y-76089238D01*
X74326666Y-75994000D01*
X74231428Y-75946380D01*
X74040952Y-75946380D01*
X73945714Y-75994000D01*
X73850476Y-76089238D01*
X73802857Y-76279714D01*
X73802857Y-76613047D01*
X73850476Y-76803523D01*
X73945714Y-76898761D01*
X74040952Y-76946380D01*
X74231428Y-76946380D01*
X72850476Y-76946380D02*
X73421904Y-76946380D01*
X73136190Y-76946380D02*
X73136190Y-75946380D01*
X73231428Y-76089238D01*
X73326666Y-76184476D01*
X73421904Y-76232095D01*
X81365238Y-86125619D02*
X81460476Y-86078000D01*
X81555714Y-85982761D01*
X81698571Y-85839904D01*
X81793809Y-85792285D01*
X81889047Y-85792285D01*
X81841428Y-86030380D02*
X81936666Y-85982761D01*
X82031904Y-85887523D01*
X82079523Y-85697047D01*
X82079523Y-85363714D01*
X82031904Y-85173238D01*
X81936666Y-85078000D01*
X81841428Y-85030380D01*
X81650952Y-85030380D01*
X81555714Y-85078000D01*
X81460476Y-85173238D01*
X81412857Y-85363714D01*
X81412857Y-85697047D01*
X81460476Y-85887523D01*
X81555714Y-85982761D01*
X81650952Y-86030380D01*
X81841428Y-86030380D01*
X81031904Y-85125619D02*
X80984285Y-85078000D01*
X80889047Y-85030380D01*
X80650952Y-85030380D01*
X80555714Y-85078000D01*
X80508095Y-85125619D01*
X80460476Y-85220857D01*
X80460476Y-85316095D01*
X80508095Y-85458952D01*
X81079523Y-86030380D01*
X80460476Y-86030380D01*
X62976238Y-67095619D02*
X63071476Y-67048000D01*
X63166714Y-66952761D01*
X63309571Y-66809904D01*
X63404809Y-66762285D01*
X63500047Y-66762285D01*
X63452428Y-67000380D02*
X63547666Y-66952761D01*
X63642904Y-66857523D01*
X63690523Y-66667047D01*
X63690523Y-66333714D01*
X63642904Y-66143238D01*
X63547666Y-66048000D01*
X63452428Y-66000380D01*
X63261952Y-66000380D01*
X63166714Y-66048000D01*
X63071476Y-66143238D01*
X63023857Y-66333714D01*
X63023857Y-66667047D01*
X63071476Y-66857523D01*
X63166714Y-66952761D01*
X63261952Y-67000380D01*
X63452428Y-67000380D01*
X62690523Y-66000380D02*
X62071476Y-66000380D01*
X62404809Y-66381333D01*
X62261952Y-66381333D01*
X62166714Y-66428952D01*
X62119095Y-66476571D01*
X62071476Y-66571809D01*
X62071476Y-66809904D01*
X62119095Y-66905142D01*
X62166714Y-66952761D01*
X62261952Y-67000380D01*
X62547666Y-67000380D01*
X62642904Y-66952761D01*
X62690523Y-66905142D01*
X60166238Y-66841619D02*
X60261476Y-66794000D01*
X60356714Y-66698761D01*
X60499571Y-66555904D01*
X60594809Y-66508285D01*
X60690047Y-66508285D01*
X60642428Y-66746380D02*
X60737666Y-66698761D01*
X60832904Y-66603523D01*
X60880523Y-66413047D01*
X60880523Y-66079714D01*
X60832904Y-65889238D01*
X60737666Y-65794000D01*
X60642428Y-65746380D01*
X60451952Y-65746380D01*
X60356714Y-65794000D01*
X60261476Y-65889238D01*
X60213857Y-66079714D01*
X60213857Y-66413047D01*
X60261476Y-66603523D01*
X60356714Y-66698761D01*
X60451952Y-66746380D01*
X60642428Y-66746380D01*
X59356714Y-66079714D02*
X59356714Y-66746380D01*
X59594809Y-65698761D02*
X59832904Y-66413047D01*
X59213857Y-66413047D01*
X76095238Y-38547619D02*
X76190476Y-38500000D01*
X76285714Y-38404761D01*
X76428571Y-38261904D01*
X76523809Y-38214285D01*
X76619047Y-38214285D01*
X76571428Y-38452380D02*
X76666666Y-38404761D01*
X76761904Y-38309523D01*
X76809523Y-38119047D01*
X76809523Y-37785714D01*
X76761904Y-37595238D01*
X76666666Y-37500000D01*
X76571428Y-37452380D01*
X76380952Y-37452380D01*
X76285714Y-37500000D01*
X76190476Y-37595238D01*
X76142857Y-37785714D01*
X76142857Y-38119047D01*
X76190476Y-38309523D01*
X76285714Y-38404761D01*
X76380952Y-38452380D01*
X76571428Y-38452380D01*
X75238095Y-37452380D02*
X75714285Y-37452380D01*
X75761904Y-37928571D01*
X75714285Y-37880952D01*
X75619047Y-37833333D01*
X75380952Y-37833333D01*
X75285714Y-37880952D01*
X75238095Y-37928571D01*
X75190476Y-38023809D01*
X75190476Y-38261904D01*
X75238095Y-38357142D01*
X75285714Y-38404761D01*
X75380952Y-38452380D01*
X75619047Y-38452380D01*
X75714285Y-38404761D01*
X75761904Y-38357142D01*
X79595238Y-38547619D02*
X79690476Y-38500000D01*
X79785714Y-38404761D01*
X79928571Y-38261904D01*
X80023809Y-38214285D01*
X80119047Y-38214285D01*
X80071428Y-38452380D02*
X80166666Y-38404761D01*
X80261904Y-38309523D01*
X80309523Y-38119047D01*
X80309523Y-37785714D01*
X80261904Y-37595238D01*
X80166666Y-37500000D01*
X80071428Y-37452380D01*
X79880952Y-37452380D01*
X79785714Y-37500000D01*
X79690476Y-37595238D01*
X79642857Y-37785714D01*
X79642857Y-38119047D01*
X79690476Y-38309523D01*
X79785714Y-38404761D01*
X79880952Y-38452380D01*
X80071428Y-38452380D01*
X78785714Y-37452380D02*
X78976190Y-37452380D01*
X79071428Y-37500000D01*
X79119047Y-37547619D01*
X79214285Y-37690476D01*
X79261904Y-37880952D01*
X79261904Y-38261904D01*
X79214285Y-38357142D01*
X79166666Y-38404761D01*
X79071428Y-38452380D01*
X78880952Y-38452380D01*
X78785714Y-38404761D01*
X78738095Y-38357142D01*
X78690476Y-38261904D01*
X78690476Y-38023809D01*
X78738095Y-37928571D01*
X78785714Y-37880952D01*
X78880952Y-37833333D01*
X79071428Y-37833333D01*
X79166666Y-37880952D01*
X79214285Y-37928571D01*
X79261904Y-38023809D01*
X83095238Y-38547619D02*
X83190476Y-38500000D01*
X83285714Y-38404761D01*
X83428571Y-38261904D01*
X83523809Y-38214285D01*
X83619047Y-38214285D01*
X83571428Y-38452380D02*
X83666666Y-38404761D01*
X83761904Y-38309523D01*
X83809523Y-38119047D01*
X83809523Y-37785714D01*
X83761904Y-37595238D01*
X83666666Y-37500000D01*
X83571428Y-37452380D01*
X83380952Y-37452380D01*
X83285714Y-37500000D01*
X83190476Y-37595238D01*
X83142857Y-37785714D01*
X83142857Y-38119047D01*
X83190476Y-38309523D01*
X83285714Y-38404761D01*
X83380952Y-38452380D01*
X83571428Y-38452380D01*
X82809523Y-37452380D02*
X82142857Y-37452380D01*
X82571428Y-38452380D01*
X48166666Y-51002380D02*
X48500000Y-50526190D01*
X48738095Y-51002380D02*
X48738095Y-50002380D01*
X48357142Y-50002380D01*
X48261904Y-50050000D01*
X48214285Y-50097619D01*
X48166666Y-50192857D01*
X48166666Y-50335714D01*
X48214285Y-50430952D01*
X48261904Y-50478571D01*
X48357142Y-50526190D01*
X48738095Y-50526190D01*
X47214285Y-51002380D02*
X47785714Y-51002380D01*
X47500000Y-51002380D02*
X47500000Y-50002380D01*
X47595238Y-50145238D01*
X47690476Y-50240476D01*
X47785714Y-50288095D01*
X45666666Y-51002380D02*
X46000000Y-50526190D01*
X46238095Y-51002380D02*
X46238095Y-50002380D01*
X45857142Y-50002380D01*
X45761904Y-50050000D01*
X45714285Y-50097619D01*
X45666666Y-50192857D01*
X45666666Y-50335714D01*
X45714285Y-50430952D01*
X45761904Y-50478571D01*
X45857142Y-50526190D01*
X46238095Y-50526190D01*
X45285714Y-50097619D02*
X45238095Y-50050000D01*
X45142857Y-50002380D01*
X44904761Y-50002380D01*
X44809523Y-50050000D01*
X44761904Y-50097619D01*
X44714285Y-50192857D01*
X44714285Y-50288095D01*
X44761904Y-50430952D01*
X45333333Y-51002380D01*
X44714285Y-51002380D01*
X76366666Y-77698380D02*
X76700000Y-77222190D01*
X76938095Y-77698380D02*
X76938095Y-76698380D01*
X76557142Y-76698380D01*
X76461904Y-76746000D01*
X76414285Y-76793619D01*
X76366666Y-76888857D01*
X76366666Y-77031714D01*
X76414285Y-77126952D01*
X76461904Y-77174571D01*
X76557142Y-77222190D01*
X76938095Y-77222190D01*
X76033333Y-76698380D02*
X75414285Y-76698380D01*
X75747619Y-77079333D01*
X75604761Y-77079333D01*
X75509523Y-77126952D01*
X75461904Y-77174571D01*
X75414285Y-77269809D01*
X75414285Y-77507904D01*
X75461904Y-77603142D01*
X75509523Y-77650761D01*
X75604761Y-77698380D01*
X75890476Y-77698380D01*
X75985714Y-77650761D01*
X76033333Y-77603142D01*
X70916666Y-55702380D02*
X71250000Y-55226190D01*
X71488095Y-55702380D02*
X71488095Y-54702380D01*
X71107142Y-54702380D01*
X71011904Y-54750000D01*
X70964285Y-54797619D01*
X70916666Y-54892857D01*
X70916666Y-55035714D01*
X70964285Y-55130952D01*
X71011904Y-55178571D01*
X71107142Y-55226190D01*
X71488095Y-55226190D01*
X70011904Y-54702380D02*
X70488095Y-54702380D01*
X70535714Y-55178571D01*
X70488095Y-55130952D01*
X70392857Y-55083333D01*
X70154761Y-55083333D01*
X70059523Y-55130952D01*
X70011904Y-55178571D01*
X69964285Y-55273809D01*
X69964285Y-55511904D01*
X70011904Y-55607142D01*
X70059523Y-55654761D01*
X70154761Y-55702380D01*
X70392857Y-55702380D01*
X70488095Y-55654761D01*
X70535714Y-55607142D01*
X60237666Y-59634380D02*
X60571000Y-59158190D01*
X60809095Y-59634380D02*
X60809095Y-58634380D01*
X60428142Y-58634380D01*
X60332904Y-58682000D01*
X60285285Y-58729619D01*
X60237666Y-58824857D01*
X60237666Y-58967714D01*
X60285285Y-59062952D01*
X60332904Y-59110571D01*
X60428142Y-59158190D01*
X60809095Y-59158190D01*
X59761476Y-59634380D02*
X59571000Y-59634380D01*
X59475761Y-59586761D01*
X59428142Y-59539142D01*
X59332904Y-59396285D01*
X59285285Y-59205809D01*
X59285285Y-58824857D01*
X59332904Y-58729619D01*
X59380523Y-58682000D01*
X59475761Y-58634380D01*
X59666238Y-58634380D01*
X59761476Y-58682000D01*
X59809095Y-58729619D01*
X59856714Y-58824857D01*
X59856714Y-59062952D01*
X59809095Y-59158190D01*
X59761476Y-59205809D01*
X59666238Y-59253428D01*
X59475761Y-59253428D01*
X59380523Y-59205809D01*
X59332904Y-59158190D01*
X59285285Y-59062952D01*
X62999857Y-59634380D02*
X63333190Y-59158190D01*
X63571285Y-59634380D02*
X63571285Y-58634380D01*
X63190333Y-58634380D01*
X63095095Y-58682000D01*
X63047476Y-58729619D01*
X62999857Y-58824857D01*
X62999857Y-58967714D01*
X63047476Y-59062952D01*
X63095095Y-59110571D01*
X63190333Y-59158190D01*
X63571285Y-59158190D01*
X62047476Y-59634380D02*
X62618904Y-59634380D01*
X62333190Y-59634380D02*
X62333190Y-58634380D01*
X62428428Y-58777238D01*
X62523666Y-58872476D01*
X62618904Y-58920095D01*
X61428428Y-58634380D02*
X61333190Y-58634380D01*
X61237952Y-58682000D01*
X61190333Y-58729619D01*
X61142714Y-58824857D01*
X61095095Y-59015333D01*
X61095095Y-59253428D01*
X61142714Y-59443904D01*
X61190333Y-59539142D01*
X61237952Y-59586761D01*
X61333190Y-59634380D01*
X61428428Y-59634380D01*
X61523666Y-59586761D01*
X61571285Y-59539142D01*
X61618904Y-59443904D01*
X61666523Y-59253428D01*
X61666523Y-59015333D01*
X61618904Y-58824857D01*
X61571285Y-58729619D01*
X61523666Y-58682000D01*
X61428428Y-58634380D01*
X73392857Y-55702380D02*
X73726190Y-55226190D01*
X73964285Y-55702380D02*
X73964285Y-54702380D01*
X73583333Y-54702380D01*
X73488095Y-54750000D01*
X73440476Y-54797619D01*
X73392857Y-54892857D01*
X73392857Y-55035714D01*
X73440476Y-55130952D01*
X73488095Y-55178571D01*
X73583333Y-55226190D01*
X73964285Y-55226190D01*
X72440476Y-55702380D02*
X73011904Y-55702380D01*
X72726190Y-55702380D02*
X72726190Y-54702380D01*
X72821428Y-54845238D01*
X72916666Y-54940476D01*
X73011904Y-54988095D01*
X71488095Y-55702380D02*
X72059523Y-55702380D01*
X71773809Y-55702380D02*
X71773809Y-54702380D01*
X71869047Y-54845238D01*
X71964285Y-54940476D01*
X72059523Y-54988095D01*
X93142857Y-86452380D02*
X93476190Y-85976190D01*
X93714285Y-86452380D02*
X93714285Y-85452380D01*
X93333333Y-85452380D01*
X93238095Y-85500000D01*
X93190476Y-85547619D01*
X93142857Y-85642857D01*
X93142857Y-85785714D01*
X93190476Y-85880952D01*
X93238095Y-85928571D01*
X93333333Y-85976190D01*
X93714285Y-85976190D01*
X92190476Y-86452380D02*
X92761904Y-86452380D01*
X92476190Y-86452380D02*
X92476190Y-85452380D01*
X92571428Y-85595238D01*
X92666666Y-85690476D01*
X92761904Y-85738095D01*
X91333333Y-85785714D02*
X91333333Y-86452380D01*
X91571428Y-85404761D02*
X91809523Y-86119047D01*
X91190476Y-86119047D01*
X93142857Y-79452380D02*
X93476190Y-78976190D01*
X93714285Y-79452380D02*
X93714285Y-78452380D01*
X93333333Y-78452380D01*
X93238095Y-78500000D01*
X93190476Y-78547619D01*
X93142857Y-78642857D01*
X93142857Y-78785714D01*
X93190476Y-78880952D01*
X93238095Y-78928571D01*
X93333333Y-78976190D01*
X93714285Y-78976190D01*
X92190476Y-79452380D02*
X92761904Y-79452380D01*
X92476190Y-79452380D02*
X92476190Y-78452380D01*
X92571428Y-78595238D01*
X92666666Y-78690476D01*
X92761904Y-78738095D01*
X91285714Y-78452380D02*
X91761904Y-78452380D01*
X91809523Y-78928571D01*
X91761904Y-78880952D01*
X91666666Y-78833333D01*
X91428571Y-78833333D01*
X91333333Y-78880952D01*
X91285714Y-78928571D01*
X91238095Y-79023809D01*
X91238095Y-79261904D01*
X91285714Y-79357142D01*
X91333333Y-79404761D01*
X91428571Y-79452380D01*
X91666666Y-79452380D01*
X91761904Y-79404761D01*
X91809523Y-79357142D01*
X93142857Y-72452380D02*
X93476190Y-71976190D01*
X93714285Y-72452380D02*
X93714285Y-71452380D01*
X93333333Y-71452380D01*
X93238095Y-71500000D01*
X93190476Y-71547619D01*
X93142857Y-71642857D01*
X93142857Y-71785714D01*
X93190476Y-71880952D01*
X93238095Y-71928571D01*
X93333333Y-71976190D01*
X93714285Y-71976190D01*
X92190476Y-72452380D02*
X92761904Y-72452380D01*
X92476190Y-72452380D02*
X92476190Y-71452380D01*
X92571428Y-71595238D01*
X92666666Y-71690476D01*
X92761904Y-71738095D01*
X91619047Y-71880952D02*
X91714285Y-71833333D01*
X91761904Y-71785714D01*
X91809523Y-71690476D01*
X91809523Y-71642857D01*
X91761904Y-71547619D01*
X91714285Y-71500000D01*
X91619047Y-71452380D01*
X91428571Y-71452380D01*
X91333333Y-71500000D01*
X91285714Y-71547619D01*
X91238095Y-71642857D01*
X91238095Y-71690476D01*
X91285714Y-71785714D01*
X91333333Y-71833333D01*
X91428571Y-71880952D01*
X91619047Y-71880952D01*
X91714285Y-71928571D01*
X91761904Y-71976190D01*
X91809523Y-72071428D01*
X91809523Y-72261904D01*
X91761904Y-72357142D01*
X91714285Y-72404761D01*
X91619047Y-72452380D01*
X91428571Y-72452380D01*
X91333333Y-72404761D01*
X91285714Y-72357142D01*
X91238095Y-72261904D01*
X91238095Y-72071428D01*
X91285714Y-71976190D01*
X91333333Y-71928571D01*
X91428571Y-71880952D01*
X68206857Y-76906380D02*
X68540190Y-76430190D01*
X68778285Y-76906380D02*
X68778285Y-75906380D01*
X68397333Y-75906380D01*
X68302095Y-75954000D01*
X68254476Y-76001619D01*
X68206857Y-76096857D01*
X68206857Y-76239714D01*
X68254476Y-76334952D01*
X68302095Y-76382571D01*
X68397333Y-76430190D01*
X68778285Y-76430190D01*
X67254476Y-76906380D02*
X67825904Y-76906380D01*
X67540190Y-76906380D02*
X67540190Y-75906380D01*
X67635428Y-76049238D01*
X67730666Y-76144476D01*
X67825904Y-76192095D01*
X66778285Y-76906380D02*
X66587809Y-76906380D01*
X66492571Y-76858761D01*
X66444952Y-76811142D01*
X66349714Y-76668285D01*
X66302095Y-76477809D01*
X66302095Y-76096857D01*
X66349714Y-76001619D01*
X66397333Y-75954000D01*
X66492571Y-75906380D01*
X66683047Y-75906380D01*
X66778285Y-75954000D01*
X66825904Y-76001619D01*
X66873523Y-76096857D01*
X66873523Y-76334952D01*
X66825904Y-76430190D01*
X66778285Y-76477809D01*
X66683047Y-76525428D01*
X66492571Y-76525428D01*
X66397333Y-76477809D01*
X66349714Y-76430190D01*
X66302095Y-76334952D01*
X68206857Y-74366380D02*
X68540190Y-73890190D01*
X68778285Y-74366380D02*
X68778285Y-73366380D01*
X68397333Y-73366380D01*
X68302095Y-73414000D01*
X68254476Y-73461619D01*
X68206857Y-73556857D01*
X68206857Y-73699714D01*
X68254476Y-73794952D01*
X68302095Y-73842571D01*
X68397333Y-73890190D01*
X68778285Y-73890190D01*
X67825904Y-73461619D02*
X67778285Y-73414000D01*
X67683047Y-73366380D01*
X67444952Y-73366380D01*
X67349714Y-73414000D01*
X67302095Y-73461619D01*
X67254476Y-73556857D01*
X67254476Y-73652095D01*
X67302095Y-73794952D01*
X67873523Y-74366380D01*
X67254476Y-74366380D01*
X66635428Y-73366380D02*
X66540190Y-73366380D01*
X66444952Y-73414000D01*
X66397333Y-73461619D01*
X66349714Y-73556857D01*
X66302095Y-73747333D01*
X66302095Y-73985428D01*
X66349714Y-74175904D01*
X66397333Y-74271142D01*
X66444952Y-74318761D01*
X66540190Y-74366380D01*
X66635428Y-74366380D01*
X66730666Y-74318761D01*
X66778285Y-74271142D01*
X66825904Y-74175904D01*
X66873523Y-73985428D01*
X66873523Y-73747333D01*
X66825904Y-73556857D01*
X66778285Y-73461619D01*
X66730666Y-73414000D01*
X66635428Y-73366380D01*
X68206857Y-81986380D02*
X68540190Y-81510190D01*
X68778285Y-81986380D02*
X68778285Y-80986380D01*
X68397333Y-80986380D01*
X68302095Y-81034000D01*
X68254476Y-81081619D01*
X68206857Y-81176857D01*
X68206857Y-81319714D01*
X68254476Y-81414952D01*
X68302095Y-81462571D01*
X68397333Y-81510190D01*
X68778285Y-81510190D01*
X67825904Y-81081619D02*
X67778285Y-81034000D01*
X67683047Y-80986380D01*
X67444952Y-80986380D01*
X67349714Y-81034000D01*
X67302095Y-81081619D01*
X67254476Y-81176857D01*
X67254476Y-81272095D01*
X67302095Y-81414952D01*
X67873523Y-81986380D01*
X67254476Y-81986380D01*
X66302095Y-81986380D02*
X66873523Y-81986380D01*
X66587809Y-81986380D02*
X66587809Y-80986380D01*
X66683047Y-81129238D01*
X66778285Y-81224476D01*
X66873523Y-81272095D01*
X91642857Y-32452380D02*
X91976190Y-31976190D01*
X92214285Y-32452380D02*
X92214285Y-31452380D01*
X91833333Y-31452380D01*
X91738095Y-31500000D01*
X91690476Y-31547619D01*
X91642857Y-31642857D01*
X91642857Y-31785714D01*
X91690476Y-31880952D01*
X91738095Y-31928571D01*
X91833333Y-31976190D01*
X92214285Y-31976190D01*
X91261904Y-31547619D02*
X91214285Y-31500000D01*
X91119047Y-31452380D01*
X90880952Y-31452380D01*
X90785714Y-31500000D01*
X90738095Y-31547619D01*
X90690476Y-31642857D01*
X90690476Y-31738095D01*
X90738095Y-31880952D01*
X91309523Y-32452380D01*
X90690476Y-32452380D01*
X90309523Y-31547619D02*
X90261904Y-31500000D01*
X90166666Y-31452380D01*
X89928571Y-31452380D01*
X89833333Y-31500000D01*
X89785714Y-31547619D01*
X89738095Y-31642857D01*
X89738095Y-31738095D01*
X89785714Y-31880952D01*
X90357142Y-32452380D01*
X89738095Y-32452380D01*
X68452380Y-58857142D02*
X67976190Y-58523809D01*
X68452380Y-58285714D02*
X67452380Y-58285714D01*
X67452380Y-58666666D01*
X67500000Y-58761904D01*
X67547619Y-58809523D01*
X67642857Y-58857142D01*
X67785714Y-58857142D01*
X67880952Y-58809523D01*
X67928571Y-58761904D01*
X67976190Y-58666666D01*
X67976190Y-58285714D01*
X67547619Y-59238095D02*
X67500000Y-59285714D01*
X67452380Y-59380952D01*
X67452380Y-59619047D01*
X67500000Y-59714285D01*
X67547619Y-59761904D01*
X67642857Y-59809523D01*
X67738095Y-59809523D01*
X67880952Y-59761904D01*
X68452380Y-59190476D01*
X68452380Y-59809523D01*
X67452380Y-60142857D02*
X67452380Y-60761904D01*
X67833333Y-60428571D01*
X67833333Y-60571428D01*
X67880952Y-60666666D01*
X67928571Y-60714285D01*
X68023809Y-60761904D01*
X68261904Y-60761904D01*
X68357142Y-60714285D01*
X68404761Y-60666666D01*
X68452380Y-60571428D01*
X68452380Y-60285714D01*
X68404761Y-60190476D01*
X68357142Y-60142857D01*
X70202380Y-58857142D02*
X69726190Y-58523809D01*
X70202380Y-58285714D02*
X69202380Y-58285714D01*
X69202380Y-58666666D01*
X69250000Y-58761904D01*
X69297619Y-58809523D01*
X69392857Y-58857142D01*
X69535714Y-58857142D01*
X69630952Y-58809523D01*
X69678571Y-58761904D01*
X69726190Y-58666666D01*
X69726190Y-58285714D01*
X69297619Y-59238095D02*
X69250000Y-59285714D01*
X69202380Y-59380952D01*
X69202380Y-59619047D01*
X69250000Y-59714285D01*
X69297619Y-59761904D01*
X69392857Y-59809523D01*
X69488095Y-59809523D01*
X69630952Y-59761904D01*
X70202380Y-59190476D01*
X70202380Y-59809523D01*
X69535714Y-60666666D02*
X70202380Y-60666666D01*
X69154761Y-60428571D02*
X69869047Y-60190476D01*
X69869047Y-60809523D01*
X66702380Y-58857142D02*
X66226190Y-58523809D01*
X66702380Y-58285714D02*
X65702380Y-58285714D01*
X65702380Y-58666666D01*
X65750000Y-58761904D01*
X65797619Y-58809523D01*
X65892857Y-58857142D01*
X66035714Y-58857142D01*
X66130952Y-58809523D01*
X66178571Y-58761904D01*
X66226190Y-58666666D01*
X66226190Y-58285714D01*
X65797619Y-59238095D02*
X65750000Y-59285714D01*
X65702380Y-59380952D01*
X65702380Y-59619047D01*
X65750000Y-59714285D01*
X65797619Y-59761904D01*
X65892857Y-59809523D01*
X65988095Y-59809523D01*
X66130952Y-59761904D01*
X66702380Y-59190476D01*
X66702380Y-59809523D01*
X65702380Y-60714285D02*
X65702380Y-60238095D01*
X66178571Y-60190476D01*
X66130952Y-60238095D01*
X66083333Y-60333333D01*
X66083333Y-60571428D01*
X66130952Y-60666666D01*
X66178571Y-60714285D01*
X66273809Y-60761904D01*
X66511904Y-60761904D01*
X66607142Y-60714285D01*
X66654761Y-60666666D01*
X66702380Y-60571428D01*
X66702380Y-60333333D01*
X66654761Y-60238095D01*
X66607142Y-60190476D01*
X90761904Y-79702380D02*
X90761904Y-80511904D01*
X90714285Y-80607142D01*
X90666666Y-80654761D01*
X90571428Y-80702380D01*
X90380952Y-80702380D01*
X90285714Y-80654761D01*
X90238095Y-80607142D01*
X90190476Y-80511904D01*
X90190476Y-79702380D01*
X89238095Y-79702380D02*
X89714285Y-79702380D01*
X89761904Y-80178571D01*
X89714285Y-80130952D01*
X89619047Y-80083333D01*
X89380952Y-80083333D01*
X89285714Y-80130952D01*
X89238095Y-80178571D01*
X89190476Y-80273809D01*
X89190476Y-80511904D01*
X89238095Y-80607142D01*
X89285714Y-80654761D01*
X89380952Y-80702380D01*
X89619047Y-80702380D01*
X89714285Y-80654761D01*
X89761904Y-80607142D01*
X90761904Y-72702380D02*
X90761904Y-73511904D01*
X90714285Y-73607142D01*
X90666666Y-73654761D01*
X90571428Y-73702380D01*
X90380952Y-73702380D01*
X90285714Y-73654761D01*
X90238095Y-73607142D01*
X90190476Y-73511904D01*
X90190476Y-72702380D01*
X89809523Y-72702380D02*
X89142857Y-72702380D01*
X89571428Y-73702380D01*
X63341190Y-41476190D02*
X63341190Y-41952380D01*
X63674523Y-40952380D02*
X63341190Y-41476190D01*
X63007857Y-40952380D01*
X62150714Y-41952380D02*
X62722142Y-41952380D01*
X62436428Y-41952380D02*
X62436428Y-40952380D01*
X62531666Y-41095238D01*
X62626904Y-41190476D01*
X62722142Y-41238095D01*
X88142857Y-84526380D02*
X88476190Y-84050190D01*
X88714285Y-84526380D02*
X88714285Y-83526380D01*
X88333333Y-83526380D01*
X88238095Y-83574000D01*
X88190476Y-83621619D01*
X88142857Y-83716857D01*
X88142857Y-83859714D01*
X88190476Y-83954952D01*
X88238095Y-84002571D01*
X88333333Y-84050190D01*
X88714285Y-84050190D01*
X87761904Y-83621619D02*
X87714285Y-83574000D01*
X87619047Y-83526380D01*
X87380952Y-83526380D01*
X87285714Y-83574000D01*
X87238095Y-83621619D01*
X87190476Y-83716857D01*
X87190476Y-83812095D01*
X87238095Y-83954952D01*
X87809523Y-84526380D01*
X87190476Y-84526380D01*
X86333333Y-83526380D02*
X86523809Y-83526380D01*
X86619047Y-83574000D01*
X86666666Y-83621619D01*
X86761904Y-83764476D01*
X86809523Y-83954952D01*
X86809523Y-84335904D01*
X86761904Y-84431142D01*
X86714285Y-84478761D01*
X86619047Y-84526380D01*
X86428571Y-84526380D01*
X86333333Y-84478761D01*
X86285714Y-84431142D01*
X86238095Y-84335904D01*
X86238095Y-84097809D01*
X86285714Y-84002571D01*
X86333333Y-83954952D01*
X86428571Y-83907333D01*
X86619047Y-83907333D01*
X86714285Y-83954952D01*
X86761904Y-84002571D01*
X86809523Y-84097809D01*
X67730666Y-79446380D02*
X68064000Y-78970190D01*
X68302095Y-79446380D02*
X68302095Y-78446380D01*
X67921142Y-78446380D01*
X67825904Y-78494000D01*
X67778285Y-78541619D01*
X67730666Y-78636857D01*
X67730666Y-78779714D01*
X67778285Y-78874952D01*
X67825904Y-78922571D01*
X67921142Y-78970190D01*
X68302095Y-78970190D01*
X66873523Y-78779714D02*
X66873523Y-79446380D01*
X67111619Y-78398761D02*
X67349714Y-79113047D01*
X66730666Y-79113047D01*
X68206857Y-86685380D02*
X68540190Y-86209190D01*
X68778285Y-86685380D02*
X68778285Y-85685380D01*
X68397333Y-85685380D01*
X68302095Y-85733000D01*
X68254476Y-85780619D01*
X68206857Y-85875857D01*
X68206857Y-86018714D01*
X68254476Y-86113952D01*
X68302095Y-86161571D01*
X68397333Y-86209190D01*
X68778285Y-86209190D01*
X67825904Y-85780619D02*
X67778285Y-85733000D01*
X67683047Y-85685380D01*
X67444952Y-85685380D01*
X67349714Y-85733000D01*
X67302095Y-85780619D01*
X67254476Y-85875857D01*
X67254476Y-85971095D01*
X67302095Y-86113952D01*
X67873523Y-86685380D01*
X67254476Y-86685380D01*
X66683047Y-86113952D02*
X66778285Y-86066333D01*
X66825904Y-86018714D01*
X66873523Y-85923476D01*
X66873523Y-85875857D01*
X66825904Y-85780619D01*
X66778285Y-85733000D01*
X66683047Y-85685380D01*
X66492571Y-85685380D01*
X66397333Y-85733000D01*
X66349714Y-85780619D01*
X66302095Y-85875857D01*
X66302095Y-85923476D01*
X66349714Y-86018714D01*
X66397333Y-86066333D01*
X66492571Y-86113952D01*
X66683047Y-86113952D01*
X66778285Y-86161571D01*
X66825904Y-86209190D01*
X66873523Y-86304428D01*
X66873523Y-86494904D01*
X66825904Y-86590142D01*
X66778285Y-86637761D01*
X66683047Y-86685380D01*
X66492571Y-86685380D01*
X66397333Y-86637761D01*
X66349714Y-86590142D01*
X66302095Y-86494904D01*
X66302095Y-86304428D01*
X66349714Y-86209190D01*
X66397333Y-86161571D01*
X66492571Y-86113952D01*
X73921857Y-86685380D02*
X74255190Y-86209190D01*
X74493285Y-86685380D02*
X74493285Y-85685380D01*
X74112333Y-85685380D01*
X74017095Y-85733000D01*
X73969476Y-85780619D01*
X73921857Y-85875857D01*
X73921857Y-86018714D01*
X73969476Y-86113952D01*
X74017095Y-86161571D01*
X74112333Y-86209190D01*
X74493285Y-86209190D01*
X73540904Y-85780619D02*
X73493285Y-85733000D01*
X73398047Y-85685380D01*
X73159952Y-85685380D01*
X73064714Y-85733000D01*
X73017095Y-85780619D01*
X72969476Y-85875857D01*
X72969476Y-85971095D01*
X73017095Y-86113952D01*
X73588523Y-86685380D01*
X72969476Y-86685380D01*
X72493285Y-86685380D02*
X72302809Y-86685380D01*
X72207571Y-86637761D01*
X72159952Y-86590142D01*
X72064714Y-86447285D01*
X72017095Y-86256809D01*
X72017095Y-85875857D01*
X72064714Y-85780619D01*
X72112333Y-85733000D01*
X72207571Y-85685380D01*
X72398047Y-85685380D01*
X72493285Y-85733000D01*
X72540904Y-85780619D01*
X72588523Y-85875857D01*
X72588523Y-86113952D01*
X72540904Y-86209190D01*
X72493285Y-86256809D01*
X72398047Y-86304428D01*
X72207571Y-86304428D01*
X72112333Y-86256809D01*
X72064714Y-86209190D01*
X72017095Y-86113952D01*
X81375238Y-79033619D02*
X81470476Y-78986000D01*
X81565714Y-78890761D01*
X81708571Y-78747904D01*
X81803809Y-78700285D01*
X81899047Y-78700285D01*
X81851428Y-78938380D02*
X81946666Y-78890761D01*
X82041904Y-78795523D01*
X82089523Y-78605047D01*
X82089523Y-78271714D01*
X82041904Y-78081238D01*
X81946666Y-77986000D01*
X81851428Y-77938380D01*
X81660952Y-77938380D01*
X81565714Y-77986000D01*
X81470476Y-78081238D01*
X81422857Y-78271714D01*
X81422857Y-78605047D01*
X81470476Y-78795523D01*
X81565714Y-78890761D01*
X81660952Y-78938380D01*
X81851428Y-78938380D01*
X80851428Y-78366952D02*
X80946666Y-78319333D01*
X80994285Y-78271714D01*
X81041904Y-78176476D01*
X81041904Y-78128857D01*
X80994285Y-78033619D01*
X80946666Y-77986000D01*
X80851428Y-77938380D01*
X80660952Y-77938380D01*
X80565714Y-77986000D01*
X80518095Y-78033619D01*
X80470476Y-78128857D01*
X80470476Y-78176476D01*
X80518095Y-78271714D01*
X80565714Y-78319333D01*
X80660952Y-78366952D01*
X80851428Y-78366952D01*
X80946666Y-78414571D01*
X80994285Y-78462190D01*
X81041904Y-78557428D01*
X81041904Y-78747904D01*
X80994285Y-78843142D01*
X80946666Y-78890761D01*
X80851428Y-78938380D01*
X80660952Y-78938380D01*
X80565714Y-78890761D01*
X80518095Y-78843142D01*
X80470476Y-78747904D01*
X80470476Y-78557428D01*
X80518095Y-78462190D01*
X80565714Y-78414571D01*
X80660952Y-78366952D01*
X81375238Y-82589619D02*
X81470476Y-82542000D01*
X81565714Y-82446761D01*
X81708571Y-82303904D01*
X81803809Y-82256285D01*
X81899047Y-82256285D01*
X81851428Y-82494380D02*
X81946666Y-82446761D01*
X82041904Y-82351523D01*
X82089523Y-82161047D01*
X82089523Y-81827714D01*
X82041904Y-81637238D01*
X81946666Y-81542000D01*
X81851428Y-81494380D01*
X81660952Y-81494380D01*
X81565714Y-81542000D01*
X81470476Y-81637238D01*
X81422857Y-81827714D01*
X81422857Y-82161047D01*
X81470476Y-82351523D01*
X81565714Y-82446761D01*
X81660952Y-82494380D01*
X81851428Y-82494380D01*
X80946666Y-82494380D02*
X80756190Y-82494380D01*
X80660952Y-82446761D01*
X80613333Y-82399142D01*
X80518095Y-82256285D01*
X80470476Y-82065809D01*
X80470476Y-81684857D01*
X80518095Y-81589619D01*
X80565714Y-81542000D01*
X80660952Y-81494380D01*
X80851428Y-81494380D01*
X80946666Y-81542000D01*
X80994285Y-81589619D01*
X81041904Y-81684857D01*
X81041904Y-81922952D01*
X80994285Y-82018190D01*
X80946666Y-82065809D01*
X80851428Y-82113428D01*
X80660952Y-82113428D01*
X80565714Y-82065809D01*
X80518095Y-82018190D01*
X80470476Y-81922952D01*
M02*
