G04 #@! TF.GenerationSoftware,KiCad,Pcbnew,(5.0.0-rc2-dev-640-gbf135b0)*
G04 #@! TF.CreationDate,2018-05-13T18:52:19-05:00*
G04 #@! TF.ProjectId,WiFi-Septic-Controller,576946692D5365707469632D436F6E74,rev?*
G04 #@! TF.SameCoordinates,Original*
G04 #@! TF.FileFunction,Legend,Top*
G04 #@! TF.FilePolarity,Positive*
%FSLAX46Y46*%
G04 Gerber Fmt 4.6, Leading zero omitted, Abs format (unit mm)*
G04 Created by KiCad (PCBNEW (5.0.0-rc2-dev-640-gbf135b0)) date Sunday, May 13, 2018 at 06:52:19 PM*
%MOMM*%
%LPD*%
G01*
G04 APERTURE LIST*
%ADD10C,0.330200*%
%ADD11C,0.304800*%
%ADD12C,0.508000*%
%ADD13C,0.254000*%
%ADD14C,0.120000*%
%ADD15C,0.010000*%
%ADD16C,0.150000*%
%ADD17C,0.152400*%
G04 APERTURE END LIST*
D10*
X95771071Y-118899834D02*
X95861785Y-118639030D01*
X95861785Y-118185459D01*
X95771071Y-117992691D01*
X95680357Y-117890637D01*
X95498928Y-117777245D01*
X95317500Y-117754566D01*
X95136071Y-117822602D01*
X95045357Y-117901977D01*
X94954642Y-118072066D01*
X94863928Y-118423584D01*
X94773214Y-118593673D01*
X94682500Y-118673048D01*
X94501071Y-118741084D01*
X94319642Y-118718405D01*
X94138214Y-118605012D01*
X94047500Y-118502959D01*
X93956785Y-118310191D01*
X93956785Y-117856620D01*
X94047500Y-117595816D01*
X95771071Y-116269120D02*
X95861785Y-116461887D01*
X95861785Y-116824745D01*
X95771071Y-116994834D01*
X95589642Y-117062870D01*
X94863928Y-116972155D01*
X94682500Y-116858762D01*
X94591785Y-116665995D01*
X94591785Y-116303137D01*
X94682500Y-116133048D01*
X94863928Y-116065012D01*
X95045357Y-116087691D01*
X95226785Y-117017512D01*
X94591785Y-115214566D02*
X95861785Y-115373316D01*
X94773214Y-115237245D02*
X94682500Y-115135191D01*
X94591785Y-114942423D01*
X94591785Y-114670280D01*
X94682500Y-114500191D01*
X94863928Y-114432155D01*
X95861785Y-114556887D01*
X95771071Y-113729120D02*
X95861785Y-113559030D01*
X95861785Y-113196173D01*
X95771071Y-113003405D01*
X95589642Y-112890012D01*
X95498928Y-112878673D01*
X95317500Y-112946709D01*
X95226785Y-113116798D01*
X95226785Y-113388941D01*
X95136071Y-113559030D01*
X94954642Y-113627066D01*
X94863928Y-113615727D01*
X94682500Y-113502334D01*
X94591785Y-113309566D01*
X94591785Y-113037423D01*
X94682500Y-112867334D01*
X95771071Y-111370548D02*
X95861785Y-111563316D01*
X95861785Y-111926173D01*
X95771071Y-112096262D01*
X95589642Y-112164298D01*
X94863928Y-112073584D01*
X94682500Y-111960191D01*
X94591785Y-111767423D01*
X94591785Y-111404566D01*
X94682500Y-111234477D01*
X94863928Y-111166441D01*
X95045357Y-111189120D01*
X95226785Y-112118941D01*
X81067500Y-118843137D02*
X81067500Y-117935995D01*
X81611785Y-119092602D02*
X79706785Y-118219477D01*
X81611785Y-117822602D01*
X81611785Y-116915459D02*
X81521071Y-117085548D01*
X81339642Y-117153584D01*
X79706785Y-116949477D01*
X81611785Y-115373316D02*
X80613928Y-115248584D01*
X80432500Y-115316620D01*
X80341785Y-115486709D01*
X80341785Y-115849566D01*
X80432500Y-116042334D01*
X81521071Y-115361977D02*
X81611785Y-115554745D01*
X81611785Y-116008316D01*
X81521071Y-116178405D01*
X81339642Y-116246441D01*
X81158214Y-116223762D01*
X80976785Y-116110370D01*
X80886071Y-115917602D01*
X80886071Y-115464030D01*
X80795357Y-115271262D01*
X81611785Y-114466173D02*
X80341785Y-114307423D01*
X80704642Y-114352780D02*
X80523214Y-114239387D01*
X80432500Y-114137334D01*
X80341785Y-113944566D01*
X80341785Y-113763137D01*
X81611785Y-113286887D02*
X80341785Y-113128137D01*
X80523214Y-113150816D02*
X80432500Y-113048762D01*
X80341785Y-112855995D01*
X80341785Y-112583852D01*
X80432500Y-112413762D01*
X80613928Y-112345727D01*
X81611785Y-112470459D01*
X80613928Y-112345727D02*
X80432500Y-112232334D01*
X80341785Y-112039566D01*
X80341785Y-111767423D01*
X80432500Y-111597334D01*
X80613928Y-111529298D01*
X81611785Y-111654030D01*
D11*
X107442000Y-96665142D02*
X107369428Y-96810285D01*
X107369428Y-97028000D01*
X107442000Y-97245714D01*
X107587142Y-97390857D01*
X107732285Y-97463428D01*
X108022571Y-97536000D01*
X108240285Y-97536000D01*
X108530571Y-97463428D01*
X108675714Y-97390857D01*
X108820857Y-97245714D01*
X108893428Y-97028000D01*
X108893428Y-96882857D01*
X108820857Y-96665142D01*
X108748285Y-96592571D01*
X108240285Y-96592571D01*
X108240285Y-96882857D01*
X108893428Y-95939428D02*
X107369428Y-95939428D01*
X108893428Y-95068571D01*
X107369428Y-95068571D01*
X108893428Y-94342857D02*
X107369428Y-94342857D01*
X107369428Y-93980000D01*
X107442000Y-93762285D01*
X107587142Y-93617142D01*
X107732285Y-93544571D01*
X108022571Y-93472000D01*
X108240285Y-93472000D01*
X108530571Y-93544571D01*
X108675714Y-93617142D01*
X108820857Y-93762285D01*
X108893428Y-93980000D01*
X108893428Y-94342857D01*
X63600000Y-35900000D02*
G75*
G03X63600000Y-35900000I-500000J0D01*
G01*
X63400000Y-35900000D02*
G75*
G03X63400000Y-35900000I-300000J0D01*
G01*
X63200000Y-35900000D02*
G75*
G03X63200000Y-35900000I-100000J0D01*
G01*
D10*
X66901785Y-118820459D02*
X64996785Y-118582334D01*
X64996785Y-117856620D01*
X65087500Y-117686530D01*
X65178214Y-117607155D01*
X65359642Y-117539120D01*
X65631785Y-117573137D01*
X65813214Y-117686530D01*
X65903928Y-117788584D01*
X65994642Y-117981352D01*
X65994642Y-118707066D01*
X65631785Y-115940280D02*
X66901785Y-116099030D01*
X65631785Y-116756709D02*
X66629642Y-116881441D01*
X66811071Y-116813405D01*
X66901785Y-116643316D01*
X66901785Y-116371173D01*
X66811071Y-116178405D01*
X66720357Y-116076352D01*
X66901785Y-115191887D02*
X65631785Y-115033137D01*
X65813214Y-115055816D02*
X65722500Y-114953762D01*
X65631785Y-114760995D01*
X65631785Y-114488852D01*
X65722500Y-114318762D01*
X65903928Y-114250727D01*
X66901785Y-114375459D01*
X65903928Y-114250727D02*
X65722500Y-114137334D01*
X65631785Y-113944566D01*
X65631785Y-113672423D01*
X65722500Y-113502334D01*
X65903928Y-113434298D01*
X66901785Y-113559030D01*
X65631785Y-112493137D02*
X67536785Y-112731262D01*
X65722500Y-112504477D02*
X65631785Y-112311709D01*
X65631785Y-111948852D01*
X65722500Y-111778762D01*
X65813214Y-111699387D01*
X65994642Y-111631352D01*
X66538928Y-111699387D01*
X66720357Y-111812780D01*
X66811071Y-111914834D01*
X66901785Y-112107602D01*
X66901785Y-112470459D01*
X66811071Y-112640548D01*
X66901785Y-108388316D02*
X65994642Y-108909923D01*
X66901785Y-109476887D02*
X64996785Y-109238762D01*
X64996785Y-108513048D01*
X65087500Y-108342959D01*
X65178214Y-108263584D01*
X65359642Y-108195548D01*
X65631785Y-108229566D01*
X65813214Y-108342959D01*
X65903928Y-108445012D01*
X65994642Y-108637780D01*
X65994642Y-109363495D01*
X66811071Y-106834834D02*
X66901785Y-107027602D01*
X66901785Y-107390459D01*
X66811071Y-107560548D01*
X66629642Y-107628584D01*
X65903928Y-107537870D01*
X65722500Y-107424477D01*
X65631785Y-107231709D01*
X65631785Y-106868852D01*
X65722500Y-106698762D01*
X65903928Y-106630727D01*
X66085357Y-106653405D01*
X66266785Y-107583227D01*
X66901785Y-105666887D02*
X66811071Y-105836977D01*
X66629642Y-105905012D01*
X64996785Y-105700905D01*
X66901785Y-104124745D02*
X65903928Y-104000012D01*
X65722500Y-104068048D01*
X65631785Y-104238137D01*
X65631785Y-104600995D01*
X65722500Y-104793762D01*
X66811071Y-104113405D02*
X66901785Y-104306173D01*
X66901785Y-104759745D01*
X66811071Y-104929834D01*
X66629642Y-104997870D01*
X66448214Y-104975191D01*
X66266785Y-104861798D01*
X66176071Y-104669030D01*
X66176071Y-104215459D01*
X66085357Y-104022691D01*
X65631785Y-103240280D02*
X66901785Y-102945459D01*
X65631785Y-102333137D02*
X66901785Y-102945459D01*
X67355357Y-103183584D01*
X67446071Y-103285637D01*
X67536785Y-103478405D01*
X31956785Y-118650958D02*
X33861785Y-118254083D01*
X31956785Y-117380958D01*
X33317500Y-117006761D02*
X33317500Y-116099618D01*
X33861785Y-117256226D02*
X31956785Y-116383101D01*
X33861785Y-115986226D01*
X33680357Y-114239976D02*
X33771071Y-114342029D01*
X33861785Y-114625511D01*
X33861785Y-114806940D01*
X33771071Y-115067743D01*
X33589642Y-115226493D01*
X33408214Y-115294529D01*
X33045357Y-115339886D01*
X32773214Y-115305868D01*
X32410357Y-115169797D01*
X32228928Y-115056404D01*
X32047500Y-114852297D01*
X31956785Y-114568815D01*
X31956785Y-114387386D01*
X32047500Y-114126583D01*
X32138214Y-114047208D01*
X33861785Y-111994797D02*
X31956785Y-111756672D01*
X32591785Y-110928904D02*
X33861785Y-111087654D01*
X32773214Y-110951583D02*
X32682500Y-110849529D01*
X32591785Y-110656761D01*
X32591785Y-110384618D01*
X32682500Y-110214529D01*
X32863928Y-110146493D01*
X33861785Y-110271226D01*
D11*
X98633428Y-37189428D02*
X97762571Y-37189428D01*
X98198000Y-37189428D02*
X98198000Y-35665428D01*
X98052857Y-35883142D01*
X97907714Y-36028285D01*
X97762571Y-36100857D01*
X99286571Y-36608857D02*
X100447714Y-36608857D01*
X101028285Y-35665428D02*
X101391142Y-37189428D01*
X101681428Y-36100857D01*
X101971714Y-37189428D01*
X102334571Y-35665428D01*
X102915142Y-37189428D02*
X102915142Y-36173428D01*
X102915142Y-35665428D02*
X102842571Y-35738000D01*
X102915142Y-35810571D01*
X102987714Y-35738000D01*
X102915142Y-35665428D01*
X102915142Y-35810571D01*
X103640857Y-37189428D02*
X103640857Y-36173428D01*
X103640857Y-36463714D02*
X103713428Y-36318571D01*
X103786000Y-36246000D01*
X103931142Y-36173428D01*
X104076285Y-36173428D01*
X105164857Y-37116857D02*
X105019714Y-37189428D01*
X104729428Y-37189428D01*
X104584285Y-37116857D01*
X104511714Y-36971714D01*
X104511714Y-36391142D01*
X104584285Y-36246000D01*
X104729428Y-36173428D01*
X105019714Y-36173428D01*
X105164857Y-36246000D01*
X105237428Y-36391142D01*
X105237428Y-36536285D01*
X104511714Y-36681428D01*
X62750000Y-100750000D02*
G75*
G03X62750000Y-100750000I-1000000J0D01*
G01*
X62540569Y-100750000D02*
G75*
G03X62540569Y-100750000I-790569J0D01*
G01*
X62250000Y-100750000D02*
G75*
G03X62250000Y-100750000I-500000J0D01*
G01*
D12*
X62000000Y-100750000D02*
G75*
G03X62000000Y-100750000I-250000J0D01*
G01*
D11*
X95500000Y-104250000D02*
G75*
G03X95500000Y-104250000I-500000J0D01*
G01*
D12*
X95250000Y-104250000D02*
G75*
G03X95250000Y-104250000I-250000J0D01*
G01*
X83500000Y-104250000D02*
G75*
G03X83500000Y-104250000I-250000J0D01*
G01*
D11*
X83750000Y-104250000D02*
G75*
G03X83750000Y-104250000I-500000J0D01*
G01*
X52751977Y-56604428D02*
X52751977Y-55080428D01*
X52751977Y-55661000D02*
X52897120Y-55588428D01*
X53187405Y-55588428D01*
X53332548Y-55661000D01*
X53405120Y-55733571D01*
X53477691Y-55878714D01*
X53477691Y-56314142D01*
X53405120Y-56459285D01*
X53332548Y-56531857D01*
X53187405Y-56604428D01*
X52897120Y-56604428D01*
X52751977Y-56531857D01*
X53985691Y-55588428D02*
X54348548Y-56604428D01*
X54711405Y-55588428D02*
X54348548Y-56604428D01*
X54203405Y-56967285D01*
X54130834Y-57039857D01*
X53985691Y-57112428D01*
X56453120Y-56604428D02*
X56453120Y-55080428D01*
X56961120Y-56169000D01*
X57469120Y-55080428D01*
X57469120Y-56604428D01*
X58194834Y-56604428D02*
X58194834Y-55588428D01*
X58194834Y-55080428D02*
X58122262Y-55153000D01*
X58194834Y-55225571D01*
X58267405Y-55153000D01*
X58194834Y-55080428D01*
X58194834Y-55225571D01*
X58920548Y-56604428D02*
X58920548Y-55080428D01*
X59065691Y-56023857D02*
X59501120Y-56604428D01*
X59501120Y-55588428D02*
X58920548Y-56169000D01*
X60734834Y-56531857D02*
X60589691Y-56604428D01*
X60299405Y-56604428D01*
X60154262Y-56531857D01*
X60081691Y-56386714D01*
X60081691Y-55806142D01*
X60154262Y-55661000D01*
X60299405Y-55588428D01*
X60589691Y-55588428D01*
X60734834Y-55661000D01*
X60807405Y-55806142D01*
X60807405Y-55951285D01*
X60081691Y-56096428D01*
X63347405Y-56604428D02*
X62621691Y-56604428D01*
X62621691Y-55080428D01*
X64508548Y-56604428D02*
X64508548Y-55806142D01*
X64435977Y-55661000D01*
X64290834Y-55588428D01*
X64000548Y-55588428D01*
X63855405Y-55661000D01*
X64508548Y-56531857D02*
X64363405Y-56604428D01*
X64000548Y-56604428D01*
X63855405Y-56531857D01*
X63782834Y-56386714D01*
X63782834Y-56241571D01*
X63855405Y-56096428D01*
X64000548Y-56023857D01*
X64363405Y-56023857D01*
X64508548Y-55951285D01*
X65089120Y-55588428D02*
X65379405Y-56604428D01*
X65669691Y-55878714D01*
X65959977Y-56604428D01*
X66250262Y-55588428D01*
X66830834Y-56604428D02*
X66830834Y-55588428D01*
X66830834Y-55878714D02*
X66903405Y-55733571D01*
X66975977Y-55661000D01*
X67121120Y-55588428D01*
X67266262Y-55588428D01*
X68354834Y-56531857D02*
X68209691Y-56604428D01*
X67919405Y-56604428D01*
X67774262Y-56531857D01*
X67701691Y-56386714D01*
X67701691Y-55806142D01*
X67774262Y-55661000D01*
X67919405Y-55588428D01*
X68209691Y-55588428D01*
X68354834Y-55661000D01*
X68427405Y-55806142D01*
X68427405Y-55951285D01*
X67701691Y-56096428D01*
X69080548Y-55588428D02*
X69080548Y-56604428D01*
X69080548Y-55733571D02*
X69153120Y-55661000D01*
X69298262Y-55588428D01*
X69515977Y-55588428D01*
X69661120Y-55661000D01*
X69733691Y-55806142D01*
X69733691Y-56604428D01*
X71112548Y-56531857D02*
X70967405Y-56604428D01*
X70677120Y-56604428D01*
X70531977Y-56531857D01*
X70459405Y-56459285D01*
X70386834Y-56314142D01*
X70386834Y-55878714D01*
X70459405Y-55733571D01*
X70531977Y-55661000D01*
X70677120Y-55588428D01*
X70967405Y-55588428D01*
X71112548Y-55661000D01*
X72346262Y-56531857D02*
X72201120Y-56604428D01*
X71910834Y-56604428D01*
X71765691Y-56531857D01*
X71693120Y-56386714D01*
X71693120Y-55806142D01*
X71765691Y-55661000D01*
X71910834Y-55588428D01*
X72201120Y-55588428D01*
X72346262Y-55661000D01*
X72418834Y-55806142D01*
X72418834Y-55951285D01*
X71693120Y-56096428D01*
X53622834Y-59144428D02*
X53114834Y-58418714D01*
X52751977Y-59144428D02*
X52751977Y-57620428D01*
X53332548Y-57620428D01*
X53477691Y-57693000D01*
X53550262Y-57765571D01*
X53622834Y-57910714D01*
X53622834Y-58128428D01*
X53550262Y-58273571D01*
X53477691Y-58346142D01*
X53332548Y-58418714D01*
X52751977Y-58418714D01*
X54856548Y-59071857D02*
X54711405Y-59144428D01*
X54421120Y-59144428D01*
X54275977Y-59071857D01*
X54203405Y-58926714D01*
X54203405Y-58346142D01*
X54275977Y-58201000D01*
X54421120Y-58128428D01*
X54711405Y-58128428D01*
X54856548Y-58201000D01*
X54929120Y-58346142D01*
X54929120Y-58491285D01*
X54203405Y-58636428D01*
X55437120Y-58128428D02*
X55799977Y-59144428D01*
X56162834Y-58128428D01*
X58702834Y-59144428D02*
X57831977Y-59144428D01*
X58267405Y-59144428D02*
X58267405Y-57620428D01*
X58122262Y-57838142D01*
X57977120Y-57983285D01*
X57831977Y-58055857D01*
X59355977Y-58999285D02*
X59428548Y-59071857D01*
X59355977Y-59144428D01*
X59283405Y-59071857D01*
X59355977Y-58999285D01*
X59355977Y-59144428D01*
X60371977Y-57620428D02*
X60517120Y-57620428D01*
X60662262Y-57693000D01*
X60734834Y-57765571D01*
X60807405Y-57910714D01*
X60879977Y-58201000D01*
X60879977Y-58563857D01*
X60807405Y-58854142D01*
X60734834Y-58999285D01*
X60662262Y-59071857D01*
X60517120Y-59144428D01*
X60371977Y-59144428D01*
X60226834Y-59071857D01*
X60154262Y-58999285D01*
X60081691Y-58854142D01*
X60009120Y-58563857D01*
X60009120Y-58201000D01*
X60081691Y-57910714D01*
X60154262Y-57765571D01*
X60226834Y-57693000D01*
X60371977Y-57620428D01*
X62694262Y-59144428D02*
X62694262Y-57620428D01*
X63202262Y-58709000D01*
X63710262Y-57620428D01*
X63710262Y-59144428D01*
X65089120Y-59144428D02*
X65089120Y-58346142D01*
X65016548Y-58201000D01*
X64871405Y-58128428D01*
X64581120Y-58128428D01*
X64435977Y-58201000D01*
X65089120Y-59071857D02*
X64943977Y-59144428D01*
X64581120Y-59144428D01*
X64435977Y-59071857D01*
X64363405Y-58926714D01*
X64363405Y-58781571D01*
X64435977Y-58636428D01*
X64581120Y-58563857D01*
X64943977Y-58563857D01*
X65089120Y-58491285D01*
X65669691Y-58128428D02*
X66032548Y-59144428D01*
X66395405Y-58128428D02*
X66032548Y-59144428D01*
X65887405Y-59507285D01*
X65814834Y-59579857D01*
X65669691Y-59652428D01*
X68064548Y-57765571D02*
X68137120Y-57693000D01*
X68282262Y-57620428D01*
X68645120Y-57620428D01*
X68790262Y-57693000D01*
X68862834Y-57765571D01*
X68935405Y-57910714D01*
X68935405Y-58055857D01*
X68862834Y-58273571D01*
X67991977Y-59144428D01*
X68935405Y-59144428D01*
X69878834Y-57620428D02*
X70023977Y-57620428D01*
X70169120Y-57693000D01*
X70241691Y-57765571D01*
X70314262Y-57910714D01*
X70386834Y-58201000D01*
X70386834Y-58563857D01*
X70314262Y-58854142D01*
X70241691Y-58999285D01*
X70169120Y-59071857D01*
X70023977Y-59144428D01*
X69878834Y-59144428D01*
X69733691Y-59071857D01*
X69661120Y-58999285D01*
X69588548Y-58854142D01*
X69515977Y-58563857D01*
X69515977Y-58201000D01*
X69588548Y-57910714D01*
X69661120Y-57765571D01*
X69733691Y-57693000D01*
X69878834Y-57620428D01*
X71838262Y-59144428D02*
X70967405Y-59144428D01*
X71402834Y-59144428D02*
X71402834Y-57620428D01*
X71257691Y-57838142D01*
X71112548Y-57983285D01*
X70967405Y-58055857D01*
X72709120Y-58273571D02*
X72563977Y-58201000D01*
X72491405Y-58128428D01*
X72418834Y-57983285D01*
X72418834Y-57910714D01*
X72491405Y-57765571D01*
X72563977Y-57693000D01*
X72709120Y-57620428D01*
X72999405Y-57620428D01*
X73144548Y-57693000D01*
X73217120Y-57765571D01*
X73289691Y-57910714D01*
X73289691Y-57983285D01*
X73217120Y-58128428D01*
X73144548Y-58201000D01*
X72999405Y-58273571D01*
X72709120Y-58273571D01*
X72563977Y-58346142D01*
X72491405Y-58418714D01*
X72418834Y-58563857D01*
X72418834Y-58854142D01*
X72491405Y-58999285D01*
X72563977Y-59071857D01*
X72709120Y-59144428D01*
X72999405Y-59144428D01*
X73144548Y-59071857D01*
X73217120Y-58999285D01*
X73289691Y-58854142D01*
X73289691Y-58563857D01*
X73217120Y-58418714D01*
X73144548Y-58346142D01*
X72999405Y-58273571D01*
X52661262Y-52184785D02*
X53114834Y-54089785D01*
X53477691Y-52729071D01*
X53840548Y-54089785D01*
X54294120Y-52184785D01*
X55019834Y-54089785D02*
X55019834Y-52819785D01*
X55019834Y-52184785D02*
X54929120Y-52275500D01*
X55019834Y-52366214D01*
X55110548Y-52275500D01*
X55019834Y-52184785D01*
X55019834Y-52366214D01*
X56561977Y-53091928D02*
X55926977Y-53091928D01*
X55926977Y-54089785D02*
X55926977Y-52184785D01*
X56834120Y-52184785D01*
X57559834Y-54089785D02*
X57559834Y-52819785D01*
X57559834Y-52184785D02*
X57469120Y-52275500D01*
X57559834Y-52366214D01*
X57650548Y-52275500D01*
X57559834Y-52184785D01*
X57559834Y-52366214D01*
X59827691Y-53999071D02*
X60099834Y-54089785D01*
X60553405Y-54089785D01*
X60734834Y-53999071D01*
X60825548Y-53908357D01*
X60916262Y-53726928D01*
X60916262Y-53545500D01*
X60825548Y-53364071D01*
X60734834Y-53273357D01*
X60553405Y-53182642D01*
X60190548Y-53091928D01*
X60009120Y-53001214D01*
X59918405Y-52910500D01*
X59827691Y-52729071D01*
X59827691Y-52547642D01*
X59918405Y-52366214D01*
X60009120Y-52275500D01*
X60190548Y-52184785D01*
X60644120Y-52184785D01*
X60916262Y-52275500D01*
X62458405Y-53999071D02*
X62276977Y-54089785D01*
X61914120Y-54089785D01*
X61732691Y-53999071D01*
X61641977Y-53817642D01*
X61641977Y-53091928D01*
X61732691Y-52910500D01*
X61914120Y-52819785D01*
X62276977Y-52819785D01*
X62458405Y-52910500D01*
X62549120Y-53091928D01*
X62549120Y-53273357D01*
X61641977Y-53454785D01*
X63365548Y-52819785D02*
X63365548Y-54724785D01*
X63365548Y-52910500D02*
X63546977Y-52819785D01*
X63909834Y-52819785D01*
X64091262Y-52910500D01*
X64181977Y-53001214D01*
X64272691Y-53182642D01*
X64272691Y-53726928D01*
X64181977Y-53908357D01*
X64091262Y-53999071D01*
X63909834Y-54089785D01*
X63546977Y-54089785D01*
X63365548Y-53999071D01*
X64816977Y-52819785D02*
X65542691Y-52819785D01*
X65089120Y-52184785D02*
X65089120Y-53817642D01*
X65179834Y-53999071D01*
X65361262Y-54089785D01*
X65542691Y-54089785D01*
X66177691Y-54089785D02*
X66177691Y-52819785D01*
X66177691Y-52184785D02*
X66086977Y-52275500D01*
X66177691Y-52366214D01*
X66268405Y-52275500D01*
X66177691Y-52184785D01*
X66177691Y-52366214D01*
X67901262Y-53999071D02*
X67719834Y-54089785D01*
X67356977Y-54089785D01*
X67175548Y-53999071D01*
X67084834Y-53908357D01*
X66994120Y-53726928D01*
X66994120Y-53182642D01*
X67084834Y-53001214D01*
X67175548Y-52910500D01*
X67356977Y-52819785D01*
X67719834Y-52819785D01*
X67901262Y-52910500D01*
X71257691Y-53908357D02*
X71166977Y-53999071D01*
X70894834Y-54089785D01*
X70713405Y-54089785D01*
X70441262Y-53999071D01*
X70259834Y-53817642D01*
X70169120Y-53636214D01*
X70078405Y-53273357D01*
X70078405Y-53001214D01*
X70169120Y-52638357D01*
X70259834Y-52456928D01*
X70441262Y-52275500D01*
X70713405Y-52184785D01*
X70894834Y-52184785D01*
X71166977Y-52275500D01*
X71257691Y-52366214D01*
X72346262Y-54089785D02*
X72164834Y-53999071D01*
X72074120Y-53908357D01*
X71983405Y-53726928D01*
X71983405Y-53182642D01*
X72074120Y-53001214D01*
X72164834Y-52910500D01*
X72346262Y-52819785D01*
X72618405Y-52819785D01*
X72799834Y-52910500D01*
X72890548Y-53001214D01*
X72981262Y-53182642D01*
X72981262Y-53726928D01*
X72890548Y-53908357D01*
X72799834Y-53999071D01*
X72618405Y-54089785D01*
X72346262Y-54089785D01*
X73797691Y-52819785D02*
X73797691Y-54089785D01*
X73797691Y-53001214D02*
X73888405Y-52910500D01*
X74069834Y-52819785D01*
X74341977Y-52819785D01*
X74523405Y-52910500D01*
X74614120Y-53091928D01*
X74614120Y-54089785D01*
X75249120Y-52819785D02*
X75974834Y-52819785D01*
X75521262Y-52184785D02*
X75521262Y-53817642D01*
X75611977Y-53999071D01*
X75793405Y-54089785D01*
X75974834Y-54089785D01*
X76609834Y-54089785D02*
X76609834Y-52819785D01*
X76609834Y-53182642D02*
X76700548Y-53001214D01*
X76791262Y-52910500D01*
X76972691Y-52819785D01*
X77154120Y-52819785D01*
X78061262Y-54089785D02*
X77879834Y-53999071D01*
X77789120Y-53908357D01*
X77698405Y-53726928D01*
X77698405Y-53182642D01*
X77789120Y-53001214D01*
X77879834Y-52910500D01*
X78061262Y-52819785D01*
X78333405Y-52819785D01*
X78514834Y-52910500D01*
X78605548Y-53001214D01*
X78696262Y-53182642D01*
X78696262Y-53726928D01*
X78605548Y-53908357D01*
X78514834Y-53999071D01*
X78333405Y-54089785D01*
X78061262Y-54089785D01*
X79784834Y-54089785D02*
X79603405Y-53999071D01*
X79512691Y-53817642D01*
X79512691Y-52184785D01*
X80782691Y-54089785D02*
X80601262Y-53999071D01*
X80510548Y-53817642D01*
X80510548Y-52184785D01*
X82234120Y-53999071D02*
X82052691Y-54089785D01*
X81689834Y-54089785D01*
X81508405Y-53999071D01*
X81417691Y-53817642D01*
X81417691Y-53091928D01*
X81508405Y-52910500D01*
X81689834Y-52819785D01*
X82052691Y-52819785D01*
X82234120Y-52910500D01*
X82324834Y-53091928D01*
X82324834Y-53273357D01*
X81417691Y-53454785D01*
X83141262Y-54089785D02*
X83141262Y-52819785D01*
X83141262Y-53182642D02*
X83231977Y-53001214D01*
X83322691Y-52910500D01*
X83504120Y-52819785D01*
X83685548Y-52819785D01*
X82956000Y-88644028D02*
X82956000Y-87120028D01*
X83536571Y-87120028D01*
X83681714Y-87192600D01*
X83754285Y-87265171D01*
X83826857Y-87410314D01*
X83826857Y-87628028D01*
X83754285Y-87773171D01*
X83681714Y-87845742D01*
X83536571Y-87918314D01*
X82956000Y-87918314D01*
X85133142Y-87628028D02*
X85133142Y-88644028D01*
X84480000Y-87628028D02*
X84480000Y-88426314D01*
X84552571Y-88571457D01*
X84697714Y-88644028D01*
X84915428Y-88644028D01*
X85060571Y-88571457D01*
X85133142Y-88498885D01*
X85858857Y-88644028D02*
X85858857Y-87628028D01*
X85858857Y-87773171D02*
X85931428Y-87700600D01*
X86076571Y-87628028D01*
X86294285Y-87628028D01*
X86439428Y-87700600D01*
X86512000Y-87845742D01*
X86512000Y-88644028D01*
X86512000Y-87845742D02*
X86584571Y-87700600D01*
X86729714Y-87628028D01*
X86947428Y-87628028D01*
X87092571Y-87700600D01*
X87165142Y-87845742D01*
X87165142Y-88644028D01*
X87890857Y-87628028D02*
X87890857Y-89152028D01*
X87890857Y-87700600D02*
X88036000Y-87628028D01*
X88326285Y-87628028D01*
X88471428Y-87700600D01*
X88544000Y-87773171D01*
X88616571Y-87918314D01*
X88616571Y-88353742D01*
X88544000Y-88498885D01*
X88471428Y-88571457D01*
X88326285Y-88644028D01*
X88036000Y-88644028D01*
X87890857Y-88571457D01*
X82194000Y-89710828D02*
X83064857Y-89710828D01*
X82629428Y-91234828D02*
X82629428Y-89710828D01*
X83790571Y-91234828D02*
X83645428Y-91162257D01*
X83572857Y-91089685D01*
X83500285Y-90944542D01*
X83500285Y-90509114D01*
X83572857Y-90363971D01*
X83645428Y-90291400D01*
X83790571Y-90218828D01*
X84008285Y-90218828D01*
X84153428Y-90291400D01*
X84226000Y-90363971D01*
X84298571Y-90509114D01*
X84298571Y-90944542D01*
X84226000Y-91089685D01*
X84153428Y-91162257D01*
X84008285Y-91234828D01*
X83790571Y-91234828D01*
X85604857Y-90218828D02*
X85604857Y-91452542D01*
X85532285Y-91597685D01*
X85459714Y-91670257D01*
X85314571Y-91742828D01*
X85096857Y-91742828D01*
X84951714Y-91670257D01*
X85604857Y-91162257D02*
X85459714Y-91234828D01*
X85169428Y-91234828D01*
X85024285Y-91162257D01*
X84951714Y-91089685D01*
X84879142Y-90944542D01*
X84879142Y-90509114D01*
X84951714Y-90363971D01*
X85024285Y-90291400D01*
X85169428Y-90218828D01*
X85459714Y-90218828D01*
X85604857Y-90291400D01*
X86983714Y-90218828D02*
X86983714Y-91452542D01*
X86911142Y-91597685D01*
X86838571Y-91670257D01*
X86693428Y-91742828D01*
X86475714Y-91742828D01*
X86330571Y-91670257D01*
X86983714Y-91162257D02*
X86838571Y-91234828D01*
X86548285Y-91234828D01*
X86403142Y-91162257D01*
X86330571Y-91089685D01*
X86258000Y-90944542D01*
X86258000Y-90509114D01*
X86330571Y-90363971D01*
X86403142Y-90291400D01*
X86548285Y-90218828D01*
X86838571Y-90218828D01*
X86983714Y-90291400D01*
X87927142Y-91234828D02*
X87782000Y-91162257D01*
X87709428Y-91017114D01*
X87709428Y-89710828D01*
X89088285Y-91162257D02*
X88943142Y-91234828D01*
X88652857Y-91234828D01*
X88507714Y-91162257D01*
X88435142Y-91017114D01*
X88435142Y-90436542D01*
X88507714Y-90291400D01*
X88652857Y-90218828D01*
X88943142Y-90218828D01*
X89088285Y-90291400D01*
X89160857Y-90436542D01*
X89160857Y-90581685D01*
X88435142Y-90726828D01*
D13*
X72464385Y-81788000D02*
X73190100Y-81788000D01*
X72319242Y-82223428D02*
X72827242Y-80699428D01*
X73335242Y-82223428D01*
X74060957Y-82223428D02*
X73915814Y-82150857D01*
X73843242Y-82005714D01*
X73843242Y-80699428D01*
X75294671Y-82223428D02*
X75294671Y-81425142D01*
X75222100Y-81280000D01*
X75076957Y-81207428D01*
X74786671Y-81207428D01*
X74641528Y-81280000D01*
X75294671Y-82150857D02*
X75149528Y-82223428D01*
X74786671Y-82223428D01*
X74641528Y-82150857D01*
X74568957Y-82005714D01*
X74568957Y-81860571D01*
X74641528Y-81715428D01*
X74786671Y-81642857D01*
X75149528Y-81642857D01*
X75294671Y-81570285D01*
X76020385Y-82223428D02*
X76020385Y-81207428D01*
X76020385Y-81497714D02*
X76092957Y-81352571D01*
X76165528Y-81280000D01*
X76310671Y-81207428D01*
X76455814Y-81207428D01*
X76963814Y-82223428D02*
X76963814Y-81207428D01*
X76963814Y-81352571D02*
X77036385Y-81280000D01*
X77181528Y-81207428D01*
X77399242Y-81207428D01*
X77544385Y-81280000D01*
X77616957Y-81425142D01*
X77616957Y-82223428D01*
X77616957Y-81425142D02*
X77689528Y-81280000D01*
X77834671Y-81207428D01*
X78052385Y-81207428D01*
X78197528Y-81280000D01*
X78270100Y-81425142D01*
X78270100Y-82223428D01*
D11*
X68199000Y-82804000D02*
X78994000Y-82804000D01*
X68199000Y-77724000D02*
X78994000Y-77724000D01*
X68199000Y-75184000D02*
X78994000Y-75184000D01*
X68199000Y-72644000D02*
X68199000Y-82804000D01*
X78994000Y-72644000D02*
X68199000Y-72644000D01*
X78994000Y-82804000D02*
X78994000Y-72644000D01*
X68199000Y-80264000D02*
X78994000Y-80264000D01*
D13*
X72536957Y-79683428D02*
X72536957Y-78159428D01*
X73117528Y-78159428D01*
X73262671Y-78232000D01*
X73335242Y-78304571D01*
X73407814Y-78449714D01*
X73407814Y-78667428D01*
X73335242Y-78812571D01*
X73262671Y-78885142D01*
X73117528Y-78957714D01*
X72536957Y-78957714D01*
X74714100Y-78667428D02*
X74714100Y-79683428D01*
X74060957Y-78667428D02*
X74060957Y-79465714D01*
X74133528Y-79610857D01*
X74278671Y-79683428D01*
X74496385Y-79683428D01*
X74641528Y-79610857D01*
X74714100Y-79538285D01*
X75439814Y-79683428D02*
X75439814Y-78667428D01*
X75439814Y-78812571D02*
X75512385Y-78740000D01*
X75657528Y-78667428D01*
X75875242Y-78667428D01*
X76020385Y-78740000D01*
X76092957Y-78885142D01*
X76092957Y-79683428D01*
X76092957Y-78885142D02*
X76165528Y-78740000D01*
X76310671Y-78667428D01*
X76528385Y-78667428D01*
X76673528Y-78740000D01*
X76746100Y-78885142D01*
X76746100Y-79683428D01*
X77471814Y-78667428D02*
X77471814Y-80191428D01*
X77471814Y-78740000D02*
X77616957Y-78667428D01*
X77907242Y-78667428D01*
X78052385Y-78740000D01*
X78124957Y-78812571D01*
X78197528Y-78957714D01*
X78197528Y-79393142D01*
X78124957Y-79538285D01*
X78052385Y-79610857D01*
X77907242Y-79683428D01*
X77616957Y-79683428D01*
X77471814Y-79610857D01*
X72464385Y-76708000D02*
X73190100Y-76708000D01*
X72319242Y-77143428D02*
X72827242Y-75619428D01*
X73335242Y-77143428D01*
X74496385Y-77070857D02*
X74351242Y-77143428D01*
X74060957Y-77143428D01*
X73915814Y-77070857D01*
X73843242Y-76998285D01*
X73770671Y-76853142D01*
X73770671Y-76417714D01*
X73843242Y-76272571D01*
X73915814Y-76200000D01*
X74060957Y-76127428D01*
X74351242Y-76127428D01*
X74496385Y-76200000D01*
X74931814Y-76127428D02*
X75512385Y-76127428D01*
X75149528Y-75619428D02*
X75149528Y-76925714D01*
X75222100Y-77070857D01*
X75367242Y-77143428D01*
X75512385Y-77143428D01*
X72536957Y-74603428D02*
X72536957Y-73079428D01*
X73407814Y-74603428D01*
X73407814Y-73079428D01*
X74714100Y-74530857D02*
X74568957Y-74603428D01*
X74278671Y-74603428D01*
X74133528Y-74530857D01*
X74060957Y-74385714D01*
X74060957Y-73805142D01*
X74133528Y-73660000D01*
X74278671Y-73587428D01*
X74568957Y-73587428D01*
X74714100Y-73660000D01*
X74786671Y-73805142D01*
X74786671Y-73950285D01*
X74060957Y-74095428D01*
X75222100Y-73587428D02*
X75802671Y-73587428D01*
X75439814Y-73079428D02*
X75439814Y-74385714D01*
X75512385Y-74530857D01*
X75657528Y-74603428D01*
X75802671Y-74603428D01*
D11*
X82129000Y-75839285D02*
X82056428Y-75911857D01*
X81838714Y-75984428D01*
X81693571Y-75984428D01*
X81475857Y-75911857D01*
X81330714Y-75766714D01*
X81258142Y-75621571D01*
X81185571Y-75331285D01*
X81185571Y-75113571D01*
X81258142Y-74823285D01*
X81330714Y-74678142D01*
X81475857Y-74533000D01*
X81693571Y-74460428D01*
X81838714Y-74460428D01*
X82056428Y-74533000D01*
X82129000Y-74605571D01*
X82999857Y-75984428D02*
X82854714Y-75911857D01*
X82782142Y-75839285D01*
X82709571Y-75694142D01*
X82709571Y-75258714D01*
X82782142Y-75113571D01*
X82854714Y-75041000D01*
X82999857Y-74968428D01*
X83217571Y-74968428D01*
X83362714Y-75041000D01*
X83435285Y-75113571D01*
X83507857Y-75258714D01*
X83507857Y-75694142D01*
X83435285Y-75839285D01*
X83362714Y-75911857D01*
X83217571Y-75984428D01*
X82999857Y-75984428D01*
X84161000Y-74968428D02*
X84161000Y-75984428D01*
X84161000Y-75113571D02*
X84233571Y-75041000D01*
X84378714Y-74968428D01*
X84596428Y-74968428D01*
X84741571Y-75041000D01*
X84814142Y-75186142D01*
X84814142Y-75984428D01*
X85322142Y-74968428D02*
X85902714Y-74968428D01*
X85539857Y-74460428D02*
X85539857Y-75766714D01*
X85612428Y-75911857D01*
X85757571Y-75984428D01*
X85902714Y-75984428D01*
X86410714Y-75984428D02*
X86410714Y-74968428D01*
X86410714Y-75258714D02*
X86483285Y-75113571D01*
X86555857Y-75041000D01*
X86701000Y-74968428D01*
X86846142Y-74968428D01*
X88007285Y-75984428D02*
X88007285Y-75186142D01*
X87934714Y-75041000D01*
X87789571Y-74968428D01*
X87499285Y-74968428D01*
X87354142Y-75041000D01*
X88007285Y-75911857D02*
X87862142Y-75984428D01*
X87499285Y-75984428D01*
X87354142Y-75911857D01*
X87281571Y-75766714D01*
X87281571Y-75621571D01*
X87354142Y-75476428D01*
X87499285Y-75403857D01*
X87862142Y-75403857D01*
X88007285Y-75331285D01*
X88660428Y-75911857D02*
X88805571Y-75984428D01*
X89095857Y-75984428D01*
X89241000Y-75911857D01*
X89313571Y-75766714D01*
X89313571Y-75694142D01*
X89241000Y-75549000D01*
X89095857Y-75476428D01*
X88878142Y-75476428D01*
X88733000Y-75403857D01*
X88660428Y-75258714D01*
X88660428Y-75186142D01*
X88733000Y-75041000D01*
X88878142Y-74968428D01*
X89095857Y-74968428D01*
X89241000Y-75041000D01*
X89749000Y-74968428D02*
X90329571Y-74968428D01*
X89966714Y-74460428D02*
X89966714Y-75766714D01*
X90039285Y-75911857D01*
X90184428Y-75984428D01*
X90329571Y-75984428D01*
D10*
X89956785Y-32413227D02*
X91861785Y-31959655D01*
X90501071Y-31596798D01*
X91861785Y-31233941D01*
X89956785Y-30780370D01*
X93456785Y-32403941D02*
X95361785Y-31768941D01*
X93456785Y-31133941D01*
X86547500Y-31333941D02*
X86456785Y-31515370D01*
X86456785Y-31787512D01*
X86547500Y-32059655D01*
X86728928Y-32241084D01*
X86910357Y-32331798D01*
X87273214Y-32422512D01*
X87545357Y-32422512D01*
X87908214Y-32331798D01*
X88089642Y-32241084D01*
X88271071Y-32059655D01*
X88361785Y-31787512D01*
X88361785Y-31606084D01*
X88271071Y-31333941D01*
X88180357Y-31243227D01*
X87545357Y-31243227D01*
X87545357Y-31606084D01*
X74361785Y-118831798D02*
X72456785Y-118831798D01*
X72456785Y-118106084D01*
X72547500Y-117924655D01*
X72638214Y-117833941D01*
X72819642Y-117743227D01*
X73091785Y-117743227D01*
X73273214Y-117833941D01*
X73363928Y-117924655D01*
X73454642Y-118106084D01*
X73454642Y-118831798D01*
X74361785Y-115838227D02*
X73454642Y-116473227D01*
X74361785Y-116926798D02*
X72456785Y-116926798D01*
X72456785Y-116201084D01*
X72547500Y-116019655D01*
X72638214Y-115928941D01*
X72819642Y-115838227D01*
X73091785Y-115838227D01*
X73273214Y-115928941D01*
X73363928Y-116019655D01*
X73454642Y-116201084D01*
X73454642Y-116926798D01*
X72638214Y-115112512D02*
X72547500Y-115021798D01*
X72456785Y-114840370D01*
X72456785Y-114386798D01*
X72547500Y-114205370D01*
X72638214Y-114114655D01*
X72819642Y-114023941D01*
X73001071Y-114023941D01*
X73273214Y-114114655D01*
X74361785Y-115203227D01*
X74361785Y-114023941D01*
X70861785Y-118831798D02*
X68956785Y-118831798D01*
X68956785Y-118106084D01*
X69047500Y-117924655D01*
X69138214Y-117833941D01*
X69319642Y-117743227D01*
X69591785Y-117743227D01*
X69773214Y-117833941D01*
X69863928Y-117924655D01*
X69954642Y-118106084D01*
X69954642Y-118831798D01*
X70861785Y-115838227D02*
X69954642Y-116473227D01*
X70861785Y-116926798D02*
X68956785Y-116926798D01*
X68956785Y-116201084D01*
X69047500Y-116019655D01*
X69138214Y-115928941D01*
X69319642Y-115838227D01*
X69591785Y-115838227D01*
X69773214Y-115928941D01*
X69863928Y-116019655D01*
X69954642Y-116201084D01*
X69954642Y-116926798D01*
X70861785Y-114023941D02*
X70861785Y-115112512D01*
X70861785Y-114568227D02*
X68956785Y-114568227D01*
X69228928Y-114749655D01*
X69410357Y-114931084D01*
X69501071Y-115112512D01*
X41361785Y-118831798D02*
X39456785Y-118831798D01*
X41361785Y-117743227D01*
X39456785Y-117743227D01*
X37861785Y-117924655D02*
X37861785Y-118831798D01*
X35956785Y-118831798D01*
X84817500Y-118922512D02*
X84817500Y-118015370D01*
X85361785Y-119103941D02*
X83456785Y-118468941D01*
X85361785Y-117833941D01*
X85361785Y-116291798D02*
X85361785Y-117198941D01*
X83456785Y-117198941D01*
X105553201Y-85863928D02*
X105825344Y-85954642D01*
X105916058Y-86045357D01*
X106006772Y-86226785D01*
X106006772Y-86498928D01*
X105916058Y-86680357D01*
X105825344Y-86771071D01*
X105643915Y-86861785D01*
X104918201Y-86861785D01*
X104918201Y-84956785D01*
X105553201Y-84956785D01*
X105734630Y-85047500D01*
X105825344Y-85138214D01*
X105916058Y-85319642D01*
X105916058Y-85501071D01*
X105825344Y-85682500D01*
X105734630Y-85773214D01*
X105553201Y-85863928D01*
X104918201Y-85863928D01*
X106732487Y-86317500D02*
X107639630Y-86317500D01*
X106551058Y-86861785D02*
X107186058Y-84956785D01*
X107821058Y-86861785D01*
X109453915Y-86861785D02*
X108365344Y-86861785D01*
X108909630Y-86861785D02*
X108909630Y-84956785D01*
X108728201Y-85228928D01*
X108546772Y-85410357D01*
X108365344Y-85501071D01*
X105553201Y-82363928D02*
X105825344Y-82454642D01*
X105916058Y-82545357D01*
X106006772Y-82726785D01*
X106006772Y-82998928D01*
X105916058Y-83180357D01*
X105825344Y-83271071D01*
X105643915Y-83361785D01*
X104918201Y-83361785D01*
X104918201Y-81456785D01*
X105553201Y-81456785D01*
X105734630Y-81547500D01*
X105825344Y-81638214D01*
X105916058Y-81819642D01*
X105916058Y-82001071D01*
X105825344Y-82182500D01*
X105734630Y-82273214D01*
X105553201Y-82363928D01*
X104918201Y-82363928D01*
X106732487Y-82817500D02*
X107639630Y-82817500D01*
X106551058Y-83361785D02*
X107186058Y-81456785D01*
X107821058Y-83361785D01*
X109453915Y-83361785D02*
X108365344Y-83361785D01*
X108909630Y-83361785D02*
X108909630Y-81456785D01*
X108728201Y-81728928D01*
X108546772Y-81910357D01*
X108365344Y-82001071D01*
X105553201Y-78863928D02*
X104918201Y-78863928D01*
X104918201Y-79861785D02*
X104918201Y-77956785D01*
X105825344Y-77956785D01*
X106460344Y-79317500D02*
X107367487Y-79317500D01*
X106278915Y-79861785D02*
X106913915Y-77956785D01*
X107548915Y-79861785D01*
X108093201Y-78138214D02*
X108183915Y-78047500D01*
X108365344Y-77956785D01*
X108818915Y-77956785D01*
X109000344Y-78047500D01*
X109091058Y-78138214D01*
X109181772Y-78319642D01*
X109181772Y-78501071D01*
X109091058Y-78773214D01*
X108002487Y-79861785D01*
X109181772Y-79861785D01*
X105553201Y-75363928D02*
X104918201Y-75363928D01*
X104918201Y-76361785D02*
X104918201Y-74456785D01*
X105825344Y-74456785D01*
X106460344Y-75817500D02*
X107367487Y-75817500D01*
X106278915Y-76361785D02*
X106913915Y-74456785D01*
X107548915Y-76361785D01*
X109181772Y-76361785D02*
X108093201Y-76361785D01*
X108637487Y-76361785D02*
X108637487Y-74456785D01*
X108456058Y-74728928D01*
X108274630Y-74910357D01*
X108093201Y-75001071D01*
X104827487Y-72317500D02*
X105734630Y-72317500D01*
X104646058Y-72861785D02*
X105281058Y-70956785D01*
X105916058Y-72861785D01*
X106460344Y-72317500D02*
X107367487Y-72317500D01*
X106278915Y-72861785D02*
X106913915Y-70956785D01*
X107548915Y-72861785D01*
X108093201Y-71138214D02*
X108183915Y-71047500D01*
X108365344Y-70956785D01*
X108818915Y-70956785D01*
X109000344Y-71047500D01*
X109091058Y-71138214D01*
X109181772Y-71319642D01*
X109181772Y-71501071D01*
X109091058Y-71773214D01*
X108002487Y-72861785D01*
X109181772Y-72861785D01*
X104827487Y-68817500D02*
X105734630Y-68817500D01*
X104646058Y-69361785D02*
X105281058Y-67456785D01*
X105916058Y-69361785D01*
X106460344Y-68817500D02*
X107367487Y-68817500D01*
X106278915Y-69361785D02*
X106913915Y-67456785D01*
X107548915Y-69361785D01*
X109181772Y-69361785D02*
X108093201Y-69361785D01*
X108637487Y-69361785D02*
X108637487Y-67456785D01*
X108456058Y-67728928D01*
X108274630Y-67910357D01*
X108093201Y-68001071D01*
D13*
X65004042Y-71694523D02*
X64580709Y-71089761D01*
X64278328Y-71694523D02*
X64278328Y-70424523D01*
X64762138Y-70424523D01*
X64883090Y-70485000D01*
X64943566Y-70545476D01*
X65004042Y-70666428D01*
X65004042Y-70847857D01*
X64943566Y-70968809D01*
X64883090Y-71029285D01*
X64762138Y-71089761D01*
X64278328Y-71089761D01*
X66032138Y-71634047D02*
X65911185Y-71694523D01*
X65669280Y-71694523D01*
X65548328Y-71634047D01*
X65487852Y-71513095D01*
X65487852Y-71029285D01*
X65548328Y-70908333D01*
X65669280Y-70847857D01*
X65911185Y-70847857D01*
X66032138Y-70908333D01*
X66092614Y-71029285D01*
X66092614Y-71150238D01*
X65487852Y-71271190D01*
X66576423Y-71634047D02*
X66697376Y-71694523D01*
X66939280Y-71694523D01*
X67060233Y-71634047D01*
X67120709Y-71513095D01*
X67120709Y-71452619D01*
X67060233Y-71331666D01*
X66939280Y-71271190D01*
X66757852Y-71271190D01*
X66636900Y-71210714D01*
X66576423Y-71089761D01*
X66576423Y-71029285D01*
X66636900Y-70908333D01*
X66757852Y-70847857D01*
X66939280Y-70847857D01*
X67060233Y-70908333D01*
X68148804Y-71634047D02*
X68027852Y-71694523D01*
X67785947Y-71694523D01*
X67664995Y-71634047D01*
X67604519Y-71513095D01*
X67604519Y-71029285D01*
X67664995Y-70908333D01*
X67785947Y-70847857D01*
X68027852Y-70847857D01*
X68148804Y-70908333D01*
X68209280Y-71029285D01*
X68209280Y-71150238D01*
X67604519Y-71271190D01*
X68572138Y-70847857D02*
X69055947Y-70847857D01*
X68753566Y-70424523D02*
X68753566Y-71513095D01*
X68814042Y-71634047D01*
X68934995Y-71694523D01*
X69055947Y-71694523D01*
D10*
X92271071Y-119172512D02*
X92361785Y-118900370D01*
X92361785Y-118446798D01*
X92271071Y-118265370D01*
X92180357Y-118174655D01*
X91998928Y-118083941D01*
X91817500Y-118083941D01*
X91636071Y-118174655D01*
X91545357Y-118265370D01*
X91454642Y-118446798D01*
X91363928Y-118809655D01*
X91273214Y-118991084D01*
X91182500Y-119081798D01*
X91001071Y-119172512D01*
X90819642Y-119172512D01*
X90638214Y-119081798D01*
X90547500Y-118991084D01*
X90456785Y-118809655D01*
X90456785Y-118356084D01*
X90547500Y-118083941D01*
X90638214Y-117358227D02*
X90547500Y-117267512D01*
X90456785Y-117086084D01*
X90456785Y-116632512D01*
X90547500Y-116451084D01*
X90638214Y-116360370D01*
X90819642Y-116269655D01*
X91001071Y-116269655D01*
X91273214Y-116360370D01*
X92361785Y-117448941D01*
X92361785Y-116269655D01*
X88771071Y-119172512D02*
X88861785Y-118900370D01*
X88861785Y-118446798D01*
X88771071Y-118265370D01*
X88680357Y-118174655D01*
X88498928Y-118083941D01*
X88317500Y-118083941D01*
X88136071Y-118174655D01*
X88045357Y-118265370D01*
X87954642Y-118446798D01*
X87863928Y-118809655D01*
X87773214Y-118991084D01*
X87682500Y-119081798D01*
X87501071Y-119172512D01*
X87319642Y-119172512D01*
X87138214Y-119081798D01*
X87047500Y-118991084D01*
X86956785Y-118809655D01*
X86956785Y-118356084D01*
X87047500Y-118083941D01*
X88861785Y-116269655D02*
X88861785Y-117358227D01*
X88861785Y-116813941D02*
X86956785Y-116813941D01*
X87228928Y-116995370D01*
X87410357Y-117176798D01*
X87501071Y-117358227D01*
D14*
X50800000Y-49592000D02*
X52200000Y-49592000D01*
X52200000Y-49592000D02*
X52200000Y-50992000D01*
X52200000Y-50992000D02*
X50800000Y-50992000D01*
X50800000Y-50992000D02*
X50800000Y-49592000D01*
X50800000Y-38300000D02*
X52200000Y-38300000D01*
X52200000Y-38300000D02*
X52200000Y-39700000D01*
X52200000Y-39700000D02*
X50800000Y-39700000D01*
X50800000Y-39700000D02*
X50800000Y-38300000D01*
X82495000Y-78685000D02*
X82495000Y-85145000D01*
X87025000Y-78685000D02*
X84425000Y-78685000D01*
X88955000Y-78685000D02*
X88955000Y-85145000D01*
X87025000Y-85145000D02*
X84425000Y-85145000D01*
X88925000Y-78685000D02*
X88955000Y-78685000D01*
X82495000Y-78685000D02*
X82525000Y-78685000D01*
X82495000Y-85145000D02*
X82525000Y-85145000D01*
X88955000Y-85145000D02*
X88925000Y-85145000D01*
D15*
G36*
X100998305Y-40775960D02*
X101186557Y-41774542D01*
X101881183Y-42060889D01*
X102575808Y-42347237D01*
X103409128Y-41780586D01*
X103642501Y-41622811D01*
X103853457Y-41481939D01*
X104032153Y-41364401D01*
X104168744Y-41276629D01*
X104253386Y-41225055D01*
X104276437Y-41213935D01*
X104317963Y-41242535D01*
X104406698Y-41321604D01*
X104532697Y-41441041D01*
X104686014Y-41590744D01*
X104856702Y-41760615D01*
X105034814Y-41940551D01*
X105210406Y-42120454D01*
X105373530Y-42290222D01*
X105514241Y-42439754D01*
X105622592Y-42558952D01*
X105688637Y-42637713D01*
X105704426Y-42664072D01*
X105681703Y-42712666D01*
X105617999Y-42819126D01*
X105520013Y-42973039D01*
X105394441Y-43163991D01*
X105247982Y-43381569D01*
X105163115Y-43505671D01*
X105008426Y-43732279D01*
X104870970Y-43936770D01*
X104757414Y-44108965D01*
X104674428Y-44238685D01*
X104628678Y-44315751D01*
X104621803Y-44331947D01*
X104637388Y-44377975D01*
X104679868Y-44485250D01*
X104742835Y-44638687D01*
X104819879Y-44823206D01*
X104904590Y-45023721D01*
X104990558Y-45225152D01*
X105071373Y-45412415D01*
X105140627Y-45570428D01*
X105191908Y-45684107D01*
X105218809Y-45738370D01*
X105220396Y-45740506D01*
X105262635Y-45750867D01*
X105375126Y-45773982D01*
X105546209Y-45807579D01*
X105764223Y-45849385D01*
X106017509Y-45897127D01*
X106165288Y-45924659D01*
X106435938Y-45976190D01*
X106680397Y-46025225D01*
X106886300Y-46069081D01*
X107041277Y-46105074D01*
X107132962Y-46130521D01*
X107151393Y-46138595D01*
X107169445Y-46193242D01*
X107184010Y-46316662D01*
X107195098Y-46494423D01*
X107202719Y-46712091D01*
X107206884Y-46955235D01*
X107207602Y-47209423D01*
X107204882Y-47460220D01*
X107198735Y-47693196D01*
X107189171Y-47893918D01*
X107176199Y-48047954D01*
X107159829Y-48140870D01*
X107150011Y-48160213D01*
X107091323Y-48183398D01*
X106966966Y-48216544D01*
X106793390Y-48255758D01*
X106587042Y-48297145D01*
X106515011Y-48310534D01*
X106167719Y-48374147D01*
X105893383Y-48425378D01*
X105682939Y-48466261D01*
X105527322Y-48498834D01*
X105417467Y-48525132D01*
X105344311Y-48547192D01*
X105298787Y-48567049D01*
X105271833Y-48586741D01*
X105268061Y-48590632D01*
X105230415Y-48653324D01*
X105172986Y-48775331D01*
X105101508Y-48941712D01*
X105021715Y-49137529D01*
X104939343Y-49347840D01*
X104860125Y-49557708D01*
X104789796Y-49752191D01*
X104734089Y-49916350D01*
X104698741Y-50035245D01*
X104689484Y-50093936D01*
X104690256Y-50095992D01*
X104721620Y-50143964D01*
X104792774Y-50249516D01*
X104896240Y-50401660D01*
X105024540Y-50589410D01*
X105170199Y-50801780D01*
X105211680Y-50862130D01*
X105359587Y-51080929D01*
X105489739Y-51280562D01*
X105595045Y-51449565D01*
X105668416Y-51576475D01*
X105702763Y-51649829D01*
X105704426Y-51658841D01*
X105675569Y-51706207D01*
X105595831Y-51800042D01*
X105475462Y-51930261D01*
X105324713Y-52086779D01*
X105153836Y-52259510D01*
X104973079Y-52438371D01*
X104792694Y-52613276D01*
X104622932Y-52774140D01*
X104474042Y-52910878D01*
X104356276Y-53013407D01*
X104279883Y-53071640D01*
X104258750Y-53081148D01*
X104209560Y-53058754D01*
X104108847Y-52998356D01*
X103973017Y-52910129D01*
X103868510Y-52839115D01*
X103679149Y-52708811D01*
X103454899Y-52555384D01*
X103229964Y-52402201D01*
X103109032Y-52320218D01*
X102699704Y-52043353D01*
X102356102Y-52229136D01*
X102199565Y-52310523D01*
X102066454Y-52373784D01*
X101976389Y-52409865D01*
X101953463Y-52414885D01*
X101925895Y-52377817D01*
X101871508Y-52273069D01*
X101794363Y-52110303D01*
X101698518Y-51899181D01*
X101588034Y-51649365D01*
X101466971Y-51370517D01*
X101339389Y-51072299D01*
X101209347Y-50764374D01*
X101080906Y-50456404D01*
X100958126Y-50158050D01*
X100845067Y-49878975D01*
X100745788Y-49628841D01*
X100664349Y-49417310D01*
X100604811Y-49254043D01*
X100571234Y-49148705D01*
X100565834Y-49112527D01*
X100608634Y-49066381D01*
X100702344Y-48991472D01*
X100827373Y-48903364D01*
X100837867Y-48896394D01*
X101161020Y-48637721D01*
X101421587Y-48335938D01*
X101617310Y-48000695D01*
X101745932Y-47641642D01*
X101805195Y-47268426D01*
X101792839Y-46890700D01*
X101706607Y-46518111D01*
X101544241Y-46160310D01*
X101496472Y-46082027D01*
X101248009Y-45765919D01*
X100954481Y-45512079D01*
X100626047Y-45321827D01*
X100272865Y-45196485D01*
X99905095Y-45137372D01*
X99532897Y-45145807D01*
X99166429Y-45223112D01*
X98815851Y-45370606D01*
X98491323Y-45589610D01*
X98390936Y-45678498D01*
X98135449Y-45956744D01*
X97949278Y-46249656D01*
X97821570Y-46577986D01*
X97750444Y-46903133D01*
X97732886Y-47268702D01*
X97791434Y-47636086D01*
X97920142Y-47992866D01*
X98113062Y-48326626D01*
X98364248Y-48624947D01*
X98667752Y-48875411D01*
X98707640Y-48901813D01*
X98834009Y-48988272D01*
X98930073Y-49063184D01*
X98976000Y-49111015D01*
X98976668Y-49112527D01*
X98966808Y-49164267D01*
X98927722Y-49281696D01*
X98863472Y-49455154D01*
X98778120Y-49674979D01*
X98675727Y-49931513D01*
X98560354Y-50215096D01*
X98436063Y-50516067D01*
X98306916Y-50824767D01*
X98176974Y-51131536D01*
X98050298Y-51426714D01*
X97930951Y-51700640D01*
X97822994Y-51943656D01*
X97730488Y-52146101D01*
X97657496Y-52298315D01*
X97608077Y-52390638D01*
X97588177Y-52414885D01*
X97527366Y-52396004D01*
X97413582Y-52345364D01*
X97266445Y-52272017D01*
X97185538Y-52229136D01*
X96841935Y-52043353D01*
X96432607Y-52320218D01*
X96223654Y-52462054D01*
X95994887Y-52618141D01*
X95780509Y-52765109D01*
X95673129Y-52839115D01*
X95522102Y-52940531D01*
X95394218Y-53020898D01*
X95306158Y-53070041D01*
X95277555Y-53080429D01*
X95235924Y-53052405D01*
X95143789Y-52974172D01*
X95010082Y-52853852D01*
X94843735Y-52699568D01*
X94653680Y-52519443D01*
X94533479Y-52403790D01*
X94323185Y-52197167D01*
X94141444Y-52012358D01*
X93995603Y-51857270D01*
X93893009Y-51739807D01*
X93841009Y-51667875D01*
X93836020Y-51653278D01*
X93859171Y-51597753D01*
X93923146Y-51485484D01*
X94020847Y-51327837D01*
X94145180Y-51136179D01*
X94289046Y-50921876D01*
X94329959Y-50862130D01*
X94479033Y-50644982D01*
X94612775Y-50449475D01*
X94723709Y-50286599D01*
X94804356Y-50167337D01*
X94847241Y-50102678D01*
X94851383Y-50095992D01*
X94845188Y-50044462D01*
X94812300Y-49931166D01*
X94758455Y-49771042D01*
X94689387Y-49579032D01*
X94610831Y-49370074D01*
X94528520Y-49159109D01*
X94448189Y-48961076D01*
X94375572Y-48790916D01*
X94316405Y-48663567D01*
X94276420Y-48593971D01*
X94273578Y-48590632D01*
X94249127Y-48570742D01*
X94207831Y-48551073D01*
X94140623Y-48529589D01*
X94038441Y-48504253D01*
X93892219Y-48473029D01*
X93692893Y-48433882D01*
X93431397Y-48384775D01*
X93098669Y-48323672D01*
X93026628Y-48310534D01*
X92813115Y-48269282D01*
X92626978Y-48228926D01*
X92484666Y-48193361D01*
X92402629Y-48166480D01*
X92391628Y-48160213D01*
X92373502Y-48104654D01*
X92358767Y-47980495D01*
X92347436Y-47802169D01*
X92339516Y-47584109D01*
X92335019Y-47340746D01*
X92333954Y-47086514D01*
X92336330Y-46835845D01*
X92342159Y-46603171D01*
X92351449Y-46402924D01*
X92364211Y-46249538D01*
X92380454Y-46157444D01*
X92390246Y-46138595D01*
X92444761Y-46119582D01*
X92568896Y-46088650D01*
X92750285Y-46048482D01*
X92976560Y-46001762D01*
X93235353Y-45951173D01*
X93376351Y-45924659D01*
X93643873Y-45874650D01*
X93882438Y-45829346D01*
X94080386Y-45791021D01*
X94226057Y-45761947D01*
X94307791Y-45744397D01*
X94321243Y-45740506D01*
X94343979Y-45696638D01*
X94392040Y-45590976D01*
X94459019Y-45438613D01*
X94538510Y-45254646D01*
X94624108Y-45054170D01*
X94709405Y-44852281D01*
X94787995Y-44664073D01*
X94853473Y-44504642D01*
X94899431Y-44389084D01*
X94919463Y-44332494D01*
X94919836Y-44330021D01*
X94897126Y-44285379D01*
X94833459Y-44182647D01*
X94735525Y-44032037D01*
X94610017Y-43843757D01*
X94463626Y-43628018D01*
X94378525Y-43504098D01*
X94223455Y-43276883D01*
X94085725Y-43070595D01*
X93972053Y-42895671D01*
X93889161Y-42762545D01*
X93843769Y-42681653D01*
X93837213Y-42663520D01*
X93865395Y-42621312D01*
X93943304Y-42531191D01*
X94060990Y-42403254D01*
X94208500Y-42247596D01*
X94375881Y-42074315D01*
X94553181Y-41893507D01*
X94730448Y-41715267D01*
X94897730Y-41549693D01*
X95045075Y-41406880D01*
X95162530Y-41296925D01*
X95240143Y-41229924D01*
X95266108Y-41213935D01*
X95308384Y-41236419D01*
X95409501Y-41299585D01*
X95559627Y-41397003D01*
X95748930Y-41522243D01*
X95967579Y-41668875D01*
X96132511Y-41780586D01*
X96965831Y-42347237D01*
X97660456Y-42060889D01*
X98355082Y-41774542D01*
X98543334Y-40775960D01*
X98731587Y-39777377D01*
X100810052Y-39777377D01*
X100998305Y-40775960D01*
X100998305Y-40775960D01*
G37*
X100998305Y-40775960D02*
X101186557Y-41774542D01*
X101881183Y-42060889D01*
X102575808Y-42347237D01*
X103409128Y-41780586D01*
X103642501Y-41622811D01*
X103853457Y-41481939D01*
X104032153Y-41364401D01*
X104168744Y-41276629D01*
X104253386Y-41225055D01*
X104276437Y-41213935D01*
X104317963Y-41242535D01*
X104406698Y-41321604D01*
X104532697Y-41441041D01*
X104686014Y-41590744D01*
X104856702Y-41760615D01*
X105034814Y-41940551D01*
X105210406Y-42120454D01*
X105373530Y-42290222D01*
X105514241Y-42439754D01*
X105622592Y-42558952D01*
X105688637Y-42637713D01*
X105704426Y-42664072D01*
X105681703Y-42712666D01*
X105617999Y-42819126D01*
X105520013Y-42973039D01*
X105394441Y-43163991D01*
X105247982Y-43381569D01*
X105163115Y-43505671D01*
X105008426Y-43732279D01*
X104870970Y-43936770D01*
X104757414Y-44108965D01*
X104674428Y-44238685D01*
X104628678Y-44315751D01*
X104621803Y-44331947D01*
X104637388Y-44377975D01*
X104679868Y-44485250D01*
X104742835Y-44638687D01*
X104819879Y-44823206D01*
X104904590Y-45023721D01*
X104990558Y-45225152D01*
X105071373Y-45412415D01*
X105140627Y-45570428D01*
X105191908Y-45684107D01*
X105218809Y-45738370D01*
X105220396Y-45740506D01*
X105262635Y-45750867D01*
X105375126Y-45773982D01*
X105546209Y-45807579D01*
X105764223Y-45849385D01*
X106017509Y-45897127D01*
X106165288Y-45924659D01*
X106435938Y-45976190D01*
X106680397Y-46025225D01*
X106886300Y-46069081D01*
X107041277Y-46105074D01*
X107132962Y-46130521D01*
X107151393Y-46138595D01*
X107169445Y-46193242D01*
X107184010Y-46316662D01*
X107195098Y-46494423D01*
X107202719Y-46712091D01*
X107206884Y-46955235D01*
X107207602Y-47209423D01*
X107204882Y-47460220D01*
X107198735Y-47693196D01*
X107189171Y-47893918D01*
X107176199Y-48047954D01*
X107159829Y-48140870D01*
X107150011Y-48160213D01*
X107091323Y-48183398D01*
X106966966Y-48216544D01*
X106793390Y-48255758D01*
X106587042Y-48297145D01*
X106515011Y-48310534D01*
X106167719Y-48374147D01*
X105893383Y-48425378D01*
X105682939Y-48466261D01*
X105527322Y-48498834D01*
X105417467Y-48525132D01*
X105344311Y-48547192D01*
X105298787Y-48567049D01*
X105271833Y-48586741D01*
X105268061Y-48590632D01*
X105230415Y-48653324D01*
X105172986Y-48775331D01*
X105101508Y-48941712D01*
X105021715Y-49137529D01*
X104939343Y-49347840D01*
X104860125Y-49557708D01*
X104789796Y-49752191D01*
X104734089Y-49916350D01*
X104698741Y-50035245D01*
X104689484Y-50093936D01*
X104690256Y-50095992D01*
X104721620Y-50143964D01*
X104792774Y-50249516D01*
X104896240Y-50401660D01*
X105024540Y-50589410D01*
X105170199Y-50801780D01*
X105211680Y-50862130D01*
X105359587Y-51080929D01*
X105489739Y-51280562D01*
X105595045Y-51449565D01*
X105668416Y-51576475D01*
X105702763Y-51649829D01*
X105704426Y-51658841D01*
X105675569Y-51706207D01*
X105595831Y-51800042D01*
X105475462Y-51930261D01*
X105324713Y-52086779D01*
X105153836Y-52259510D01*
X104973079Y-52438371D01*
X104792694Y-52613276D01*
X104622932Y-52774140D01*
X104474042Y-52910878D01*
X104356276Y-53013407D01*
X104279883Y-53071640D01*
X104258750Y-53081148D01*
X104209560Y-53058754D01*
X104108847Y-52998356D01*
X103973017Y-52910129D01*
X103868510Y-52839115D01*
X103679149Y-52708811D01*
X103454899Y-52555384D01*
X103229964Y-52402201D01*
X103109032Y-52320218D01*
X102699704Y-52043353D01*
X102356102Y-52229136D01*
X102199565Y-52310523D01*
X102066454Y-52373784D01*
X101976389Y-52409865D01*
X101953463Y-52414885D01*
X101925895Y-52377817D01*
X101871508Y-52273069D01*
X101794363Y-52110303D01*
X101698518Y-51899181D01*
X101588034Y-51649365D01*
X101466971Y-51370517D01*
X101339389Y-51072299D01*
X101209347Y-50764374D01*
X101080906Y-50456404D01*
X100958126Y-50158050D01*
X100845067Y-49878975D01*
X100745788Y-49628841D01*
X100664349Y-49417310D01*
X100604811Y-49254043D01*
X100571234Y-49148705D01*
X100565834Y-49112527D01*
X100608634Y-49066381D01*
X100702344Y-48991472D01*
X100827373Y-48903364D01*
X100837867Y-48896394D01*
X101161020Y-48637721D01*
X101421587Y-48335938D01*
X101617310Y-48000695D01*
X101745932Y-47641642D01*
X101805195Y-47268426D01*
X101792839Y-46890700D01*
X101706607Y-46518111D01*
X101544241Y-46160310D01*
X101496472Y-46082027D01*
X101248009Y-45765919D01*
X100954481Y-45512079D01*
X100626047Y-45321827D01*
X100272865Y-45196485D01*
X99905095Y-45137372D01*
X99532897Y-45145807D01*
X99166429Y-45223112D01*
X98815851Y-45370606D01*
X98491323Y-45589610D01*
X98390936Y-45678498D01*
X98135449Y-45956744D01*
X97949278Y-46249656D01*
X97821570Y-46577986D01*
X97750444Y-46903133D01*
X97732886Y-47268702D01*
X97791434Y-47636086D01*
X97920142Y-47992866D01*
X98113062Y-48326626D01*
X98364248Y-48624947D01*
X98667752Y-48875411D01*
X98707640Y-48901813D01*
X98834009Y-48988272D01*
X98930073Y-49063184D01*
X98976000Y-49111015D01*
X98976668Y-49112527D01*
X98966808Y-49164267D01*
X98927722Y-49281696D01*
X98863472Y-49455154D01*
X98778120Y-49674979D01*
X98675727Y-49931513D01*
X98560354Y-50215096D01*
X98436063Y-50516067D01*
X98306916Y-50824767D01*
X98176974Y-51131536D01*
X98050298Y-51426714D01*
X97930951Y-51700640D01*
X97822994Y-51943656D01*
X97730488Y-52146101D01*
X97657496Y-52298315D01*
X97608077Y-52390638D01*
X97588177Y-52414885D01*
X97527366Y-52396004D01*
X97413582Y-52345364D01*
X97266445Y-52272017D01*
X97185538Y-52229136D01*
X96841935Y-52043353D01*
X96432607Y-52320218D01*
X96223654Y-52462054D01*
X95994887Y-52618141D01*
X95780509Y-52765109D01*
X95673129Y-52839115D01*
X95522102Y-52940531D01*
X95394218Y-53020898D01*
X95306158Y-53070041D01*
X95277555Y-53080429D01*
X95235924Y-53052405D01*
X95143789Y-52974172D01*
X95010082Y-52853852D01*
X94843735Y-52699568D01*
X94653680Y-52519443D01*
X94533479Y-52403790D01*
X94323185Y-52197167D01*
X94141444Y-52012358D01*
X93995603Y-51857270D01*
X93893009Y-51739807D01*
X93841009Y-51667875D01*
X93836020Y-51653278D01*
X93859171Y-51597753D01*
X93923146Y-51485484D01*
X94020847Y-51327837D01*
X94145180Y-51136179D01*
X94289046Y-50921876D01*
X94329959Y-50862130D01*
X94479033Y-50644982D01*
X94612775Y-50449475D01*
X94723709Y-50286599D01*
X94804356Y-50167337D01*
X94847241Y-50102678D01*
X94851383Y-50095992D01*
X94845188Y-50044462D01*
X94812300Y-49931166D01*
X94758455Y-49771042D01*
X94689387Y-49579032D01*
X94610831Y-49370074D01*
X94528520Y-49159109D01*
X94448189Y-48961076D01*
X94375572Y-48790916D01*
X94316405Y-48663567D01*
X94276420Y-48593971D01*
X94273578Y-48590632D01*
X94249127Y-48570742D01*
X94207831Y-48551073D01*
X94140623Y-48529589D01*
X94038441Y-48504253D01*
X93892219Y-48473029D01*
X93692893Y-48433882D01*
X93431397Y-48384775D01*
X93098669Y-48323672D01*
X93026628Y-48310534D01*
X92813115Y-48269282D01*
X92626978Y-48228926D01*
X92484666Y-48193361D01*
X92402629Y-48166480D01*
X92391628Y-48160213D01*
X92373502Y-48104654D01*
X92358767Y-47980495D01*
X92347436Y-47802169D01*
X92339516Y-47584109D01*
X92335019Y-47340746D01*
X92333954Y-47086514D01*
X92336330Y-46835845D01*
X92342159Y-46603171D01*
X92351449Y-46402924D01*
X92364211Y-46249538D01*
X92380454Y-46157444D01*
X92390246Y-46138595D01*
X92444761Y-46119582D01*
X92568896Y-46088650D01*
X92750285Y-46048482D01*
X92976560Y-46001762D01*
X93235353Y-45951173D01*
X93376351Y-45924659D01*
X93643873Y-45874650D01*
X93882438Y-45829346D01*
X94080386Y-45791021D01*
X94226057Y-45761947D01*
X94307791Y-45744397D01*
X94321243Y-45740506D01*
X94343979Y-45696638D01*
X94392040Y-45590976D01*
X94459019Y-45438613D01*
X94538510Y-45254646D01*
X94624108Y-45054170D01*
X94709405Y-44852281D01*
X94787995Y-44664073D01*
X94853473Y-44504642D01*
X94899431Y-44389084D01*
X94919463Y-44332494D01*
X94919836Y-44330021D01*
X94897126Y-44285379D01*
X94833459Y-44182647D01*
X94735525Y-44032037D01*
X94610017Y-43843757D01*
X94463626Y-43628018D01*
X94378525Y-43504098D01*
X94223455Y-43276883D01*
X94085725Y-43070595D01*
X93972053Y-42895671D01*
X93889161Y-42762545D01*
X93843769Y-42681653D01*
X93837213Y-42663520D01*
X93865395Y-42621312D01*
X93943304Y-42531191D01*
X94060990Y-42403254D01*
X94208500Y-42247596D01*
X94375881Y-42074315D01*
X94553181Y-41893507D01*
X94730448Y-41715267D01*
X94897730Y-41549693D01*
X95045075Y-41406880D01*
X95162530Y-41296925D01*
X95240143Y-41229924D01*
X95266108Y-41213935D01*
X95308384Y-41236419D01*
X95409501Y-41299585D01*
X95559627Y-41397003D01*
X95748930Y-41522243D01*
X95967579Y-41668875D01*
X96132511Y-41780586D01*
X96965831Y-42347237D01*
X97660456Y-42060889D01*
X98355082Y-41774542D01*
X98543334Y-40775960D01*
X98731587Y-39777377D01*
X100810052Y-39777377D01*
X100998305Y-40775960D01*
G36*
X105708869Y-54578231D02*
X105852092Y-54621989D01*
X105944306Y-54677280D01*
X105974344Y-54721004D01*
X105966076Y-54772834D01*
X105912427Y-54854259D01*
X105867063Y-54911927D01*
X105773546Y-55016182D01*
X105703287Y-55060045D01*
X105643393Y-55057182D01*
X105465720Y-55011967D01*
X105335234Y-55014020D01*
X105229273Y-55065261D01*
X105193700Y-55095252D01*
X105079836Y-55200778D01*
X105079836Y-56578853D01*
X104621803Y-56578853D01*
X104621803Y-54580164D01*
X104850820Y-54580164D01*
X104988318Y-54585602D01*
X105059258Y-54604909D01*
X105079827Y-54642576D01*
X105079836Y-54643692D01*
X105089550Y-54683146D01*
X105133478Y-54678000D01*
X105194344Y-54649536D01*
X105320054Y-54596569D01*
X105422134Y-54564703D01*
X105553480Y-54556533D01*
X105708869Y-54578231D01*
X105708869Y-54578231D01*
G37*
X105708869Y-54578231D02*
X105852092Y-54621989D01*
X105944306Y-54677280D01*
X105974344Y-54721004D01*
X105966076Y-54772834D01*
X105912427Y-54854259D01*
X105867063Y-54911927D01*
X105773546Y-55016182D01*
X105703287Y-55060045D01*
X105643393Y-55057182D01*
X105465720Y-55011967D01*
X105335234Y-55014020D01*
X105229273Y-55065261D01*
X105193700Y-55095252D01*
X105079836Y-55200778D01*
X105079836Y-56578853D01*
X104621803Y-56578853D01*
X104621803Y-54580164D01*
X104850820Y-54580164D01*
X104988318Y-54585602D01*
X105059258Y-54604909D01*
X105079827Y-54642576D01*
X105079836Y-54643692D01*
X105089550Y-54683146D01*
X105133478Y-54678000D01*
X105194344Y-54649536D01*
X105320054Y-54596569D01*
X105422134Y-54564703D01*
X105553480Y-54556533D01*
X105708869Y-54578231D01*
G36*
X97253108Y-54614563D02*
X97356740Y-54664062D01*
X97457106Y-54735561D01*
X97533568Y-54817853D01*
X97589262Y-54922811D01*
X97627323Y-55062313D01*
X97650885Y-55248233D01*
X97663085Y-55492448D01*
X97667056Y-55806833D01*
X97667118Y-55839754D01*
X97668033Y-56578853D01*
X97210000Y-56578853D01*
X97210000Y-55897481D01*
X97209674Y-55645050D01*
X97207419Y-55462093D01*
X97201319Y-55334807D01*
X97189459Y-55249386D01*
X97169924Y-55192026D01*
X97140797Y-55148924D01*
X97100224Y-55106334D01*
X96958269Y-55014824D01*
X96803306Y-54997843D01*
X96655677Y-55055701D01*
X96604337Y-55098763D01*
X96566647Y-55139249D01*
X96539587Y-55182607D01*
X96521397Y-55242463D01*
X96510316Y-55332441D01*
X96504586Y-55466168D01*
X96502444Y-55657270D01*
X96502131Y-55889911D01*
X96502131Y-56578853D01*
X96044098Y-56578853D01*
X96044098Y-54580164D01*
X96273115Y-54580164D01*
X96410614Y-54585602D01*
X96481553Y-54604909D01*
X96502122Y-54642576D01*
X96502131Y-54643692D01*
X96511675Y-54680581D01*
X96553767Y-54676395D01*
X96637459Y-54635861D01*
X96827273Y-54576224D01*
X97044401Y-54569591D01*
X97253108Y-54614563D01*
X97253108Y-54614563D01*
G37*
X97253108Y-54614563D02*
X97356740Y-54664062D01*
X97457106Y-54735561D01*
X97533568Y-54817853D01*
X97589262Y-54922811D01*
X97627323Y-55062313D01*
X97650885Y-55248233D01*
X97663085Y-55492448D01*
X97667056Y-55806833D01*
X97667118Y-55839754D01*
X97668033Y-56578853D01*
X97210000Y-56578853D01*
X97210000Y-55897481D01*
X97209674Y-55645050D01*
X97207419Y-55462093D01*
X97201319Y-55334807D01*
X97189459Y-55249386D01*
X97169924Y-55192026D01*
X97140797Y-55148924D01*
X97100224Y-55106334D01*
X96958269Y-55014824D01*
X96803306Y-54997843D01*
X96655677Y-55055701D01*
X96604337Y-55098763D01*
X96566647Y-55139249D01*
X96539587Y-55182607D01*
X96521397Y-55242463D01*
X96510316Y-55332441D01*
X96504586Y-55466168D01*
X96502444Y-55657270D01*
X96502131Y-55889911D01*
X96502131Y-56578853D01*
X96044098Y-56578853D01*
X96044098Y-54580164D01*
X96273115Y-54580164D01*
X96410614Y-54585602D01*
X96481553Y-54604909D01*
X96502122Y-54642576D01*
X96502131Y-54643692D01*
X96511675Y-54680581D01*
X96553767Y-54676395D01*
X96637459Y-54635861D01*
X96827273Y-54576224D01*
X97044401Y-54569591D01*
X97253108Y-54614563D01*
G36*
X108617792Y-54573019D02*
X108724414Y-54598922D01*
X108928830Y-54693772D01*
X109103625Y-54838633D01*
X109224597Y-55012320D01*
X109241217Y-55051317D01*
X109264016Y-55153465D01*
X109279975Y-55304573D01*
X109285410Y-55457301D01*
X109285410Y-55746066D01*
X108681639Y-55746066D01*
X108432619Y-55747007D01*
X108257189Y-55752723D01*
X108145665Y-55767550D01*
X108088360Y-55795827D01*
X108075588Y-55841890D01*
X108097662Y-55910077D01*
X108137205Y-55989863D01*
X108247509Y-56123017D01*
X108400792Y-56189355D01*
X108588141Y-56187194D01*
X108800363Y-56114991D01*
X108983773Y-56025883D01*
X109135962Y-56146220D01*
X109288151Y-56266558D01*
X109144974Y-56398843D01*
X108953828Y-56523832D01*
X108718753Y-56599189D01*
X108465898Y-56620278D01*
X108221413Y-56582460D01*
X108181967Y-56569628D01*
X107967090Y-56457414D01*
X107807250Y-56290118D01*
X107699080Y-56062748D01*
X107639210Y-55770308D01*
X107638513Y-55764040D01*
X107633152Y-55445332D01*
X107654823Y-55331632D01*
X108077869Y-55331632D01*
X108116722Y-55349116D01*
X108222205Y-55362508D01*
X108377707Y-55370155D01*
X108476249Y-55371312D01*
X108660013Y-55370588D01*
X108774914Y-55365983D01*
X108835366Y-55353848D01*
X108855783Y-55330530D01*
X108850581Y-55292382D01*
X108846217Y-55277623D01*
X108771724Y-55138944D01*
X108654566Y-55027179D01*
X108551173Y-54978066D01*
X108413816Y-54981032D01*
X108274629Y-55042278D01*
X108157874Y-55143683D01*
X108087810Y-55267122D01*
X108077869Y-55331632D01*
X107654823Y-55331632D01*
X107686579Y-55165020D01*
X107792572Y-54929780D01*
X107944911Y-54746284D01*
X108137374Y-54621209D01*
X108363742Y-54561229D01*
X108617792Y-54573019D01*
X108617792Y-54573019D01*
G37*
X108617792Y-54573019D02*
X108724414Y-54598922D01*
X108928830Y-54693772D01*
X109103625Y-54838633D01*
X109224597Y-55012320D01*
X109241217Y-55051317D01*
X109264016Y-55153465D01*
X109279975Y-55304573D01*
X109285410Y-55457301D01*
X109285410Y-55746066D01*
X108681639Y-55746066D01*
X108432619Y-55747007D01*
X108257189Y-55752723D01*
X108145665Y-55767550D01*
X108088360Y-55795827D01*
X108075588Y-55841890D01*
X108097662Y-55910077D01*
X108137205Y-55989863D01*
X108247509Y-56123017D01*
X108400792Y-56189355D01*
X108588141Y-56187194D01*
X108800363Y-56114991D01*
X108983773Y-56025883D01*
X109135962Y-56146220D01*
X109288151Y-56266558D01*
X109144974Y-56398843D01*
X108953828Y-56523832D01*
X108718753Y-56599189D01*
X108465898Y-56620278D01*
X108221413Y-56582460D01*
X108181967Y-56569628D01*
X107967090Y-56457414D01*
X107807250Y-56290118D01*
X107699080Y-56062748D01*
X107639210Y-55770308D01*
X107638513Y-55764040D01*
X107633152Y-55445332D01*
X107654823Y-55331632D01*
X108077869Y-55331632D01*
X108116722Y-55349116D01*
X108222205Y-55362508D01*
X108377707Y-55370155D01*
X108476249Y-55371312D01*
X108660013Y-55370588D01*
X108774914Y-55365983D01*
X108835366Y-55353848D01*
X108855783Y-55330530D01*
X108850581Y-55292382D01*
X108846217Y-55277623D01*
X108771724Y-55138944D01*
X108654566Y-55027179D01*
X108551173Y-54978066D01*
X108413816Y-54981032D01*
X108274629Y-55042278D01*
X108157874Y-55143683D01*
X108087810Y-55267122D01*
X108077869Y-55331632D01*
X107654823Y-55331632D01*
X107686579Y-55165020D01*
X107792572Y-54929780D01*
X107944911Y-54746284D01*
X108137374Y-54621209D01*
X108363742Y-54561229D01*
X108617792Y-54573019D01*
G36*
X107092288Y-54597602D02*
X107333543Y-54700090D01*
X107409531Y-54749981D01*
X107506648Y-54826651D01*
X107567612Y-54886936D01*
X107578197Y-54906571D01*
X107548308Y-54950142D01*
X107471819Y-55024077D01*
X107410582Y-55075679D01*
X107242967Y-55210378D01*
X107110614Y-55099010D01*
X107008336Y-55027113D01*
X106908610Y-55002296D01*
X106794475Y-55008357D01*
X106613234Y-55053418D01*
X106488475Y-55146949D01*
X106412658Y-55298154D01*
X106378240Y-55516236D01*
X106378231Y-55516373D01*
X106381208Y-55760124D01*
X106427467Y-55938966D01*
X106519742Y-56060730D01*
X106582650Y-56101964D01*
X106749717Y-56153311D01*
X106928162Y-56153342D01*
X107083415Y-56103522D01*
X107120164Y-56079180D01*
X107212330Y-56017004D01*
X107284387Y-56006813D01*
X107362102Y-56053092D01*
X107448018Y-56136212D01*
X107584011Y-56276521D01*
X107433023Y-56400978D01*
X107199740Y-56541443D01*
X106936673Y-56610666D01*
X106661760Y-56605653D01*
X106481216Y-56559755D01*
X106270194Y-56446249D01*
X106101426Y-56267685D01*
X106024753Y-56141639D01*
X105962654Y-55960791D01*
X105931581Y-55731745D01*
X105931342Y-55483510D01*
X105961743Y-55245093D01*
X106022592Y-55045503D01*
X106032176Y-55025039D01*
X106174102Y-54824341D01*
X106366259Y-54678217D01*
X106593464Y-54589698D01*
X106840535Y-54561815D01*
X107092288Y-54597602D01*
X107092288Y-54597602D01*
G37*
X107092288Y-54597602D02*
X107333543Y-54700090D01*
X107409531Y-54749981D01*
X107506648Y-54826651D01*
X107567612Y-54886936D01*
X107578197Y-54906571D01*
X107548308Y-54950142D01*
X107471819Y-55024077D01*
X107410582Y-55075679D01*
X107242967Y-55210378D01*
X107110614Y-55099010D01*
X107008336Y-55027113D01*
X106908610Y-55002296D01*
X106794475Y-55008357D01*
X106613234Y-55053418D01*
X106488475Y-55146949D01*
X106412658Y-55298154D01*
X106378240Y-55516236D01*
X106378231Y-55516373D01*
X106381208Y-55760124D01*
X106427467Y-55938966D01*
X106519742Y-56060730D01*
X106582650Y-56101964D01*
X106749717Y-56153311D01*
X106928162Y-56153342D01*
X107083415Y-56103522D01*
X107120164Y-56079180D01*
X107212330Y-56017004D01*
X107284387Y-56006813D01*
X107362102Y-56053092D01*
X107448018Y-56136212D01*
X107584011Y-56276521D01*
X107433023Y-56400978D01*
X107199740Y-56541443D01*
X106936673Y-56610666D01*
X106661760Y-56605653D01*
X106481216Y-56559755D01*
X106270194Y-56446249D01*
X106101426Y-56267685D01*
X106024753Y-56141639D01*
X105962654Y-55960791D01*
X105931581Y-55731745D01*
X105931342Y-55483510D01*
X105961743Y-55245093D01*
X106022592Y-55045503D01*
X106032176Y-55025039D01*
X106174102Y-54824341D01*
X106366259Y-54678217D01*
X106593464Y-54589698D01*
X106840535Y-54561815D01*
X107092288Y-54597602D01*
G36*
X103039508Y-55228311D02*
X103043444Y-55533698D01*
X103057823Y-55765660D01*
X103086504Y-55933786D01*
X103133348Y-56047671D01*
X103202211Y-56116905D01*
X103296954Y-56151080D01*
X103414262Y-56159811D01*
X103537123Y-56150028D01*
X103630444Y-56114287D01*
X103698084Y-56042995D01*
X103743901Y-55926561D01*
X103771755Y-55755391D01*
X103785504Y-55519896D01*
X103789016Y-55228311D01*
X103789016Y-54580164D01*
X104247049Y-54580164D01*
X104247049Y-56578853D01*
X104018033Y-56578853D01*
X103879971Y-56573258D01*
X103808878Y-56553611D01*
X103789016Y-56516313D01*
X103777054Y-56483094D01*
X103729447Y-56490121D01*
X103633485Y-56537132D01*
X103413548Y-56609654D01*
X103180274Y-56604516D01*
X102956755Y-56525766D01*
X102850313Y-56463558D01*
X102769122Y-56396204D01*
X102709808Y-56311928D01*
X102668996Y-56198957D01*
X102643312Y-56045515D01*
X102629381Y-55839827D01*
X102623829Y-55570118D01*
X102623115Y-55361551D01*
X102623115Y-54580164D01*
X103039508Y-54580164D01*
X103039508Y-55228311D01*
X103039508Y-55228311D01*
G37*
X103039508Y-55228311D02*
X103043444Y-55533698D01*
X103057823Y-55765660D01*
X103086504Y-55933786D01*
X103133348Y-56047671D01*
X103202211Y-56116905D01*
X103296954Y-56151080D01*
X103414262Y-56159811D01*
X103537123Y-56150028D01*
X103630444Y-56114287D01*
X103698084Y-56042995D01*
X103743901Y-55926561D01*
X103771755Y-55755391D01*
X103785504Y-55519896D01*
X103789016Y-55228311D01*
X103789016Y-54580164D01*
X104247049Y-54580164D01*
X104247049Y-56578853D01*
X104018033Y-56578853D01*
X103879971Y-56573258D01*
X103808878Y-56553611D01*
X103789016Y-56516313D01*
X103777054Y-56483094D01*
X103729447Y-56490121D01*
X103633485Y-56537132D01*
X103413548Y-56609654D01*
X103180274Y-56604516D01*
X102956755Y-56525766D01*
X102850313Y-56463558D01*
X102769122Y-56396204D01*
X102709808Y-56311928D01*
X102668996Y-56198957D01*
X102643312Y-56045515D01*
X102629381Y-55839827D01*
X102623829Y-55570118D01*
X102623115Y-55361551D01*
X102623115Y-54580164D01*
X103039508Y-54580164D01*
X103039508Y-55228311D01*
G36*
X101772521Y-54604805D02*
X101983136Y-54719505D01*
X102147915Y-54900574D01*
X102225554Y-55047838D01*
X102258886Y-55177907D01*
X102280483Y-55363333D01*
X102289739Y-55576939D01*
X102286045Y-55791550D01*
X102268794Y-55979991D01*
X102248643Y-56080637D01*
X102180667Y-56218323D01*
X102062942Y-56364566D01*
X101921065Y-56492452D01*
X101780632Y-56575063D01*
X101777207Y-56576373D01*
X101602945Y-56612472D01*
X101396427Y-56613365D01*
X101200174Y-56580501D01*
X101124396Y-56554161D01*
X100929221Y-56443484D01*
X100789438Y-56298478D01*
X100697599Y-56106503D01*
X100646254Y-55854920D01*
X100634637Y-55723142D01*
X100636119Y-55557553D01*
X101082459Y-55557553D01*
X101097494Y-55799177D01*
X101140772Y-55983303D01*
X101209551Y-56100949D01*
X101258550Y-56134590D01*
X101384093Y-56158050D01*
X101533318Y-56151104D01*
X101662333Y-56117345D01*
X101696166Y-56098772D01*
X101785428Y-55990599D01*
X101844345Y-55825051D01*
X101869424Y-55623581D01*
X101857174Y-55407646D01*
X101829796Y-55277690D01*
X101751191Y-55127191D01*
X101627104Y-55033114D01*
X101477661Y-55000587D01*
X101322987Y-55034738D01*
X101204174Y-55118273D01*
X101141735Y-55187193D01*
X101105293Y-55255126D01*
X101087923Y-55347064D01*
X101082699Y-55487999D01*
X101082459Y-55557553D01*
X100636119Y-55557553D01*
X100637785Y-55371495D01*
X100695056Y-55083134D01*
X100806457Y-54858049D01*
X100971993Y-54696230D01*
X101191670Y-54597666D01*
X101238842Y-54586236D01*
X101522336Y-54559406D01*
X101772521Y-54604805D01*
X101772521Y-54604805D01*
G37*
X101772521Y-54604805D02*
X101983136Y-54719505D01*
X102147915Y-54900574D01*
X102225554Y-55047838D01*
X102258886Y-55177907D01*
X102280483Y-55363333D01*
X102289739Y-55576939D01*
X102286045Y-55791550D01*
X102268794Y-55979991D01*
X102248643Y-56080637D01*
X102180667Y-56218323D01*
X102062942Y-56364566D01*
X101921065Y-56492452D01*
X101780632Y-56575063D01*
X101777207Y-56576373D01*
X101602945Y-56612472D01*
X101396427Y-56613365D01*
X101200174Y-56580501D01*
X101124396Y-56554161D01*
X100929221Y-56443484D01*
X100789438Y-56298478D01*
X100697599Y-56106503D01*
X100646254Y-55854920D01*
X100634637Y-55723142D01*
X100636119Y-55557553D01*
X101082459Y-55557553D01*
X101097494Y-55799177D01*
X101140772Y-55983303D01*
X101209551Y-56100949D01*
X101258550Y-56134590D01*
X101384093Y-56158050D01*
X101533318Y-56151104D01*
X101662333Y-56117345D01*
X101696166Y-56098772D01*
X101785428Y-55990599D01*
X101844345Y-55825051D01*
X101869424Y-55623581D01*
X101857174Y-55407646D01*
X101829796Y-55277690D01*
X101751191Y-55127191D01*
X101627104Y-55033114D01*
X101477661Y-55000587D01*
X101322987Y-55034738D01*
X101204174Y-55118273D01*
X101141735Y-55187193D01*
X101105293Y-55255126D01*
X101087923Y-55347064D01*
X101082699Y-55487999D01*
X101082459Y-55557553D01*
X100636119Y-55557553D01*
X100637785Y-55371495D01*
X100695056Y-55083134D01*
X100806457Y-54858049D01*
X100971993Y-54696230D01*
X101191670Y-54597666D01*
X101238842Y-54586236D01*
X101522336Y-54559406D01*
X101772521Y-54604805D01*
G36*
X99796418Y-54573003D02*
X99954100Y-54602907D01*
X100117685Y-54665452D01*
X100135164Y-54673426D01*
X100259217Y-54738656D01*
X100345129Y-54799274D01*
X100372898Y-54838106D01*
X100346453Y-54901437D01*
X100282220Y-54994881D01*
X100253708Y-55029762D01*
X100136211Y-55167066D01*
X99984732Y-55077691D01*
X99840570Y-55018152D01*
X99674000Y-54986326D01*
X99514262Y-54984316D01*
X99390594Y-55014221D01*
X99360916Y-55032886D01*
X99304398Y-55118466D01*
X99297529Y-55217049D01*
X99339820Y-55294062D01*
X99364836Y-55308998D01*
X99439796Y-55327547D01*
X99571561Y-55349348D01*
X99733991Y-55370180D01*
X99763956Y-55373447D01*
X100024840Y-55418575D01*
X100214055Y-55495230D01*
X100339543Y-55610491D01*
X100409243Y-55771435D01*
X100430956Y-55968015D01*
X100400961Y-56191473D01*
X100303559Y-56366949D01*
X100138361Y-56494758D01*
X99904977Y-56575218D01*
X99645902Y-56606962D01*
X99434633Y-56606580D01*
X99263265Y-56577749D01*
X99146230Y-56537944D01*
X98998350Y-56468587D01*
X98861687Y-56388097D01*
X98813115Y-56352670D01*
X98688197Y-56250705D01*
X98989509Y-55945813D01*
X99160796Y-56059165D01*
X99332594Y-56144300D01*
X99516048Y-56188830D01*
X99692397Y-56193528D01*
X99842881Y-56159170D01*
X99948740Y-56086529D01*
X99982921Y-56025238D01*
X99977794Y-55926941D01*
X99892857Y-55851773D01*
X99728343Y-55799866D01*
X99548101Y-55775875D01*
X99270709Y-55730104D01*
X99064635Y-55643748D01*
X98927122Y-55514280D01*
X98855413Y-55339172D01*
X98845479Y-55131565D01*
X98894548Y-54914714D01*
X99006420Y-54750805D01*
X99182097Y-54639088D01*
X99422581Y-54578814D01*
X99600743Y-54566999D01*
X99796418Y-54573003D01*
X99796418Y-54573003D01*
G37*
X99796418Y-54573003D02*
X99954100Y-54602907D01*
X100117685Y-54665452D01*
X100135164Y-54673426D01*
X100259217Y-54738656D01*
X100345129Y-54799274D01*
X100372898Y-54838106D01*
X100346453Y-54901437D01*
X100282220Y-54994881D01*
X100253708Y-55029762D01*
X100136211Y-55167066D01*
X99984732Y-55077691D01*
X99840570Y-55018152D01*
X99674000Y-54986326D01*
X99514262Y-54984316D01*
X99390594Y-55014221D01*
X99360916Y-55032886D01*
X99304398Y-55118466D01*
X99297529Y-55217049D01*
X99339820Y-55294062D01*
X99364836Y-55308998D01*
X99439796Y-55327547D01*
X99571561Y-55349348D01*
X99733991Y-55370180D01*
X99763956Y-55373447D01*
X100024840Y-55418575D01*
X100214055Y-55495230D01*
X100339543Y-55610491D01*
X100409243Y-55771435D01*
X100430956Y-55968015D01*
X100400961Y-56191473D01*
X100303559Y-56366949D01*
X100138361Y-56494758D01*
X99904977Y-56575218D01*
X99645902Y-56606962D01*
X99434633Y-56606580D01*
X99263265Y-56577749D01*
X99146230Y-56537944D01*
X98998350Y-56468587D01*
X98861687Y-56388097D01*
X98813115Y-56352670D01*
X98688197Y-56250705D01*
X98989509Y-55945813D01*
X99160796Y-56059165D01*
X99332594Y-56144300D01*
X99516048Y-56188830D01*
X99692397Y-56193528D01*
X99842881Y-56159170D01*
X99948740Y-56086529D01*
X99982921Y-56025238D01*
X99977794Y-55926941D01*
X99892857Y-55851773D01*
X99728343Y-55799866D01*
X99548101Y-55775875D01*
X99270709Y-55730104D01*
X99064635Y-55643748D01*
X98927122Y-55514280D01*
X98855413Y-55339172D01*
X98845479Y-55131565D01*
X98894548Y-54914714D01*
X99006420Y-54750805D01*
X99182097Y-54639088D01*
X99422581Y-54578814D01*
X99600743Y-54566999D01*
X99796418Y-54573003D01*
G36*
X95257325Y-54626526D02*
X95298819Y-54646061D01*
X95442434Y-54751263D01*
X95578236Y-54904793D01*
X95679638Y-55073845D01*
X95708480Y-55151567D01*
X95734794Y-55290398D01*
X95750485Y-55458177D01*
X95752391Y-55527459D01*
X95752623Y-55746066D01*
X94494415Y-55746066D01*
X94521234Y-55860574D01*
X94587066Y-55996004D01*
X94702161Y-56113046D01*
X94839087Y-56188442D01*
X94926342Y-56204098D01*
X95044672Y-56185099D01*
X95185851Y-56137446D01*
X95233811Y-56115521D01*
X95411171Y-56026944D01*
X95562530Y-56142391D01*
X95649869Y-56220474D01*
X95696342Y-56284922D01*
X95698695Y-56303837D01*
X95657178Y-56349681D01*
X95566190Y-56419349D01*
X95483605Y-56473700D01*
X95260751Y-56571405D01*
X95010913Y-56615628D01*
X94763290Y-56604130D01*
X94565902Y-56544029D01*
X94362424Y-56415284D01*
X94217821Y-56245774D01*
X94127361Y-56026462D01*
X94086311Y-55748309D01*
X94082671Y-55621034D01*
X94097239Y-55329375D01*
X94099028Y-55320891D01*
X94515941Y-55320891D01*
X94527423Y-55348242D01*
X94574616Y-55363324D01*
X94671951Y-55369788D01*
X94833864Y-55371285D01*
X94896210Y-55371312D01*
X95085897Y-55369052D01*
X95206189Y-55360844D01*
X95270884Y-55344550D01*
X95293780Y-55318027D01*
X95294590Y-55309510D01*
X95268460Y-55241825D01*
X95203063Y-55147005D01*
X95174948Y-55113805D01*
X95070574Y-55019906D01*
X94961775Y-54982988D01*
X94903157Y-54979902D01*
X94744574Y-55018493D01*
X94611587Y-55122155D01*
X94527228Y-55272717D01*
X94525733Y-55277623D01*
X94515941Y-55320891D01*
X94099028Y-55320891D01*
X94145684Y-55099722D01*
X94232955Y-54915983D01*
X94339689Y-54785557D01*
X94537020Y-54644131D01*
X94768985Y-54568556D01*
X95015712Y-54561724D01*
X95257325Y-54626526D01*
X95257325Y-54626526D01*
G37*
X95257325Y-54626526D02*
X95298819Y-54646061D01*
X95442434Y-54751263D01*
X95578236Y-54904793D01*
X95679638Y-55073845D01*
X95708480Y-55151567D01*
X95734794Y-55290398D01*
X95750485Y-55458177D01*
X95752391Y-55527459D01*
X95752623Y-55746066D01*
X94494415Y-55746066D01*
X94521234Y-55860574D01*
X94587066Y-55996004D01*
X94702161Y-56113046D01*
X94839087Y-56188442D01*
X94926342Y-56204098D01*
X95044672Y-56185099D01*
X95185851Y-56137446D01*
X95233811Y-56115521D01*
X95411171Y-56026944D01*
X95562530Y-56142391D01*
X95649869Y-56220474D01*
X95696342Y-56284922D01*
X95698695Y-56303837D01*
X95657178Y-56349681D01*
X95566190Y-56419349D01*
X95483605Y-56473700D01*
X95260751Y-56571405D01*
X95010913Y-56615628D01*
X94763290Y-56604130D01*
X94565902Y-56544029D01*
X94362424Y-56415284D01*
X94217821Y-56245774D01*
X94127361Y-56026462D01*
X94086311Y-55748309D01*
X94082671Y-55621034D01*
X94097239Y-55329375D01*
X94099028Y-55320891D01*
X94515941Y-55320891D01*
X94527423Y-55348242D01*
X94574616Y-55363324D01*
X94671951Y-55369788D01*
X94833864Y-55371285D01*
X94896210Y-55371312D01*
X95085897Y-55369052D01*
X95206189Y-55360844D01*
X95270884Y-55344550D01*
X95293780Y-55318027D01*
X95294590Y-55309510D01*
X95268460Y-55241825D01*
X95203063Y-55147005D01*
X95174948Y-55113805D01*
X95070574Y-55019906D01*
X94961775Y-54982988D01*
X94903157Y-54979902D01*
X94744574Y-55018493D01*
X94611587Y-55122155D01*
X94527228Y-55272717D01*
X94525733Y-55277623D01*
X94515941Y-55320891D01*
X94099028Y-55320891D01*
X94145684Y-55099722D01*
X94232955Y-54915983D01*
X94339689Y-54785557D01*
X94537020Y-54644131D01*
X94768985Y-54568556D01*
X95015712Y-54561724D01*
X95257325Y-54626526D01*
G36*
X91344610Y-54601802D02*
X91562447Y-54698108D01*
X91727816Y-54858919D01*
X91840957Y-55084482D01*
X91902112Y-55375042D01*
X91906495Y-55420408D01*
X91909930Y-55740256D01*
X91865398Y-56020614D01*
X91775609Y-56247847D01*
X91727529Y-56320941D01*
X91560055Y-56475643D01*
X91346768Y-56575838D01*
X91108154Y-56617418D01*
X90864697Y-56596272D01*
X90679630Y-56531145D01*
X90520479Y-56421393D01*
X90390404Y-56277496D01*
X90388154Y-56274130D01*
X90335330Y-56185314D01*
X90301001Y-56096005D01*
X90280212Y-55983294D01*
X90268009Y-55824273D01*
X90262633Y-55693868D01*
X90260395Y-55575611D01*
X90676706Y-55575611D01*
X90680775Y-55693335D01*
X90695545Y-55850049D01*
X90721602Y-55950621D01*
X90768593Y-56022173D01*
X90812603Y-56063971D01*
X90968623Y-56151484D01*
X91131869Y-56163179D01*
X91283904Y-56100212D01*
X91359920Y-56029653D01*
X91414697Y-55958550D01*
X91446737Y-55890512D01*
X91460800Y-55801967D01*
X91461642Y-55669339D01*
X91457309Y-55547195D01*
X91447989Y-55372710D01*
X91433212Y-55259538D01*
X91406580Y-55185721D01*
X91361691Y-55129298D01*
X91326120Y-55097050D01*
X91177329Y-55012340D01*
X91016813Y-55008117D01*
X90882220Y-55058292D01*
X90767400Y-55163075D01*
X90698996Y-55335198D01*
X90676706Y-55575611D01*
X90260395Y-55575611D01*
X90257724Y-55434548D01*
X90266107Y-55240610D01*
X90291228Y-55094745D01*
X90336532Y-54979641D01*
X90405464Y-54877986D01*
X90431022Y-54847802D01*
X90590825Y-54697412D01*
X90762231Y-54609566D01*
X90971849Y-54572762D01*
X91074064Y-54569754D01*
X91344610Y-54601802D01*
X91344610Y-54601802D01*
G37*
X91344610Y-54601802D02*
X91562447Y-54698108D01*
X91727816Y-54858919D01*
X91840957Y-55084482D01*
X91902112Y-55375042D01*
X91906495Y-55420408D01*
X91909930Y-55740256D01*
X91865398Y-56020614D01*
X91775609Y-56247847D01*
X91727529Y-56320941D01*
X91560055Y-56475643D01*
X91346768Y-56575838D01*
X91108154Y-56617418D01*
X90864697Y-56596272D01*
X90679630Y-56531145D01*
X90520479Y-56421393D01*
X90390404Y-56277496D01*
X90388154Y-56274130D01*
X90335330Y-56185314D01*
X90301001Y-56096005D01*
X90280212Y-55983294D01*
X90268009Y-55824273D01*
X90262633Y-55693868D01*
X90260395Y-55575611D01*
X90676706Y-55575611D01*
X90680775Y-55693335D01*
X90695545Y-55850049D01*
X90721602Y-55950621D01*
X90768593Y-56022173D01*
X90812603Y-56063971D01*
X90968623Y-56151484D01*
X91131869Y-56163179D01*
X91283904Y-56100212D01*
X91359920Y-56029653D01*
X91414697Y-55958550D01*
X91446737Y-55890512D01*
X91460800Y-55801967D01*
X91461642Y-55669339D01*
X91457309Y-55547195D01*
X91447989Y-55372710D01*
X91433212Y-55259538D01*
X91406580Y-55185721D01*
X91361691Y-55129298D01*
X91326120Y-55097050D01*
X91177329Y-55012340D01*
X91016813Y-55008117D01*
X90882220Y-55058292D01*
X90767400Y-55163075D01*
X90698996Y-55335198D01*
X90676706Y-55575611D01*
X90260395Y-55575611D01*
X90257724Y-55434548D01*
X90266107Y-55240610D01*
X90291228Y-55094745D01*
X90336532Y-54979641D01*
X90405464Y-54877986D01*
X90431022Y-54847802D01*
X90590825Y-54697412D01*
X90762231Y-54609566D01*
X90971849Y-54572762D01*
X91074064Y-54569754D01*
X91344610Y-54601802D01*
G36*
X106480842Y-57713999D02*
X106679876Y-57765746D01*
X106846561Y-57872544D01*
X106927269Y-57952326D01*
X107059568Y-58140931D01*
X107135390Y-58359720D01*
X107161438Y-58628668D01*
X107161571Y-58650410D01*
X107161803Y-58869017D01*
X105903595Y-58869017D01*
X105930415Y-58983525D01*
X105978841Y-59087232D01*
X106063596Y-59195290D01*
X106081323Y-59212541D01*
X106233680Y-59305904D01*
X106407424Y-59321738D01*
X106607411Y-59260313D01*
X106641311Y-59243771D01*
X106745288Y-59193484D01*
X106814931Y-59164834D01*
X106827083Y-59162184D01*
X106869501Y-59187913D01*
X106950399Y-59250861D01*
X106991465Y-59285259D01*
X107076560Y-59364276D01*
X107104503Y-59416451D01*
X107085110Y-59464446D01*
X107074743Y-59477570D01*
X107004531Y-59535008D01*
X106888674Y-59604813D01*
X106807869Y-59645564D01*
X106578501Y-59717362D01*
X106324564Y-59740625D01*
X106084074Y-59713059D01*
X106016721Y-59693321D01*
X105808262Y-59581612D01*
X105653746Y-59409721D01*
X105552278Y-59175979D01*
X105502965Y-58878716D01*
X105497551Y-58723279D01*
X105513359Y-58496973D01*
X105912623Y-58496973D01*
X105951240Y-58513702D01*
X106055042Y-58526829D01*
X106205956Y-58534575D01*
X106308197Y-58535902D01*
X106492101Y-58534623D01*
X106608174Y-58528638D01*
X106671852Y-58514724D01*
X106698567Y-58489655D01*
X106703770Y-58453280D01*
X106668073Y-58341229D01*
X106578196Y-58230488D01*
X106459966Y-58145489D01*
X106341690Y-58110718D01*
X106181044Y-58141563D01*
X106041978Y-58230732D01*
X105945557Y-58359263D01*
X105912623Y-58496973D01*
X105513359Y-58496973D01*
X105520572Y-58393733D01*
X105591624Y-58131175D01*
X105712210Y-57933525D01*
X105883834Y-57798702D01*
X106107998Y-57724626D01*
X106229438Y-57710360D01*
X106480842Y-57713999D01*
X106480842Y-57713999D01*
G37*
X106480842Y-57713999D02*
X106679876Y-57765746D01*
X106846561Y-57872544D01*
X106927269Y-57952326D01*
X107059568Y-58140931D01*
X107135390Y-58359720D01*
X107161438Y-58628668D01*
X107161571Y-58650410D01*
X107161803Y-58869017D01*
X105903595Y-58869017D01*
X105930415Y-58983525D01*
X105978841Y-59087232D01*
X106063596Y-59195290D01*
X106081323Y-59212541D01*
X106233680Y-59305904D01*
X106407424Y-59321738D01*
X106607411Y-59260313D01*
X106641311Y-59243771D01*
X106745288Y-59193484D01*
X106814931Y-59164834D01*
X106827083Y-59162184D01*
X106869501Y-59187913D01*
X106950399Y-59250861D01*
X106991465Y-59285259D01*
X107076560Y-59364276D01*
X107104503Y-59416451D01*
X107085110Y-59464446D01*
X107074743Y-59477570D01*
X107004531Y-59535008D01*
X106888674Y-59604813D01*
X106807869Y-59645564D01*
X106578501Y-59717362D01*
X106324564Y-59740625D01*
X106084074Y-59713059D01*
X106016721Y-59693321D01*
X105808262Y-59581612D01*
X105653746Y-59409721D01*
X105552278Y-59175979D01*
X105502965Y-58878716D01*
X105497551Y-58723279D01*
X105513359Y-58496973D01*
X105912623Y-58496973D01*
X105951240Y-58513702D01*
X106055042Y-58526829D01*
X106205956Y-58534575D01*
X106308197Y-58535902D01*
X106492101Y-58534623D01*
X106608174Y-58528638D01*
X106671852Y-58514724D01*
X106698567Y-58489655D01*
X106703770Y-58453280D01*
X106668073Y-58341229D01*
X106578196Y-58230488D01*
X106459966Y-58145489D01*
X106341690Y-58110718D01*
X106181044Y-58141563D01*
X106041978Y-58230732D01*
X105945557Y-58359263D01*
X105912623Y-58496973D01*
X105513359Y-58496973D01*
X105520572Y-58393733D01*
X105591624Y-58131175D01*
X105712210Y-57933525D01*
X105883834Y-57798702D01*
X106107998Y-57724626D01*
X106229438Y-57710360D01*
X106480842Y-57713999D01*
G36*
X105165107Y-57702460D02*
X105325182Y-57734017D01*
X105416312Y-57780743D01*
X105512179Y-57858370D01*
X105375787Y-58030579D01*
X105291694Y-58134867D01*
X105234592Y-58185746D01*
X105177844Y-58193519D01*
X105094811Y-58168488D01*
X105055833Y-58154327D01*
X104896926Y-58133433D01*
X104751399Y-58178220D01*
X104644560Y-58279399D01*
X104627205Y-58311659D01*
X104608303Y-58397115D01*
X104593716Y-58554606D01*
X104584126Y-58772969D01*
X104580219Y-59041038D01*
X104580164Y-59079172D01*
X104580164Y-59743443D01*
X104122131Y-59743443D01*
X104122131Y-57703115D01*
X104351148Y-57703115D01*
X104483199Y-57706563D01*
X104551992Y-57721907D01*
X104577430Y-57756648D01*
X104580164Y-57789416D01*
X104580164Y-57875717D01*
X104689878Y-57789416D01*
X104815680Y-57730538D01*
X104984681Y-57701426D01*
X105165107Y-57702460D01*
X105165107Y-57702460D01*
G37*
X105165107Y-57702460D02*
X105325182Y-57734017D01*
X105416312Y-57780743D01*
X105512179Y-57858370D01*
X105375787Y-58030579D01*
X105291694Y-58134867D01*
X105234592Y-58185746D01*
X105177844Y-58193519D01*
X105094811Y-58168488D01*
X105055833Y-58154327D01*
X104896926Y-58133433D01*
X104751399Y-58178220D01*
X104644560Y-58279399D01*
X104627205Y-58311659D01*
X104608303Y-58397115D01*
X104593716Y-58554606D01*
X104584126Y-58772969D01*
X104580219Y-59041038D01*
X104580164Y-59079172D01*
X104580164Y-59743443D01*
X104122131Y-59743443D01*
X104122131Y-57703115D01*
X104351148Y-57703115D01*
X104483199Y-57706563D01*
X104551992Y-57721907D01*
X104577430Y-57756648D01*
X104580164Y-57789416D01*
X104580164Y-57875717D01*
X104689878Y-57789416D01*
X104815680Y-57730538D01*
X104984681Y-57701426D01*
X105165107Y-57702460D01*
G36*
X103188670Y-57715480D02*
X103364179Y-57758109D01*
X103414912Y-57780693D01*
X103513254Y-57839847D01*
X103588727Y-57906472D01*
X103644571Y-57992135D01*
X103684026Y-58108405D01*
X103710332Y-58266848D01*
X103726729Y-58479034D01*
X103736457Y-58756529D01*
X103740151Y-58941885D01*
X103753745Y-59743443D01*
X103521544Y-59743443D01*
X103380677Y-59737536D01*
X103308102Y-59717350D01*
X103289344Y-59683453D01*
X103279441Y-59646799D01*
X103235166Y-59653807D01*
X103174836Y-59683197D01*
X103023803Y-59728246D01*
X102829693Y-59740385D01*
X102625531Y-59720529D01*
X102444340Y-59669592D01*
X102428089Y-59662522D01*
X102262491Y-59546188D01*
X102153324Y-59384467D01*
X102103091Y-59195430D01*
X102106928Y-59127515D01*
X102516763Y-59127515D01*
X102552875Y-59218914D01*
X102659942Y-59284411D01*
X102832684Y-59319563D01*
X102925000Y-59324231D01*
X103078850Y-59312282D01*
X103181115Y-59265844D01*
X103206066Y-59243771D01*
X103273661Y-59123681D01*
X103289344Y-59014754D01*
X103289344Y-58869017D01*
X103086352Y-58869017D01*
X102850387Y-58881043D01*
X102684881Y-58918871D01*
X102580305Y-58985121D01*
X102556891Y-59014656D01*
X102516763Y-59127515D01*
X102106928Y-59127515D01*
X102114295Y-58997148D01*
X102189440Y-58807692D01*
X102291968Y-58679656D01*
X102354065Y-58624302D01*
X102414855Y-58587924D01*
X102493952Y-58565744D01*
X102610971Y-58552982D01*
X102785527Y-58544857D01*
X102854763Y-58542521D01*
X103289344Y-58528321D01*
X103288707Y-58396784D01*
X103271876Y-58258519D01*
X103211026Y-58174917D01*
X103088095Y-58121507D01*
X103084797Y-58120555D01*
X102910504Y-58099555D01*
X102739952Y-58126985D01*
X102613200Y-58193689D01*
X102562342Y-58226625D01*
X102507565Y-58222068D01*
X102423272Y-58174349D01*
X102373773Y-58140671D01*
X102276955Y-58068716D01*
X102216982Y-58014779D01*
X102207359Y-57999337D01*
X102246985Y-57919424D01*
X102364064Y-57823989D01*
X102414918Y-57791789D01*
X102561113Y-57736332D01*
X102758137Y-57704913D01*
X102976989Y-57697855D01*
X103188670Y-57715480D01*
X103188670Y-57715480D01*
G37*
X103188670Y-57715480D02*
X103364179Y-57758109D01*
X103414912Y-57780693D01*
X103513254Y-57839847D01*
X103588727Y-57906472D01*
X103644571Y-57992135D01*
X103684026Y-58108405D01*
X103710332Y-58266848D01*
X103726729Y-58479034D01*
X103736457Y-58756529D01*
X103740151Y-58941885D01*
X103753745Y-59743443D01*
X103521544Y-59743443D01*
X103380677Y-59737536D01*
X103308102Y-59717350D01*
X103289344Y-59683453D01*
X103279441Y-59646799D01*
X103235166Y-59653807D01*
X103174836Y-59683197D01*
X103023803Y-59728246D01*
X102829693Y-59740385D01*
X102625531Y-59720529D01*
X102444340Y-59669592D01*
X102428089Y-59662522D01*
X102262491Y-59546188D01*
X102153324Y-59384467D01*
X102103091Y-59195430D01*
X102106928Y-59127515D01*
X102516763Y-59127515D01*
X102552875Y-59218914D01*
X102659942Y-59284411D01*
X102832684Y-59319563D01*
X102925000Y-59324231D01*
X103078850Y-59312282D01*
X103181115Y-59265844D01*
X103206066Y-59243771D01*
X103273661Y-59123681D01*
X103289344Y-59014754D01*
X103289344Y-58869017D01*
X103086352Y-58869017D01*
X102850387Y-58881043D01*
X102684881Y-58918871D01*
X102580305Y-58985121D01*
X102556891Y-59014656D01*
X102516763Y-59127515D01*
X102106928Y-59127515D01*
X102114295Y-58997148D01*
X102189440Y-58807692D01*
X102291968Y-58679656D01*
X102354065Y-58624302D01*
X102414855Y-58587924D01*
X102493952Y-58565744D01*
X102610971Y-58552982D01*
X102785527Y-58544857D01*
X102854763Y-58542521D01*
X103289344Y-58528321D01*
X103288707Y-58396784D01*
X103271876Y-58258519D01*
X103211026Y-58174917D01*
X103088095Y-58121507D01*
X103084797Y-58120555D01*
X102910504Y-58099555D01*
X102739952Y-58126985D01*
X102613200Y-58193689D01*
X102562342Y-58226625D01*
X102507565Y-58222068D01*
X102423272Y-58174349D01*
X102373773Y-58140671D01*
X102276955Y-58068716D01*
X102216982Y-58014779D01*
X102207359Y-57999337D01*
X102246985Y-57919424D01*
X102364064Y-57823989D01*
X102414918Y-57791789D01*
X102561113Y-57736332D01*
X102758137Y-57704913D01*
X102976989Y-57697855D01*
X103188670Y-57715480D01*
G36*
X100846942Y-57723935D02*
X101062248Y-58369344D01*
X101277555Y-59014754D01*
X101345064Y-58785738D01*
X101385691Y-58644204D01*
X101439133Y-58452936D01*
X101496842Y-58242693D01*
X101527355Y-58129918D01*
X101642136Y-57703115D01*
X102115687Y-57703115D01*
X101974139Y-58150738D01*
X101904433Y-58370903D01*
X101820223Y-58636471D01*
X101732281Y-58913492D01*
X101653772Y-59160492D01*
X101474952Y-59722623D01*
X101281882Y-59735185D01*
X101088811Y-59747746D01*
X100984118Y-59402070D01*
X100919553Y-59187335D01*
X100849092Y-58950604D01*
X100787511Y-58741526D01*
X100785081Y-58733205D01*
X100739085Y-58591537D01*
X100698503Y-58494874D01*
X100670080Y-58458321D01*
X100664239Y-58462549D01*
X100643738Y-58519217D01*
X100604785Y-58640605D01*
X100552122Y-58811448D01*
X100490491Y-59016482D01*
X100457143Y-59129262D01*
X100276546Y-59743443D01*
X99893267Y-59743443D01*
X99586867Y-58775328D01*
X99500791Y-58503759D01*
X99422380Y-58257138D01*
X99355339Y-58047048D01*
X99303369Y-57885076D01*
X99270174Y-57782808D01*
X99260084Y-57752928D01*
X99268072Y-57722334D01*
X99330792Y-57708935D01*
X99461315Y-57710275D01*
X99481747Y-57711288D01*
X99723792Y-57723935D01*
X99882317Y-58306885D01*
X99940585Y-58519486D01*
X99992655Y-58706377D01*
X100033944Y-58851331D01*
X100059866Y-58938120D01*
X100064656Y-58952269D01*
X100084504Y-58935998D01*
X100124530Y-58851697D01*
X100180138Y-58710842D01*
X100246731Y-58524911D01*
X100303024Y-58356956D01*
X100517578Y-57699209D01*
X100846942Y-57723935D01*
X100846942Y-57723935D01*
G37*
X100846942Y-57723935D02*
X101062248Y-58369344D01*
X101277555Y-59014754D01*
X101345064Y-58785738D01*
X101385691Y-58644204D01*
X101439133Y-58452936D01*
X101496842Y-58242693D01*
X101527355Y-58129918D01*
X101642136Y-57703115D01*
X102115687Y-57703115D01*
X101974139Y-58150738D01*
X101904433Y-58370903D01*
X101820223Y-58636471D01*
X101732281Y-58913492D01*
X101653772Y-59160492D01*
X101474952Y-59722623D01*
X101281882Y-59735185D01*
X101088811Y-59747746D01*
X100984118Y-59402070D01*
X100919553Y-59187335D01*
X100849092Y-58950604D01*
X100787511Y-58741526D01*
X100785081Y-58733205D01*
X100739085Y-58591537D01*
X100698503Y-58494874D01*
X100670080Y-58458321D01*
X100664239Y-58462549D01*
X100643738Y-58519217D01*
X100604785Y-58640605D01*
X100552122Y-58811448D01*
X100490491Y-59016482D01*
X100457143Y-59129262D01*
X100276546Y-59743443D01*
X99893267Y-59743443D01*
X99586867Y-58775328D01*
X99500791Y-58503759D01*
X99422380Y-58257138D01*
X99355339Y-58047048D01*
X99303369Y-57885076D01*
X99270174Y-57782808D01*
X99260084Y-57752928D01*
X99268072Y-57722334D01*
X99330792Y-57708935D01*
X99461315Y-57710275D01*
X99481747Y-57711288D01*
X99723792Y-57723935D01*
X99882317Y-58306885D01*
X99940585Y-58519486D01*
X99992655Y-58706377D01*
X100033944Y-58851331D01*
X100059866Y-58938120D01*
X100064656Y-58952269D01*
X100084504Y-58935998D01*
X100124530Y-58851697D01*
X100180138Y-58710842D01*
X100246731Y-58524911D01*
X100303024Y-58356956D01*
X100517578Y-57699209D01*
X100846942Y-57723935D01*
G36*
X99083770Y-59743443D02*
X98854754Y-59743443D01*
X98721825Y-59739546D01*
X98652595Y-59723407D01*
X98627668Y-59688354D01*
X98625738Y-59664653D01*
X98621534Y-59617123D01*
X98595026Y-59608008D01*
X98525367Y-59637308D01*
X98471196Y-59664653D01*
X98263223Y-59729451D01*
X98037147Y-59733201D01*
X97853345Y-59684873D01*
X97682187Y-59568118D01*
X97551716Y-59395781D01*
X97480273Y-59192506D01*
X97478454Y-59181141D01*
X97467839Y-59057136D01*
X97462560Y-58879117D01*
X97462984Y-58744480D01*
X97917828Y-58744480D01*
X97928365Y-58923428D01*
X97952334Y-59070924D01*
X97984783Y-59154217D01*
X98107544Y-59268041D01*
X98253299Y-59308845D01*
X98403607Y-59275848D01*
X98532049Y-59177422D01*
X98580692Y-59111224D01*
X98609134Y-59032231D01*
X98622456Y-58916926D01*
X98625738Y-58743736D01*
X98619865Y-58572229D01*
X98604353Y-58421540D01*
X98582362Y-58320698D01*
X98578697Y-58311659D01*
X98490012Y-58204195D01*
X98360572Y-58145195D01*
X98215743Y-58135669D01*
X98080891Y-58176626D01*
X97981383Y-58269076D01*
X97971060Y-58287473D01*
X97938750Y-58399646D01*
X97921148Y-58560934D01*
X97917828Y-58744480D01*
X97462984Y-58744480D01*
X97463200Y-58676212D01*
X97466194Y-58567010D01*
X97486558Y-58296856D01*
X97528883Y-58094024D01*
X97599294Y-57944077D01*
X97703912Y-57832579D01*
X97805479Y-57767127D01*
X97947384Y-57721117D01*
X98123879Y-57705336D01*
X98304607Y-57718190D01*
X98459213Y-57758081D01*
X98540899Y-57805801D01*
X98625738Y-57882579D01*
X98625738Y-56911967D01*
X99083770Y-56911967D01*
X99083770Y-59743443D01*
X99083770Y-59743443D01*
G37*
X99083770Y-59743443D02*
X98854754Y-59743443D01*
X98721825Y-59739546D01*
X98652595Y-59723407D01*
X98627668Y-59688354D01*
X98625738Y-59664653D01*
X98621534Y-59617123D01*
X98595026Y-59608008D01*
X98525367Y-59637308D01*
X98471196Y-59664653D01*
X98263223Y-59729451D01*
X98037147Y-59733201D01*
X97853345Y-59684873D01*
X97682187Y-59568118D01*
X97551716Y-59395781D01*
X97480273Y-59192506D01*
X97478454Y-59181141D01*
X97467839Y-59057136D01*
X97462560Y-58879117D01*
X97462984Y-58744480D01*
X97917828Y-58744480D01*
X97928365Y-58923428D01*
X97952334Y-59070924D01*
X97984783Y-59154217D01*
X98107544Y-59268041D01*
X98253299Y-59308845D01*
X98403607Y-59275848D01*
X98532049Y-59177422D01*
X98580692Y-59111224D01*
X98609134Y-59032231D01*
X98622456Y-58916926D01*
X98625738Y-58743736D01*
X98619865Y-58572229D01*
X98604353Y-58421540D01*
X98582362Y-58320698D01*
X98578697Y-58311659D01*
X98490012Y-58204195D01*
X98360572Y-58145195D01*
X98215743Y-58135669D01*
X98080891Y-58176626D01*
X97981383Y-58269076D01*
X97971060Y-58287473D01*
X97938750Y-58399646D01*
X97921148Y-58560934D01*
X97917828Y-58744480D01*
X97462984Y-58744480D01*
X97463200Y-58676212D01*
X97466194Y-58567010D01*
X97486558Y-58296856D01*
X97528883Y-58094024D01*
X97599294Y-57944077D01*
X97703912Y-57832579D01*
X97805479Y-57767127D01*
X97947384Y-57721117D01*
X98123879Y-57705336D01*
X98304607Y-57718190D01*
X98459213Y-57758081D01*
X98540899Y-57805801D01*
X98625738Y-57882579D01*
X98625738Y-56911967D01*
X99083770Y-56911967D01*
X99083770Y-59743443D01*
G36*
X96460525Y-57707540D02*
X96522837Y-57726218D01*
X96542925Y-57767255D01*
X96543770Y-57785782D01*
X96547375Y-57837383D01*
X96572200Y-57845484D01*
X96639263Y-57810108D01*
X96679098Y-57785937D01*
X96804773Y-57734175D01*
X96954877Y-57708581D01*
X97112263Y-57706613D01*
X97259786Y-57725729D01*
X97380300Y-57763387D01*
X97456660Y-57817044D01*
X97471719Y-57884158D01*
X97464119Y-57902333D01*
X97408718Y-57977777D01*
X97322810Y-58070568D01*
X97307272Y-58085568D01*
X97225388Y-58154540D01*
X97154737Y-58176825D01*
X97055932Y-58161272D01*
X97016348Y-58150938D01*
X96893172Y-58126116D01*
X96806564Y-58137278D01*
X96733424Y-58176646D01*
X96666426Y-58229479D01*
X96617082Y-58295924D01*
X96582791Y-58388652D01*
X96560952Y-58520334D01*
X96548966Y-58703641D01*
X96544231Y-58951246D01*
X96543770Y-59100744D01*
X96543770Y-59743443D01*
X96127377Y-59743443D01*
X96127377Y-57703115D01*
X96335574Y-57703115D01*
X96460525Y-57707540D01*
X96460525Y-57707540D01*
G37*
X96460525Y-57707540D02*
X96522837Y-57726218D01*
X96542925Y-57767255D01*
X96543770Y-57785782D01*
X96547375Y-57837383D01*
X96572200Y-57845484D01*
X96639263Y-57810108D01*
X96679098Y-57785937D01*
X96804773Y-57734175D01*
X96954877Y-57708581D01*
X97112263Y-57706613D01*
X97259786Y-57725729D01*
X97380300Y-57763387D01*
X97456660Y-57817044D01*
X97471719Y-57884158D01*
X97464119Y-57902333D01*
X97408718Y-57977777D01*
X97322810Y-58070568D01*
X97307272Y-58085568D01*
X97225388Y-58154540D01*
X97154737Y-58176825D01*
X97055932Y-58161272D01*
X97016348Y-58150938D01*
X96893172Y-58126116D01*
X96806564Y-58137278D01*
X96733424Y-58176646D01*
X96666426Y-58229479D01*
X96617082Y-58295924D01*
X96582791Y-58388652D01*
X96560952Y-58520334D01*
X96548966Y-58703641D01*
X96544231Y-58951246D01*
X96543770Y-59100744D01*
X96543770Y-59743443D01*
X96127377Y-59743443D01*
X96127377Y-57703115D01*
X96335574Y-57703115D01*
X96460525Y-57707540D01*
G36*
X95166221Y-57719247D02*
X95362111Y-57771514D01*
X95511233Y-57866253D01*
X95616465Y-57990338D01*
X95649179Y-58043296D01*
X95673331Y-58098768D01*
X95690216Y-58169730D01*
X95701127Y-58269154D01*
X95707360Y-58410016D01*
X95710209Y-58605289D01*
X95710968Y-58867948D01*
X95710984Y-58937633D01*
X95710984Y-59743443D01*
X95511115Y-59743443D01*
X95383630Y-59734515D01*
X95289366Y-59711896D01*
X95265749Y-59697946D01*
X95201185Y-59673870D01*
X95135241Y-59697946D01*
X95026668Y-59728003D01*
X94868958Y-59740100D01*
X94694156Y-59734851D01*
X94534307Y-59712869D01*
X94440984Y-59684663D01*
X94260391Y-59568731D01*
X94147530Y-59407847D01*
X94096791Y-59193936D01*
X94096320Y-59188443D01*
X94100773Y-59093547D01*
X94503443Y-59093547D01*
X94538646Y-59201484D01*
X94595986Y-59262229D01*
X94711087Y-59308172D01*
X94863014Y-59326512D01*
X95017939Y-59317485D01*
X95142036Y-59281332D01*
X95176803Y-59258137D01*
X95237556Y-59150960D01*
X95252951Y-59029120D01*
X95252951Y-58869017D01*
X95022597Y-58869017D01*
X94803759Y-58885863D01*
X94637863Y-58933593D01*
X94534662Y-59007986D01*
X94503443Y-59093547D01*
X94100773Y-59093547D01*
X94107287Y-58954731D01*
X94184369Y-58769946D01*
X94329286Y-58630206D01*
X94349317Y-58617495D01*
X94435390Y-58576105D01*
X94541927Y-58551041D01*
X94690859Y-58538858D01*
X94867787Y-58536057D01*
X95252951Y-58535902D01*
X95252951Y-58374443D01*
X95236613Y-58249168D01*
X95194922Y-58165241D01*
X95190041Y-58160773D01*
X95097264Y-58124059D01*
X94957216Y-58109828D01*
X94802445Y-58116821D01*
X94665501Y-58143780D01*
X94584241Y-58184212D01*
X94540210Y-58216601D01*
X94493715Y-58222784D01*
X94429549Y-58196248D01*
X94332505Y-58130479D01*
X94187374Y-58018963D01*
X94174053Y-58008516D01*
X94180879Y-57969862D01*
X94237822Y-57905572D01*
X94324370Y-57834131D01*
X94420008Y-57774021D01*
X94450056Y-57759827D01*
X94559659Y-57731503D01*
X94720265Y-57711300D01*
X94899698Y-57703196D01*
X94908089Y-57703180D01*
X95166221Y-57719247D01*
X95166221Y-57719247D01*
G37*
X95166221Y-57719247D02*
X95362111Y-57771514D01*
X95511233Y-57866253D01*
X95616465Y-57990338D01*
X95649179Y-58043296D01*
X95673331Y-58098768D01*
X95690216Y-58169730D01*
X95701127Y-58269154D01*
X95707360Y-58410016D01*
X95710209Y-58605289D01*
X95710968Y-58867948D01*
X95710984Y-58937633D01*
X95710984Y-59743443D01*
X95511115Y-59743443D01*
X95383630Y-59734515D01*
X95289366Y-59711896D01*
X95265749Y-59697946D01*
X95201185Y-59673870D01*
X95135241Y-59697946D01*
X95026668Y-59728003D01*
X94868958Y-59740100D01*
X94694156Y-59734851D01*
X94534307Y-59712869D01*
X94440984Y-59684663D01*
X94260391Y-59568731D01*
X94147530Y-59407847D01*
X94096791Y-59193936D01*
X94096320Y-59188443D01*
X94100773Y-59093547D01*
X94503443Y-59093547D01*
X94538646Y-59201484D01*
X94595986Y-59262229D01*
X94711087Y-59308172D01*
X94863014Y-59326512D01*
X95017939Y-59317485D01*
X95142036Y-59281332D01*
X95176803Y-59258137D01*
X95237556Y-59150960D01*
X95252951Y-59029120D01*
X95252951Y-58869017D01*
X95022597Y-58869017D01*
X94803759Y-58885863D01*
X94637863Y-58933593D01*
X94534662Y-59007986D01*
X94503443Y-59093547D01*
X94100773Y-59093547D01*
X94107287Y-58954731D01*
X94184369Y-58769946D01*
X94329286Y-58630206D01*
X94349317Y-58617495D01*
X94435390Y-58576105D01*
X94541927Y-58551041D01*
X94690859Y-58538858D01*
X94867787Y-58536057D01*
X95252951Y-58535902D01*
X95252951Y-58374443D01*
X95236613Y-58249168D01*
X95194922Y-58165241D01*
X95190041Y-58160773D01*
X95097264Y-58124059D01*
X94957216Y-58109828D01*
X94802445Y-58116821D01*
X94665501Y-58143780D01*
X94584241Y-58184212D01*
X94540210Y-58216601D01*
X94493715Y-58222784D01*
X94429549Y-58196248D01*
X94332505Y-58130479D01*
X94187374Y-58018963D01*
X94174053Y-58008516D01*
X94180879Y-57969862D01*
X94237822Y-57905572D01*
X94324370Y-57834131D01*
X94420008Y-57774021D01*
X94450056Y-57759827D01*
X94559659Y-57731503D01*
X94720265Y-57711300D01*
X94899698Y-57703196D01*
X94908089Y-57703180D01*
X95166221Y-57719247D01*
G36*
X93429192Y-54615166D02*
X93516985Y-54658540D01*
X93625249Y-54734122D01*
X93704155Y-54816542D01*
X93758195Y-54920037D01*
X93791859Y-55058843D01*
X93809637Y-55247194D01*
X93816020Y-55499328D01*
X93816393Y-55607724D01*
X93815304Y-55845287D01*
X93810778Y-56015068D01*
X93800932Y-56132550D01*
X93783882Y-56213215D01*
X93757741Y-56272545D01*
X93730542Y-56313020D01*
X93556920Y-56485225D01*
X93352462Y-56588806D01*
X93131896Y-56619960D01*
X92909954Y-56574885D01*
X92839640Y-56543009D01*
X92671311Y-56455271D01*
X92671311Y-57830172D01*
X92794162Y-57766643D01*
X92956033Y-57717491D01*
X93154995Y-57704900D01*
X93353672Y-57728147D01*
X93503710Y-57780370D01*
X93628159Y-57879826D01*
X93734492Y-58022143D01*
X93742487Y-58036755D01*
X93776207Y-58105582D01*
X93800834Y-58174956D01*
X93817786Y-58258996D01*
X93828481Y-58371816D01*
X93834338Y-58527533D01*
X93836773Y-58740265D01*
X93837213Y-58979664D01*
X93837213Y-59743443D01*
X93379180Y-59743443D01*
X93379180Y-58335108D01*
X93251067Y-58227308D01*
X93117982Y-58141079D01*
X92991952Y-58125401D01*
X92865222Y-58165747D01*
X92797683Y-58205254D01*
X92747414Y-58261527D01*
X92711662Y-58346572D01*
X92687672Y-58472394D01*
X92672689Y-58650998D01*
X92663960Y-58894391D01*
X92660886Y-59056394D01*
X92650492Y-59722623D01*
X92431885Y-59735209D01*
X92213279Y-59747795D01*
X92213279Y-55613464D01*
X92671311Y-55613464D01*
X92682989Y-55843953D01*
X92722338Y-56003950D01*
X92795834Y-56103497D01*
X92909951Y-56152639D01*
X93025246Y-56162459D01*
X93155762Y-56151175D01*
X93242383Y-56106764D01*
X93296549Y-56048081D01*
X93339190Y-55984962D01*
X93364574Y-55914645D01*
X93375869Y-55816123D01*
X93376240Y-55668387D01*
X93372440Y-55544683D01*
X93363712Y-55358328D01*
X93350720Y-55235982D01*
X93328841Y-55158377D01*
X93293454Y-55106245D01*
X93260059Y-55076111D01*
X93120525Y-55010399D01*
X92955381Y-54999787D01*
X92860554Y-55022423D01*
X92766666Y-55102881D01*
X92704474Y-55259392D01*
X92674331Y-55490852D01*
X92671311Y-55613464D01*
X92213279Y-55613464D01*
X92213279Y-54580164D01*
X92442295Y-54580164D01*
X92579794Y-54585602D01*
X92650733Y-54604909D01*
X92671303Y-54642576D01*
X92671311Y-54643692D01*
X92680855Y-54680581D01*
X92722949Y-54676393D01*
X92806639Y-54635859D01*
X93001646Y-54573850D01*
X93221046Y-54567332D01*
X93429192Y-54615166D01*
X93429192Y-54615166D01*
G37*
X93429192Y-54615166D02*
X93516985Y-54658540D01*
X93625249Y-54734122D01*
X93704155Y-54816542D01*
X93758195Y-54920037D01*
X93791859Y-55058843D01*
X93809637Y-55247194D01*
X93816020Y-55499328D01*
X93816393Y-55607724D01*
X93815304Y-55845287D01*
X93810778Y-56015068D01*
X93800932Y-56132550D01*
X93783882Y-56213215D01*
X93757741Y-56272545D01*
X93730542Y-56313020D01*
X93556920Y-56485225D01*
X93352462Y-56588806D01*
X93131896Y-56619960D01*
X92909954Y-56574885D01*
X92839640Y-56543009D01*
X92671311Y-56455271D01*
X92671311Y-57830172D01*
X92794162Y-57766643D01*
X92956033Y-57717491D01*
X93154995Y-57704900D01*
X93353672Y-57728147D01*
X93503710Y-57780370D01*
X93628159Y-57879826D01*
X93734492Y-58022143D01*
X93742487Y-58036755D01*
X93776207Y-58105582D01*
X93800834Y-58174956D01*
X93817786Y-58258996D01*
X93828481Y-58371816D01*
X93834338Y-58527533D01*
X93836773Y-58740265D01*
X93837213Y-58979664D01*
X93837213Y-59743443D01*
X93379180Y-59743443D01*
X93379180Y-58335108D01*
X93251067Y-58227308D01*
X93117982Y-58141079D01*
X92991952Y-58125401D01*
X92865222Y-58165747D01*
X92797683Y-58205254D01*
X92747414Y-58261527D01*
X92711662Y-58346572D01*
X92687672Y-58472394D01*
X92672689Y-58650998D01*
X92663960Y-58894391D01*
X92660886Y-59056394D01*
X92650492Y-59722623D01*
X92431885Y-59735209D01*
X92213279Y-59747795D01*
X92213279Y-55613464D01*
X92671311Y-55613464D01*
X92682989Y-55843953D01*
X92722338Y-56003950D01*
X92795834Y-56103497D01*
X92909951Y-56152639D01*
X93025246Y-56162459D01*
X93155762Y-56151175D01*
X93242383Y-56106764D01*
X93296549Y-56048081D01*
X93339190Y-55984962D01*
X93364574Y-55914645D01*
X93375869Y-55816123D01*
X93376240Y-55668387D01*
X93372440Y-55544683D01*
X93363712Y-55358328D01*
X93350720Y-55235982D01*
X93328841Y-55158377D01*
X93293454Y-55106245D01*
X93260059Y-55076111D01*
X93120525Y-55010399D01*
X92955381Y-54999787D01*
X92860554Y-55022423D01*
X92766666Y-55102881D01*
X92704474Y-55259392D01*
X92674331Y-55490852D01*
X92671311Y-55613464D01*
X92213279Y-55613464D01*
X92213279Y-54580164D01*
X92442295Y-54580164D01*
X92579794Y-54585602D01*
X92650733Y-54604909D01*
X92671303Y-54642576D01*
X92671311Y-54643692D01*
X92680855Y-54680581D01*
X92722949Y-54676393D01*
X92806639Y-54635859D01*
X93001646Y-54573850D01*
X93221046Y-54567332D01*
X93429192Y-54615166D01*
D14*
X89555000Y-69580000D02*
G75*
G03X89555000Y-69580000I-3870000J0D01*
G01*
X41070357Y-59109169D02*
X31410357Y-59109169D01*
X41830357Y-58349169D02*
X41070357Y-59109169D01*
X41070357Y-48689169D02*
X41830357Y-49449169D01*
X31410357Y-48689169D02*
X41070357Y-48689169D01*
X31410357Y-59109169D02*
X31410357Y-55459169D01*
X31410357Y-48689169D02*
X31410357Y-52339169D01*
X41830357Y-49449169D02*
X41830357Y-52339169D01*
X41830357Y-58349169D02*
X41830357Y-55459169D01*
X41830357Y-45849169D02*
X41830357Y-42959169D01*
X41830357Y-36949169D02*
X41830357Y-39839169D01*
X31410357Y-36189169D02*
X31410357Y-39839169D01*
X31410357Y-46609169D02*
X31410357Y-42959169D01*
X31410357Y-36189169D02*
X41070357Y-36189169D01*
X41070357Y-36189169D02*
X41830357Y-36949169D01*
X41830357Y-45849169D02*
X41070357Y-46609169D01*
X41070357Y-46609169D02*
X31410357Y-46609169D01*
X45300000Y-62200000D02*
X45300000Y-68800000D01*
X42600000Y-68800000D02*
X39400000Y-68800000D01*
X42600000Y-62200000D02*
X39400000Y-62200000D01*
X36700000Y-68800000D02*
X37500000Y-68800000D01*
X36700000Y-62200000D02*
X36700000Y-68800000D01*
X37500000Y-62200000D02*
X36700000Y-62200000D01*
X45318000Y-62198000D02*
X44556000Y-62198000D01*
X44556000Y-62198000D02*
X44556000Y-60166000D01*
X44556000Y-60166000D02*
X44556000Y-60166000D01*
X44556000Y-68802000D02*
X45318000Y-68802000D01*
X45318000Y-68802000D02*
X45318000Y-68802000D01*
D16*
X76250000Y-72180000D02*
X74250000Y-72180000D01*
X69800000Y-68680000D02*
X69800000Y-69155000D01*
X78100000Y-68680000D02*
X69800000Y-68680000D01*
X78100000Y-69155000D02*
X78100000Y-68680000D01*
X69800000Y-71880000D02*
X69800000Y-71405000D01*
X78100000Y-71880000D02*
X69800000Y-71880000D01*
X78100000Y-71405000D02*
X78100000Y-71880000D01*
D14*
X55830000Y-40765000D02*
X55765000Y-40765000D01*
X55830000Y-37235000D02*
X55765000Y-37235000D01*
X62235000Y-40765000D02*
X62170000Y-40765000D01*
X62235000Y-37235000D02*
X62170000Y-37235000D01*
X62170000Y-35910000D02*
X62170000Y-37235000D01*
X55765000Y-37235000D02*
X55765000Y-40765000D01*
X62235000Y-37235000D02*
X62235000Y-40765000D01*
X67400000Y-69650000D02*
X67100000Y-69650000D01*
X67400000Y-66350000D02*
X67400000Y-69650000D01*
X67100000Y-66350000D02*
X67400000Y-66350000D01*
X64600000Y-69650000D02*
X64900000Y-69650000D01*
X64600000Y-66350000D02*
X64600000Y-69650000D01*
X64900000Y-66350000D02*
X64600000Y-66350000D01*
D13*
X63764000Y-108637500D02*
X30236000Y-108637500D01*
X30236000Y-108637500D02*
X30236000Y-67362500D01*
X30236000Y-67362500D02*
X63764000Y-67362500D01*
X63764000Y-67362500D02*
X63764000Y-108637500D01*
D14*
X95610000Y-97750000D02*
G75*
G02X95610000Y-99750000I0J-1000000D01*
G01*
X95610000Y-99750000D02*
X95610000Y-101985000D01*
X95610000Y-101985000D02*
X105890000Y-101985000D01*
X105890000Y-101985000D02*
X105890000Y-95515000D01*
X105890000Y-95515000D02*
X95610000Y-95515000D01*
X95610000Y-95515000D02*
X95610000Y-97750000D01*
X83860000Y-95515000D02*
X83860000Y-97750000D01*
X94140000Y-95515000D02*
X83860000Y-95515000D01*
X94140000Y-101985000D02*
X94140000Y-95515000D01*
X83860000Y-101985000D02*
X94140000Y-101985000D01*
X83860000Y-99750000D02*
X83860000Y-101985000D01*
X83860000Y-97750000D02*
G75*
G02X83860000Y-99750000I0J-1000000D01*
G01*
D16*
X93282800Y-108400000D02*
X82682800Y-108400000D01*
X93282800Y-116000000D02*
X93282800Y-108400000D01*
X82682800Y-108400000D02*
X82682800Y-116000000D01*
X82682800Y-115600000D02*
X93282800Y-115600000D01*
X82682800Y-114500000D02*
X93282800Y-114500000D01*
X89782800Y-115600000D02*
X89782800Y-116000000D01*
X86182800Y-115600000D02*
X86182800Y-116000000D01*
X96900000Y-66750000D02*
X96900000Y-87750000D01*
X104500000Y-66750000D02*
X96900000Y-66750000D01*
X96900000Y-87750000D02*
X104500000Y-87750000D01*
X104100000Y-87750000D02*
X104100000Y-66750000D01*
X103000000Y-87750000D02*
X103000000Y-66750000D01*
X104100000Y-77250000D02*
X104500000Y-77250000D01*
X104100000Y-80750000D02*
X104500000Y-80750000D01*
X104100000Y-84250000D02*
X104500000Y-84250000D01*
X104100000Y-73750000D02*
X104500000Y-73750000D01*
X104100000Y-70250000D02*
X104500000Y-70250000D01*
D13*
X71524000Y-83459000D02*
X68222000Y-83459000D01*
X71524000Y-104541000D02*
X71524000Y-83459000D01*
X68222000Y-104541000D02*
X71524000Y-104541000D01*
X68222000Y-83459000D02*
X68222000Y-104541000D01*
X73722000Y-83459000D02*
X73722000Y-104541000D01*
X73722000Y-104541000D02*
X77024000Y-104541000D01*
X77024000Y-104541000D02*
X77024000Y-83459000D01*
X77024000Y-83459000D02*
X73722000Y-83459000D01*
D16*
X75250000Y-106400000D02*
X68250000Y-106400000D01*
X75250000Y-114000000D02*
X75250000Y-106400000D01*
X68250000Y-106400000D02*
X68250000Y-114000000D01*
X68250000Y-113600000D02*
X75250000Y-113600000D01*
X68250000Y-112500000D02*
X75250000Y-112500000D01*
X71750000Y-113600000D02*
X71750000Y-114000000D01*
D14*
X68804000Y-75954000D02*
X68804000Y-76954000D01*
X68804000Y-76954000D02*
X70904000Y-76954000D01*
X68804000Y-75954000D02*
X70904000Y-75954000D01*
X68804000Y-73414000D02*
X70904000Y-73414000D01*
X68804000Y-74414000D02*
X70904000Y-74414000D01*
X68804000Y-73414000D02*
X68804000Y-74414000D01*
X68804000Y-81034000D02*
X70904000Y-81034000D01*
X68804000Y-82034000D02*
X70904000Y-82034000D01*
X68804000Y-81034000D02*
X68804000Y-82034000D01*
D16*
X85700000Y-40850000D02*
X96300000Y-40850000D01*
X85700000Y-33250000D02*
X85700000Y-40850000D01*
X96300000Y-40850000D02*
X96300000Y-33250000D01*
X96300000Y-33650000D02*
X85700000Y-33650000D01*
X96300000Y-34750000D02*
X85700000Y-34750000D01*
X89200000Y-33650000D02*
X89200000Y-33250000D01*
X92800000Y-33650000D02*
X92800000Y-33250000D01*
D14*
X101500000Y-65820000D02*
X99500000Y-65820000D01*
X99500000Y-63680000D02*
X101500000Y-63680000D01*
X85630000Y-105400000D02*
X87630000Y-105400000D01*
X87630000Y-107540000D02*
X85630000Y-107540000D01*
X94480000Y-105400000D02*
X96480000Y-105400000D01*
X96480000Y-107540000D02*
X94480000Y-107540000D01*
X93550000Y-84930000D02*
X95550000Y-84930000D01*
X95550000Y-87070000D02*
X93550000Y-87070000D01*
X95550000Y-80070000D02*
X93550000Y-80070000D01*
X93550000Y-77930000D02*
X95550000Y-77930000D01*
X95550000Y-73070000D02*
X93550000Y-73070000D01*
X93550000Y-70930000D02*
X95550000Y-70930000D01*
D16*
X42250000Y-108900000D02*
X35250000Y-108900000D01*
X42250000Y-116500000D02*
X42250000Y-108900000D01*
X35250000Y-108900000D02*
X35250000Y-116500000D01*
X35250000Y-116100000D02*
X42250000Y-116100000D01*
X35250000Y-115000000D02*
X42250000Y-115000000D01*
X38750000Y-116100000D02*
X38750000Y-116500000D01*
D14*
X68804000Y-78494000D02*
X70904000Y-78494000D01*
X68804000Y-79494000D02*
X70904000Y-79494000D01*
X68804000Y-78494000D02*
X68804000Y-79494000D01*
D16*
X109065000Y-91440000D02*
G75*
G03X109065000Y-91440000I-1750000J0D01*
G01*
X50238095Y-48296380D02*
X50809523Y-48296380D01*
X50523809Y-49296380D02*
X50523809Y-48296380D01*
X51142857Y-49296380D02*
X51142857Y-48296380D01*
X51523809Y-48296380D01*
X51619047Y-48344000D01*
X51666666Y-48391619D01*
X51714285Y-48486857D01*
X51714285Y-48629714D01*
X51666666Y-48724952D01*
X51619047Y-48772571D01*
X51523809Y-48820190D01*
X51142857Y-48820190D01*
X52666666Y-49296380D02*
X52095238Y-49296380D01*
X52380952Y-49296380D02*
X52380952Y-48296380D01*
X52285714Y-48439238D01*
X52190476Y-48534476D01*
X52095238Y-48582095D01*
X50238095Y-37004380D02*
X50809523Y-37004380D01*
X50523809Y-38004380D02*
X50523809Y-37004380D01*
X51142857Y-38004380D02*
X51142857Y-37004380D01*
X51523809Y-37004380D01*
X51619047Y-37052000D01*
X51666666Y-37099619D01*
X51714285Y-37194857D01*
X51714285Y-37337714D01*
X51666666Y-37432952D01*
X51619047Y-37480571D01*
X51523809Y-37528190D01*
X51142857Y-37528190D01*
X52095238Y-37099619D02*
X52142857Y-37052000D01*
X52238095Y-37004380D01*
X52476190Y-37004380D01*
X52571428Y-37052000D01*
X52619047Y-37099619D01*
X52666666Y-37194857D01*
X52666666Y-37290095D01*
X52619047Y-37432952D01*
X52047619Y-38004380D01*
X52666666Y-38004380D01*
D17*
X35661333Y-31943619D02*
X35661333Y-32669333D01*
X35612952Y-32814476D01*
X35516190Y-32911238D01*
X35371047Y-32959619D01*
X35274285Y-32959619D01*
X36580571Y-31943619D02*
X36387047Y-31943619D01*
X36290285Y-31992000D01*
X36241904Y-32040380D01*
X36145142Y-32185523D01*
X36096761Y-32379047D01*
X36096761Y-32766095D01*
X36145142Y-32862857D01*
X36193523Y-32911238D01*
X36290285Y-32959619D01*
X36483809Y-32959619D01*
X36580571Y-32911238D01*
X36628952Y-32862857D01*
X36677333Y-32766095D01*
X36677333Y-32524190D01*
X36628952Y-32427428D01*
X36580571Y-32379047D01*
X36483809Y-32330666D01*
X36290285Y-32330666D01*
X36193523Y-32379047D01*
X36145142Y-32427428D01*
X36096761Y-32524190D01*
D16*
X89416666Y-82404761D02*
X89559523Y-82452380D01*
X89797619Y-82452380D01*
X89892857Y-82404761D01*
X89940476Y-82357142D01*
X89988095Y-82261904D01*
X89988095Y-82166666D01*
X89940476Y-82071428D01*
X89892857Y-82023809D01*
X89797619Y-81976190D01*
X89607142Y-81928571D01*
X89511904Y-81880952D01*
X89464285Y-81833333D01*
X89416666Y-81738095D01*
X89416666Y-81642857D01*
X89464285Y-81547619D01*
X89511904Y-81500000D01*
X89607142Y-81452380D01*
X89845238Y-81452380D01*
X89988095Y-81500000D01*
X90321428Y-81452380D02*
X90559523Y-82452380D01*
X90750000Y-81738095D01*
X90940476Y-82452380D01*
X91178571Y-81452380D01*
X91511904Y-81547619D02*
X91559523Y-81500000D01*
X91654761Y-81452380D01*
X91892857Y-81452380D01*
X91988095Y-81500000D01*
X92035714Y-81547619D01*
X92083333Y-81642857D01*
X92083333Y-81738095D01*
X92035714Y-81880952D01*
X91464285Y-82452380D01*
X92083333Y-82452380D01*
X90404761Y-69952380D02*
X90071428Y-69476190D01*
X89833333Y-69952380D02*
X89833333Y-68952380D01*
X90214285Y-68952380D01*
X90309523Y-69000000D01*
X90357142Y-69047619D01*
X90404761Y-69142857D01*
X90404761Y-69285714D01*
X90357142Y-69380952D01*
X90309523Y-69428571D01*
X90214285Y-69476190D01*
X89833333Y-69476190D01*
X90690476Y-68952380D02*
X91023809Y-69952380D01*
X91357142Y-68952380D01*
X92214285Y-69952380D02*
X91642857Y-69952380D01*
X91928571Y-69952380D02*
X91928571Y-68952380D01*
X91833333Y-69095238D01*
X91738095Y-69190476D01*
X91642857Y-69238095D01*
D17*
X43330666Y-56862857D02*
X43282285Y-56911238D01*
X43137142Y-56959619D01*
X43040380Y-56959619D01*
X42895238Y-56911238D01*
X42798476Y-56814476D01*
X42750095Y-56717714D01*
X42701714Y-56524190D01*
X42701714Y-56379047D01*
X42750095Y-56185523D01*
X42798476Y-56088761D01*
X42895238Y-55992000D01*
X43040380Y-55943619D01*
X43137142Y-55943619D01*
X43282285Y-55992000D01*
X43330666Y-56040380D01*
X44298285Y-56959619D02*
X43717714Y-56959619D01*
X44008000Y-56959619D02*
X44008000Y-55943619D01*
X43911238Y-56088761D01*
X43814476Y-56185523D01*
X43717714Y-56233904D01*
D16*
X42019404Y-49000597D02*
X42781309Y-49000597D01*
X42400357Y-49381549D02*
X42400357Y-48619645D01*
D17*
X43330666Y-44362857D02*
X43282285Y-44411238D01*
X43137142Y-44459619D01*
X43040380Y-44459619D01*
X42895238Y-44411238D01*
X42798476Y-44314476D01*
X42750095Y-44217714D01*
X42701714Y-44024190D01*
X42701714Y-43879047D01*
X42750095Y-43685523D01*
X42798476Y-43588761D01*
X42895238Y-43492000D01*
X43040380Y-43443619D01*
X43137142Y-43443619D01*
X43282285Y-43492000D01*
X43330666Y-43540380D01*
X43717714Y-43540380D02*
X43766095Y-43492000D01*
X43862857Y-43443619D01*
X44104761Y-43443619D01*
X44201523Y-43492000D01*
X44249904Y-43540380D01*
X44298285Y-43637142D01*
X44298285Y-43733904D01*
X44249904Y-43879047D01*
X43669333Y-44459619D01*
X44298285Y-44459619D01*
D16*
X42019404Y-36500597D02*
X42781309Y-36500597D01*
X42400357Y-36881549D02*
X42400357Y-36119645D01*
D17*
X45750095Y-65959619D02*
X45750095Y-64943619D01*
X45992000Y-64943619D01*
X46137142Y-64992000D01*
X46233904Y-65088761D01*
X46282285Y-65185523D01*
X46330666Y-65379047D01*
X46330666Y-65524190D01*
X46282285Y-65717714D01*
X46233904Y-65814476D01*
X46137142Y-65911238D01*
X45992000Y-65959619D01*
X45750095Y-65959619D01*
X46717714Y-65040380D02*
X46766095Y-64992000D01*
X46862857Y-64943619D01*
X47104761Y-64943619D01*
X47201523Y-64992000D01*
X47249904Y-65040380D01*
X47298285Y-65137142D01*
X47298285Y-65233904D01*
X47249904Y-65379047D01*
X46669333Y-65959619D01*
X47298285Y-65959619D01*
X73411333Y-67193619D02*
X73411333Y-67919333D01*
X73362952Y-68064476D01*
X73266190Y-68161238D01*
X73121047Y-68209619D01*
X73024285Y-68209619D01*
X74378952Y-67193619D02*
X73895142Y-67193619D01*
X73846761Y-67677428D01*
X73895142Y-67629047D01*
X73991904Y-67580666D01*
X74233809Y-67580666D01*
X74330571Y-67629047D01*
X74378952Y-67677428D01*
X74427333Y-67774190D01*
X74427333Y-68016095D01*
X74378952Y-68112857D01*
X74330571Y-68161238D01*
X74233809Y-68209619D01*
X73991904Y-68209619D01*
X73895142Y-68161238D01*
X73846761Y-68112857D01*
X63161333Y-38443619D02*
X63161333Y-39169333D01*
X63112952Y-39314476D01*
X63016190Y-39411238D01*
X62871047Y-39459619D01*
X62774285Y-39459619D01*
X63548380Y-38443619D02*
X64225714Y-38443619D01*
X63790285Y-39459619D01*
X64685333Y-65562238D02*
X64830476Y-65610619D01*
X65072380Y-65610619D01*
X65169142Y-65562238D01*
X65217523Y-65513857D01*
X65265904Y-65417095D01*
X65265904Y-65320333D01*
X65217523Y-65223571D01*
X65169142Y-65175190D01*
X65072380Y-65126809D01*
X64878857Y-65078428D01*
X64782095Y-65030047D01*
X64733714Y-64981666D01*
X64685333Y-64884904D01*
X64685333Y-64788142D01*
X64733714Y-64691380D01*
X64782095Y-64643000D01*
X64878857Y-64594619D01*
X65120761Y-64594619D01*
X65265904Y-64643000D01*
X65604571Y-64594619D02*
X65846476Y-65610619D01*
X66040000Y-64884904D01*
X66233523Y-65610619D01*
X66475428Y-64594619D01*
X67394666Y-65610619D02*
X66814095Y-65610619D01*
X67104380Y-65610619D02*
X67104380Y-64594619D01*
X67007619Y-64739761D01*
X66910857Y-64836523D01*
X66814095Y-64884904D01*
X60975904Y-102943619D02*
X61556476Y-102943619D01*
X61266190Y-103959619D02*
X61266190Y-102943619D01*
X62427333Y-103959619D02*
X61846761Y-103959619D01*
X62137047Y-103959619D02*
X62137047Y-102943619D01*
X62040285Y-103088761D01*
X61943523Y-103185523D01*
X61846761Y-103233904D01*
X106413904Y-101443619D02*
X106413904Y-102266095D01*
X106462285Y-102362857D01*
X106510666Y-102411238D01*
X106607428Y-102459619D01*
X106800952Y-102459619D01*
X106897714Y-102411238D01*
X106946095Y-102362857D01*
X106994476Y-102266095D01*
X106994476Y-101443619D01*
X107913714Y-101782285D02*
X107913714Y-102459619D01*
X107671809Y-101395238D02*
X107429904Y-102120952D01*
X108058857Y-102120952D01*
X81775904Y-101443619D02*
X81775904Y-102266095D01*
X81824285Y-102362857D01*
X81872666Y-102411238D01*
X81969428Y-102459619D01*
X82162952Y-102459619D01*
X82259714Y-102411238D01*
X82308095Y-102362857D01*
X82356476Y-102266095D01*
X82356476Y-101443619D01*
X82743523Y-101443619D02*
X83372476Y-101443619D01*
X83033809Y-101830666D01*
X83178952Y-101830666D01*
X83275714Y-101879047D01*
X83324095Y-101927428D01*
X83372476Y-102024190D01*
X83372476Y-102266095D01*
X83324095Y-102362857D01*
X83275714Y-102411238D01*
X83178952Y-102459619D01*
X82888666Y-102459619D01*
X82791904Y-102411238D01*
X82743523Y-102362857D01*
X91101333Y-107012619D02*
X91101333Y-107738333D01*
X91052952Y-107883476D01*
X90956190Y-107980238D01*
X90811047Y-108028619D01*
X90714285Y-108028619D01*
X91488380Y-107012619D02*
X92117333Y-107012619D01*
X91778666Y-107399666D01*
X91923809Y-107399666D01*
X92020571Y-107448047D01*
X92068952Y-107496428D01*
X92117333Y-107593190D01*
X92117333Y-107835095D01*
X92068952Y-107931857D01*
X92020571Y-107980238D01*
X91923809Y-108028619D01*
X91633523Y-108028619D01*
X91536761Y-107980238D01*
X91488380Y-107931857D01*
X99661333Y-88343619D02*
X99661333Y-89069333D01*
X99612952Y-89214476D01*
X99516190Y-89311238D01*
X99371047Y-89359619D01*
X99274285Y-89359619D01*
X100580571Y-88682285D02*
X100580571Y-89359619D01*
X100338666Y-88295238D02*
X100096761Y-89020952D01*
X100725714Y-89020952D01*
X67709619Y-88830571D02*
X67225809Y-89169238D01*
X67709619Y-89411142D02*
X66693619Y-89411142D01*
X66693619Y-89024095D01*
X66742000Y-88927333D01*
X66790380Y-88878952D01*
X66887142Y-88830571D01*
X67032285Y-88830571D01*
X67129047Y-88878952D01*
X67177428Y-88927333D01*
X67225809Y-89024095D01*
X67225809Y-89411142D01*
X67709619Y-87911333D02*
X67709619Y-88395142D01*
X66693619Y-88395142D01*
X67709619Y-87040476D02*
X67709619Y-87621047D01*
X67709619Y-87330761D02*
X66693619Y-87330761D01*
X66838761Y-87427523D01*
X66935523Y-87524285D01*
X66983904Y-87621047D01*
X78709619Y-88830571D02*
X78225809Y-89169238D01*
X78709619Y-89411142D02*
X77693619Y-89411142D01*
X77693619Y-89024095D01*
X77742000Y-88927333D01*
X77790380Y-88878952D01*
X77887142Y-88830571D01*
X78032285Y-88830571D01*
X78129047Y-88878952D01*
X78177428Y-88927333D01*
X78225809Y-89024095D01*
X78225809Y-89411142D01*
X78709619Y-87911333D02*
X78709619Y-88395142D01*
X77693619Y-88395142D01*
X77790380Y-87621047D02*
X77742000Y-87572666D01*
X77693619Y-87475904D01*
X77693619Y-87234000D01*
X77742000Y-87137238D01*
X77790380Y-87088857D01*
X77887142Y-87040476D01*
X77983904Y-87040476D01*
X78129047Y-87088857D01*
X78709619Y-87669428D01*
X78709619Y-87040476D01*
X71411333Y-104943619D02*
X71411333Y-105669333D01*
X71362952Y-105814476D01*
X71266190Y-105911238D01*
X71121047Y-105959619D01*
X71024285Y-105959619D01*
X72427333Y-105959619D02*
X71846761Y-105959619D01*
X72137047Y-105959619D02*
X72137047Y-104943619D01*
X72040285Y-105088761D01*
X71943523Y-105185523D01*
X71846761Y-105233904D01*
D16*
X61491904Y-78430380D02*
X61491904Y-77430380D01*
X61730000Y-77430380D01*
X61872857Y-77478000D01*
X61968095Y-77573238D01*
X62015714Y-77668476D01*
X62063333Y-77858952D01*
X62063333Y-78001809D01*
X62015714Y-78192285D01*
X61968095Y-78287523D01*
X61872857Y-78382761D01*
X61730000Y-78430380D01*
X61491904Y-78430380D01*
X62396666Y-77430380D02*
X63063333Y-77430380D01*
X62634761Y-78430380D01*
X61491904Y-76144380D02*
X61491904Y-75144380D01*
X61730000Y-75144380D01*
X61872857Y-75192000D01*
X61968095Y-75287238D01*
X62015714Y-75382476D01*
X62063333Y-75572952D01*
X62063333Y-75715809D01*
X62015714Y-75906285D01*
X61968095Y-76001523D01*
X61872857Y-76096761D01*
X61730000Y-76144380D01*
X61491904Y-76144380D01*
X62634761Y-75572952D02*
X62539523Y-75525333D01*
X62491904Y-75477714D01*
X62444285Y-75382476D01*
X62444285Y-75334857D01*
X62491904Y-75239619D01*
X62539523Y-75192000D01*
X62634761Y-75144380D01*
X62825238Y-75144380D01*
X62920476Y-75192000D01*
X62968095Y-75239619D01*
X63015714Y-75334857D01*
X63015714Y-75382476D01*
X62968095Y-75477714D01*
X62920476Y-75525333D01*
X62825238Y-75572952D01*
X62634761Y-75572952D01*
X62539523Y-75620571D01*
X62491904Y-75668190D01*
X62444285Y-75763428D01*
X62444285Y-75953904D01*
X62491904Y-76049142D01*
X62539523Y-76096761D01*
X62634761Y-76144380D01*
X62825238Y-76144380D01*
X62920476Y-76096761D01*
X62968095Y-76049142D01*
X63015714Y-75953904D01*
X63015714Y-75763428D01*
X62968095Y-75668190D01*
X62920476Y-75620571D01*
X62825238Y-75572952D01*
X61491904Y-83510380D02*
X61491904Y-82510380D01*
X61730000Y-82510380D01*
X61872857Y-82558000D01*
X61968095Y-82653238D01*
X62015714Y-82748476D01*
X62063333Y-82938952D01*
X62063333Y-83081809D01*
X62015714Y-83272285D01*
X61968095Y-83367523D01*
X61872857Y-83462761D01*
X61730000Y-83510380D01*
X61491904Y-83510380D01*
X62539523Y-83510380D02*
X62730000Y-83510380D01*
X62825238Y-83462761D01*
X62872857Y-83415142D01*
X62968095Y-83272285D01*
X63015714Y-83081809D01*
X63015714Y-82700857D01*
X62968095Y-82605619D01*
X62920476Y-82558000D01*
X62825238Y-82510380D01*
X62634761Y-82510380D01*
X62539523Y-82558000D01*
X62491904Y-82605619D01*
X62444285Y-82700857D01*
X62444285Y-82938952D01*
X62491904Y-83034190D01*
X62539523Y-83081809D01*
X62634761Y-83129428D01*
X62825238Y-83129428D01*
X62920476Y-83081809D01*
X62968095Y-83034190D01*
X63015714Y-82938952D01*
X84166666Y-37202380D02*
X84166666Y-37916666D01*
X84119047Y-38059523D01*
X84023809Y-38154761D01*
X83880952Y-38202380D01*
X83785714Y-38202380D01*
X84785714Y-37630952D02*
X84690476Y-37583333D01*
X84642857Y-37535714D01*
X84595238Y-37440476D01*
X84595238Y-37392857D01*
X84642857Y-37297619D01*
X84690476Y-37250000D01*
X84785714Y-37202380D01*
X84976190Y-37202380D01*
X85071428Y-37250000D01*
X85119047Y-37297619D01*
X85166666Y-37392857D01*
X85166666Y-37440476D01*
X85119047Y-37535714D01*
X85071428Y-37583333D01*
X84976190Y-37630952D01*
X84785714Y-37630952D01*
X84690476Y-37678571D01*
X84642857Y-37726190D01*
X84595238Y-37821428D01*
X84595238Y-38011904D01*
X84642857Y-38107142D01*
X84690476Y-38154761D01*
X84785714Y-38202380D01*
X84976190Y-38202380D01*
X85071428Y-38154761D01*
X85119047Y-38107142D01*
X85166666Y-38011904D01*
X85166666Y-37821428D01*
X85119047Y-37726190D01*
X85071428Y-37678571D01*
X84976190Y-37630952D01*
X100333333Y-63202380D02*
X99857142Y-63202380D01*
X99857142Y-62202380D01*
X100619047Y-62297619D02*
X100666666Y-62250000D01*
X100761904Y-62202380D01*
X101000000Y-62202380D01*
X101095238Y-62250000D01*
X101142857Y-62297619D01*
X101190476Y-62392857D01*
X101190476Y-62488095D01*
X101142857Y-62630952D01*
X100571428Y-63202380D01*
X101190476Y-63202380D01*
X83213333Y-106922380D02*
X82880000Y-106446190D01*
X82641904Y-106922380D02*
X82641904Y-105922380D01*
X83022857Y-105922380D01*
X83118095Y-105970000D01*
X83165714Y-106017619D01*
X83213333Y-106112857D01*
X83213333Y-106255714D01*
X83165714Y-106350952D01*
X83118095Y-106398571D01*
X83022857Y-106446190D01*
X82641904Y-106446190D01*
X84070476Y-105922380D02*
X83880000Y-105922380D01*
X83784761Y-105970000D01*
X83737142Y-106017619D01*
X83641904Y-106160476D01*
X83594285Y-106350952D01*
X83594285Y-106731904D01*
X83641904Y-106827142D01*
X83689523Y-106874761D01*
X83784761Y-106922380D01*
X83975238Y-106922380D01*
X84070476Y-106874761D01*
X84118095Y-106827142D01*
X84165714Y-106731904D01*
X84165714Y-106493809D01*
X84118095Y-106398571D01*
X84070476Y-106350952D01*
X83975238Y-106303333D01*
X83784761Y-106303333D01*
X83689523Y-106350952D01*
X83641904Y-106398571D01*
X83594285Y-106493809D01*
X98417142Y-106922380D02*
X98083809Y-106446190D01*
X97845714Y-106922380D02*
X97845714Y-105922380D01*
X98226666Y-105922380D01*
X98321904Y-105970000D01*
X98369523Y-106017619D01*
X98417142Y-106112857D01*
X98417142Y-106255714D01*
X98369523Y-106350952D01*
X98321904Y-106398571D01*
X98226666Y-106446190D01*
X97845714Y-106446190D01*
X99369523Y-106922380D02*
X98798095Y-106922380D01*
X99083809Y-106922380D02*
X99083809Y-105922380D01*
X98988571Y-106065238D01*
X98893333Y-106160476D01*
X98798095Y-106208095D01*
X99750476Y-106017619D02*
X99798095Y-105970000D01*
X99893333Y-105922380D01*
X100131428Y-105922380D01*
X100226666Y-105970000D01*
X100274285Y-106017619D01*
X100321904Y-106112857D01*
X100321904Y-106208095D01*
X100274285Y-106350952D01*
X99702857Y-106922380D01*
X100321904Y-106922380D01*
X93907142Y-84602380D02*
X93573809Y-84126190D01*
X93335714Y-84602380D02*
X93335714Y-83602380D01*
X93716666Y-83602380D01*
X93811904Y-83650000D01*
X93859523Y-83697619D01*
X93907142Y-83792857D01*
X93907142Y-83935714D01*
X93859523Y-84030952D01*
X93811904Y-84078571D01*
X93716666Y-84126190D01*
X93335714Y-84126190D01*
X94859523Y-84602380D02*
X94288095Y-84602380D01*
X94573809Y-84602380D02*
X94573809Y-83602380D01*
X94478571Y-83745238D01*
X94383333Y-83840476D01*
X94288095Y-83888095D01*
X95192857Y-83602380D02*
X95811904Y-83602380D01*
X95478571Y-83983333D01*
X95621428Y-83983333D01*
X95716666Y-84030952D01*
X95764285Y-84078571D01*
X95811904Y-84173809D01*
X95811904Y-84411904D01*
X95764285Y-84507142D01*
X95716666Y-84554761D01*
X95621428Y-84602380D01*
X95335714Y-84602380D01*
X95240476Y-84554761D01*
X95192857Y-84507142D01*
X93907142Y-77602380D02*
X93573809Y-77126190D01*
X93335714Y-77602380D02*
X93335714Y-76602380D01*
X93716666Y-76602380D01*
X93811904Y-76650000D01*
X93859523Y-76697619D01*
X93907142Y-76792857D01*
X93907142Y-76935714D01*
X93859523Y-77030952D01*
X93811904Y-77078571D01*
X93716666Y-77126190D01*
X93335714Y-77126190D01*
X94859523Y-77602380D02*
X94288095Y-77602380D01*
X94573809Y-77602380D02*
X94573809Y-76602380D01*
X94478571Y-76745238D01*
X94383333Y-76840476D01*
X94288095Y-76888095D01*
X95716666Y-76602380D02*
X95526190Y-76602380D01*
X95430952Y-76650000D01*
X95383333Y-76697619D01*
X95288095Y-76840476D01*
X95240476Y-77030952D01*
X95240476Y-77411904D01*
X95288095Y-77507142D01*
X95335714Y-77554761D01*
X95430952Y-77602380D01*
X95621428Y-77602380D01*
X95716666Y-77554761D01*
X95764285Y-77507142D01*
X95811904Y-77411904D01*
X95811904Y-77173809D01*
X95764285Y-77078571D01*
X95716666Y-77030952D01*
X95621428Y-76983333D01*
X95430952Y-76983333D01*
X95335714Y-77030952D01*
X95288095Y-77078571D01*
X95240476Y-77173809D01*
X93907142Y-70602380D02*
X93573809Y-70126190D01*
X93335714Y-70602380D02*
X93335714Y-69602380D01*
X93716666Y-69602380D01*
X93811904Y-69650000D01*
X93859523Y-69697619D01*
X93907142Y-69792857D01*
X93907142Y-69935714D01*
X93859523Y-70030952D01*
X93811904Y-70078571D01*
X93716666Y-70126190D01*
X93335714Y-70126190D01*
X94859523Y-70602380D02*
X94288095Y-70602380D01*
X94573809Y-70602380D02*
X94573809Y-69602380D01*
X94478571Y-69745238D01*
X94383333Y-69840476D01*
X94288095Y-69888095D01*
X95192857Y-69602380D02*
X95859523Y-69602380D01*
X95430952Y-70602380D01*
X38416666Y-107202380D02*
X38416666Y-107916666D01*
X38369047Y-108059523D01*
X38273809Y-108154761D01*
X38130952Y-108202380D01*
X38035714Y-108202380D01*
X38845238Y-107297619D02*
X38892857Y-107250000D01*
X38988095Y-107202380D01*
X39226190Y-107202380D01*
X39321428Y-107250000D01*
X39369047Y-107297619D01*
X39416666Y-107392857D01*
X39416666Y-107488095D01*
X39369047Y-107630952D01*
X38797619Y-108202380D01*
X39416666Y-108202380D01*
X60507714Y-80970380D02*
X60507714Y-79970380D01*
X60745809Y-79970380D01*
X60888666Y-80018000D01*
X60983904Y-80113238D01*
X61031523Y-80208476D01*
X61079142Y-80398952D01*
X61079142Y-80541809D01*
X61031523Y-80732285D01*
X60983904Y-80827523D01*
X60888666Y-80922761D01*
X60745809Y-80970380D01*
X60507714Y-80970380D01*
X62031523Y-80970380D02*
X61460095Y-80970380D01*
X61745809Y-80970380D02*
X61745809Y-79970380D01*
X61650571Y-80113238D01*
X61555333Y-80208476D01*
X61460095Y-80256095D01*
X62650571Y-79970380D02*
X62745809Y-79970380D01*
X62841047Y-80018000D01*
X62888666Y-80065619D01*
X62936285Y-80160857D01*
X62983904Y-80351333D01*
X62983904Y-80589428D01*
X62936285Y-80779904D01*
X62888666Y-80875142D01*
X62841047Y-80922761D01*
X62745809Y-80970380D01*
X62650571Y-80970380D01*
X62555333Y-80922761D01*
X62507714Y-80875142D01*
X62460095Y-80779904D01*
X62412476Y-80589428D01*
X62412476Y-80351333D01*
X62460095Y-80160857D01*
X62507714Y-80065619D01*
X62555333Y-80018000D01*
X62650571Y-79970380D01*
X106053095Y-88142380D02*
X106624523Y-88142380D01*
X106338809Y-89142380D02*
X106338809Y-88142380D01*
X106957857Y-89142380D02*
X106957857Y-88142380D01*
X107338809Y-88142380D01*
X107434047Y-88190000D01*
X107481666Y-88237619D01*
X107529285Y-88332857D01*
X107529285Y-88475714D01*
X107481666Y-88570952D01*
X107434047Y-88618571D01*
X107338809Y-88666190D01*
X106957857Y-88666190D01*
X107862619Y-88142380D02*
X108481666Y-88142380D01*
X108148333Y-88523333D01*
X108291190Y-88523333D01*
X108386428Y-88570952D01*
X108434047Y-88618571D01*
X108481666Y-88713809D01*
X108481666Y-88951904D01*
X108434047Y-89047142D01*
X108386428Y-89094761D01*
X108291190Y-89142380D01*
X108005476Y-89142380D01*
X107910238Y-89094761D01*
X107862619Y-89047142D01*
M02*
